<?xml version="1.0" standalone="no"?>
<!DOCTYPE svg PUBLIC "-//W3C//DTD SVG 1.1//EN" "http://www.w3.org/Graphics/SVG/1.1/DTD/svg11.dtd" >
<svg xmlns="http://www.w3.org/2000/svg" xmlns:xlink="http://www.w3.org/1999/xlink" version="1.1">
<metadata>
Created by FontForge 20170731 at Thu Apr  2 17:24:31 2020
 By Aleksey,,,
Copyright 2015 Google LLC. All Rights Reserved.
</metadata>
<defs>
<font id="GoogleSansText-Medium" horiz-adv-x="600" >
  <font-face 
    font-family="Google Sans Text Medium"
    font-weight="500"
    font-stretch="normal"
    units-per-em="1000"
    panose-1="2 11 6 3 3 5 2 4 2 4"
    ascent="800"
    descent="-200"
    x-height="526"
    cap-height="716"
    bbox="-397 -278 3284 1109"
    underline-thickness="84"
    underline-position="-286"
    unicode-range="U+0002-FFFD"
  />
<missing-glyph horiz-adv-x="585" 
d="M80 0v716h424v-716h-424zM142 58h300v600h-300v-600z" />
    <glyph glyph-name="G.logo" unicode="Glogoligature" horiz-adv-x="861" 
d="M460 -16q-85 0 -160 32t-132.5 88.5t-90.5 130.5t-33 159t33 159t90.5 130.5t132.5 88.5t160 32q94 0 162.5 -32.5t118.5 -80.5l-79 -79q-36 34 -85.5 57t-116.5 23q-62 0 -115.5 -23t-93.5 -64t-62.5 -95t-22.5 -116t22.5 -116t62.5 -95t93.5 -64t115.5 -23
q80 0 129 26.5t78 55.5q24 24 39.5 59t21.5 82h-268v112h377q6 -30 6 -70q0 -42 -9 -88.5t-30 -91.5t-58 -82q-54 -56 -124 -85.5t-162 -29.5z" />
    <glyph glyph-name="e.logo" unicode="elogoligature" horiz-adv-x="514" 
d="M289 -16q-75 0 -134 35t-93.5 95t-34.5 134q0 79 34 138t90.5 92.5t124.5 33.5q51 0 90 -17.5t66 -44.5t44.5 -55.5t25.5 -50.5l12 -30l-353 -146q41 -80 128 -80q44 0 76 20t54 53l90 -60q-14 -21 -43 -48.5t-72.5 -48t-104.5 -20.5zM142 256l236 98q-10 25 -36.5 40.5
t-61.5 15.5q-30 0 -62.5 -17t-54.5 -51.5t-21 -85.5z" />
    <glyph glyph-name="g.logo" unicode="glogoligature" horiz-adv-x="566" 
d="M277 -253q-64 0 -111 24.5t-77.5 60.5t-45.5 71l101 42q9 -21 26.5 -43t44.5 -36.5t62 -14.5q65 0 103 39.5t38 115.5v38h-4q-19 -24 -55.5 -42t-83.5 -18q-49 0 -94.5 20t-81.5 56t-56.5 84t-20.5 103q0 56 20.5 104t56.5 84.5t81.5 56.5t94.5 20q47 0 83.5 -18
t55.5 -41h4v43h110v-474q0 -97 -34.5 -158t-91.5 -89t-125 -28zM285 88q40 0 71.5 20.5t50.5 56.5t19 82q0 47 -19 83t-50.5 57t-71.5 21t-73.5 -21t-53.5 -57t-20 -83q0 -46 20 -82t53.5 -56.5t73.5 -20.5z" />
    <glyph glyph-name="l.logo" unicode="llogoligature" horiz-adv-x="187" 
d="M42 0v776h116v-776h-116z" />
    <glyph glyph-name="o.logo" unicode="ologoligature" horiz-adv-x="578" 
d="M287 -16q-73 0 -133 34.5t-96 94t-36 135.5q0 77 36 136.5t96 93.5t133 34t133 -34t96 -93.5t36 -136.5q0 -76 -36 -135.5t-96 -94t-133 -34.5zM287 88q40 0 74 20.5t54.5 56.5t20.5 83q0 48 -20.5 84t-54.5 56t-74 20t-74 -20t-54.5 -56t-20.5 -84q0 -47 20.5 -83
t54.5 -56.5t74 -20.5z" />
    <glyph glyph-name="f_b" unicode="fb" horiz-adv-x="998" 
d="M721 -16q-59 0 -100 24.5t-62 58.5h-6v-67h-101v676h-153q-33 0 -53 -20t-20 -58v-72h122v-94h-122v-432h-107v432h-90v94h90v79q0 81 46.5 126t126.5 45h267v-242l-6 -75h6q19 32 61.5 57.5t101.5 25.5q68 0 121 -34t83 -96.5t30 -148.5t-30 -148.5t-83 -96.5t-122 -34z
M701 83q64 0 105.5 46.5t41.5 133.5t-41.5 133.5t-105.5 46.5t-106 -46.5t-42 -133.5t42 -133.5t106 -46.5z" />
    <glyph glyph-name="f_f" unicode="ff" horiz-adv-x="722" 
d="M119 0v432h-90v94h90v95q0 81 48 126t121 45q26 0 45 -3t32 -8v-104q-13 6 -29 10.5t-37 4.5q-32 0 -52.5 -20t-20.5 -58v-88h226v95q0 81 48.5 126t121.5 45q25 0 44 -3t32 -8v-104q-13 6 -28.5 10.5t-36.5 4.5q-33 0 -53.5 -20t-20.5 -58v-88h122v-94h-122v-432h-107
v432h-226v-432h-107z" />
    <glyph glyph-name="f_f_b" unicode="ffb" horiz-adv-x="1331" 
d="M1054 -16q-59 0 -100 24.5t-62 58.5h-6v-67h-101v676h-152q-34 0 -54 -20t-20 -58v-72h122v-94h-122v-432h-107v432h-226v-432h-107v432h-90v94h90v95q0 81 48 126t121 45q26 0 45 -3t32 -8v-104q-13 6 -29 10.5t-37 4.5q-32 0 -52.5 -20t-20.5 -58v-88h226v79
q0 81 47 126t126 45h267v-242l-6 -75h6q19 32 61.5 57.5t101.5 25.5q68 0 121 -34t83 -96.5t30 -148.5t-30 -148.5t-83 -96.5t-122 -34zM1035 83q63 0 105 46.5t42 133.5t-42 133.5t-105 46.5q-64 0 -106.5 -46.5t-42.5 -133.5t42.5 -133.5t106.5 -46.5z" />
    <glyph glyph-name="f_f_h" unicode="ffh" horiz-adv-x="1312" 
d="M119 0v432h-90v94h90v95q0 81 48 126t121 45q26 0 45 -3t32 -8v-104q-13 6 -29 10.5t-37 4.5q-32 0 -52.5 -20t-20.5 -58v-88h226v79q0 81 47 126t126 45h267v-242l-6 -79h6q21 37 64.5 62t97.5 25q93 0 141.5 -55t48.5 -145v-342h-107v328q0 55 -30 85t-82 30
q-39 0 -69 -20.5t-47 -55t-17 -77.5v-290h-107v676h-152q-34 0 -54 -20t-20 -58v-72h122v-94h-122v-432h-107v432h-226v-432h-107z" />
    <glyph glyph-name="f_f_i" unicode="ffi" horiz-adv-x="965" 
d="M119 0v432h-90v94h90v95q0 81 48 126t121 45q26 0 45 -3t32 -8v-104q-13 6 -29 10.5t-37 4.5q-32 0 -52.5 -20t-20.5 -58v-88h226v95q0 81 48.5 126t121.5 45q25 0 44 -3t32 -8v-104q-13 6 -28.5 10.5t-36.5 4.5q-33 0 -53.5 -20t-20.5 -58v-88h333v-526h-107v432h-226
v-432h-107v432h-226v-432h-107zM839 635q-30 0 -51.5 21.5t-21.5 51.5t21.5 51.5t51.5 21.5t51.5 -21.5t21.5 -51.5t-21.5 -51.5t-51.5 -21.5z" />
    <glyph glyph-name="f_f_j" unicode="ffj" horiz-adv-x="965" 
d="M746 -226q-31 0 -57 7v103q9 -5 21 -8.5t24 -3.5q51 0 51 66v494h-226v-432h-107v432h-226v-432h-107v432h-90v94h90v95q0 81 48 126t121 45q26 0 45 -3t32 -8v-104q-13 6 -29 10.5t-37 4.5q-32 0 -52.5 -20t-20.5 -58v-88h226v95q0 81 48.5 126t121.5 45q25 0 44 -3
t32 -8v-104q-13 6 -28.5 10.5t-36.5 4.5q-33 0 -53.5 -20t-20.5 -58v-88h333v-588q0 -87 -41 -125.5t-105 -38.5zM839 635q-30 0 -51.5 21.5t-21.5 51.5t21.5 51.5t51.5 21.5t51.5 -21.5t21.5 -51.5t-21.5 -51.5t-51.5 -21.5z" />
    <glyph glyph-name="f_f_k" unicode="ffk" horiz-adv-x="1247" 
d="M119 0v432h-90v94h90v95q0 81 48 126t121 45q26 0 45 -3t32 -8v-104q-13 6 -29 10.5t-37 4.5q-32 0 -52.5 -20t-20.5 -58v-88h226v79q0 81 47 126t126 45h267v-464h4l204 214h128v-6l-192 -197l197 -317v-6h-122l-151 244l-68 -69v-175h-107v676h-152q-34 0 -54 -20
t-20 -58v-72h122v-94h-122v-432h-107v432h-226v-432h-107z" />
    <glyph glyph-name="f_f_l" unicode="ffl" horiz-adv-x="966" 
d="M119 0v432h-90v94h90v95q0 81 48 126t121 45q26 0 45 -3t32 -8v-104q-13 6 -29 10.5t-37 4.5q-32 0 -52.5 -20t-20.5 -58v-88h226v79q0 81 47 126t126 45h267v-776h-107v676h-152q-34 0 -54 -20t-20 -58v-72h122v-94h-122v-432h-107v432h-226v-432h-107z" />
    <glyph glyph-name="f_f_t" unicode="fft" horiz-adv-x="1055" 
d="M936 -8q-69 0 -110 41.5t-41 114.5v284h-226v-432h-107v432h-226v-432h-107v432h-90v94h90v95q0 81 48 126t121 45q26 0 45 -3t32 -8v-104q-13 6 -29 10.5t-37 4.5q-32 0 -52.5 -20t-20.5 -58v-88h226v95q0 81 48.5 126t121.5 45q25 0 44 -3t32 -8v-104q-13 6 -28.5 10.5
t-36.5 4.5q-33 0 -53.5 -20t-20.5 -58v-88h226v144h107v-144h120v-94h-120v-265q0 -74 65 -74q18 0 30.5 4.5t26.5 12.5v-104q-16 -6 -34.5 -10t-43.5 -4z" />
    <glyph glyph-name="f_h" unicode="fh" horiz-adv-x="979" 
d="M119 0v432h-90v94h90v79q0 81 46.5 126t126.5 45h267v-242l-6 -79h6q20 37 64 62t98 25q93 0 141.5 -55t48.5 -145v-342h-108v328q0 55 -29.5 85t-81.5 30q-39 0 -69 -20.5t-47 -55t-17 -77.5v-290h-107v676h-153q-33 0 -53 -20t-20 -58v-72h122v-94h-122v-432h-107z" />
    <glyph glyph-name="f_i" unicode="fi" horiz-adv-x="632" 
d="M119 0v432h-90v94h90v95q0 81 48 126t121 45q26 0 45 -3t32 -8v-104q-13 6 -29 10.5t-37 4.5q-32 0 -52.5 -20t-20.5 -58v-88h333v-526h-107v432h-226v-432h-107zM506 635q-31 0 -52 21.5t-21 51.5t21 51.5t52 21.5q30 0 51.5 -21.5t21.5 -51.5t-21.5 -51.5t-51.5 -21.5z
" />
    <glyph glyph-name="f_j" unicode="fj" horiz-adv-x="632" 
d="M413 -226q-31 0 -57 7v103q9 -5 20.5 -8.5t24.5 -3.5q51 0 51 66v494h-226v-432h-107v432h-90v94h90v95q0 81 48 126t121 45q26 0 45 -3t32 -8v-104q-13 6 -29 10.5t-37 4.5q-32 0 -52.5 -20t-20.5 -58v-88h333v-588q0 -87 -41 -125.5t-105 -38.5zM506 635
q-31 0 -52 21.5t-21 51.5t21 51.5t52 21.5q30 0 51.5 -21.5t21.5 -51.5t-21.5 -51.5t-51.5 -21.5z" />
    <glyph glyph-name="f_k" unicode="fk" horiz-adv-x="913" 
d="M119 0v432h-90v94h90v79q0 81 46.5 126t126.5 45h267v-464h4l203 214h128v-6l-192 -197l198 -317v-6h-122l-151 244l-68 -69v-175h-107v676h-153q-33 0 -53 -20t-20 -58v-72h122v-94h-122v-432h-107z" />
    <glyph glyph-name="f_l" unicode="fl" horiz-adv-x="633" 
d="M119 0v432h-90v94h90v79q0 81 46.5 126t126.5 45h267v-776h-107v676h-153q-33 0 -53 -20t-20 -58v-72h122v-94h-122v-432h-107z" />
    <glyph glyph-name="f_t" unicode="ft" horiz-adv-x="722" 
d="M603 -8q-69 0 -110 41.5t-41 114.5v284h-226v-432h-107v432h-90v94h90v95q0 81 48 126t121 45q26 0 45 -3t32 -8v-104q-13 6 -29 10.5t-37 4.5q-32 0 -52.5 -20t-20.5 -58v-88h226v144h107v-144h120v-94h-120v-265q0 -74 65 -74q17 0 30 4.5t27 12.5v-104
q-16 -6 -34.5 -10t-43.5 -4z" />
    <glyph glyph-name="r_f" unicode="rf" horiz-adv-x="789" 
d="M519 0v432h-90v94h90v95q0 81 48.5 126t121.5 45q25 0 44 -3t32 -8v-104q-13 6 -28.5 10.5t-36.5 4.5q-33 0 -53.5 -20t-20.5 -58v-88h122v-94h-122v-432h-107zM73 0v526h101v-71h6q16 38 52 62t82 24q19 0 31 -2t21 -5v-109q-30 14 -68 14q-50 0 -84 -40t-34 -100v-299
h-107z" />
    <glyph glyph-name="r_f_f" unicode="rff" horiz-adv-x="1122" 
d="M73 0v526h101v-71h6q16 38 52 62t82 24q19 0 31 -2t21 -5v-109q-30 14 -68 14q-50 0 -84 -40t-34 -100v-299h-107zM519 0v432h-90v94h90v95q0 81 48 126t121 45q26 0 45 -3t32 -8v-104q-13 6 -29 10.5t-37 4.5q-32 0 -52.5 -20t-20.5 -58v-88h226v95q0 81 48.5 126
t121.5 45q25 0 44 -3t32 -8v-104q-13 6 -28.5 10.5t-36.5 4.5q-33 0 -53.5 -20t-20.5 -58v-88h122v-94h-122v-432h-107v432h-226v-432h-107z" />
    <glyph glyph-name="r_t" unicode="rt" horiz-adv-x="797" 
d="M73 0v526h101v-71h6q16 38 52 62t82 24q19 0 31 -2t21 -5v-109q-30 14 -68 14q-50 0 -84 -40t-34 -100v-299h-107zM678 -8q-69 0 -110 41.5t-41 114.5v284h-85v94h85v144h107v-144h120v-94h-120v-265q0 -74 65 -74q17 0 30 4.5t27 12.5v-104q-16 -6 -34.5 -10t-43.5 -4z
" />
    <glyph glyph-name="t_f" unicode="tf" horiz-adv-x="720" 
d="M268 -8q-69 0 -110 41.5t-41 114.5v284h-85v94h85v144h107v-144h226v95q0 81 48.5 126t121.5 45q25 0 44 -3t33 -8v-104q-13 6 -29 10.5t-37 4.5q-32 0 -52.5 -20t-20.5 -58v-88h122v-94h-122v-432h-108v432h-226v-265q0 -74 65 -74q17 0 30 4.5t27 12.5v-104
q-16 -6 -34.5 -10t-43.5 -4z" />
    <glyph glyph-name="t_t" unicode="tt" horiz-adv-x="720" 
d="M268 -7q-69 0 -110 41t-41 115v283h-85v94h85v144h107v-144h226v144h108v-144h119v-94h-119v-265q0 -74 64 -74q18 0 31 4.5t27 12.5v-103q-17 -7 -35.5 -10.5t-42.5 -3.5q-70 0 -111 41t-41 115v283h-226v-265q0 -74 65 -74q17 0 30 4.5t27 12.5v-103
q-16 -7 -34.5 -10.5t-43.5 -3.5z" />
    <glyph glyph-name="Google.logo" unicode="Googlelogoligature" horiz-adv-x="3284" 
d="M460 -16q-85 0 -160 32t-132.5 88.5t-90.5 130.5t-33 159t33 159t90.5 130.5t132.5 88.5t160 32q94 0 162.5 -32.5t118.5 -80.5l-79 -79q-36 34 -85.5 57t-116.5 23q-62 0 -115.5 -23t-93.5 -64t-62.5 -95t-22.5 -116t22.5 -116t62.5 -95t93.5 -64t115.5 -23
q80 0 129 26.5t78 55.5q24 24 39.5 59t21.5 82h-268v112h377q6 -30 6 -70q0 -42 -9 -88.5t-30 -91.5t-58 -82q-54 -56 -124 -85.5t-162 -29.5zM2625 0v776h116v-776h-116zM1148 -16q-73 0 -133 34.5t-96 94t-36 135.5q0 77 36 136.5t96 93.5t133 34t133 -34t96 -93.5
t36 -136.5q0 -76 -36 -135.5t-96 -94t-133 -34.5zM1726 -16q-73 0 -133 34.5t-96 94t-36 135.5q0 77 36 136.5t96 93.5t133 34t133 -34t96 -93.5t36 -136.5q0 -76 -36 -135.5t-96 -94t-133 -34.5zM2294 -253q-64 0 -111 24.5t-77.5 60.5t-45.5 71l101 42q9 -21 26.5 -43
t44.5 -36.5t62 -14.5q65 0 103 39.5t38 115.5v38h-4q-19 -24 -55.5 -42t-83.5 -18q-49 0 -94.5 20t-81.5 56t-56.5 84t-20.5 103q0 56 20.5 104t56.5 84.5t81.5 56.5t94.5 20q47 0 83.5 -18t55.5 -41h4v43h110v-474q0 -97 -34.5 -158t-91.5 -89t-125 -28zM3059 -16
q-75 0 -134 35t-93.5 95t-34.5 134q0 79 34 138t90.5 92.5t124.5 33.5q51 0 90 -17.5t66 -44.5t44.5 -55.5t25.5 -50.5l12 -30l-353 -146q41 -80 128 -80q44 0 76 20t54 53l90 -60q-14 -21 -43 -48.5t-72.5 -48t-104.5 -20.5zM2912 256l236 98q-10 25 -36.5 40.5t-61.5 15.5
q-29 0 -62 -17t-55 -51.5t-21 -85.5zM1148 88q40 0 74 20.5t54.5 56.5t20.5 83q0 48 -20.5 84t-54.5 56t-74 20t-74 -20t-54.5 -56t-20.5 -84q0 -47 20.5 -83t54.5 -56.5t74 -20.5zM1726 88q40 0 74 20.5t54.5 56.5t20.5 83q0 48 -20.5 84t-54.5 56t-74 20t-74 -20
t-54.5 -56t-20.5 -84q0 -47 20.5 -83t54.5 -56.5t74 -20.5zM2302 88q40 0 71.5 20.5t50.5 56.5t19 82q0 47 -19 83t-50.5 57t-71.5 21t-73.5 -21t-53.5 -57t-20 -83q0 -46 20 -82t53.5 -56.5t73.5 -20.5z" />
    <glyph glyph-name=".notdef" horiz-adv-x="585" 
d="M80 0v716h424v-716h-424zM142 58h300v600h-300v-600z" />
    <glyph glyph-name=".null" horiz-adv-x="0" 
 />
    <glyph glyph-name="nonmarkingreturn" horiz-adv-x="333" 
 />
    <glyph glyph-name="uni0002" horiz-adv-x="0" 
 />
    <glyph glyph-name="uni0009" unicode="&#x9;" horiz-adv-x="0" 
 />
    <glyph glyph-name="CR" unicode="&#xd;" horiz-adv-x="0" 
 />
    <glyph glyph-name="space" unicode=" " horiz-adv-x="256" 
 />
    <glyph glyph-name="exclam" unicode="!" horiz-adv-x="281" 
d="M96 240l-10 259v217h109v-217l-11 -259h-88zM140 -6q-31 0 -53 22t-22 53t22 53t53 22t53.5 -22t22.5 -53t-22.5 -53t-53.5 -22z" />
    <glyph glyph-name="quotedbl" unicode="&#x22;" horiz-adv-x="421" 
d="M257 493v223h97v-223h-97zM66 493v223h98v-223h-98z" />
    <glyph glyph-name="numbersign" unicode="#" horiz-adv-x="692" 
d="M118 0l28 187h-111l14 86h110l25 170h-118l13 86h119l27 187h92l-27 -187h163l28 187h93l-28 -187h111l-13 -86h-111l-25 -170h119l-13 -86h-120l-27 -187h-93l28 187h-164l-28 -187h-92zM249 271h167l26 174h-167z" />
    <glyph glyph-name="dollar" unicode="$" horiz-adv-x="621" 
d="M275 -100v86q-94 10 -155 65.5t-79 151.5l110 24q9 -54 40 -90.5t84 -47.5v245l-19 6q-44 13 -86.5 35.5t-71 61t-28.5 99.5q0 51 25.5 92.5t71.5 68.5t108 33v86h80v-87q92 -11 142.5 -63t59.5 -126l-101 -16q-9 40 -34 67.5t-67 36.5v-213l15 -4q56 -17 102 -42
t73.5 -66t27.5 -106q0 -63 -29.5 -108t-79 -71t-109.5 -32v-86h-80zM176 540q0 -33 25 -56.5t74 -42.5v189q-45 -7 -72 -30.5t-27 -59.5zM464 195q0 44 -26 68.5t-83 44.5v-220q51 7 80 34.5t29 72.5z" />
    <glyph glyph-name="percent" unicode="%" horiz-adv-x="893" 
d="M221 378q-53 0 -93 23t-62 63t-22 91t22 91t62 63t93 23q54 0 93.5 -23t61.5 -63t22 -91t-22 -91t-61.5 -63t-93.5 -23zM254 0h-96l481 716h96zM221 458q39 0 64.5 25t25.5 72t-25.5 72t-64.5 25q-38 0 -63.5 -25t-25.5 -72t25.5 -72t63.5 -25zM672 -16q-53 0 -93 23
t-62 63t-22 91t22 91t62 63t93 23t93 -23t62 -63t22 -91t-22 -91t-62 -63t-93 -23zM672 64q39 0 64 25t25 72t-25 72t-64 25q-38 0 -63.5 -25t-25.5 -72t25.5 -72t63.5 -25z" />
    <glyph glyph-name="ampersand" unicode="&#x26;" horiz-adv-x="713" 
d="M300 -16q-74 0 -129.5 28t-86.5 80t-31 125q0 67 32.5 120t90.5 89q-20 29 -32 60t-12 66q0 52 25.5 92.5t69.5 64t99 23.5q168 0 196 -163l-103 -16q-8 38 -31.5 59.5t-62.5 21.5q-36 0 -62 -21.5t-26 -58.5q0 -25 11.5 -48.5t30.5 -45.5l217 -250l72 119h107l-115 -192
l119 -137h-132l-49 56q-37 -33 -86.5 -52.5t-111.5 -19.5zM157 221q0 -43 20 -74.5t54 -48.5t74 -17q77 0 130 46l-200 229q-37 -24 -57.5 -58t-20.5 -77z" />
    <glyph glyph-name="quotesingle" unicode="'" horiz-adv-x="231" 
d="M66 493v223h98v-223h-98z" />
    <glyph glyph-name="parenleft" unicode="(" horiz-adv-x="371" 
d="M259 -156q-41 48 -82 119t-68 162t-27 197t27 197t68 162t82 119l80 -56q-65 -81 -107.5 -188t-42.5 -234t42.5 -234t107.5 -188z" />
    <glyph glyph-name="parenright" unicode=")" horiz-adv-x="371" 
d="M112 -156l-80 56q65 81 107.5 188t42.5 234t-42.5 234t-107.5 188l80 56q41 -48 82 -119t68 -162t27 -197t-27 -197t-68 -162t-82 -119z" />
    <glyph glyph-name="asterisk" unicode="*" horiz-adv-x="478" 
d="M156 350l-67 50l79 105l-2 8l-116 42l27 77l113 -41l8 2v123h82v-123l7 -2l114 41l27 -77l-115 -42l-3 -8l79 -105l-67 -50l-79 107h-8z" />
    <glyph glyph-name="plus" unicode="+" horiz-adv-x="585" 
d="M70 225v92h176v176h93v-176h176v-92h-176v-176h-93v176h-176z" />
    <glyph glyph-name="comma" unicode="," horiz-adv-x="276" 
d="M12 -121l75 251h127l-112 -251h-90z" />
    <glyph glyph-name="hyphen" unicode="-" horiz-adv-x="472" 
d="M72 264v92h328v-92h-328z" />
    <glyph glyph-name="period" unicode="." horiz-adv-x="276" 
d="M138 -6q-31 0 -53 22t-22 53t22 53t53 22t53 -22t22 -53t-22 -53t-53 -22z" />
    <glyph glyph-name="slash" unicode="/" horiz-adv-x="341" 
d="M0 0l238 716h103l-238 -716h-103z" />
    <glyph glyph-name="zero" unicode="0" horiz-adv-x="671" 
d="M335 -16q-91 0 -154 48.5t-95.5 133t-32.5 192.5t32.5 192.5t95.5 133t154 48.5t154.5 -48.5t96 -133t32.5 -192.5t-32.5 -192.5t-96 -133t-154.5 -48.5zM335 85q86 0 130.5 74t44.5 199t-44.5 199t-130.5 74t-130 -74t-44 -199t44 -199t130 -74z" />
    <glyph glyph-name="one" unicode="1" horiz-adv-x="398" 
d="M206 0v575l-156 -114v118l187 137h76v-716h-107z" />
    <glyph glyph-name="two" unicode="2" horiz-adv-x="555" 
d="M58 0v104q87 68 150.5 122.5t102.5 103.5q72 88 72 182q0 57 -31 88t-84 31q-51 0 -81.5 -31.5t-37.5 -85.5l-102 10q4 57 31 104.5t75.5 75.5t115.5 28q105 0 163.5 -55.5t58.5 -154.5q0 -72 -27 -134t-73 -118q-38 -46 -86.5 -88.5t-101.5 -81.5l2 -3h299v-97h-446z
" />
    <glyph glyph-name="three" unicode="3" horiz-adv-x="554" 
d="M273 -16q-61 0 -111.5 24t-83.5 68.5t-40 107.5l105 24q8 -55 42 -88t88 -33q56 0 90.5 33t34.5 87q0 55 -37.5 87.5t-97.5 32.5h-56v97h52q50 0 84 27.5t34 78.5q0 45 -28.5 74t-81.5 29q-46 0 -76.5 -26.5t-38.5 -69.5l-102 13q7 52 36 93t75.5 65t106.5 24
q66 0 114 -25t74.5 -68t26.5 -96q0 -65 -28 -100.5t-62 -56.5v-6q49 -21 81 -64.5t32 -113.5q0 -62 -29.5 -111t-82 -78t-121.5 -29z" />
    <glyph glyph-name="four" unicode="4" horiz-adv-x="604" 
d="M362 0v144h-314v84l306 488h114v-471h85v-101h-85v-144h-106zM168 245h194v303h-6z" />
    <glyph glyph-name="five" unicode="5" horiz-adv-x="574" 
d="M286 -16q-61 0 -112.5 24t-84.5 70.5t-39 114.5l106 14q7 -54 40.5 -88.5t89.5 -34.5q61 0 96 39.5t35 105.5q0 65 -35 104.5t-95 39.5q-34 0 -63.5 -15.5t-47.5 -40.5l-106 46l43 353h376v-97h-289l-27 -192l6 -2q21 19 53 31.5t72 12.5q64 0 114 -29t78.5 -83
t28.5 -128q0 -71 -30.5 -126.5t-84 -87t-124.5 -31.5z" />
    <glyph glyph-name="six" unicode="6" horiz-adv-x="576" 
d="M293 -16q-62 0 -110 23.5t-80 63.5q-56 73 -56 197q0 62 15.5 120.5t44.5 110.5q39 70 99.5 128t138.5 102l58 -83q-55 -28 -104.5 -70t-86 -93.5t-52.5 -109.5l5 -3q20 31 60.5 50t86.5 19q63 0 112.5 -28t78 -78.5t28.5 -116.5q0 -64 -32.5 -116.5t-86.5 -84
t-119 -31.5zM293 84q54 0 92 35.5t38 96.5t-38 96t-92 35q-55 0 -93 -35t-38 -96t38 -96.5t93 -35.5z" />
    <glyph glyph-name="seven" unicode="7" horiz-adv-x="536" 
d="M268 0h-116q0 178 55 335.5t157 275.5l-2 4h-319v101h449v-107q-87 -85 -135.5 -188t-68.5 -211.5t-20 -209.5z" />
    <glyph glyph-name="eight" unicode="8" horiz-adv-x="558" 
d="M279 -16q-75 0 -127 28.5t-79 77t-27 106.5q0 65 31.5 110.5t79.5 68.5v6q-38 23 -64 62.5t-26 92.5q0 54 26.5 98.5t74 71t111.5 26.5q63 0 111 -26.5t74.5 -71t26.5 -98.5q0 -53 -26.5 -92.5t-63.5 -62.5v-6q48 -23 79.5 -68.5t31.5 -110.5q0 -58 -27.5 -106.5
t-79.5 -77t-126 -28.5zM279 423q48 0 77.5 29.5t29.5 76.5q0 46 -29.5 75.5t-77.5 29.5t-77.5 -29.5t-29.5 -75.5q0 -47 29.5 -76.5t77.5 -29.5zM279 85q56 0 90.5 32t34.5 88q0 57 -34.5 89.5t-90.5 32.5t-90.5 -32.5t-34.5 -89.5q0 -56 34.5 -88t90.5 -32z" />
    <glyph glyph-name="nine" unicode="9" horiz-adv-x="576" 
d="M232 -13l-57 83q54 29 103.5 71t86 93.5t52.5 108.5l-4 4q-20 -31 -61 -50.5t-87 -19.5q-63 0 -112 28.5t-77.5 78.5t-28.5 116q0 64 32 117t86 84t119 31q62 0 110.5 -24.5t81.5 -66.5q27 -35 41 -81.5t14 -111.5q0 -62 -15.5 -120t-45.5 -111q-39 -69 -99.5 -127.5
t-138.5 -102.5zM284 370q56 0 93.5 35t37.5 96q0 60 -37.5 95.5t-93.5 35.5t-93 -35.5t-37 -95.5q0 -61 37 -96t93 -35z" />
    <glyph glyph-name="colon" unicode=":" horiz-adv-x="276" 
d="M138 386q-32 0 -53.5 22t-21.5 53q0 32 21.5 53.5t53.5 21.5q31 0 53 -21.5t22 -53.5q0 -31 -22 -53t-53 -22zM138 -6q-32 0 -53.5 22t-21.5 53t21.5 53t53.5 22q31 0 53 -22t22 -53t-22 -53t-53 -22z" />
    <glyph glyph-name="semicolon" unicode=";" horiz-adv-x="276" 
d="M141 386q-32 0 -53.5 22t-21.5 53q0 32 21.5 53.5t53.5 21.5q31 0 53 -21.5t22 -53.5q0 -31 -22 -53t-53 -22zM12 -121l75 251h127l-112 -251h-90z" />
    <glyph glyph-name="less" unicode="&#x3c;" horiz-adv-x="525" 
d="M459 30l-399 200v82l399 200v-104l-276 -134v-6l276 -134v-104z" />
    <glyph glyph-name="equal" unicode="=" horiz-adv-x="597" 
d="M70 379v93h457v-93h-457zM70 166v93h457v-93h-457z" />
    <glyph glyph-name="greater" unicode="&#x3e;" horiz-adv-x="525" 
d="M66 30v104l276 134v6l-276 134v104l399 -200v-82z" />
    <glyph glyph-name="question" unicode="?" horiz-adv-x="538" 
d="M211 238v33q0 34 8 60t27 49.5t54 50.5q32 26 49 50t17 60q0 40 -26.5 64.5t-75.5 24.5q-44 0 -72 -24.5t-35 -66.5l-99 13q5 51 31 91.5t71 64.5t105 24q98 0 153 -50t55 -134q0 -62 -28 -103.5t-64 -70.5q-35 -28 -48 -51.5t-13 -60.5v-24h-109zM265 -6q-32 0 -53.5 22
t-21.5 53t21.5 53t53.5 22q31 0 52.5 -22t21.5 -53t-21.5 -53t-52.5 -22z" />
    <glyph glyph-name="at" unicode="@" horiz-adv-x="923" 
d="M461 -110q-87 0 -160.5 32.5t-127.5 89.5t-83.5 132t-29.5 160q0 84 29.5 157.5t83.5 129.5t127.5 87.5t160.5 31.5q91 0 165 -30t127 -83.5t81.5 -125.5t28.5 -156q0 -63 -22 -114.5t-60.5 -82t-89.5 -30.5q-42 0 -72.5 21.5t-45.5 54.5q-23 -36 -58.5 -56t-81.5 -20
q-53 0 -93.5 27t-63.5 74.5t-23 110.5t24 110.5t65 74.5t92 27q39 0 68.5 -15.5t46.5 -41.5h6v43h82v-260q0 -31 15.5 -54t44.5 -23q39 0 62.5 41.5t23.5 105.5q0 92 -41 165.5t-113.5 115.5t-167.5 42q-90 0 -162 -42.5t-113 -116t-41 -168.5q0 -72 25 -133t68.5 -106.5
t101 -70.5t121.5 -25q51 0 92 9.5t74 28.5l32 -72q-39 -21 -89.5 -33t-108.5 -12zM446 171q44 0 75.5 32t31.5 97q0 66 -31.5 97.5t-75.5 31.5t-75 -32t-31 -97t31 -97t75 -32z" />
    <glyph glyph-name="A" unicode="A" horiz-adv-x="678" 
d="M17 0l259 716h125l260 -716h-120l-63 184h-279l-63 -184h-119zM310 505l-76 -219h209l-76 219l-25 82h-6z" />
    <glyph glyph-name="B" unicode="B" horiz-adv-x="654" 
d="M86 0v716h286q63 0 111 -21t75.5 -61t27.5 -97t-27 -95t-68 -58v-6q53 -18 86 -62t33 -106q0 -64 -29.5 -111.5t-80 -73t-113.5 -25.5h-301zM195 426h175q51 0 80 24t29 71t-28 71t-77 24h-179v-190zM195 101h191q53 0 83.5 31t30.5 83t-31 83t-87 31h-187v-228z" />
    <glyph glyph-name="C" unicode="C" horiz-adv-x="726" 
d="M378 -16q-97 0 -170.5 46t-115 129.5t-41.5 198.5t42.5 199t116.5 129.5t169 45.5q77 0 141.5 -27t106 -79.5t48.5 -129.5l-108 -18q-12 64 -59 107t-129 43q-61 0 -110.5 -30.5t-78 -91t-28.5 -148.5t28.5 -148t77.5 -91t111 -31q79 0 128 41.5t62 109.5l108 -12
q-19 -113 -96 -178t-203 -65z" />
    <glyph glyph-name="D" unicode="D" horiz-adv-x="718" 
d="M86 0v716h238q165 0 254 -93.5t89 -264.5t-89 -264.5t-254 -93.5h-238zM195 104h126q112 0 174 61t62 193t-62 193t-174 61h-126v-508z" />
    <glyph glyph-name="E" unicode="E" 
d="M86 0v716h454v-104h-345v-189h314v-104h-314v-215h345v-104h-454z" />
    <glyph glyph-name="F" unicode="F" horiz-adv-x="564" 
d="M86 0v716h436v-104h-327v-210h296v-104h-296v-298h-109z" />
    <glyph glyph-name="G" unicode="G" horiz-adv-x="759" 
d="M373 -16q-94 0 -166.5 46.5t-114 131t-41.5 196.5t44 196.5t119 131t171 46.5q117 0 196.5 -54t100.5 -151l-105 -28q-18 60 -66.5 94.5t-125.5 34.5q-61 0 -112 -31t-81 -91t-30 -148q0 -87 29.5 -147.5t79 -91.5t109.5 -31q61 0 105.5 24.5t71 67t32.5 96.5h-206v96
h312v-372h-101v100h-6q-30 -52 -83.5 -84t-131.5 -32z" />
    <glyph glyph-name="H" unicode="H" horiz-adv-x="718" 
d="M86 0v716h109v-298h328v298h109v-716h-109v314h-328v-314h-109z" />
    <glyph glyph-name="I" unicode="I" horiz-adv-x="281" 
d="M86 0v716h109v-716h-109z" />
    <glyph glyph-name="J" unicode="J" horiz-adv-x="553" 
d="M259 -16q-94 0 -155.5 55.5t-74.5 158.5l105 22q20 -132 125 -132q55 0 86.5 35t31.5 101v492h109v-489q0 -82 -29.5 -136t-80.5 -80.5t-117 -26.5z" />
    <glyph glyph-name="K" unicode="K" horiz-adv-x="644" 
d="M86 0v716h109v-339h6l277 339h135v-6l-251 -301l273 -403v-6h-132l-215 320l-93 -111v-209h-109z" />
    <glyph glyph-name="L" unicode="L" horiz-adv-x="575" 
d="M86 0v716h109v-612h341v-104h-450z" />
    <glyph glyph-name="M" unicode="M" horiz-adv-x="869" 
d="M86 0v716h147l198 -543h6l199 543h147v-716h-108v404l6 125h-6l-197 -529h-87l-198 529h-6l6 -125v-404h-107z" />
    <glyph glyph-name="N" unicode="N" horiz-adv-x="725" 
d="M86 0v716h129l316 -525h6l-6 137v388h108v-716h-114l-331 552h-6l6 -138v-414h-108z" />
    <glyph glyph-name="O" unicode="O" horiz-adv-x="787" 
d="M394 -16q-102 0 -179 48t-120.5 132t-43.5 194t43.5 194.5t120.5 132t179 47.5t179 -47.5t120 -132t43 -194.5t-43 -194t-120 -132t-179 -48zM394 88q67 0 119 31.5t82.5 92t30.5 146.5t-30.5 146.5t-82.5 92t-119 31.5t-119.5 -31.5t-82.5 -92t-30 -146.5t30 -146.5
t82.5 -92t119.5 -31.5z" />
    <glyph glyph-name="P" unicode="P" horiz-adv-x="629" 
d="M86 0v716h268q67 0 121.5 -24t86 -73.5t31.5 -126.5t-31.5 -127t-86 -74t-121.5 -24h-159v-267h-109zM195 371h162q60 0 94 31t34 90t-34 89.5t-94 30.5h-162v-241z" />
    <glyph glyph-name="Q" unicode="Q" horiz-adv-x="787" 
d="M394 -16q-102 0 -179 48t-120.5 132t-43.5 194t43.5 194.5t120.5 132t179 47.5t179 -47.5t120 -132t43 -194.5q0 -88 -28.5 -160.5t-79.5 -122.5l51 -76l-83 -55l-49 74q-69 -34 -153 -34zM394 88q51 0 94 19l-86 128l82 56l83 -124q28 34 43.5 82t15.5 109
q0 86 -30.5 146.5t-82.5 92t-119 31.5t-119.5 -31.5t-82.5 -92t-30 -146.5t30 -146.5t82.5 -92t119.5 -31.5z" />
    <glyph glyph-name="R" unicode="R" horiz-adv-x="632" 
d="M86 0v716h281q104 0 167.5 -57.5t63.5 -161.5q0 -79 -46.5 -131.5t-113.5 -70.5l-2 -5l173 -284v-6h-121l-170 281h-123v-281h-109zM195 382h174q53 0 86 29.5t33 86.5t-32 86t-87 29h-174v-231z" />
    <glyph glyph-name="S" unicode="S" horiz-adv-x="616" 
d="M314 -16q-110 0 -182 56.5t-91 162.5l110 24q11 -62 52 -100.5t112 -38.5q64 0 104 29t40 78q0 51 -36 76.5t-117 50.5l-53 17q-45 13 -87.5 36t-70.5 61.5t-28 99.5q0 55 29 99.5t82.5 70.5t127.5 26q113 0 174 -54.5t71 -137.5l-104 -16q-10 48 -44.5 77t-95.5 29
q-57 0 -94.5 -25t-37.5 -65t35 -65.5t104 -46.5l52 -16q56 -17 102 -42.5t73 -66.5t27 -106q0 -70 -35 -117t-92.5 -71.5t-126.5 -24.5z" />
    <glyph glyph-name="T" unicode="T" horiz-adv-x="601" 
d="M246 0v612h-218v104h545v-104h-218v-612h-109z" />
    <glyph glyph-name="U" unicode="U" horiz-adv-x="701" 
d="M351 -16q-128 0 -201 75t-73 212v445h108v-451q0 -85 42 -131t124 -46q81 0 123 46t42 131v451h108v-445q0 -134 -72.5 -210.5t-200.5 -76.5z" />
    <glyph glyph-name="V" unicode="V" horiz-adv-x="645" 
d="M262 0l-247 716h119l158 -476l24 -82h6l25 82l164 476h119l-254 -716h-114z" />
    <glyph glyph-name="W" unicode="W" horiz-adv-x="935" 
d="M204 0l-185 716h121l107 -463l12 -63h6l15 63l135 463h110l131 -463l15 -62h6l11 62l108 463h120l-182 -716h-115l-130 474l-16 69h-6l-16 -69l-135 -474h-112z" />
    <glyph glyph-name="X" unicode="X" horiz-adv-x="654" 
d="M22 0l232 372l-217 344h132l155 -257h6l155 257h134l-219 -344l233 -372h-133l-170 279h-6l-170 -279h-132z" />
    <glyph glyph-name="Y" unicode="Y" horiz-adv-x="609" 
d="M252 0v328l-235 388h128l158 -270h6l153 270h129l-230 -388v-328h-109z" />
    <glyph glyph-name="Z" unicode="Z" horiz-adv-x="595" 
d="M38 0v112l382 500h-366v104h489v-112l-379 -500h383v-104h-509z" />
    <glyph glyph-name="bracketleft" unicode="[" horiz-adv-x="389" 
d="M100 -124v916h239v-89h-137v-738h137v-89h-239z" />
    <glyph glyph-name="backslash" unicode="\" horiz-adv-x="341" 
d="M238 0l-238 716h103l238 -716h-103z" />
    <glyph glyph-name="bracketright" unicode="]" horiz-adv-x="389" 
d="M50 -124v89h137v738h-137v89h239v-916h-239z" />
    <glyph glyph-name="asciicircum" unicode="^" horiz-adv-x="512" 
d="M16 410l194 306h92l194 -306h-111l-126 202h-6l-126 -202h-111z" />
    <glyph glyph-name="underscore" unicode="_" horiz-adv-x="487" 
d="M0 -216v93h487v-93h-487z" />
    <glyph glyph-name="grave" unicode="`" horiz-adv-x="420" 
d="M177 629l-85 147h124l50 -147h-89z" />
    <glyph glyph-name="a" unicode="a" horiz-adv-x="573" 
d="M233 -16q-82 0 -132 45t-50 121q0 53 27.5 89.5t73 55.5t100.5 19q42 0 78 -5t72 -15v50q0 49 -34 78.5t-90 29.5q-45 0 -76.5 -21.5t-43.5 -62.5l-95 22q16 74 76.5 113t139.5 39q111 0 169 -53t58 -152v-337h-104v61h-6q-23 -30 -63.5 -53.5t-99.5 -23.5zM257 72
q66 0 105.5 40.5t39.5 97.5q-67 23 -133 23q-52 0 -81 -21t-29 -62q0 -34 27.5 -56t70.5 -22z" />
    <glyph glyph-name="b" unicode="b" horiz-adv-x="619" 
d="M342 -16q-59 0 -100 24.5t-62 58.5h-6v-67h-101v776h107v-242l-6 -75h6q19 32 61.5 57.5t101.5 25.5q68 0 121 -34t83 -96.5t30 -148.5t-30 -148.5t-83 -96.5t-122 -34zM322 83q64 0 106 46.5t42 133.5t-42 133.5t-106 46.5q-63 0 -105.5 -46.5t-42.5 -133.5t42.5 -133.5
t105.5 -46.5z" />
    <glyph glyph-name="c" unicode="c" horiz-adv-x="565" 
d="M293 -16q-75 0 -131.5 34.5t-88 97.5t-31.5 147q0 85 32.5 147.5t90 97t132.5 34.5q94 0 154.5 -47t74.5 -129l-104 -17q-10 43 -42.5 68.5t-84.5 25.5q-62 0 -104 -46.5t-42 -133.5t41.5 -133.5t104.5 -46.5q99 0 128 99l101 -24q-19 -77 -77 -125.5t-154 -48.5z" />
    <glyph glyph-name="d" unicode="d" horiz-adv-x="618" 
d="M276 -16q-69 0 -121.5 33.5t-82.5 96.5t-30 149q0 87 30 149.5t83 96t121 33.5q59 0 100.5 -24.5t61.5 -58.5h6l-6 75v242h107v-776h-101v68h-6q-21 -34 -62.5 -59t-99.5 -25zM296 83q64 0 106 45.5t42 134.5t-42 134.5t-106 45.5t-105.5 -45.5t-41.5 -134.5t41.5 -134.5
t105.5 -45.5z" />
    <glyph glyph-name="e" unicode="e" horiz-adv-x="576" 
d="M292 -16q-76 0 -132.5 35.5t-87 98t-30.5 144.5q0 84 32 147t88.5 98t129.5 35q119 0 180.5 -67t61.5 -183q0 -29 -3 -52h-384q5 -78 46 -119t103 -41q55 0 85.5 24.5t44.5 61.5l94 -25q-20 -68 -76 -112.5t-152 -44.5zM293 451q-54 0 -91.5 -33t-49.5 -97h276
q-3 59 -37 94.5t-98 35.5z" />
    <glyph glyph-name="f" unicode="f" horiz-adv-x="388" 
d="M119 0v432h-90v94h90v95q0 81 48 126t121 45q26 0 45 -3t32 -8v-104q-13 6 -29 10.5t-37 4.5q-32 0 -52.5 -20t-20.5 -58v-88h122v-94h-122v-432h-107z" />
    <glyph glyph-name="g" unicode="g" horiz-adv-x="601" 
d="M288 -232q-97 0 -157.5 47t-74.5 115l104 24q12 -39 44 -64.5t84 -25.5q70 0 106.5 43t36.5 119v60h-6q-26 -39 -64.5 -60.5t-98.5 -21.5t-111 31.5t-81.5 91.5t-30.5 146t30.5 146t82 91.5t113.5 31.5q54 0 95.5 -21t64.5 -58h6v63h102v-498q0 -127 -66.5 -193.5
t-178.5 -66.5zM289 102q58 0 100 42.5t42 128.5t-42 128.5t-100 42.5t-100.5 -42.5t-42.5 -128.5t42.5 -128.5t100.5 -42.5z" />
    <glyph glyph-name="h" unicode="h" 
d="M73 0v776h107v-242l-6 -79h6q20 37 64 62t98 25q93 0 141.5 -55t48.5 -145v-342h-107v328q0 55 -30 85t-82 30q-39 0 -69 -20.5t-47 -55t-17 -77.5v-290h-107z" />
    <glyph glyph-name="i" unicode="i" horiz-adv-x="253" 
d="M127 635q-30 0 -51.5 21.5t-21.5 51.5t21.5 51.5t51.5 21.5t51.5 -21.5t21.5 -51.5t-21.5 -51.5t-51.5 -21.5zM73 0v526h107v-526h-107z" />
    <glyph glyph-name="j" unicode="j" horiz-adv-x="251" 
d="M125 635q-30 0 -51 21.5t-21 51.5t21 51.5t51 21.5q31 0 52 -21.5t21 -51.5t-21 -51.5t-52 -21.5zM32 -226q-31 0 -57 7v103q9 -5 21 -8.5t24 -3.5q51 0 51 66v588h107v-588q0 -87 -41 -125.5t-105 -38.5z" />
    <glyph glyph-name="k" unicode="k" horiz-adv-x="535" 
d="M73 0v776h107v-464h4l203 214h129v-6l-192 -197l197 -317v-6h-122l-152 244l-67 -69v-175h-107z" />
    <glyph glyph-name="l" unicode="l" horiz-adv-x="254" 
d="M73 0v776h108v-776h-108z" />
    <glyph glyph-name="m" unicode="m" horiz-adv-x="865" 
d="M73 0v526h101v-66h6q21 36 59 59t87 23q53 0 89.5 -23.5t53.5 -62.5q23 39 63.5 62.5t98.5 23.5q81 0 123 -50t42 -134v-358h-106v341q0 52 -23.5 77.5t-66.5 25.5q-50 0 -80.5 -37t-30.5 -95v-312h-108v340q0 53 -24 78.5t-68 25.5q-49 0 -79 -37.5t-30 -95.5v-311h-107
z" />
    <glyph glyph-name="n" unicode="n" horiz-adv-x="589" 
d="M73 0v526h101v-67h6q21 37 62.5 60t93.5 23q90 0 137.5 -53.5t47.5 -146.5v-342h-108v328q0 59 -29 87t-77 28q-59 0 -93 -42t-34 -102v-299h-107z" />
    <glyph glyph-name="o" unicode="o" 
d="M300 -16q-79 0 -137 35.5t-89.5 98.5t-31.5 145t31.5 145t89.5 98.5t137 35.5q80 0 137.5 -35.5t89 -98.5t31.5 -145t-31.5 -145t-89 -98.5t-137.5 -35.5zM300 83q67 0 109 46.5t42 133.5t-42 133.5t-109 46.5q-66 0 -108.5 -46.5t-42.5 -133.5t42.5 -133.5t108.5 -46.5z
" />
    <glyph glyph-name="p" unicode="p" horiz-adv-x="618" 
d="M73 -216v742h101v-69h6q20 34 62.5 59.5t99.5 25.5q69 0 122 -33.5t83 -96t30 -149.5t-30 -149.5t-83 -96t-122 -33.5q-60 0 -101.5 24.5t-60.5 57.5h-6l6 -74v-208h-107zM322 83q64 0 106 45.5t42 134.5t-42 134.5t-106 45.5q-63 0 -105.5 -45.5t-42.5 -134.5
t42.5 -134.5t105.5 -45.5z" />
    <glyph glyph-name="q" unicode="q" horiz-adv-x="617" 
d="M438 -216v208l6 76h-6q-19 -33 -61 -58.5t-102 -25.5q-69 0 -121.5 33.5t-82 96.5t-29.5 149q0 87 29.5 149.5t82.5 96t122 33.5q57 0 99.5 -25t62.5 -60h6v69h101v-742h-107zM296 83q64 0 106 45.5t42 134.5t-42 134.5t-106 45.5t-105.5 -45.5t-41.5 -134.5t41.5 -134.5
t105.5 -45.5z" />
    <glyph glyph-name="r" unicode="r" horiz-adv-x="400" 
d="M73 0v526h101v-71h6q16 38 52 62t82 24q19 0 31 -2t21 -5v-109q-30 14 -68 14q-50 0 -84 -40t-34 -100v-299h-107z" />
    <glyph glyph-name="s" unicode="s" horiz-adv-x="506" 
d="M260 -16q-92 0 -152.5 44t-71.5 120l103 17q8 -38 39.5 -62t81.5 -24q43 0 74.5 17.5t31.5 51.5q0 31 -26.5 50t-75.5 28l-63 12q-66 12 -108 49t-42 101q0 46 27 80.5t72.5 54t100.5 19.5q82 0 137 -35t68 -109l-97 -15q-10 38 -38.5 53.5t-67.5 15.5q-42 0 -69 -17
t-27 -44q0 -26 20.5 -42.5t67.5 -26.5l73 -15q74 -15 114.5 -52t40.5 -104q0 -51 -28.5 -88.5t-76.5 -58t-108 -20.5z" />
    <glyph glyph-name="t" unicode="t" horiz-adv-x="387" 
d="M268 -8q-69 0 -110 41.5t-41 114.5v284h-85v94h85v144h107v-144h120v-94h-120v-265q0 -74 65 -74q17 0 30 4.5t27 12.5v-104q-16 -6 -34.5 -10t-43.5 -4z" />
    <glyph glyph-name="u" unicode="u" horiz-adv-x="589" 
d="M253 -16q-90 0 -137 53.5t-47 146.5v342h107v-328q0 -59 29.5 -87t76.5 -28q59 0 93 42t34 102v299h107v-526h-101v67h-6q-21 -37 -62 -60t-94 -23z" />
    <glyph glyph-name="v" unicode="v" horiz-adv-x="545" 
d="M217 0l-203 526h118l138 -387h6l140 387h115l-205 -526h-109z" />
    <glyph glyph-name="w" unicode="w" horiz-adv-x="773" 
d="M165 0l-151 526h115l94 -374h4l106 374h109l106 -373h4l94 373h113l-152 -526h-112l-108 382h-4l-107 -382h-111z" />
    <glyph glyph-name="x" unicode="x" horiz-adv-x="527" 
d="M19 0l182 267l-179 259h123l118 -176h3l113 176h127l-182 -259l184 -267h-124l-120 183h-3l-118 -183h-124z" />
    <glyph glyph-name="y" unicode="y" horiz-adv-x="554" 
d="M112 -221q-47 0 -81 15v102q9 -6 29.5 -13t44.5 -7q32 0 54 18t43 68l21 50l-210 514h120l144 -371h4l142 371h117l-246 -600q-33 -81 -74.5 -114t-107.5 -33z" />
    <glyph glyph-name="z" unicode="z" horiz-adv-x="505" 
d="M40 0v90l286 342h-277v94h405v-90l-285 -342h293v-94h-422z" />
    <glyph glyph-name="braceleft" unicode="{" horiz-adv-x="378" 
d="M276 -124q-79 0 -122.5 45t-43.5 122v166q0 45 -24 62.5t-56 17.5v90q32 0 56 17.5t24 62.5v166q0 77 43.5 122t122.5 45h52v-89h-39q-33 0 -55 -22t-22 -63v-166q0 -49 -18 -76.5t-61 -38.5v-6q43 -11 61 -38.5t18 -76.5v-166q0 -41 22 -63t55 -22h39v-89h-52z" />
    <glyph glyph-name="bar" unicode="|" horiz-adv-x="298" 
d="M100 -120v912h98v-912h-98z" />
    <glyph glyph-name="braceright" unicode="}" horiz-adv-x="378" 
d="M50 -124v89h40q32 0 54 22t22 63v166q0 49 18 76.5t61 38.5v6q-43 11 -61 38.5t-18 76.5v166q0 41 -22 63t-54 22h-40v89h52q79 0 123 -45t44 -122v-166q0 -45 24 -62.5t55 -17.5v-90q-31 0 -55 -17.5t-24 -62.5v-166q0 -77 -44 -122t-123 -45h-52z" />
    <glyph glyph-name="asciitilde" unicode="~" horiz-adv-x="566" 
d="M394 230q-32 0 -63.5 11t-59.5 24q-25 11 -47.5 19.5t-42.5 8.5q-25 0 -37 -16t-14 -40h-85q0 71 35 110t91 39q34 0 65.5 -11.5t60.5 -24.5q24 -10 46 -18.5t42 -8.5q25 0 37 16t14 40h85q-1 -71 -36 -110t-91 -39z" />
    <glyph glyph-name="uni00A0" unicode="&#xa0;" horiz-adv-x="256" 
 />
    <glyph glyph-name="exclamdown" unicode="&#xa1;" horiz-adv-x="281" 
d="M140 391q-31 0 -53 22t-22 54q0 31 22 53t53 22q32 0 54 -22t22 -53q0 -32 -22 -54t-54 -22zM86 -216v225l10 272h88l11 -272v-225h-109z" />
    <glyph glyph-name="cent" unicode="&#xa2;" horiz-adv-x="553" 
d="M251 0v102q-65 9 -111.5 44.5t-70.5 90t-24 121.5q0 66 25 120.5t71 90.5t110 45v102h79v-101q73 -8 122 -50t62 -117l-94 -11q-19 68 -90 84v-327q38 7 60 29t34 57l93 -15q-21 -73 -69.5 -113.5t-117.5 -49.5v-102h-79zM147 358q0 -66 27.5 -107.5t76.5 -54.5v324
q-49 -13 -76.5 -54.5t-27.5 -107.5z" />
    <glyph glyph-name="sterling" unicode="&#xa3;" horiz-adv-x="560" 
d="M50 0v89q46 26 71 70t25 94q0 14 -2 29h-97v85h65q-18 35 -35.5 73t-17.5 90q0 56 25.5 102t73 73t114.5 27q102 0 154.5 -51t61.5 -131l-102 -17q-6 47 -35 74t-78 27q-51 0 -80.5 -29t-29.5 -78q0 -47 19.5 -84t38.5 -76h165v-85h-141q1 -10 1 -21q0 -49 -14.5 -87
t-40.5 -71l4 -5h163q40 0 58.5 17t21.5 51l94 -13q-3 -43 -20 -77.5t-53 -55t-96 -20.5h-313z" />
    <glyph glyph-name="currency" unicode="&#xa4;" horiz-adv-x="649" 
d="M126 75l-56 57l73 72q-16 26 -26 56.5t-10 64.5t10 65t26 56l-73 73l56 56l73 -71q27 19 59 29.5t67 10.5t67 -10.5t58 -29.5l73 71l56 -56l-72 -72q17 -26 26 -57t9 -65t-9 -64.5t-26 -56.5l72 -72l-56 -57l-73 71q-26 -19 -58 -29.5t-67 -10.5t-67 10.5t-59 29.5z
M325 194q57 0 91 36t34 95t-34 95t-91 36t-91 -36t-34 -95t34 -95t91 -36z" />
    <glyph glyph-name="yen" unicode="&#xa5;" horiz-adv-x="637" 
d="M264 0v142h-173v93h173v95h-173v92h113l-184 294h130l135 -232l30 -62h6l30 62l135 232h131l-184 -294h111v-92h-171v-95h171v-93h-171v-142h-109z" />
    <glyph glyph-name="brokenbar" unicode="&#xa6;" horiz-adv-x="298" 
d="M100 396v360h98v-360h-98zM100 -120v392h98v-392h-98z" />
    <glyph glyph-name="section" unicode="&#xa7;" horiz-adv-x="568" 
d="M285 -232q-98 0 -157.5 50t-72.5 139l104 23q9 -47 41.5 -79.5t86.5 -32.5q55 0 84 24.5t29 69.5q0 29 -14.5 48t-47.5 33.5t-89 30.5q-3 0 -6 1.5t-6 2.5q-83 28 -124 76t-41 114q0 44 22.5 79t64.5 58q-39 25 -61 61.5t-22 85.5t24 90t70.5 65.5t111.5 24.5
q93 0 146.5 -42.5t66.5 -112.5l-102 -23q-8 35 -35 56.5t-76 21.5q-43 0 -70.5 -20.5t-27.5 -53.5q0 -34 23.5 -58t86.5 -46q4 -1 8.5 -3t8.5 -3q58 -20 103 -47t70.5 -67.5t25.5 -98.5q0 -44 -21 -78t-49 -57q32 -24 50 -57.5t18 -80.5q0 -61 -29.5 -104.5t-80.5 -66.5
t-113 -23zM310 160q27 -8 51 -17q18 15 30 37.5t12 44.5q0 49 -33.5 80t-114.5 57q-3 0 -9 2q-33 -10 -51.5 -35t-18.5 -53q0 -39 26 -64t86 -45q6 -2 11 -4t11 -3z" />
    <glyph glyph-name="dieresis" unicode="&#xa8;" horiz-adv-x="422" 
d="M304 641q-25 0 -43.5 18.5t-18.5 43.5q0 27 18.5 44.5t43.5 17.5q27 0 45 -17.5t18 -44.5q0 -25 -18 -43.5t-45 -18.5zM117 641q-25 0 -43.5 18.5t-18.5 43.5q0 27 18.5 44.5t43.5 17.5q27 0 44.5 -17.5t17.5 -44.5q0 -25 -17.5 -43.5t-44.5 -18.5z" />
    <glyph glyph-name="copyright" unicode="&#xa9;" horiz-adv-x="564" 
d="M282 252q-66 0 -120.5 32.5t-87 87t-32.5 120.5t32.5 120.5t87 87t120.5 32.5t120.5 -32.5t87 -87t32.5 -120.5t-32.5 -120.5t-87 -87t-120.5 -32.5zM282 300q53 0 97 26.5t70 70t26 95.5q0 53 -26 96.5t-70 69.5t-97 26q-52 0 -95.5 -26t-70 -69.5t-26.5 -96.5
q0 -52 26.5 -95.5t70 -70t95.5 -26.5zM283 368q-46 0 -80 33t-34 91t34.5 91t80.5 33t71.5 -22t32.5 -51l-44 -12q-6 17 -20 29t-37 12q-32 0 -52 -21t-20 -59t20 -59t52 -21q25 0 38 11.5t20 31.5l43 -7q-11 -39 -38.5 -59.5t-66.5 -20.5z" />
    <glyph glyph-name="ordfeminine" unicode="&#xaa;" horiz-adv-x="492" 
d="M202 264q-67 0 -110.5 38.5t-43.5 105.5q0 42 22 72.5t59.5 47t84.5 16.5q39 0 79 -5.5t54 -11.5v29q0 43 -24.5 68t-75.5 25q-36 0 -60 -15t-35 -42l-92 16q16 54 64 89t121 35q199 0 199 -176v-278h-97v59h-6q-20 -31 -54.5 -52t-84.5 -21zM226 344q32 0 59.5 14.5
t44.5 39.5t17 57q-20 6 -50 11t-63 5q-41 0 -63 -18.5t-22 -44.5q0 -32 21.5 -48t55.5 -16z" />
    <glyph glyph-name="guillemotleft" unicode="&#xab;" horiz-adv-x="630" 
d="M261 41l-213 230l213 230l62 -57l-162 -173l162 -173zM497 41l-213 230l213 230l62 -57l-162 -173l162 -173z" />
    <glyph glyph-name="logicalnot" unicode="&#xac;" horiz-adv-x="603" 
d="M418 105v196h-358v92h448v-288h-90z" />
    <glyph glyph-name="uni00AD" unicode="&#xad;" horiz-adv-x="472" 
d="M72 264v92h328v-92h-328z" />
    <glyph glyph-name="registered" unicode="&#xae;" horiz-adv-x="564" 
d="M282 252q-66 0 -120.5 32.5t-87 87t-32.5 120.5t32.5 120.5t87 87t120.5 32.5t120.5 -32.5t87 -87t32.5 -120.5t-32.5 -120.5t-87 -87t-120.5 -32.5zM282 300q53 0 97 26.5t70 70t26 95.5q0 53 -26 96.5t-70 69.5t-97 26q-52 0 -95.5 -26t-70 -69.5t-26.5 -96.5
q0 -52 26.5 -95.5t70 -70t95.5 -26.5zM197 374v236h102q36 0 62.5 -19.5t26.5 -60.5q0 -25 -13.5 -43.5t-36.5 -27.5l-2 -2l46 -83h-52l-44 81h-43v-81h-46zM243 497h53q23 0 34.5 7t11.5 26q0 20 -11.5 28t-33.5 8h-54v-69z" />
    <glyph glyph-name="macron" unicode="&#xaf;" horiz-adv-x="407" 
d="M61 665v83h286v-83h-286z" />
    <glyph glyph-name="degree" unicode="&#xb0;" horiz-adv-x="345" 
d="M173 466q-60 0 -97.5 38t-37.5 95t37.5 95t97.5 38t97 -38t37 -95t-37 -95t-97 -38zM173 534q29 0 46 18t17 47t-17 47t-46 18q-28 0 -46 -18t-18 -47t18 -47t46 -18z" />
    <glyph glyph-name="plusminus" unicode="&#xb1;" horiz-adv-x="569" 
d="M238 170v151h-176v89h176v151h93v-151h176v-89h-176v-151h-93zM62 0v93h445v-93h-445z" />
    <glyph glyph-name="uni00B2" unicode="&#xb2;" horiz-adv-x="323" 
d="M35 458v59q49 36 82 64t54 52t29.5 46t8.5 45q0 24 -14.5 37.5t-36.5 13.5q-24 0 -37.5 -16t-17.5 -43l-75 13q6 53 42 84t88 31q60 0 94.5 -31t34.5 -88q0 -36 -14.5 -66.5t-37.5 -57.5q-18 -21 -39.5 -39.5t-44.5 -34.5h138v-69h-254z" />
    <glyph glyph-name="uni00B3" unicode="&#xb3;" horiz-adv-x="340" 
d="M168 450q-55 0 -93.5 29t-47.5 86l75 14q5 -31 23 -46t43 -15q26 0 42 14t16 39q0 23 -17.5 37t-46.5 14h-31v63h27q26 0 41.5 11.5t15.5 35.5q0 20 -13.5 32t-36.5 12q-21 0 -35.5 -12t-20.5 -30l-73 12q8 42 41.5 70t88.5 28q58 0 92 -29t34 -74q0 -28 -13.5 -49
t-33.5 -35q25 -9 42 -31.5t17 -57.5q0 -53 -38.5 -85.5t-97.5 -32.5z" />
    <glyph glyph-name="acute" unicode="&#xb4;" horiz-adv-x="420" 
d="M154 629l50 147h124l-85 -147h-89z" />
    <glyph glyph-name="uni00B5" unicode="&#xb5;" horiz-adv-x="653" 
d="M73 -216v742h107v-326q0 -65 31.5 -91t73.5 -26q62 0 95 43t33 105v295h108v-356q0 -35 13 -54.5t42 -19.5q13 0 24 4t22 10v-108q-14 -4 -28 -7t-33 -3q-62 0 -91 26t-39 71h-6q-20 -42 -56 -73.5t-87 -31.5q-35 0 -61 13t-40 34h-6l5 -57v-190h-107z" />
    <glyph glyph-name="paragraph" unicode="&#xb6;" horiz-adv-x="648" 
d="M289 -216v512h-34q-60 0 -111.5 25t-82.5 72.5t-31 112.5q0 66 31 113t82.5 72t111.5 25h313v-932h-94v838h-92v-838h-93z" />
    <glyph glyph-name="periodcentered" unicode="&#xb7;" horiz-adv-x="276" 
d="M138 249q-31 0 -53 22t-22 53t22 53t53 22t53 -22t22 -53t-22 -53t-53 -22z" />
    <glyph glyph-name="cedilla" unicode="&#xb8;" horiz-adv-x="407" 
d="M164 -246q-37 0 -63.5 20t-35.5 50l59 19q4 -13 15 -21.5t26 -8.5q19 0 29.5 11t10.5 28q0 18 -11 29t-29 11q-19 0 -33 -15l-51 23l39 100h60l-25 -56q9 3 21 3q41 0 67.5 -25.5t26.5 -69.5q0 -42 -29 -70t-77 -28z" />
    <glyph glyph-name="uni00B9" unicode="&#xb9;" horiz-adv-x="262" 
d="M121 458v275l-90 -65v94l99 74h68v-378h-77z" />
    <glyph glyph-name="ordmasculine" unicode="&#xba;" horiz-adv-x="530" 
d="M265 264q-68 0 -118 30t-77.5 83t-27.5 121t27.5 121t77.5 83t118 30t118.5 -30t77.5 -83t27 -121t-28 -121t-78 -83t-117 -30zM265 355q56 0 90 36t34 107t-34 107t-90 36t-90 -36t-34 -107t34 -107t90 -36z" />
    <glyph glyph-name="guillemotright" unicode="&#xbb;" horiz-adv-x="630" 
d="M132 41l-62 57l163 173l-163 173l62 57l213 -230zM368 41l-62 57l163 173l-163 173l62 57l213 -230z" />
    <glyph glyph-name="onequarter" unicode="&#xbc;" horiz-adv-x="782" 
d="M144 338v275l-90 -65v94l99 74h68v-378h-77zM183 -11l-65 43l465 695l66 -44zM596 0v72h-176v53l176 253h75v-242h51v-64h-51v-72h-75zM502 136h94v131h-6z" />
    <glyph glyph-name="onehalf" unicode="&#xbd;" horiz-adv-x="829" 
d="M144 338v275l-90 -65v94l99 74h68v-378h-77zM183 -11l-65 43l465 695l66 -44zM511 0v59q49 36 82 64t54 52t29.5 46t8.5 45q0 24 -14.5 37.5t-36.5 13.5q-24 0 -37.5 -16t-17.5 -43l-75 13q6 53 42 84t88 31q60 0 94.5 -31t34.5 -88q0 -36 -14.5 -66.5t-37.5 -57.5
q-18 -21 -39.5 -39.5t-44.5 -34.5h138v-69h-254z" />
    <glyph glyph-name="threequarters" unicode="&#xbe;" horiz-adv-x="862" 
d="M193 330q-55 0 -93.5 29t-47.5 86l75 14q5 -31 23 -46t43 -15q26 0 42 14t16 39q0 23 -17.5 37t-46.5 14h-31v63h27q26 0 41.5 11.5t15.5 35.5q0 20 -13.5 32t-36.5 12q-21 0 -35.5 -12t-20.5 -30l-73 12q8 42 41.5 70t88.5 28q58 0 92 -29t34 -74q0 -28 -13.5 -49
t-33.5 -35q25 -9 42 -31.5t17 -57.5q0 -53 -38.5 -85.5t-97.5 -32.5zM263 -11l-65 43l465 695l66 -44zM676 0v72h-176v53l176 253h75v-242h51v-64h-51v-72h-75zM582 136h94v131h-6z" />
    <glyph glyph-name="questiondown" unicode="&#xbf;" horiz-adv-x="538" 
d="M273 392q-31 0 -52.5 22t-21.5 53t21.5 53t52.5 22q32 0 54 -22t22 -53t-22 -53t-54 -22zM273 -232q-97 0 -152.5 50t-55.5 134q0 62 28 103t65 71q34 28 47.5 53t13.5 63v34h109v-43q0 -52 -19 -88t-71 -76q-32 -26 -49 -50t-17 -60q0 -40 27 -64.5t75 -24.5
q45 0 73 24.5t34 66.5l99 -13q-5 -51 -31 -91.5t-70.5 -64.5t-105.5 -24z" />
    <glyph glyph-name="Agrave" unicode="&#xc0;" horiz-adv-x="678" 
d="M17 0l259 716h125l260 -716h-120l-63 184h-279l-63 -184h-119zM310 505l-76 -219h209l-76 219l-25 82h-6zM295 813l-85 147h124l50 -147h-89z" />
    <glyph glyph-name="Aacute" unicode="&#xc1;" horiz-adv-x="678" 
d="M17 0l259 716h125l260 -716h-120l-63 184h-279l-63 -184h-119zM310 505l-76 -219h209l-76 219l-25 82h-6zM294 813l50 147h124l-85 -147h-89z" />
    <glyph glyph-name="Acircumflex" unicode="&#xc2;" horiz-adv-x="678" 
d="M17 0l259 716h125l260 -716h-120l-63 184h-279l-63 -184h-119zM310 505l-76 -219h209l-76 219l-25 82h-6zM176 813v6l116 141h95l116 -141v-6h-101l-58 80h-10l-57 -80h-101z" />
    <glyph glyph-name="Atilde" unicode="&#xc3;" horiz-adv-x="678" 
d="M17 0l259 716h125l260 -716h-120l-63 184h-279l-63 -184h-119zM310 505l-76 -219h209l-76 219l-25 82h-6zM406 819q-26 0 -47 9.5t-37 20.5q-13 8 -24 13.5t-23 5.5q-14 0 -23.5 -9.5t-10.5 -28.5h-81q0 60 31.5 91t77.5 31q28 0 49 -9t38 -21q13 -8 23.5 -13.5
t21.5 -5.5q31 0 34 38h81q0 -59 -31.5 -90.5t-78.5 -31.5z" />
    <glyph glyph-name="Adieresis" unicode="&#xc4;" horiz-adv-x="678" 
d="M17 0l259 716h125l260 -716h-120l-63 184h-279l-63 -184h-119zM310 505l-76 -219h209l-76 219l-25 82h-6zM432 825q-25 0 -43.5 18.5t-18.5 43.5q0 27 18.5 44.5t43.5 17.5q27 0 45 -17.5t18 -44.5q0 -25 -18 -43.5t-45 -18.5zM245 825q-25 0 -43.5 18.5t-18.5 43.5
q0 27 18.5 44.5t43.5 17.5q27 0 44.5 -17.5t17.5 -44.5q0 -25 -17.5 -43.5t-44.5 -18.5z" />
    <glyph glyph-name="Aring" unicode="&#xc5;" horiz-adv-x="678" 
d="M17 0l243 673q-20 17 -32.5 41.5t-12.5 53.5q0 34 16.5 62.5t44.5 45t62 16.5q35 0 63 -16.5t45 -45t17 -62.5q0 -29 -12.5 -54t-34.5 -41l245 -673h-120l-63 184h-279l-63 -184h-119zM338 716q22 0 37 15t15 37q0 23 -15 37.5t-37 14.5q-21 0 -36 -14.5t-15 -37.5
q0 -22 15 -37t36 -15zM310 505l-76 -219h209l-76 219l-25 82h-6z" />
    <glyph glyph-name="AE" unicode="&#xc6;" horiz-adv-x="1012" 
d="M10 0l425 716h517v-104h-345v-189h314v-104h-314v-215h345v-104h-454v185h-251l-108 -185h-129zM306 289h192v323h-7l-31 -60z" />
    <glyph glyph-name="Ccedilla" unicode="&#xc7;" horiz-adv-x="726" 
d="M390 -246q-37 0 -63.5 20t-36.5 50l60 19q4 -13 15 -21.5t26 -8.5q19 0 29.5 11t10.5 28q0 18 -11 29t-29 11q-19 0 -33 -15l-51 23l33 86q-86 9 -151 56.5t-101.5 128t-36.5 187.5q0 115 42.5 199t116.5 129.5t169 45.5q77 0 141.5 -27t106 -79.5t48.5 -129.5l-108 -18
q-12 64 -59 107t-129 43q-61 0 -110.5 -30.5t-78 -91t-28.5 -148.5t28.5 -148t77.5 -91t111 -31q79 0 128 41.5t62 109.5l108 -12q-18 -108 -89.5 -172.5t-188.5 -69.5l-18 -41q9 3 21 3q41 0 67.5 -25.5t26.5 -69.5q0 -42 -29 -70t-77 -28z" />
    <glyph glyph-name="Egrave" unicode="&#xc8;" 
d="M86 0v716h454v-104h-345v-189h314v-104h-314v-215h345v-104h-454zM270 813l-85 147h124l50 -147h-89z" />
    <glyph glyph-name="Eacute" unicode="&#xc9;" 
d="M86 0v716h454v-104h-345v-189h314v-104h-314v-215h345v-104h-454zM270 813l50 147h124l-85 -147h-89z" />
    <glyph glyph-name="Ecircumflex" unicode="&#xca;" 
d="M86 0v716h454v-104h-345v-189h314v-104h-314v-215h345v-104h-454zM151 813v6l116 141h95l116 -141v-6h-101l-58 80h-10l-57 -80h-101z" />
    <glyph glyph-name="Edieresis" unicode="&#xcb;" 
d="M86 0v716h454v-104h-345v-189h314v-104h-314v-215h345v-104h-454zM408 825q-25 0 -43.5 18.5t-18.5 43.5q0 27 18.5 44.5t43.5 17.5q27 0 45 -17.5t18 -44.5q0 -25 -18 -43.5t-45 -18.5zM221 825q-25 0 -43.5 18.5t-18.5 43.5q0 27 18.5 44.5t43.5 17.5q27 0 44.5 -17.5
t17.5 -44.5q0 -25 -17.5 -43.5t-44.5 -18.5z" />
    <glyph glyph-name="Igrave" unicode="&#xcc;" horiz-adv-x="281" 
d="M86 0v716h109v-716h-109zM96 813l-85 147h124l50 -147h-89z" />
    <glyph glyph-name="Iacute" unicode="&#xcd;" horiz-adv-x="281" 
d="M86 0v716h109v-716h-109zM95 813l50 147h124l-85 -147h-89z" />
    <glyph glyph-name="Icircumflex" unicode="&#xce;" horiz-adv-x="281" 
d="M86 0v716h109v-716h-109zM-23 813v6l116 141h95l116 -141v-6h-101l-58 80h-10l-57 -80h-101z" />
    <glyph glyph-name="Idieresis" unicode="&#xcf;" horiz-adv-x="281" 
d="M53 825q-26 0 -44.5 18.5t-18.5 43.5q0 27 18.5 44.5t44.5 17.5q27 0 44.5 -17.5t17.5 -44.5q0 -25 -17.5 -43.5t-44.5 -18.5zM228 825q-25 0 -44 18.5t-19 43.5q0 27 19 44.5t44 17.5q27 0 45 -17.5t18 -44.5q0 -25 -18 -43.5t-45 -18.5zM86 0v716h110v-716h-110z" />
    <glyph glyph-name="Eth" unicode="&#xd0;" horiz-adv-x="749" 
d="M116 0v312h-76v90h76v314h239q165 0 253.5 -93.5t88.5 -264.5t-88.5 -264.5t-253.5 -93.5h-239zM226 104h126q112 0 174 61t62 193t-62 193t-174 61h-126v-210h187v-90h-187v-208z" />
    <glyph glyph-name="Ntilde" unicode="&#xd1;" horiz-adv-x="725" 
d="M86 0v716h129l316 -525h6l-6 137v388h108v-716h-114l-331 552h-6l6 -138v-414h-108zM430 819q-26 0 -47 9.5t-37 20.5q-13 8 -24 13.5t-23 5.5q-14 0 -23.5 -9.5t-10.5 -28.5h-81q0 60 31.5 91t77.5 31q28 0 49 -9t38 -21q13 -8 23.5 -13.5t21.5 -5.5q31 0 34 38h81
q0 -59 -31.5 -90.5t-78.5 -31.5z" />
    <glyph glyph-name="Ograve" unicode="&#xd2;" horiz-adv-x="787" 
d="M394 -16q-102 0 -179 48t-120.5 132t-43.5 194t43.5 194.5t120.5 132t179 47.5t179 -47.5t120 -132t43 -194.5t-43 -194t-120 -132t-179 -48zM394 88q67 0 119 31.5t82.5 92t30.5 146.5t-30.5 146.5t-82.5 92t-119 31.5t-119.5 -31.5t-82.5 -92t-30 -146.5t30 -146.5
t82.5 -92t119.5 -31.5zM350 813l-85 147h124l50 -147h-89z" />
    <glyph glyph-name="Oacute" unicode="&#xd3;" horiz-adv-x="787" 
d="M394 -16q-102 0 -179 48t-120.5 132t-43.5 194t43.5 194.5t120.5 132t179 47.5t179 -47.5t120 -132t43 -194.5t-43 -194t-120 -132t-179 -48zM394 88q67 0 119 31.5t82.5 92t30.5 146.5t-30.5 146.5t-82.5 92t-119 31.5t-119.5 -31.5t-82.5 -92t-30 -146.5t30 -146.5
t82.5 -92t119.5 -31.5zM349 813l50 147h124l-85 -147h-89z" />
    <glyph glyph-name="Ocircumflex" unicode="&#xd4;" horiz-adv-x="787" 
d="M394 -16q-102 0 -179 48t-120.5 132t-43.5 194t43.5 194.5t120.5 132t179 47.5t179 -47.5t120 -132t43 -194.5t-43 -194t-120 -132t-179 -48zM394 88q67 0 119 31.5t82.5 92t30.5 146.5t-30.5 146.5t-82.5 92t-119 31.5t-119.5 -31.5t-82.5 -92t-30 -146.5t30 -146.5
t82.5 -92t119.5 -31.5zM231 813v6l116 141h95l116 -141v-6h-101l-58 80h-10l-57 -80h-101z" />
    <glyph glyph-name="Otilde" unicode="&#xd5;" horiz-adv-x="787" 
d="M394 -16q-102 0 -179 48t-120.5 132t-43.5 194t43.5 194.5t120.5 132t179 47.5t179 -47.5t120 -132t43 -194.5t-43 -194t-120 -132t-179 -48zM394 88q67 0 119 31.5t82.5 92t30.5 146.5t-30.5 146.5t-82.5 92t-119 31.5t-119.5 -31.5t-82.5 -92t-30 -146.5t30 -146.5
t82.5 -92t119.5 -31.5zM461 819q-26 0 -47 9.5t-37 20.5q-13 8 -24 13.5t-23 5.5q-14 0 -23.5 -9.5t-10.5 -28.5h-81q0 60 31.5 91t77.5 31q28 0 49 -9t38 -21q13 -8 23.5 -13.5t21.5 -5.5q31 0 34 38h81q0 -59 -31.5 -90.5t-78.5 -31.5z" />
    <glyph glyph-name="Odieresis" unicode="&#xd6;" horiz-adv-x="787" 
d="M394 -16q-102 0 -179 48t-120.5 132t-43.5 194t43.5 194.5t120.5 132t179 47.5t179 -47.5t120 -132t43 -194.5t-43 -194t-120 -132t-179 -48zM394 88q67 0 119 31.5t82.5 92t30.5 146.5t-30.5 146.5t-82.5 92t-119 31.5t-119.5 -31.5t-82.5 -92t-30 -146.5t30 -146.5
t82.5 -92t119.5 -31.5zM487 825q-25 0 -43.5 18.5t-18.5 43.5q0 27 18.5 44.5t43.5 17.5q27 0 45 -17.5t18 -44.5q0 -25 -18 -43.5t-45 -18.5zM300 825q-25 0 -43.5 18.5t-18.5 43.5q0 27 18.5 44.5t43.5 17.5q27 0 44.5 -17.5t17.5 -44.5q0 -25 -17.5 -43.5t-44.5 -18.5z
" />
    <glyph glyph-name="multiply" unicode="&#xd7;" horiz-adv-x="596" 
d="M136 52l-64 64l161 155l-161 155l64 64l162 -157l162 157l64 -64l-161 -155l161 -155l-64 -64l-162 157z" />
    <glyph glyph-name="Oslash" unicode="&#xd8;" horiz-adv-x="787" 
d="M187 -51l-75 47l49 77q-52 50 -81 123t-29 162q0 110 43.5 194.5t120.5 132t179 47.5q88 0 160 -38l47 74l74 -48l-48 -77q51 -50 80 -123t29 -162q0 -110 -43 -194t-120 -132t-179 -48q-89 0 -161 38zM162 358q0 -61 15.5 -109t42.5 -82l278 438q-47 23 -104 23
q-67 0 -119.5 -31.5t-82.5 -92t-30 -146.5zM394 88q67 0 119 31.5t82.5 92t30.5 146.5q0 61 -15.5 109t-43.5 82l-277 -438q46 -23 104 -23z" />
    <glyph glyph-name="Ugrave" unicode="&#xd9;" horiz-adv-x="701" 
d="M351 -16q-128 0 -201 75t-73 212v445h108v-451q0 -85 42 -131t124 -46q81 0 123 46t42 131v451h108v-445q0 -134 -72.5 -210.5t-200.5 -76.5zM307 813l-85 147h124l50 -147h-89z" />
    <glyph glyph-name="Uacute" unicode="&#xda;" horiz-adv-x="701" 
d="M351 -16q-128 0 -201 75t-73 212v445h108v-451q0 -85 42 -131t124 -46q81 0 123 46t42 131v451h108v-445q0 -134 -72.5 -210.5t-200.5 -76.5zM306 813l50 147h124l-85 -147h-89z" />
    <glyph glyph-name="Ucircumflex" unicode="&#xdb;" horiz-adv-x="701" 
d="M351 -16q-128 0 -201 75t-73 212v445h108v-451q0 -85 42 -131t124 -46q81 0 123 46t42 131v451h108v-445q0 -134 -72.5 -210.5t-200.5 -76.5zM188 813v6l116 141h95l116 -141v-6h-101l-58 80h-10l-57 -80h-101z" />
    <glyph glyph-name="Udieresis" unicode="&#xdc;" horiz-adv-x="701" 
d="M351 -16q-128 0 -201 75t-73 212v445h108v-451q0 -85 42 -131t124 -46q81 0 123 46t42 131v451h108v-445q0 -134 -72.5 -210.5t-200.5 -76.5zM444 825q-25 0 -43.5 18.5t-18.5 43.5q0 27 18.5 44.5t43.5 17.5q27 0 45 -17.5t18 -44.5q0 -25 -18 -43.5t-45 -18.5zM257 825
q-25 0 -43.5 18.5t-18.5 43.5q0 27 18.5 44.5t43.5 17.5q27 0 44.5 -17.5t17.5 -44.5q0 -25 -17.5 -43.5t-44.5 -18.5z" />
    <glyph glyph-name="Yacute" unicode="&#xdd;" horiz-adv-x="609" 
d="M252 0v328l-235 388h128l158 -270h6l153 270h129l-230 -388v-328h-109zM259 813l50 147h124l-85 -147h-89z" />
    <glyph glyph-name="Thorn" unicode="&#xde;" horiz-adv-x="629" 
d="M86 0v716h109v-111h159q67 0 121.5 -24t86 -74t31.5 -126q0 -77 -31.5 -127t-86 -74t-121.5 -24h-159v-156h-109zM195 260h162q60 0 94 31t34 90t-34 89.5t-94 30.5h-162v-241z" />
    <glyph glyph-name="germandbls" unicode="&#xdf;" horiz-adv-x="608" 
d="M335 -8q-14 0 -34 1t-35 4v100q31 -5 59 -5q53 0 83.5 31t30.5 91q0 56 -36 88t-95 32h-33v96h24q58 0 86.5 29.5t28.5 75.5q0 45 -29.5 70.5t-78.5 25.5q-50 0 -80 -30.5t-30 -87.5v-513h-108v512q0 63 25 112.5t73.5 78.5t119.5 29q64 0 112 -23t74.5 -64.5t26.5 -97.5
q0 -62 -24 -98.5t-61 -57.5v-6q48 -19 81 -61t33 -113q0 -98 -55 -158.5t-158 -60.5z" />
    <glyph glyph-name="agrave" unicode="&#xe0;" horiz-adv-x="573" 
d="M233 -16q-82 0 -132 45t-50 121q0 53 27.5 89.5t73 55.5t100.5 19q42 0 78 -5t72 -15v50q0 49 -34 78.5t-90 29.5q-45 0 -76.5 -21.5t-43.5 -62.5l-95 22q16 74 76.5 113t139.5 39q111 0 169 -53t58 -152v-337h-104v61h-6q-23 -30 -63.5 -53.5t-99.5 -23.5zM257 72
q66 0 105.5 40.5t39.5 97.5q-67 23 -133 23q-52 0 -81 -21t-29 -62q0 -34 27.5 -56t70.5 -22zM237 629l-85 147h124l50 -147h-89z" />
    <glyph glyph-name="aacute" unicode="&#xe1;" horiz-adv-x="573" 
d="M233 -16q-82 0 -132 45t-50 121q0 53 27.5 89.5t73 55.5t100.5 19q42 0 78 -5t72 -15v50q0 49 -34 78.5t-90 29.5q-45 0 -76.5 -21.5t-43.5 -62.5l-95 22q16 74 76.5 113t139.5 39q111 0 169 -53t58 -152v-337h-104v61h-6q-23 -30 -63.5 -53.5t-99.5 -23.5zM257 72
q66 0 105.5 40.5t39.5 97.5q-67 23 -133 23q-52 0 -81 -21t-29 -62q0 -34 27.5 -56t70.5 -22zM237 629l50 147h124l-85 -147h-89z" />
    <glyph glyph-name="acircumflex" unicode="&#xe2;" horiz-adv-x="573" 
d="M233 -16q-82 0 -132 45t-50 121q0 53 27.5 89.5t73 55.5t100.5 19q42 0 78 -5t72 -15v50q0 49 -34 78.5t-90 29.5q-45 0 -76.5 -21.5t-43.5 -62.5l-95 22q16 74 76.5 113t139.5 39q111 0 169 -53t58 -152v-337h-104v61h-6q-23 -30 -63.5 -53.5t-99.5 -23.5zM257 72
q66 0 105.5 40.5t39.5 97.5q-67 23 -133 23q-52 0 -81 -21t-29 -62q0 -34 27.5 -56t70.5 -22zM118 629v6l116 141h95l116 -141v-6h-101l-58 80h-10l-57 -80h-101z" />
    <glyph glyph-name="atilde" unicode="&#xe3;" horiz-adv-x="573" 
d="M233 -16q-82 0 -132 45t-50 121q0 53 27.5 89.5t73 55.5t100.5 19q42 0 78 -5t72 -15v50q0 49 -34 78.5t-90 29.5q-45 0 -76.5 -21.5t-43.5 -62.5l-95 22q16 74 76.5 113t139.5 39q111 0 169 -53t58 -152v-337h-104v61h-6q-23 -30 -63.5 -53.5t-99.5 -23.5zM257 72
q66 0 105.5 40.5t39.5 97.5q-67 23 -133 23q-52 0 -81 -21t-29 -62q0 -34 27.5 -56t70.5 -22zM349 636q-26 0 -47 9.5t-37 20.5q-13 8 -24 13.5t-23 5.5q-14 0 -23.5 -9.5t-10.5 -28.5h-81q0 60 31.5 91t77.5 31q28 0 49 -9t38 -21q13 -8 23.5 -13.5t21.5 -5.5q31 0 34 38
h81q0 -59 -31.5 -90.5t-78.5 -31.5z" />
    <glyph glyph-name="adieresis" unicode="&#xe4;" horiz-adv-x="573" 
d="M233 -16q-82 0 -132 45t-50 121q0 53 27.5 89.5t73 55.5t100.5 19q42 0 78 -5t72 -15v50q0 49 -34 78.5t-90 29.5q-45 0 -76.5 -21.5t-43.5 -62.5l-95 22q16 74 76.5 113t139.5 39q111 0 169 -53t58 -152v-337h-104v61h-6q-23 -30 -63.5 -53.5t-99.5 -23.5zM257 72
q66 0 105.5 40.5t39.5 97.5q-67 23 -133 23q-52 0 -81 -21t-29 -62q0 -34 27.5 -56t70.5 -22zM375 641q-25 0 -43.5 18.5t-18.5 43.5q0 27 18.5 44.5t43.5 17.5q27 0 45 -17.5t18 -44.5q0 -25 -18 -43.5t-45 -18.5zM188 641q-25 0 -43.5 18.5t-18.5 43.5q0 27 18.5 44.5
t43.5 17.5q27 0 44.5 -17.5t17.5 -44.5q0 -25 -17.5 -43.5t-44.5 -18.5z" />
    <glyph glyph-name="aring" unicode="&#xe5;" horiz-adv-x="573" 
d="M233 -16q-82 0 -132 45t-50 121q0 53 27.5 89.5t73 55.5t100.5 19q42 0 78 -5t72 -15v50q0 49 -34 78.5t-90 29.5q-45 0 -76.5 -21.5t-43.5 -62.5l-95 22q16 74 76.5 113t139.5 39q111 0 169 -53t58 -152v-337h-104v61h-6q-23 -30 -63.5 -53.5t-99.5 -23.5zM257 72
q66 0 105.5 40.5t39.5 97.5q-67 23 -133 23q-52 0 -81 -21t-29 -62q0 -34 27.5 -56t70.5 -22zM281 604q-46 0 -78.5 32.5t-32.5 78.5t32.5 78.5t78.5 32.5q47 0 79.5 -32.5t32.5 -78.5t-32.5 -78.5t-79.5 -32.5zM281 669q20 0 33 13.5t13 32.5q0 20 -13 33t-33 13
q-19 0 -32 -13t-13 -33q0 -19 13 -32.5t32 -13.5z" />
    <glyph glyph-name="ae" unicode="&#xe6;" horiz-adv-x="937" 
d="M233 -16q-82 0 -132 45t-50 121q0 53 27.5 89.5t73 55.5t100.5 19q42 0 78 -5t72 -15v50q0 49 -34 78.5t-90 29.5q-45 0 -76.5 -21.5t-43.5 -62.5l-95 22q16 74 76.5 113t139.5 39q137 0 192 -88q33 42 79.5 65t102.5 23q119 0 180.5 -67t61.5 -183q0 -29 -3 -52h-384
q5 -78 46 -119t103 -41q55 0 85.5 24.5t44.5 61.5l94 -25q-20 -68 -76 -112.5t-152 -44.5q-71 0 -125 32.5t-85 89.5q-35 -57 -88 -89.5t-122 -32.5zM513 321h276q-3 59 -37 94.5t-98 35.5q-53 0 -91 -33t-50 -97zM257 72q66 0 105.5 40.5t39.5 97.5q-67 23 -133 23
q-52 0 -81 -21t-29 -62q0 -34 27.5 -56t70.5 -22z" />
    <glyph glyph-name="ccedilla" unicode="&#xe7;" horiz-adv-x="565" 
d="M303 -246q-38 0 -64 20t-36 50l59 19q4 -13 15 -21.5t27 -8.5q18 0 28.5 11t10.5 28q0 18 -10.5 29t-28.5 11q-20 0 -33 -15l-52 23l34 87q-64 9 -111.5 45t-73.5 95t-26 136q0 85 32.5 147.5t90 97t132.5 34.5q94 0 154.5 -47t74.5 -129l-104 -17q-10 43 -42.5 68.5
t-84.5 25.5q-62 0 -104 -46.5t-42 -133.5t41.5 -133.5t104.5 -46.5q99 0 128 99l101 -24q-18 -73 -71.5 -121t-140.5 -52l-18 -41q8 3 20 3q41 0 68 -25.5t27 -69.5q0 -42 -29.5 -70t-76.5 -28z" />
    <glyph glyph-name="egrave" unicode="&#xe8;" horiz-adv-x="576" 
d="M292 -16q-76 0 -132.5 35.5t-87 98t-30.5 144.5q0 84 32 147t88.5 98t129.5 35q119 0 180.5 -67t61.5 -183q0 -29 -3 -52h-384q5 -78 46 -119t103 -41q55 0 85.5 24.5t44.5 61.5l94 -25q-20 -68 -76 -112.5t-152 -44.5zM293 451q-54 0 -91.5 -33t-49.5 -97h276
q-3 59 -37 94.5t-98 35.5zM249 629l-85 147h124l50 -147h-89z" />
    <glyph glyph-name="eacute" unicode="&#xe9;" horiz-adv-x="576" 
d="M292 -16q-76 0 -132.5 35.5t-87 98t-30.5 144.5q0 84 32 147t88.5 98t129.5 35q119 0 180.5 -67t61.5 -183q0 -29 -3 -52h-384q5 -78 46 -119t103 -41q55 0 85.5 24.5t44.5 61.5l94 -25q-20 -68 -76 -112.5t-152 -44.5zM293 451q-54 0 -91.5 -33t-49.5 -97h276
q-3 59 -37 94.5t-98 35.5zM248 629l50 147h124l-85 -147h-89z" />
    <glyph glyph-name="ecircumflex" unicode="&#xea;" horiz-adv-x="576" 
d="M292 -16q-76 0 -132.5 35.5t-87 98t-30.5 144.5q0 84 32 147t88.5 98t129.5 35q119 0 180.5 -67t61.5 -183q0 -29 -3 -52h-384q5 -78 46 -119t103 -41q55 0 85.5 24.5t44.5 61.5l94 -25q-20 -68 -76 -112.5t-152 -44.5zM293 451q-54 0 -91.5 -33t-49.5 -97h276
q-3 59 -37 94.5t-98 35.5zM130 629v6l116 141h95l116 -141v-6h-101l-58 80h-10l-57 -80h-101z" />
    <glyph glyph-name="edieresis" unicode="&#xeb;" horiz-adv-x="576" 
d="M292 -16q-76 0 -132.5 35.5t-87 98t-30.5 144.5q0 84 32 147t88.5 98t129.5 35q119 0 180.5 -67t61.5 -183q0 -29 -3 -52h-384q5 -78 46 -119t103 -41q55 0 85.5 24.5t44.5 61.5l94 -25q-20 -68 -76 -112.5t-152 -44.5zM293 451q-54 0 -91.5 -33t-49.5 -97h276
q-3 59 -37 94.5t-98 35.5zM386 641q-25 0 -43.5 18.5t-18.5 43.5q0 27 18.5 44.5t43.5 17.5q27 0 45 -17.5t18 -44.5q0 -25 -18 -43.5t-45 -18.5zM199 641q-25 0 -43.5 18.5t-18.5 43.5q0 27 18.5 44.5t43.5 17.5q27 0 44.5 -17.5t17.5 -44.5q0 -25 -17.5 -43.5t-44.5 -18.5
z" />
    <glyph glyph-name="igrave" unicode="&#xec;" horiz-adv-x="251" 
d="M71 0v526h108v-526h-108zM82 629l-85 147h124l50 -147h-89z" />
    <glyph glyph-name="iacute" unicode="&#xed;" horiz-adv-x="251" 
d="M71 0v526h108v-526h-108zM81 629l50 147h124l-85 -147h-89z" />
    <glyph glyph-name="icircumflex" unicode="&#xee;" horiz-adv-x="251" 
d="M71 0v526h108v-526h-108zM-37 629v6l116 141h95l116 -141v-6h-101l-58 80h-10l-57 -80h-101z" />
    <glyph glyph-name="idieresis" unicode="&#xef;" horiz-adv-x="251" 
d="M43 641q-25 0 -43.5 18.5t-18.5 43.5q0 27 18.5 44.5t43.5 17.5q27 0 44.5 -17.5t17.5 -44.5q0 -25 -17.5 -43.5t-44.5 -18.5zM208 641q-25 0 -43.5 18.5t-18.5 43.5q0 27 18.5 44.5t43.5 17.5q27 0 45 -17.5t18 -44.5q0 -25 -18 -43.5t-45 -18.5zM71 0v526h108v-526
h-108z" />
    <glyph glyph-name="eth" unicode="&#xf0;" horiz-adv-x="580" 
d="M288 -16q-74 0 -129 34t-86 94t-31 137q0 79 30.5 137.5t83.5 91t122 32.5q43 0 75 -15.5t48 -31.5l6 4q-16 41 -40.5 72.5t-54.5 53.5l-123 -54l-30 71l72 32q-25 12 -51 20t-52 14l34 85q50 -13 93.5 -31t80.5 -42l101 45l30 -70l-59 -27q65 -65 97.5 -155t32.5 -210
q0 -86 -31 -150.5t-87.5 -100.5t-131.5 -36zM289 83q62 0 101.5 42.5t39.5 122.5t-38.5 122.5t-101.5 42.5t-102.5 -42.5t-39.5 -122.5t39.5 -122.5t101.5 -42.5z" />
    <glyph glyph-name="ntilde" unicode="&#xf1;" horiz-adv-x="589" 
d="M73 0v526h101v-67h6q21 37 62.5 60t93.5 23q90 0 137.5 -53.5t47.5 -146.5v-342h-108v328q0 59 -29 87t-77 28q-59 0 -93 -42t-34 -102v-299h-107zM377 636q-26 0 -47 9.5t-37 20.5q-13 8 -24 13.5t-23 5.5q-14 0 -23.5 -9.5t-10.5 -28.5h-81q0 60 31.5 91t77.5 31
q28 0 49 -9t38 -21q13 -8 23.5 -13.5t21.5 -5.5q31 0 34 38h81q0 -59 -31.5 -90.5t-78.5 -31.5z" />
    <glyph glyph-name="ograve" unicode="&#xf2;" 
d="M300 -16q-79 0 -137 35.5t-89.5 98.5t-31.5 145t31.5 145t89.5 98.5t137 35.5q80 0 137.5 -35.5t89 -98.5t31.5 -145t-31.5 -145t-89 -98.5t-137.5 -35.5zM300 83q67 0 109 46.5t42 133.5t-42 133.5t-109 46.5q-66 0 -108.5 -46.5t-42.5 -133.5t42.5 -133.5t108.5 -46.5z
M256 629l-85 147h124l50 -147h-89z" />
    <glyph glyph-name="oacute" unicode="&#xf3;" 
d="M300 -16q-79 0 -137 35.5t-89.5 98.5t-31.5 145t31.5 145t89.5 98.5t137 35.5q80 0 137.5 -35.5t89 -98.5t31.5 -145t-31.5 -145t-89 -98.5t-137.5 -35.5zM300 83q67 0 109 46.5t42 133.5t-42 133.5t-109 46.5q-66 0 -108.5 -46.5t-42.5 -133.5t42.5 -133.5t108.5 -46.5z
M255 629l50 147h124l-85 -147h-89z" />
    <glyph glyph-name="ocircumflex" unicode="&#xf4;" 
d="M300 -16q-79 0 -137 35.5t-89.5 98.5t-31.5 145t31.5 145t89.5 98.5t137 35.5q80 0 137.5 -35.5t89 -98.5t31.5 -145t-31.5 -145t-89 -98.5t-137.5 -35.5zM300 83q67 0 109 46.5t42 133.5t-42 133.5t-109 46.5q-66 0 -108.5 -46.5t-42.5 -133.5t42.5 -133.5t108.5 -46.5z
M137 629v6l116 141h95l116 -141v-6h-101l-58 80h-10l-57 -80h-101z" />
    <glyph glyph-name="otilde" unicode="&#xf5;" 
d="M300 -16q-79 0 -137 35.5t-89.5 98.5t-31.5 145t31.5 145t89.5 98.5t137 35.5q80 0 137.5 -35.5t89 -98.5t31.5 -145t-31.5 -145t-89 -98.5t-137.5 -35.5zM300 83q67 0 109 46.5t42 133.5t-42 133.5t-109 46.5q-66 0 -108.5 -46.5t-42.5 -133.5t42.5 -133.5t108.5 -46.5z
M368 636q-26 0 -47 9.5t-37 20.5q-13 8 -24 13.5t-23 5.5q-14 0 -23.5 -9.5t-10.5 -28.5h-81q0 60 31.5 91t77.5 31q28 0 49 -9t38 -21q13 -8 23.5 -13.5t21.5 -5.5q31 0 34 38h81q0 -59 -31.5 -90.5t-78.5 -31.5z" />
    <glyph glyph-name="odieresis" unicode="&#xf6;" 
d="M300 -16q-79 0 -137 35.5t-89.5 98.5t-31.5 145t31.5 145t89.5 98.5t137 35.5q80 0 137.5 -35.5t89 -98.5t31.5 -145t-31.5 -145t-89 -98.5t-137.5 -35.5zM300 83q67 0 109 46.5t42 133.5t-42 133.5t-109 46.5q-66 0 -108.5 -46.5t-42.5 -133.5t42.5 -133.5t108.5 -46.5z
M393 641q-25 0 -43.5 18.5t-18.5 43.5q0 27 18.5 44.5t43.5 17.5q27 0 45 -17.5t18 -44.5q0 -25 -18 -43.5t-45 -18.5zM206 641q-25 0 -43.5 18.5t-18.5 43.5q0 27 18.5 44.5t43.5 17.5q27 0 44.5 -17.5t17.5 -44.5q0 -25 -17.5 -43.5t-44.5 -18.5z" />
    <glyph glyph-name="divide" unicode="&#xf7;" horiz-adv-x="569" 
d="M284 399q-30 0 -51 21t-21 51t21 51.5t51 21.5q31 0 52 -21.5t21 -51.5t-21 -51t-52 -21zM62 227v88h445v-88h-445zM284 -2q-30 0 -51 21.5t-21 51.5t21 51t51 21q31 0 52 -21t21 -51t-21 -51.5t-52 -21.5z" />
    <glyph glyph-name="oslash" unicode="&#xf8;" 
d="M161 -40l-72 41l32 52q-38 37 -58.5 90.5t-20.5 119.5q0 82 31.5 145t89.5 98.5t137 35.5q61 0 111 -22l28 45l72 -40l-31 -51q37 -38 57.5 -91.5t20.5 -119.5q0 -82 -31.5 -145t-89 -98.5t-137.5 -35.5q-60 0 -111 22zM149 263q0 -70 30 -116l178 286q-26 10 -57 10
q-66 0 -108.5 -46.5t-42.5 -133.5zM300 83q67 0 109 46.5t42 133.5q0 71 -30 116l-177 -286q26 -10 56 -10z" />
    <glyph glyph-name="ugrave" unicode="&#xf9;" horiz-adv-x="589" 
d="M253 -16q-90 0 -137 53.5t-47 146.5v342h107v-328q0 -59 29.5 -87t76.5 -28q59 0 93 42t34 102v299h107v-526h-101v67h-6q-21 -37 -62 -60t-94 -23zM248 629l-85 147h124l50 -147h-89z" />
    <glyph glyph-name="uacute" unicode="&#xfa;" horiz-adv-x="589" 
d="M253 -16q-90 0 -137 53.5t-47 146.5v342h107v-328q0 -59 29.5 -87t76.5 -28q59 0 93 42t34 102v299h107v-526h-101v67h-6q-21 -37 -62 -60t-94 -23zM248 629l50 147h124l-85 -147h-89z" />
    <glyph glyph-name="ucircumflex" unicode="&#xfb;" horiz-adv-x="589" 
d="M253 -16q-90 0 -137 53.5t-47 146.5v342h107v-328q0 -59 29.5 -87t76.5 -28q59 0 93 42t34 102v299h107v-526h-101v67h-6q-21 -37 -62 -60t-94 -23zM129 629v6l116 141h95l116 -141v-6h-101l-58 80h-10l-57 -80h-101z" />
    <glyph glyph-name="udieresis" unicode="&#xfc;" horiz-adv-x="589" 
d="M253 -16q-90 0 -137 53.5t-47 146.5v342h107v-328q0 -59 29.5 -87t76.5 -28q59 0 93 42t34 102v299h107v-526h-101v67h-6q-21 -37 -62 -60t-94 -23zM386 641q-25 0 -43.5 18.5t-18.5 43.5q0 27 18.5 44.5t43.5 17.5q27 0 45 -17.5t18 -44.5q0 -25 -18 -43.5t-45 -18.5z
M199 641q-25 0 -43.5 18.5t-18.5 43.5q0 27 18.5 44.5t43.5 17.5q27 0 44.5 -17.5t17.5 -44.5q0 -25 -17.5 -43.5t-44.5 -18.5z" />
    <glyph glyph-name="yacute" unicode="&#xfd;" horiz-adv-x="554" 
d="M112 -221q-47 0 -81 15v102q9 -6 29.5 -13t44.5 -7q32 0 54 18t43 68l21 50l-210 514h120l144 -371h4l142 371h117l-246 -600q-33 -81 -74.5 -114t-107.5 -33zM236 629l50 147h124l-85 -147h-89z" />
    <glyph glyph-name="thorn" unicode="&#xfe;" horiz-adv-x="618" 
d="M73 -216v992h107v-242l-6 -77h6q20 34 62.5 59.5t99.5 25.5q69 0 122 -33.5t83 -96t30 -149.5t-30 -149.5t-83 -96t-122 -33.5q-60 0 -101.5 24.5t-60.5 57.5h-6l6 -74v-208h-107zM322 83q64 0 106 45.5t42 134.5t-42 134.5t-106 45.5q-63 0 -105.5 -45.5t-42.5 -134.5
t42.5 -134.5t105.5 -45.5z" />
    <glyph glyph-name="ydieresis" unicode="&#xff;" horiz-adv-x="554" 
d="M112 -221q-47 0 -81 15v102q9 -6 29.5 -13t44.5 -7q32 0 54 18t43 68l21 50l-210 514h120l144 -371h4l142 371h117l-246 -600q-33 -81 -74.5 -114t-107.5 -33zM373 641q-25 0 -43.5 18.5t-18.5 43.5q0 27 18.5 44.5t43.5 17.5q27 0 45 -17.5t18 -44.5q0 -25 -18 -43.5
t-45 -18.5zM186 641q-25 0 -43.5 18.5t-18.5 43.5q0 27 18.5 44.5t43.5 17.5q27 0 44.5 -17.5t17.5 -44.5q0 -25 -17.5 -43.5t-44.5 -18.5z" />
    <glyph glyph-name="Amacron" unicode="&#x100;" horiz-adv-x="678" 
d="M17 0l259 716h125l260 -716h-120l-63 184h-279l-63 -184h-119zM310 505l-76 -219h209l-76 219l-25 82h-6zM196 849v83h286v-83h-286z" />
    <glyph glyph-name="amacron" unicode="&#x101;" horiz-adv-x="573" 
d="M233 -16q-82 0 -132 45t-50 121q0 53 27.5 89.5t73 55.5t100.5 19q42 0 78 -5t72 -15v50q0 49 -34 78.5t-90 29.5q-45 0 -76.5 -21.5t-43.5 -62.5l-95 22q16 74 76.5 113t139.5 39q111 0 169 -53t58 -152v-337h-104v61h-6q-23 -30 -63.5 -53.5t-99.5 -23.5zM257 72
q66 0 105.5 40.5t39.5 97.5q-67 23 -133 23q-52 0 -81 -21t-29 -62q0 -34 27.5 -56t70.5 -22zM139 665v83h286v-83h-286z" />
    <glyph glyph-name="Abreve" unicode="&#x102;" horiz-adv-x="678" 
d="M17 0l259 716h125l260 -716h-120l-63 184h-279l-63 -184h-119zM310 505l-76 -219h209l-76 219l-25 82h-6zM339 818q-64 0 -101 39.5t-37 102.5h80q0 -27 14.5 -47t43.5 -20q30 0 44 20t14 47h80q0 -63 -36.5 -102.5t-101.5 -39.5z" />
    <glyph glyph-name="abreve" unicode="&#x103;" horiz-adv-x="573" 
d="M233 -16q-82 0 -132 45t-50 121q0 53 27.5 89.5t73 55.5t100.5 19q42 0 78 -5t72 -15v50q0 49 -34 78.5t-90 29.5q-45 0 -76.5 -21.5t-43.5 -62.5l-95 22q16 74 76.5 113t139.5 39q111 0 169 -53t58 -152v-337h-104v61h-6q-23 -30 -63.5 -53.5t-99.5 -23.5zM257 72
q66 0 105.5 40.5t39.5 97.5q-67 23 -133 23q-52 0 -81 -21t-29 -62q0 -34 27.5 -56t70.5 -22zM281 634q-64 0 -101 39.5t-37 102.5h80q0 -27 14.5 -47t43.5 -20q30 0 44 20t14 47h80q0 -63 -36.5 -102.5t-101.5 -39.5z" />
    <glyph glyph-name="Aogonek" unicode="&#x104;" horiz-adv-x="678" 
d="M619 -234q-60 0 -94.5 33.5t-34.5 86.5q0 37 19.5 65.5t44.5 46.5l-1 2h-12l-64 184h-277l-64 -184h-119l259 716h125l260 -716q-33 -21 -55.5 -46.5t-22.5 -53.5q0 -24 14 -38t36 -14q23 0 44 12v-82q-25 -12 -58 -12zM235 286h208l-76 219l-25 82h-6l-26 -82z" />
    <glyph glyph-name="aogonek" unicode="&#x105;" horiz-adv-x="573" 
d="M463 -234q-59 0 -93.5 33.5t-34.5 86.5q0 41 22 70t47 42l-2 2v61h-6q-23 -30 -63.5 -53.5t-99.5 -23.5q-82 0 -132 45t-50 121q0 53 27.5 89.5t73 55.5t100.5 19q42 0 78 -5t72 -15v50q0 49 -34 78.5t-90 29.5q-45 0 -76.5 -21.5t-43.5 -62.5l-95 22q16 74 76.5 113
t139.5 39q111 0 169 -53t58 -152v-337q-33 -21 -55.5 -46.5t-22.5 -53.5q0 -24 13.5 -38t36.5 -14t44 12v-82q-25 -12 -59 -12zM257 72q66 0 105.5 40.5t39.5 97.5q-67 23 -133 23q-52 0 -81 -21t-29 -62q0 -34 27.5 -56t70.5 -22z" />
    <glyph glyph-name="Cacute" unicode="&#x106;" horiz-adv-x="726" 
d="M378 -16q-97 0 -170.5 46t-115 129.5t-41.5 198.5t42.5 199t116.5 129.5t169 45.5q77 0 141.5 -27t106 -79.5t48.5 -129.5l-108 -18q-12 64 -59 107t-129 43q-61 0 -110.5 -30.5t-78 -91t-28.5 -148.5t28.5 -148t77.5 -91t111 -31q79 0 128 41.5t62 109.5l108 -12
q-19 -113 -96 -178t-203 -65zM336 813l50 147h124l-85 -147h-89z" />
    <glyph glyph-name="cacute" unicode="&#x107;" horiz-adv-x="565" 
d="M293 -16q-75 0 -131.5 34.5t-88 97.5t-31.5 147q0 85 32.5 147.5t90 97t132.5 34.5q94 0 154.5 -47t74.5 -129l-104 -17q-10 43 -42.5 68.5t-84.5 25.5q-62 0 -104 -46.5t-42 -133.5t41.5 -133.5t104.5 -46.5q99 0 128 99l101 -24q-19 -77 -77 -125.5t-154 -48.5z
M254 629l50 147h124l-85 -147h-89z" />
    <glyph glyph-name="Ccircumflex" unicode="&#x108;" horiz-adv-x="726" 
d="M378 -16q-97 0 -170.5 46t-115 129.5t-41.5 198.5t42.5 199t116.5 129.5t169 45.5q77 0 141.5 -27t106 -79.5t48.5 -129.5l-108 -18q-12 64 -59 107t-129 43q-61 0 -110.5 -30.5t-78 -91t-28.5 -148.5t28.5 -148t77.5 -91t111 -31q79 0 128 41.5t62 109.5l108 -12
q-19 -113 -96 -178t-203 -65zM218 813v6l116 141h95l116 -141v-6h-101l-58 80h-10l-57 -80h-101z" />
    <glyph glyph-name="ccircumflex" unicode="&#x109;" horiz-adv-x="565" 
d="M293 -16q-75 0 -131.5 34.5t-88 97.5t-31.5 147q0 85 32.5 147.5t90 97t132.5 34.5q94 0 154.5 -47t74.5 -129l-104 -17q-10 43 -42.5 68.5t-84.5 25.5q-62 0 -104 -46.5t-42 -133.5t41.5 -133.5t104.5 -46.5q99 0 128 99l101 -24q-19 -77 -77 -125.5t-154 -48.5z
M135 629v6l116 141h95l116 -141v-6h-101l-58 80h-10l-57 -80h-101z" />
    <glyph glyph-name="Cdotaccent" unicode="&#x10a;" horiz-adv-x="726" 
d="M378 -16q-97 0 -170.5 46t-115 129.5t-41.5 198.5t42.5 199t116.5 129.5t169 45.5q77 0 141.5 -27t106 -79.5t48.5 -129.5l-108 -18q-12 64 -59 107t-129 43q-61 0 -110.5 -30.5t-78 -91t-28.5 -148.5t28.5 -148t77.5 -91t111 -31q79 0 128 41.5t62 109.5l108 -12
q-19 -113 -96 -178t-203 -65zM381 817q-28 0 -48 20t-20 48t20 48t48 20t48 -20t20 -48t-20 -48t-48 -20z" />
    <glyph glyph-name="cdotaccent" unicode="&#x10b;" horiz-adv-x="565" 
d="M293 -16q-75 0 -131.5 34.5t-88 97.5t-31.5 147q0 85 32.5 147.5t90 97t132.5 34.5q94 0 154.5 -47t74.5 -129l-104 -17q-10 43 -42.5 68.5t-84.5 25.5q-62 0 -104 -46.5t-42 -133.5t41.5 -133.5t104.5 -46.5q99 0 128 99l101 -24q-19 -77 -77 -125.5t-154 -48.5z
M299 635q-30 0 -51.5 21.5t-21.5 51.5t21.5 51.5t51.5 21.5t51.5 -21.5t21.5 -51.5t-21.5 -51.5t-51.5 -21.5z" />
    <glyph glyph-name="Ccaron" unicode="&#x10c;" horiz-adv-x="726" 
d="M378 -16q-97 0 -170.5 46t-115 129.5t-41.5 198.5t42.5 199t116.5 129.5t169 45.5q77 0 141.5 -27t106 -79.5t48.5 -129.5l-108 -18q-12 64 -59 107t-129 43q-61 0 -110.5 -30.5t-78 -91t-28.5 -148.5t28.5 -148t77.5 -91t111 -31q79 0 128 41.5t62 109.5l108 -12
q-19 -113 -96 -178t-203 -65zM334 813l-116 141v6h101l57 -80h10l58 80h101v-6l-116 -141h-95z" />
    <glyph glyph-name="ccaron" unicode="&#x10d;" horiz-adv-x="565" 
d="M293 -16q-75 0 -131.5 34.5t-88 97.5t-31.5 147q0 85 32.5 147.5t90 97t132.5 34.5q94 0 154.5 -47t74.5 -129l-104 -17q-10 43 -42.5 68.5t-84.5 25.5q-62 0 -104 -46.5t-42 -133.5t41.5 -133.5t104.5 -46.5q99 0 128 99l101 -24q-19 -77 -77 -125.5t-154 -48.5z
M251 629l-116 141v6h101l57 -80h10l58 80h101v-6l-116 -141h-95z" />
    <glyph glyph-name="Dcaron" unicode="&#x10e;" horiz-adv-x="718" 
d="M86 0v716h238q165 0 254 -93.5t89 -264.5t-89 -264.5t-254 -93.5h-238zM195 104h126q112 0 174 61t62 193t-62 193t-174 61h-126v-508zM293 813l-116 141v6h101l57 -80h10l58 80h101v-6l-116 -141h-95z" />
    <glyph glyph-name="dcaron" unicode="&#x10f;" horiz-adv-x="723" 
d="M276 -16q-69 0 -121.5 33.5t-82.5 96.5t-30 149q0 87 30 149.5t83 96t121 33.5q59 0 100.5 -24.5t61.5 -58.5h6l-6 75v242h107v-776h-101v68h-6q-21 -34 -62.5 -59t-99.5 -25zM296 83q64 0 106 45.5t42 134.5t-42 134.5t-106 45.5t-105.5 -45.5t-41.5 -134.5t41.5 -134.5
t105.5 -45.5zM614 574v202h114l-35 -202h-79z" />
    <glyph glyph-name="Dcroat" unicode="&#x110;" horiz-adv-x="749" 
d="M116 0v326h-76v90h76v300h239q165 0 253.5 -93.5t88.5 -264.5t-88.5 -264.5t-253.5 -93.5h-239zM226 104h126q112 0 174 61t62 193t-62 193t-174 61h-126v-196h187v-90h-187v-222z" />
    <glyph glyph-name="dcroat" unicode="&#x111;" horiz-adv-x="618" 
d="M276 -16q-68 0 -121 33.5t-83 96.5t-30 149q0 87 30.5 149.5t83.5 96t120 33.5q60 0 101.5 -24.5t60.5 -58.5h6l-6 75v83h-137v79h137v80h107v-80h71v-79h-71v-617h-101v68h-6q-20 -34 -61.5 -59t-100.5 -25zM296 83q65 0 106.5 45.5t41.5 134.5t-41.5 134.5t-106.5 45.5
q-64 0 -105.5 -45.5t-41.5 -134.5t41.5 -134.5t105.5 -45.5z" />
    <glyph glyph-name="Emacron" unicode="&#x112;" 
d="M86 0v716h454v-104h-345v-189h314v-104h-314v-215h345v-104h-454zM172 849v83h286v-83h-286z" />
    <glyph glyph-name="emacron" unicode="&#x113;" horiz-adv-x="576" 
d="M292 -16q-76 0 -132.5 35.5t-87 98t-30.5 144.5q0 84 32 147t88.5 98t129.5 35q119 0 180.5 -67t61.5 -183q0 -29 -3 -52h-384q5 -78 46 -119t103 -41q55 0 85.5 24.5t44.5 61.5l94 -25q-20 -68 -76 -112.5t-152 -44.5zM293 451q-54 0 -91.5 -33t-49.5 -97h276
q-3 59 -37 94.5t-98 35.5zM150 665v83h286v-83h-286z" />
    <glyph glyph-name="Ebreve" unicode="&#x114;" 
d="M86 0v716h454v-104h-345v-189h314v-104h-314v-215h345v-104h-454zM314 818q-64 0 -101 39.5t-37 102.5h80q0 -27 14.5 -47t43.5 -20q30 0 44 20t14 47h80q0 -63 -36.5 -102.5t-101.5 -39.5z" />
    <glyph glyph-name="ebreve" unicode="&#x115;" horiz-adv-x="576" 
d="M292 -16q-76 0 -132.5 35.5t-87 98t-30.5 144.5q0 84 32 147t88.5 98t129.5 35q119 0 180.5 -67t61.5 -183q0 -29 -3 -52h-384q5 -78 46 -119t103 -41q55 0 85.5 24.5t44.5 61.5l94 -25q-20 -68 -76 -112.5t-152 -44.5zM293 451q-54 0 -91.5 -33t-49.5 -97h276
q-3 59 -37 94.5t-98 35.5zM293 634q-64 0 -101 39.5t-37 102.5h80q0 -27 14.5 -47t43.5 -20q30 0 44 20t14 47h80q0 -63 -36.5 -102.5t-101.5 -39.5z" />
    <glyph glyph-name="Edotaccent" unicode="&#x116;" 
d="M86 0v716h454v-104h-345v-189h314v-104h-314v-215h345v-104h-454zM315 817q-28 0 -48 20t-20 48t20 48t48 20t48 -20t20 -48t-20 -48t-48 -20z" />
    <glyph glyph-name="edotaccent" unicode="&#x117;" horiz-adv-x="576" 
d="M292 -16q-76 0 -132.5 35.5t-87 98t-30.5 144.5q0 84 32 147t88.5 98t129.5 35q119 0 180.5 -67t61.5 -183q0 -29 -3 -52h-384q5 -78 46 -119t103 -41q55 0 85.5 24.5t44.5 61.5l94 -25q-20 -68 -76 -112.5t-152 -44.5zM293 451q-54 0 -91.5 -33t-49.5 -97h276
q-3 59 -37 94.5t-98 35.5zM293 635q-30 0 -51.5 21.5t-21.5 51.5t21.5 51.5t51.5 21.5t51.5 -21.5t21.5 -51.5t-21.5 -51.5t-51.5 -21.5z" />
    <glyph glyph-name="Eogonek" unicode="&#x118;" 
d="M86 0v716h454v-104h-345v-189h314v-104h-314v-215h345v-104h-454zM497 -234q-59 0 -93.5 33.5t-34.5 86.5q0 41 22 70t48 44h101q-33 -21 -55.5 -46.5t-22.5 -53.5q0 -24 13.5 -38t36.5 -14t44 12v-82q-25 -12 -59 -12z" />
    <glyph glyph-name="eogonek" unicode="&#x119;" horiz-adv-x="576" 
d="M345 -234q-59 0 -93.5 33.5t-34.5 86.5q0 33 14.5 58t34.5 41q-69 6 -119.5 42.5t-77.5 97t-27 137.5q0 84 32 147t88.5 98t129.5 35q119 0 180.5 -67t61.5 -183q0 -29 -3 -52h-384q5 -78 46 -119t103 -41q55 0 85.5 24.5t44.5 61.5l94 -25q-15 -50 -44 -82t-74 -54
q-44 -21 -68 -49t-24 -56q0 -24 13.5 -38t36.5 -14t44 12v-82q-25 -12 -59 -12zM152 321h276q-3 59 -37 94.5t-98 35.5q-53 0 -91 -33t-50 -97z" />
    <glyph glyph-name="Ecaron" unicode="&#x11a;" 
d="M86 0v716h454v-104h-345v-189h314v-104h-314v-215h345v-104h-454zM267 813l-116 141v6h101l57 -80h10l58 80h101v-6l-116 -141h-95z" />
    <glyph glyph-name="ecaron" unicode="&#x11b;" horiz-adv-x="576" 
d="M292 -16q-76 0 -132.5 35.5t-87 98t-30.5 144.5q0 84 32 147t88.5 98t129.5 35q119 0 180.5 -67t61.5 -183q0 -29 -3 -52h-384q5 -78 46 -119t103 -41q55 0 85.5 24.5t44.5 61.5l94 -25q-20 -68 -76 -112.5t-152 -44.5zM293 451q-54 0 -91.5 -33t-49.5 -97h276
q-3 59 -37 94.5t-98 35.5zM246 629l-116 141v6h101l57 -80h10l58 80h101v-6l-116 -141h-95z" />
    <glyph glyph-name="Gcircumflex" unicode="&#x11c;" horiz-adv-x="759" 
d="M373 -16q-94 0 -166.5 46.5t-114 131t-41.5 196.5t44 196.5t119 131t171 46.5q117 0 196.5 -54t100.5 -151l-105 -28q-18 60 -66.5 94.5t-125.5 34.5q-61 0 -112 -31t-81 -91t-30 -148q0 -87 29.5 -147.5t79 -91.5t109.5 -31q61 0 105.5 24.5t71 67t32.5 96.5h-206v96
h312v-372h-101v100h-6q-30 -52 -83.5 -84t-131.5 -32zM225 813v6l116 141h95l116 -141v-6h-101l-58 80h-10l-57 -80h-101z" />
    <glyph glyph-name="gcircumflex" unicode="&#x11d;" horiz-adv-x="601" 
d="M288 -232q-97 0 -157.5 47t-74.5 115l104 24q12 -39 44 -64.5t84 -25.5q70 0 106.5 43t36.5 119v60h-6q-26 -39 -64.5 -60.5t-98.5 -21.5t-111 31.5t-81.5 91.5t-30.5 146t30.5 146t82 91.5t113.5 31.5q54 0 95.5 -21t64.5 -58h6v63h102v-498q0 -127 -66.5 -193.5
t-178.5 -66.5zM289 102q58 0 100 42.5t42 128.5t-42 128.5t-100 42.5t-100.5 -42.5t-42.5 -128.5t42.5 -128.5t100.5 -42.5zM132 629v6l116 141h95l116 -141v-6h-101l-58 80h-10l-57 -80h-101z" />
    <glyph glyph-name="Gbreve" unicode="&#x11e;" horiz-adv-x="759" 
d="M373 -16q-94 0 -166.5 46.5t-114 131t-41.5 196.5t44 196.5t119 131t171 46.5q117 0 196.5 -54t100.5 -151l-105 -28q-18 60 -66.5 94.5t-125.5 34.5q-61 0 -112 -31t-81 -91t-30 -148q0 -87 29.5 -147.5t79 -91.5t109.5 -31q61 0 105.5 24.5t71 67t32.5 96.5h-206v96
h312v-372h-101v100h-6q-30 -52 -83.5 -84t-131.5 -32zM388 818q-64 0 -101 39.5t-37 102.5h80q0 -27 14.5 -47t43.5 -20q30 0 44 20t14 47h80q0 -63 -36.5 -102.5t-101.5 -39.5z" />
    <glyph glyph-name="gbreve" unicode="&#x11f;" horiz-adv-x="601" 
d="M288 -232q-97 0 -157.5 47t-74.5 115l104 24q12 -39 44 -64.5t84 -25.5q70 0 106.5 43t36.5 119v60h-6q-26 -39 -64.5 -60.5t-98.5 -21.5t-111 31.5t-81.5 91.5t-30.5 146t30.5 146t82 91.5t113.5 31.5q54 0 95.5 -21t64.5 -58h6v63h102v-498q0 -127 -66.5 -193.5
t-178.5 -66.5zM289 102q58 0 100 42.5t42 128.5t-42 128.5t-100 42.5t-100.5 -42.5t-42.5 -128.5t42.5 -128.5t100.5 -42.5zM295 634q-64 0 -101 39.5t-37 102.5h80q0 -27 14.5 -47t43.5 -20q30 0 44 20t14 47h80q0 -63 -36.5 -102.5t-101.5 -39.5z" />
    <glyph glyph-name="Gdotaccent" unicode="&#x120;" horiz-adv-x="759" 
d="M373 -16q-94 0 -166.5 46.5t-114 131t-41.5 196.5t44 196.5t119 131t171 46.5q117 0 196.5 -54t100.5 -151l-105 -28q-18 60 -66.5 94.5t-125.5 34.5q-61 0 -112 -31t-81 -91t-30 -148q0 -87 29.5 -147.5t79 -91.5t109.5 -31q61 0 105.5 24.5t71 67t32.5 96.5h-206v96
h312v-372h-101v100h-6q-30 -52 -83.5 -84t-131.5 -32zM388 817q-28 0 -48 20t-20 48t20 48t48 20t48 -20t20 -48t-20 -48t-48 -20z" />
    <glyph glyph-name="gdotaccent" unicode="&#x121;" horiz-adv-x="601" 
d="M288 -232q-97 0 -157.5 47t-74.5 115l104 24q12 -39 44 -64.5t84 -25.5q70 0 106.5 43t36.5 119v60h-6q-26 -39 -64.5 -60.5t-98.5 -21.5t-111 31.5t-81.5 91.5t-30.5 146t30.5 146t82 91.5t113.5 31.5q54 0 95.5 -21t64.5 -58h6v63h102v-498q0 -127 -66.5 -193.5
t-178.5 -66.5zM289 102q58 0 100 42.5t42 128.5t-42 128.5t-100 42.5t-100.5 -42.5t-42.5 -128.5t42.5 -128.5t100.5 -42.5zM295 635q-30 0 -51.5 21.5t-21.5 51.5t21.5 51.5t51.5 21.5t51.5 -21.5t21.5 -51.5t-21.5 -51.5t-51.5 -21.5z" />
    <glyph glyph-name="uni0122" unicode="&#x122;" horiz-adv-x="759" 
d="M373 -16q-94 0 -166.5 46.5t-114 131t-41.5 196.5t44 196.5t119 131t171 46.5q117 0 196.5 -54t100.5 -151l-105 -28q-18 60 -66.5 94.5t-125.5 34.5q-61 0 -112 -31t-81 -91t-30 -148q0 -87 29.5 -147.5t79 -91.5t109.5 -31q61 0 105.5 24.5t71 67t32.5 96.5h-206v96
h312v-372h-101v100h-6q-30 -52 -83.5 -84t-131.5 -32zM259 -278l56 206h128l-92 -206h-92z" />
    <glyph glyph-name="uni0123" unicode="&#x123;" horiz-adv-x="601" 
d="M288 -232q-97 0 -157.5 47t-74.5 115l104 24q12 -39 44 -64.5t84 -25.5q70 0 106.5 43t36.5 119v60h-6q-26 -39 -64.5 -60.5t-98.5 -21.5t-111 31.5t-81.5 91.5t-30.5 146t30.5 146t82 91.5t113.5 31.5q54 0 95.5 -21t64.5 -58h6v63h102v-498q0 -127 -66.5 -193.5
t-178.5 -66.5zM289 102q58 0 100 42.5t42 128.5t-42 128.5t-100 42.5t-100.5 -42.5t-42.5 -128.5t42.5 -128.5t100.5 -42.5zM410 838l-56 -206h-128l92 206h92z" />
    <glyph glyph-name="Hcircumflex" unicode="&#x124;" horiz-adv-x="718" 
d="M86 0v716h109v-298h328v298h109v-716h-109v314h-328v-314h-109zM195 813v6l116 141h95l116 -141v-6h-101l-58 80h-10l-57 -80h-101z" />
    <glyph glyph-name="hcircumflex" unicode="&#x125;" 
d="M73 0v776h107v-242l-6 -79h6q20 37 64 62t98 25q93 0 141.5 -55t48.5 -145v-342h-107v328q0 55 -30 85t-82 30q-39 0 -69 -20.5t-47 -55t-17 -77.5v-290h-107zM-36 837v6l116 141h95l116 -141v-6h-101l-58 80h-10l-57 -80h-101z" />
    <glyph glyph-name="Hbar" unicode="&#x126;" horiz-adv-x="723" 
d="M92 0v518h-76v82h76v116h109v-116h328v116h108v-116h76v-82h-76v-518h-108v314h-328v-314h-109zM201 418h328v100h-328v-100z" />
    <glyph glyph-name="hbar" unicode="&#x127;" 
d="M72 0v617h-70v79h70v80h108v-80h137v-79h-137v-83l-6 -79h6q20 37 63.5 62t98.5 25q93 0 141 -55t48 -145v-342h-107v328q0 55 -29.5 85t-82.5 30q-39 0 -68.5 -20.5t-46.5 -55t-17 -77.5v-290h-108z" />
    <glyph glyph-name="Itilde" unicode="&#x128;" horiz-adv-x="281" 
d="M86 0v716h109v-716h-109zM207 819q-26 0 -47 9.5t-37 20.5q-13 8 -24 13.5t-23 5.5q-14 0 -23.5 -9.5t-10.5 -28.5h-81q0 60 31.5 91t77.5 31q28 0 49 -9t38 -21q13 -8 23.5 -13.5t21.5 -5.5q31 0 34 38h81q0 -59 -31.5 -90.5t-78.5 -31.5z" />
    <glyph glyph-name="itilde" unicode="&#x129;" horiz-adv-x="251" 
d="M71 0v526h108v-526h-108zM194 636q-26 0 -47 9.5t-37 20.5q-13 8 -24 13.5t-23 5.5q-14 0 -23.5 -9.5t-10.5 -28.5h-81q0 60 31.5 91t77.5 31q28 0 49 -9t38 -21q13 -8 23.5 -13.5t21.5 -5.5q31 0 34 38h81q0 -59 -31.5 -90.5t-78.5 -31.5z" />
    <glyph glyph-name="Imacron" unicode="&#x12a;" horiz-adv-x="281" 
d="M4 849v83h272v-83h-272zM86 0v716h109v-716h-109z" />
    <glyph glyph-name="imacron" unicode="&#x12b;" horiz-adv-x="251" 
d="M71 0v526h108v-526h-108zM-17 665v83h286v-83h-286z" />
    <glyph glyph-name="Ibreve" unicode="&#x12c;" horiz-adv-x="281" 
d="M86 0v716h109v-716h-109zM140 818q-64 0 -101 39.5t-37 102.5h80q0 -27 14.5 -47t43.5 -20q30 0 44 20t14 47h80q0 -63 -36.5 -102.5t-101.5 -39.5z" />
    <glyph glyph-name="ibreve" unicode="&#x12d;" horiz-adv-x="251" 
d="M71 0v526h108v-526h-108zM126 634q-64 0 -101 39.5t-37 102.5h80q0 -27 14.5 -47t43.5 -20q30 0 44 20t14 47h80q0 -63 -36.5 -102.5t-101.5 -39.5z" />
    <glyph glyph-name="Iogonek" unicode="&#x12e;" horiz-adv-x="281" 
d="M153 -234q-60 0 -94.5 33.5t-34.5 86.5q0 40 21 68.5t46 43.5l-1 2h-4v716h109v-716q-33 -21 -55.5 -46.5t-22.5 -53.5q0 -24 14 -38t36 -14q23 0 44 12v-82q-24 -12 -58 -12z" />
    <glyph glyph-name="iogonek" unicode="&#x12f;" horiz-adv-x="251" 
d="M126 635q-30 0 -51.5 21.5t-21.5 51.5t21.5 51.5t51.5 21.5t51.5 -21.5t21.5 -51.5t-21.5 -51.5t-51.5 -21.5zM137 -234q-60 0 -94.5 33.5t-34.5 86.5q0 41 21.5 70t44.5 41l-3 3v526h108v-526q-33 -21 -55.5 -46.5t-22.5 -53.5q0 -24 14 -38t36 -14q23 0 44 12v-82
q-24 -12 -58 -12z" />
    <glyph glyph-name="Idotaccent" unicode="&#x130;" horiz-adv-x="281" 
d="M86 0v716h109v-716h-109zM140 817q-28 0 -48 20t-20 48t20 48t48 20t48 -20t20 -48t-20 -48t-48 -20z" />
    <glyph glyph-name="dotlessi" unicode="&#x131;" horiz-adv-x="251" 
d="M71 0v526h108v-526h-108z" />
    <glyph glyph-name="Jcircumflex" unicode="&#x134;" horiz-adv-x="553" 
d="M259 -16q-94 0 -155.5 55.5t-74.5 158.5l105 22q20 -132 125 -132q55 0 86.5 35t31.5 101v492h109v-489q0 -82 -29.5 -136t-80.5 -80.5t-117 -26.5zM268 813v6l116 141h95l116 -141v-6h-101l-58 80h-10l-57 -80h-101z" />
    <glyph glyph-name="jcircumflex" unicode="&#x135;" horiz-adv-x="251" 
d="M32 -226q-31 0 -57 7v103q9 -5 21 -8.5t24 -3.5q51 0 51 66v588h107v-588q0 -87 -41 -125.5t-105 -38.5zM-39 629v6l116 141h95l116 -141v-6h-101l-58 80h-10l-57 -80h-101z" />
    <glyph glyph-name="uni0136" unicode="&#x136;" horiz-adv-x="644" 
d="M86 0v716h109v-339h6l277 339h135v-6l-251 -301l273 -403v-6h-132l-215 320l-93 -111v-209h-109zM210 -278l56 206h128l-92 -206h-92z" />
    <glyph glyph-name="uni0137" unicode="&#x137;" horiz-adv-x="535" 
d="M73 0v776h107v-464h4l203 214h129v-6l-192 -197l197 -317v-6h-122l-152 244l-67 -69v-175h-107zM159 -278l56 206h128l-92 -206h-92z" />
    <glyph glyph-name="kgreenlandic" unicode="&#x138;" horiz-adv-x="535" 
d="M73 0v526h107v-214h4l203 214h129v-6l-192 -197l197 -317v-6h-122l-151 244l-68 -69v-175h-107z" />
    <glyph glyph-name="Lacute" unicode="&#x139;" horiz-adv-x="575" 
d="M86 0v716h109v-612h341v-104h-450zM96 813l50 147h124l-85 -147h-89z" />
    <glyph glyph-name="lacute" unicode="&#x13a;" horiz-adv-x="254" 
d="M73 0v776h108v-776h-108zM83 879l50 147h124l-85 -147h-89z" />
    <glyph glyph-name="uni013B" unicode="&#x13b;" horiz-adv-x="575" 
d="M86 0v716h109v-612h341v-104h-450zM186 -278l56 206h128l-92 -206h-92z" />
    <glyph glyph-name="uni013C" unicode="&#x13c;" horiz-adv-x="254" 
d="M73 0v776h108v-776h-108zM7 -278l56 206h128l-92 -206h-92z" />
    <glyph glyph-name="Lcaron" unicode="&#x13d;" horiz-adv-x="575" 
d="M86 0v716h109v-612h341v-104h-450zM362 514v202h114l-35 -202h-79z" />
    <glyph glyph-name="lcaron" unicode="&#x13e;" horiz-adv-x="359" 
d="M73 0v776h108v-776h-108zM250 574v202h114l-35 -202h-79z" />
    <glyph glyph-name="Ldot" unicode="&#x13f;" horiz-adv-x="575" 
d="M86 0v716h109v-612h341v-104h-450zM452 269q-31 0 -53 22t-22 53t22 53t53 22t53 -22t22 -53t-22 -53t-53 -22z" />
    <glyph glyph-name="Lslash" unicode="&#x141;" horiz-adv-x="664" 
d="M175 0v256l-73 -46l-48 77l121 77v352h109v-283l128 81l48 -77l-176 -112v-221h341v-104h-450z" />
    <glyph glyph-name="lslash" unicode="&#x142;" horiz-adv-x="417" 
d="M154 0v300l-60 -43l-54 72l114 82v365h108v-288l60 43l55 -73l-115 -82v-376h-108z" />
    <glyph glyph-name="Nacute" unicode="&#x143;" horiz-adv-x="725" 
d="M86 0v716h129l316 -525h6l-6 137v388h108v-716h-114l-331 552h-6l6 -138v-414h-108zM318 813l50 147h124l-85 -147h-89z" />
    <glyph glyph-name="nacute" unicode="&#x144;" horiz-adv-x="589" 
d="M73 0v526h101v-67h6q21 37 62.5 60t93.5 23q90 0 137.5 -53.5t47.5 -146.5v-342h-108v328q0 59 -29 87t-77 28q-59 0 -93 -42t-34 -102v-299h-107zM264 629l50 147h124l-85 -147h-89z" />
    <glyph glyph-name="uni0145" unicode="&#x145;" horiz-adv-x="725" 
d="M86 0v716h129l316 -525h6l-6 137v388h108v-716h-114l-331 552h-6l6 -138v-414h-108zM242 -278l56 206h128l-92 -206h-92z" />
    <glyph glyph-name="uni0146" unicode="&#x146;" horiz-adv-x="589" 
d="M73 0v526h101v-67h6q21 37 62.5 60t93.5 23q90 0 137.5 -53.5t47.5 -146.5v-342h-108v328q0 59 -29 87t-77 28q-59 0 -93 -42t-34 -102v-299h-107zM175 -278l56 206h128l-92 -206h-92z" />
    <glyph glyph-name="Ncaron" unicode="&#x147;" horiz-adv-x="725" 
d="M86 0v716h129l316 -525h6l-6 137v388h108v-716h-114l-331 552h-6l6 -138v-414h-108zM316 813l-116 141v6h101l57 -80h10l58 80h101v-6l-116 -141h-95z" />
    <glyph glyph-name="ncaron" unicode="&#x148;" horiz-adv-x="589" 
d="M73 0v526h101v-67h6q21 37 62.5 60t93.5 23q90 0 137.5 -53.5t47.5 -146.5v-342h-108v328q0 59 -29 87t-77 28q-59 0 -93 -42t-34 -102v-299h-107zM262 629l-116 141v6h101l57 -80h10l58 80h101v-6l-116 -141h-95z" />
    <glyph glyph-name="Eng" unicode="&#x14a;" horiz-adv-x="725" 
d="M485 -232q-42 0 -76 10v104q15 -7 30.5 -11.5t33.5 -4.5q31 0 44 17.5t13 50.5v66l-336 552h-6l6 -138v-414h-108v716h129l316 -516h6l-6 138v378h108v-783q0 -88 -43.5 -126.5t-110.5 -38.5z" />
    <glyph glyph-name="eng" unicode="&#x14b;" horiz-adv-x="589" 
d="M375 -226q-32 0 -58 7v103q10 -5 21.5 -8.5t23.5 -3.5q51 0 51 66v390q0 59 -29 87t-77 28q-59 0 -93 -42t-34 -102v-299h-107v526h101v-67h6q21 37 62.5 60t93.5 23q90 0 137.5 -53.5t47.5 -146.5v-404q0 -87 -41.5 -125.5t-104.5 -38.5z" />
    <glyph glyph-name="Omacron" unicode="&#x14c;" horiz-adv-x="787" 
d="M394 -16q-102 0 -179 48t-120.5 132t-43.5 194t43.5 194.5t120.5 132t179 47.5t179 -47.5t120 -132t43 -194.5t-43 -194t-120 -132t-179 -48zM394 88q67 0 119 31.5t82.5 92t30.5 146.5t-30.5 146.5t-82.5 92t-119 31.5t-119.5 -31.5t-82.5 -92t-30 -146.5t30 -146.5
t82.5 -92t119.5 -31.5zM251 849v83h286v-83h-286z" />
    <glyph glyph-name="omacron" unicode="&#x14d;" 
d="M300 -16q-79 0 -137 35.5t-89.5 98.5t-31.5 145t31.5 145t89.5 98.5t137 35.5q80 0 137.5 -35.5t89 -98.5t31.5 -145t-31.5 -145t-89 -98.5t-137.5 -35.5zM300 83q67 0 109 46.5t42 133.5t-42 133.5t-109 46.5q-66 0 -108.5 -46.5t-42.5 -133.5t42.5 -133.5t108.5 -46.5z
M157 665v83h286v-83h-286z" />
    <glyph glyph-name="Obreve" unicode="&#x14e;" horiz-adv-x="787" 
d="M394 -16q-102 0 -179 48t-120.5 132t-43.5 194t43.5 194.5t120.5 132t179 47.5t179 -47.5t120 -132t43 -194.5t-43 -194t-120 -132t-179 -48zM394 88q67 0 119 31.5t82.5 92t30.5 146.5t-30.5 146.5t-82.5 92t-119 31.5t-119.5 -31.5t-82.5 -92t-30 -146.5t30 -146.5
t82.5 -92t119.5 -31.5zM394 818q-64 0 -101 39.5t-37 102.5h80q0 -27 14.5 -47t43.5 -20q30 0 44 20t14 47h80q0 -63 -36.5 -102.5t-101.5 -39.5z" />
    <glyph glyph-name="obreve" unicode="&#x14f;" 
d="M300 -16q-79 0 -137 35.5t-89.5 98.5t-31.5 145t31.5 145t89.5 98.5t137 35.5q80 0 137.5 -35.5t89 -98.5t31.5 -145t-31.5 -145t-89 -98.5t-137.5 -35.5zM300 83q67 0 109 46.5t42 133.5t-42 133.5t-109 46.5q-66 0 -108.5 -46.5t-42.5 -133.5t42.5 -133.5t108.5 -46.5z
M300 634q-64 0 -101 39.5t-37 102.5h80q0 -27 14.5 -47t43.5 -20q30 0 44 20t14 47h80q0 -63 -36.5 -102.5t-101.5 -39.5z" />
    <glyph glyph-name="Ohungarumlaut" unicode="&#x150;" horiz-adv-x="787" 
d="M394 -16q-102 0 -179 48t-120.5 132t-43.5 194t43.5 194.5t120.5 132t179 47.5t179 -47.5t120 -132t43 -194.5t-43 -194t-120 -132t-179 -48zM394 88q67 0 119 31.5t82.5 92t30.5 146.5t-30.5 146.5t-82.5 92t-119 31.5t-119.5 -31.5t-82.5 -92t-30 -146.5t30 -146.5
t82.5 -92t119.5 -31.5zM261 813l50 147h124l-85 -147h-89zM440 813l50 147h124l-85 -147h-89z" />
    <glyph glyph-name="ohungarumlaut" unicode="&#x151;" 
d="M300 -16q-79 0 -137 35.5t-89.5 98.5t-31.5 145t31.5 145t89.5 98.5t137 35.5q80 0 137.5 -35.5t89 -98.5t31.5 -145t-31.5 -145t-89 -98.5t-137.5 -35.5zM300 83q67 0 109 46.5t42 133.5t-42 133.5t-109 46.5q-66 0 -108.5 -46.5t-42.5 -133.5t42.5 -133.5t108.5 -46.5z
M167 629l50 147h124l-85 -147h-89zM346 629l50 147h124l-85 -147h-89z" />
    <glyph glyph-name="OE" unicode="&#x152;" horiz-adv-x="1137" 
d="M391 -16q-101 0 -177.5 48t-119.5 132t-43 194t43 194.5t119.5 132t177.5 47.5q72 0 129.5 -25.5t98.5 -78.5h4v88h453v-104h-344v-189h313v-104h-313v-215h344v-104h-453v86h-4q-80 -102 -228 -102zM394 88q67 0 119 31.5t82.5 92t30.5 146.5t-30.5 146.5t-82.5 92
t-119 31.5t-119.5 -31.5t-82.5 -92t-30 -146.5t30 -146.5t82.5 -92t119.5 -31.5z" />
    <glyph glyph-name="oe" unicode="&#x153;" horiz-adv-x="987" 
d="M300 -16q-79 0 -137 35.5t-89.5 98.5t-31.5 145t31.5 145t89.5 98.5t137 35.5q68 0 120.5 -27.5t85.5 -79.5q33 52 84 79.5t114 27.5q119 0 180 -67t61 -183q0 -29 -2 -52h-385q6 -78 46.5 -119t103.5 -41q54 0 85 24.5t45 61.5l93 -25q-20 -68 -75.5 -112.5
t-151.5 -44.5q-133 0 -199 106q-68 -106 -205 -106zM563 321h276q-3 59 -36.5 94.5t-98.5 35.5q-53 0 -90.5 -33t-50.5 -97zM300 83q67 0 109 46.5t42 133.5t-42 133.5t-109 46.5q-66 0 -108.5 -46.5t-42.5 -133.5t42.5 -133.5t108.5 -46.5z" />
    <glyph glyph-name="Racute" unicode="&#x154;" horiz-adv-x="632" 
d="M86 0v716h281q104 0 167.5 -57.5t63.5 -161.5q0 -79 -46.5 -131.5t-113.5 -70.5l-2 -5l173 -284v-6h-121l-170 281h-123v-281h-109zM195 382h174q53 0 86 29.5t33 86.5t-32 86t-87 29h-174v-231zM273 813l50 147h124l-85 -147h-89z" />
    <glyph glyph-name="racute" unicode="&#x155;" horiz-adv-x="400" 
d="M73 0v526h101v-71h6q16 38 52 62t82 24q19 0 31 -2t21 -5v-109q-30 14 -68 14q-50 0 -84 -40t-34 -100v-299h-107zM180 629l50 147h124l-85 -147h-89z" />
    <glyph glyph-name="uni0156" unicode="&#x156;" horiz-adv-x="632" 
d="M86 0v716h281q104 0 167.5 -57.5t63.5 -161.5q0 -79 -46.5 -131.5t-113.5 -70.5l-2 -5l173 -284v-6h-121l-170 281h-123v-281h-109zM195 382h174q53 0 86 29.5t33 86.5t-32 86t-87 29h-174v-231zM209 -278l56 206h128l-92 -206h-92z" />
    <glyph glyph-name="uni0157" unicode="&#x157;" horiz-adv-x="400" 
d="M73 0v526h101v-71h6q16 38 52 62t82 24q19 0 31 -2t21 -5v-109q-30 14 -68 14q-50 0 -84 -40t-34 -100v-299h-107zM6 -278l56 206h128l-92 -206h-92z" />
    <glyph glyph-name="Rcaron" unicode="&#x158;" horiz-adv-x="632" 
d="M86 0v716h281q104 0 167.5 -57.5t63.5 -161.5q0 -79 -46.5 -131.5t-113.5 -70.5l-2 -5l173 -284v-6h-121l-170 281h-123v-281h-109zM195 382h174q53 0 86 29.5t33 86.5t-32 86t-87 29h-174v-231zM270 813l-116 141v6h101l57 -80h10l58 80h101v-6l-116 -141h-95z" />
    <glyph glyph-name="rcaron" unicode="&#x159;" horiz-adv-x="400" 
d="M73 0v526h101v-71h6q16 38 52 62t82 24q19 0 31 -2t21 -5v-109q-30 14 -68 14q-50 0 -84 -40t-34 -100v-299h-107zM177 629l-116 141v6h101l57 -80h10l58 80h101v-6l-116 -141h-95z" />
    <glyph glyph-name="Sacute" unicode="&#x15a;" horiz-adv-x="616" 
d="M314 -16q-110 0 -182 56.5t-91 162.5l110 24q11 -62 52 -100.5t112 -38.5q64 0 104 29t40 78q0 51 -36 76.5t-117 50.5l-53 17q-45 13 -87.5 36t-70.5 61.5t-28 99.5q0 55 29 99.5t82.5 70.5t127.5 26q113 0 174 -54.5t71 -137.5l-104 -16q-10 48 -44.5 77t-95.5 29
q-57 0 -94.5 -25t-37.5 -65t35 -65.5t104 -46.5l52 -16q56 -17 102 -42.5t73 -66.5t27 -106q0 -70 -35 -117t-92.5 -71.5t-126.5 -24.5zM262 813l50 147h124l-85 -147h-89z" />
    <glyph glyph-name="sacute" unicode="&#x15b;" horiz-adv-x="506" 
d="M260 -16q-92 0 -152.5 44t-71.5 120l103 17q8 -38 39.5 -62t81.5 -24q43 0 74.5 17.5t31.5 51.5q0 31 -26.5 50t-75.5 28l-63 12q-66 12 -108 49t-42 101q0 46 27 80.5t72.5 54t100.5 19.5q82 0 137 -35t68 -109l-97 -15q-10 38 -38.5 53.5t-67.5 15.5q-42 0 -69 -17
t-27 -44q0 -26 20.5 -42.5t67.5 -26.5l73 -15q74 -15 114.5 -52t40.5 -104q0 -51 -28.5 -88.5t-76.5 -58t-108 -20.5zM207 629l50 147h124l-85 -147h-89z" />
    <glyph glyph-name="Scircumflex" unicode="&#x15c;" horiz-adv-x="616" 
d="M314 -16q-110 0 -182 56.5t-91 162.5l110 24q11 -62 52 -100.5t112 -38.5q64 0 104 29t40 78q0 51 -36 76.5t-117 50.5l-53 17q-45 13 -87.5 36t-70.5 61.5t-28 99.5q0 55 29 99.5t82.5 70.5t127.5 26q113 0 174 -54.5t71 -137.5l-104 -16q-10 48 -44.5 77t-95.5 29
q-57 0 -94.5 -25t-37.5 -65t35 -65.5t104 -46.5l52 -16q56 -17 102 -42.5t73 -66.5t27 -106q0 -70 -35 -117t-92.5 -71.5t-126.5 -24.5zM144 813v6l116 141h95l116 -141v-6h-101l-58 80h-10l-57 -80h-101z" />
    <glyph glyph-name="scircumflex" unicode="&#x15d;" horiz-adv-x="506" 
d="M260 -16q-92 0 -152.5 44t-71.5 120l103 17q8 -38 39.5 -62t81.5 -24q43 0 74.5 17.5t31.5 51.5q0 31 -26.5 50t-75.5 28l-63 12q-66 12 -108 49t-42 101q0 46 27 80.5t72.5 54t100.5 19.5q82 0 137 -35t68 -109l-97 -15q-10 38 -38.5 53.5t-67.5 15.5q-42 0 -69 -17
t-27 -44q0 -26 20.5 -42.5t67.5 -26.5l73 -15q74 -15 114.5 -52t40.5 -104q0 -51 -28.5 -88.5t-76.5 -58t-108 -20.5zM89 629v6l116 141h95l116 -141v-6h-101l-58 80h-10l-57 -80h-101z" />
    <glyph glyph-name="Scedilla" unicode="&#x15e;" horiz-adv-x="616" 
d="M314 -16q-110 0 -182 56.5t-91 162.5l110 24q11 -62 52 -100.5t112 -38.5q64 0 104 29t40 78q0 51 -36 76.5t-117 50.5l-53 17q-45 13 -87.5 36t-70.5 61.5t-28 99.5q0 55 29 99.5t82.5 70.5t127.5 26q113 0 174 -54.5t71 -137.5l-104 -16q-10 48 -44.5 77t-95.5 29
q-57 0 -94.5 -25t-37.5 -65t35 -65.5t104 -46.5l52 -16q56 -17 102 -42.5t73 -66.5t27 -106q0 -70 -35 -117t-92.5 -71.5t-126.5 -24.5zM324 -246q-37 0 -63.5 20t-35.5 50l59 19q4 -13 15 -21.5t26 -8.5q19 0 29.5 11t10.5 28q0 18 -11 29t-29 11q-19 0 -33 -15l-51 23
l39 100h60l-25 -56q9 3 21 3q41 0 67.5 -25.5t26.5 -69.5q0 -42 -29 -70t-77 -28z" />
    <glyph glyph-name="scedilla" unicode="&#x15f;" horiz-adv-x="506" 
d="M260 -16q-92 0 -152.5 44t-71.5 120l103 17q8 -38 39.5 -62t81.5 -24q43 0 74.5 17.5t31.5 51.5q0 31 -26.5 50t-75.5 28l-63 12q-66 12 -108 49t-42 101q0 46 27 80.5t72.5 54t100.5 19.5q82 0 137 -35t68 -109l-97 -15q-10 38 -38.5 53.5t-67.5 15.5q-42 0 -69 -17
t-27 -44q0 -26 20.5 -42.5t67.5 -26.5l73 -15q74 -15 114.5 -52t40.5 -104q0 -51 -28.5 -88.5t-76.5 -58t-108 -20.5zM269 -246q-37 0 -63.5 20t-35.5 50l59 19q4 -13 15 -21.5t26 -8.5q19 0 29.5 11t10.5 28q0 18 -11 29t-29 11q-19 0 -33 -15l-51 23l39 100h60l-25 -56
q9 3 21 3q41 0 67.5 -25.5t26.5 -69.5q0 -42 -29 -70t-77 -28z" />
    <glyph glyph-name="Scaron" unicode="&#x160;" horiz-adv-x="616" 
d="M314 -16q-110 0 -182 56.5t-91 162.5l110 24q11 -62 52 -100.5t112 -38.5q64 0 104 29t40 78q0 51 -36 76.5t-117 50.5l-53 17q-45 13 -87.5 36t-70.5 61.5t-28 99.5q0 55 29 99.5t82.5 70.5t127.5 26q113 0 174 -54.5t71 -137.5l-104 -16q-10 48 -44.5 77t-95.5 29
q-57 0 -94.5 -25t-37.5 -65t35 -65.5t104 -46.5l52 -16q56 -17 102 -42.5t73 -66.5t27 -106q0 -70 -35 -117t-92.5 -71.5t-126.5 -24.5zM260 813l-116 141v6h101l57 -80h10l58 80h101v-6l-116 -141h-95z" />
    <glyph glyph-name="scaron" unicode="&#x161;" horiz-adv-x="506" 
d="M260 -16q-92 0 -152.5 44t-71.5 120l103 17q8 -38 39.5 -62t81.5 -24q43 0 74.5 17.5t31.5 51.5q0 31 -26.5 50t-75.5 28l-63 12q-66 12 -108 49t-42 101q0 46 27 80.5t72.5 54t100.5 19.5q82 0 137 -35t68 -109l-97 -15q-10 38 -38.5 53.5t-67.5 15.5q-42 0 -69 -17
t-27 -44q0 -26 20.5 -42.5t67.5 -26.5l73 -15q74 -15 114.5 -52t40.5 -104q0 -51 -28.5 -88.5t-76.5 -58t-108 -20.5zM205 629l-116 141v6h101l57 -80h10l58 80h101v-6l-116 -141h-95z" />
    <glyph glyph-name="uni0162" unicode="&#x162;" horiz-adv-x="601" 
d="M315 -246q-38 0 -64 20t-36 50l59 19q4 -13 15 -21.5t27 -8.5q18 0 28.5 11t10.5 28q0 18 -11 29t-28 11q-20 0 -33 -15l-52 23l39 100h-24v612h-218v104h545v-104h-218v-612h-24l-25 -56q8 3 20 3q41 0 68 -25.5t27 -69.5q0 -42 -29.5 -70t-76.5 -28z" />
    <glyph glyph-name="uni0163" unicode="&#x163;" horiz-adv-x="387" 
d="M268 -8h-11l-21 -48q9 3 21 3q41 0 67.5 -25.5t26.5 -69.5q0 -42 -29.5 -70t-76.5 -28q-37 0 -63.5 20t-36.5 50l60 19q4 -13 15 -21.5t26 -8.5q19 0 29.5 11t10.5 28q0 18 -11 29t-29 11q-19 0 -33 -15l-51 23l40 104q-40 16 -62.5 53t-22.5 91v284h-85v94h85v144h107
v-144h120v-94h-120v-265q0 -74 65 -74q17 0 30 4.5t27 12.5v-104q-16 -6 -34.5 -10t-43.5 -4z" />
    <glyph glyph-name="Tcaron" unicode="&#x164;" horiz-adv-x="601" 
d="M246 0v612h-218v104h545v-104h-218v-612h-109zM253 813l-116 141v6h101l57 -80h10l58 80h101v-6l-116 -141h-95z" />
    <glyph glyph-name="tcaron" unicode="&#x165;" horiz-adv-x="384" 
d="M296 600v176h101l-25 -176h-76zM268 -8q-69 0 -110 41.5t-41 114.5v284h-85v94h85v144h107v-144h120v-94h-120v-265q0 -74 65 -74q17 0 30 4.5t27 12.5v-104q-16 -6 -34.5 -10t-43.5 -4z" />
    <glyph glyph-name="Tbar" unicode="&#x166;" horiz-adv-x="601" 
d="M246 0v319h-135v86h135v207h-218v104h545v-104h-218v-207h135v-86h-135v-319h-109z" />
    <glyph glyph-name="tbar" unicode="&#x167;" horiz-adv-x="387" 
d="M32 228v88h85v116h-85v94h85v144h107v-144h120v-94h-120v-116h116v-88h-116v-61q0 -74 65 -74q17 0 30 4.5t27 12.5v-104q-16 -6 -34.5 -10t-43.5 -4q-69 0 -110 41.5t-41 114.5v80h-85z" />
    <glyph glyph-name="Utilde" unicode="&#x168;" horiz-adv-x="701" 
d="M351 -16q-128 0 -201 75t-73 212v445h108v-451q0 -85 42 -131t124 -46q81 0 123 46t42 131v451h108v-445q0 -134 -72.5 -210.5t-200.5 -76.5zM418 819q-26 0 -47 9.5t-37 20.5q-13 8 -24 13.5t-23 5.5q-14 0 -23.5 -9.5t-10.5 -28.5h-81q0 60 31.5 91t77.5 31q28 0 49 -9
t38 -21q13 -8 23.5 -13.5t21.5 -5.5q31 0 34 38h81q0 -59 -31.5 -90.5t-78.5 -31.5z" />
    <glyph glyph-name="utilde" unicode="&#x169;" horiz-adv-x="589" 
d="M253 -16q-90 0 -137 53.5t-47 146.5v342h107v-328q0 -59 29.5 -87t76.5 -28q59 0 93 42t34 102v299h107v-526h-101v67h-6q-21 -37 -62 -60t-94 -23zM360 636q-26 0 -47 9.5t-37 20.5q-13 8 -24 13.5t-23 5.5q-14 0 -23.5 -9.5t-10.5 -28.5h-81q0 60 31.5 91t77.5 31
q28 0 49 -9t38 -21q13 -8 23.5 -13.5t21.5 -5.5q31 0 34 38h81q0 -59 -31.5 -90.5t-78.5 -31.5z" />
    <glyph glyph-name="Umacron" unicode="&#x16a;" horiz-adv-x="701" 
d="M351 -16q-128 0 -201 75t-73 212v445h108v-451q0 -85 42 -131t124 -46q81 0 123 46t42 131v451h108v-445q0 -134 -72.5 -210.5t-200.5 -76.5zM208 849v83h286v-83h-286z" />
    <glyph glyph-name="umacron" unicode="&#x16b;" horiz-adv-x="589" 
d="M253 -16q-90 0 -137 53.5t-47 146.5v342h107v-328q0 -59 29.5 -87t76.5 -28q59 0 93 42t34 102v299h107v-526h-101v67h-6q-21 -37 -62 -60t-94 -23zM150 665v83h286v-83h-286z" />
    <glyph glyph-name="Ubreve" unicode="&#x16c;" horiz-adv-x="701" 
d="M351 -16q-128 0 -201 75t-73 212v445h108v-451q0 -85 42 -131t124 -46q81 0 123 46t42 131v451h108v-445q0 -134 -72.5 -210.5t-200.5 -76.5zM351 818q-64 0 -101 39.5t-37 102.5h80q0 -27 14.5 -47t43.5 -20q30 0 44 20t14 47h80q0 -63 -36.5 -102.5t-101.5 -39.5z" />
    <glyph glyph-name="ubreve" unicode="&#x16d;" horiz-adv-x="589" 
d="M253 -16q-90 0 -137 53.5t-47 146.5v342h107v-328q0 -59 29.5 -87t76.5 -28q59 0 93 42t34 102v299h107v-526h-101v67h-6q-21 -37 -62 -60t-94 -23zM292 634q-64 0 -101 39.5t-37 102.5h80q0 -27 14.5 -47t43.5 -20q30 0 44 20t14 47h80q0 -63 -36.5 -102.5t-101.5 -39.5
z" />
    <glyph glyph-name="Uring" unicode="&#x16e;" horiz-adv-x="701" 
d="M351 -16q-128 0 -201 75t-73 212v445h108v-451q0 -85 42 -131t124 -46q81 0 123 46t42 131v451h108v-445q0 -134 -72.5 -210.5t-200.5 -76.5zM350 791q-46 0 -78.5 32.5t-32.5 78.5t32.5 78.5t78.5 32.5q47 0 79.5 -32.5t32.5 -78.5t-32.5 -78.5t-79.5 -32.5zM350 856
q20 0 33 13.5t13 32.5q0 20 -13 33t-33 13q-19 0 -32 -13t-13 -33q0 -19 13 -32.5t32 -13.5z" />
    <glyph glyph-name="uring" unicode="&#x16f;" horiz-adv-x="589" 
d="M253 -16q-90 0 -137 53.5t-47 146.5v342h107v-328q0 -59 29.5 -87t76.5 -28q59 0 93 42t34 102v299h107v-526h-101v67h-6q-21 -37 -62 -60t-94 -23zM292 604q-46 0 -78.5 32.5t-32.5 78.5t32.5 78.5t78.5 32.5q47 0 79.5 -32.5t32.5 -78.5t-32.5 -78.5t-79.5 -32.5z
M292 669q20 0 33 13.5t13 32.5q0 20 -13 33t-33 13q-19 0 -32 -13t-13 -33q0 -19 13 -32.5t32 -13.5z" />
    <glyph glyph-name="Uhungarumlaut" unicode="&#x170;" horiz-adv-x="701" 
d="M351 -16q-128 0 -201 75t-73 212v445h108v-451q0 -85 42 -131t124 -46q81 0 123 46t42 131v451h108v-445q0 -134 -72.5 -210.5t-200.5 -76.5zM218 813l50 147h124l-85 -147h-89zM397 813l50 147h124l-85 -147h-89z" />
    <glyph glyph-name="uhungarumlaut" unicode="&#x171;" horiz-adv-x="589" 
d="M253 -16q-90 0 -137 53.5t-47 146.5v342h107v-328q0 -59 29.5 -87t76.5 -28q59 0 93 42t34 102v299h107v-526h-101v67h-6q-21 -37 -62 -60t-94 -23zM159 629l50 147h124l-85 -147h-89zM338 629l50 147h124l-85 -147h-89z" />
    <glyph glyph-name="Uogonek" unicode="&#x172;" horiz-adv-x="701" 
d="M412 -234q-59 0 -93.5 33.5t-34.5 86.5q0 32 14.5 57t33.5 41q-120 6 -187.5 80.5t-67.5 206.5v445h108v-451q0 -85 42 -131t124 -46q81 0 123 46t42 131v451h108v-445q0 -103 -40 -166.5t-98 -91.5q-60 -29 -84.5 -56t-24.5 -57q0 -24 13.5 -38t36.5 -14t44 12v-82
q-25 -12 -59 -12z" />
    <glyph glyph-name="uogonek" unicode="&#x173;" horiz-adv-x="589" 
d="M474 -234q-60 0 -94.5 33.5t-34.5 86.5q0 39 21.5 67.5t49.5 44.5l-1 2v67h-6q-21 -37 -62 -60t-94 -23q-90 0 -137 53.5t-47 146.5v342h107v-328q0 -59 29.5 -87t76.5 -28q59 0 93 42t34 102v299h107v-526q-33 -21 -55.5 -46.5t-22.5 -53.5q0 -24 14 -38t36 -14
q23 0 44 12v-82q-24 -12 -58 -12z" />
    <glyph glyph-name="Wcircumflex" unicode="&#x174;" horiz-adv-x="935" 
d="M204 0l-185 716h121l107 -463l12 -63h6l15 63l135 463h110l131 -463l15 -62h6l11 62l108 463h120l-182 -716h-115l-130 474l-16 69h-6l-16 -69l-135 -474h-112zM307 813v6l116 141h95l116 -141v-6h-101l-58 80h-10l-57 -80h-101z" />
    <glyph glyph-name="wcircumflex" unicode="&#x175;" horiz-adv-x="773" 
d="M165 0l-151 526h115l94 -374h4l106 374h109l106 -373h4l94 373h113l-152 -526h-112l-108 382h-4l-107 -382h-111zM223 629v6l116 141h95l116 -141v-6h-101l-58 80h-10l-57 -80h-101z" />
    <glyph glyph-name="Ycircumflex" unicode="&#x176;" horiz-adv-x="609" 
d="M252 0v328l-235 388h128l158 -270h6l153 270h129l-230 -388v-328h-109zM140 813v6l116 141h95l116 -141v-6h-101l-58 80h-10l-57 -80h-101z" />
    <glyph glyph-name="ycircumflex" unicode="&#x177;" horiz-adv-x="554" 
d="M112 -221q-47 0 -81 15v102q9 -6 29.5 -13t44.5 -7q32 0 54 18t43 68l21 50l-210 514h120l144 -371h4l142 371h117l-246 -600q-33 -81 -74.5 -114t-107.5 -33zM117 629v6l116 141h95l116 -141v-6h-101l-58 80h-10l-57 -80h-101z" />
    <glyph glyph-name="Ydieresis" unicode="&#x178;" horiz-adv-x="609" 
d="M252 0v328l-235 388h128l158 -270h6l153 270h129l-230 -388v-328h-109zM397 825q-25 0 -43.5 18.5t-18.5 43.5q0 27 18.5 44.5t43.5 17.5q27 0 45 -17.5t18 -44.5q0 -25 -18 -43.5t-45 -18.5zM210 825q-25 0 -43.5 18.5t-18.5 43.5q0 27 18.5 44.5t43.5 17.5
q27 0 44.5 -17.5t17.5 -44.5q0 -25 -17.5 -43.5t-44.5 -18.5z" />
    <glyph glyph-name="Zacute" unicode="&#x179;" horiz-adv-x="595" 
d="M38 0v112l382 500h-366v104h489v-112l-379 -500h383v-104h-509zM254 813l50 147h124l-85 -147h-89z" />
    <glyph glyph-name="zacute" unicode="&#x17a;" horiz-adv-x="505" 
d="M40 0v90l286 342h-277v94h405v-90l-285 -342h293v-94h-422zM207 629l50 147h124l-85 -147h-89z" />
    <glyph glyph-name="Zdotaccent" unicode="&#x17b;" horiz-adv-x="595" 
d="M38 0v112l382 500h-366v104h489v-112l-379 -500h383v-104h-509zM298 817q-28 0 -48 20t-20 48t20 48t48 20t48 -20t20 -48t-20 -48t-48 -20z" />
    <glyph glyph-name="zdotaccent" unicode="&#x17c;" horiz-adv-x="505" 
d="M40 0v90l286 342h-277v94h405v-90l-285 -342h293v-94h-422zM252 635q-30 0 -51.5 21.5t-21.5 51.5t21.5 51.5t51.5 21.5t51.5 -21.5t21.5 -51.5t-21.5 -51.5t-51.5 -21.5z" />
    <glyph glyph-name="Zcaron" unicode="&#x17d;" horiz-adv-x="595" 
d="M38 0v112l382 500h-366v104h489v-112l-379 -500h383v-104h-509zM251 813l-116 141v6h101l57 -80h10l58 80h101v-6l-116 -141h-95z" />
    <glyph glyph-name="zcaron" unicode="&#x17e;" horiz-adv-x="505" 
d="M40 0v90l286 342h-277v94h405v-90l-285 -342h293v-94h-422zM205 629l-116 141v6h101l57 -80h10l58 80h101v-6l-116 -141h-95z" />
    <glyph glyph-name="florin" unicode="&#x192;" horiz-adv-x="611" 
d="M130 -220q-21 0 -37 2.5t-36 8.5v105q20 -9 37 -12.5t30 -3.5q30 0 49 17.5t28 62.5l70 357h-104v94h123l28 144q16 82 63.5 126.5t124.5 44.5q21 0 35 -2.5t29 -6.5v-105q-17 8 -32 11t-31 3q-31 0 -54 -18.5t-31 -60.5l-27 -136h123v-94h-142l-75 -380
q-15 -73 -57 -115t-114 -42z" />
    <glyph glyph-name="Ohorn" unicode="&#x1a0;" horiz-adv-x="787" 
d="M394 -16q-102 0 -179 48t-120.5 132t-43.5 194t43.5 194.5t120.5 132t179 47.5q53 0 95 -4t79.5 -8t78.5 -4q44 0 44 44v78h83v-89q0 -58 -26.5 -85t-72.5 -27q-13 0 -25 2t-28 5v-5q58 -54 86 -125.5t28 -155.5q0 -110 -43 -194t-120 -132t-179 -48zM394 88
q67 0 119 31.5t82.5 92t30.5 146.5t-30.5 146.5t-82.5 92t-119 31.5t-119.5 -31.5t-82.5 -92t-30 -146.5t30 -146.5t82.5 -92t119.5 -31.5z" />
    <glyph glyph-name="ohorn" unicode="&#x1a1;" 
d="M300 -16q-79 0 -137 35.5t-89.5 98.5t-31.5 145t31.5 145t89.5 98.5t137 35.5q59 0 103 -8t86 -8t42 39v74h83v-90q0 -53 -23 -77.5t-63 -24.5q-8 0 -19.5 2t-25.5 6v-6q38 -36 56.5 -83t18.5 -103q0 -82 -31.5 -145t-89 -98.5t-137.5 -35.5zM300 83q67 0 109 46.5
t42 133.5t-42 133.5t-109 46.5q-66 0 -108.5 -46.5t-42.5 -133.5t42.5 -133.5t108.5 -46.5z" />
    <glyph glyph-name="Uhorn" unicode="&#x1af;" horiz-adv-x="712" 
d="M351 -16q-128 0 -201 75t-73 212v445h108v-451q0 -85 42 -131t124 -46q81 0 123 46t42 131v451h125q37 0 37 39v83h83v-82q0 -119 -120 -119h-17v-366q0 -134 -72.5 -210.5t-200.5 -76.5z" />
    <glyph glyph-name="uhorn" unicode="&#x1b0;" horiz-adv-x="613" 
d="M253 -16q-90 0 -137 53.5t-47 146.5v342h107v-328q0 -59 29.5 -87t76.5 -28q59 0 93 42t34 102v299h119q37 0 37 39v74h83v-73q0 -119 -120 -119h-12v-447h-101v67h-6q-21 -37 -62 -60t-94 -23z" />
    <glyph glyph-name="uni01CD" unicode="&#x1cd;" horiz-adv-x="678" 
d="M17 0l259 716h125l260 -716h-120l-63 184h-279l-63 -184h-119zM310 505l-76 -219h209l-76 219l-25 82h-6zM292 813l-116 141v6h101l57 -80h10l58 80h101v-6l-116 -141h-95z" />
    <glyph glyph-name="Aringacute" unicode="&#x1fa;" horiz-adv-x="678" 
d="M17 0l243 673q-20 17 -32.5 41.5t-12.5 53.5q0 34 16.5 62.5t44.5 45t62 16.5q35 0 63 -16.5t45 -45t17 -62.5q0 -29 -12.5 -54t-34.5 -41l245 -673h-120l-63 184h-279l-63 -184h-119zM338 716q22 0 37 15t15 37q0 23 -15 37.5t-37 14.5q-21 0 -36 -14.5t-15 -37.5
q0 -22 15 -37t36 -15zM310 505l-76 -219h209l-76 219l-25 82h-6zM294 862l50 147h124l-85 -147h-89z" />
    <glyph glyph-name="aringacute" unicode="&#x1fb;" horiz-adv-x="573" 
d="M236 868l49 141h123l-82 -141h-90zM281 604q-46 0 -78.5 32.5t-32.5 78.5t32.5 78.5t78.5 32.5t79 -32.5t33 -78.5t-33 -78.5t-79 -32.5zM281 669q20 0 33 13.5t13 32.5q0 20 -13 33t-33 13q-19 0 -32 -13t-13 -33q0 -19 13 -32.5t32 -13.5zM233 -16q-82 0 -132 45
t-50 121q0 53 27.5 89.5t73 55.5t100.5 19q42 0 78 -5t72 -15v50q0 49 -34 78.5t-90 29.5q-45 0 -76.5 -21.5t-43.5 -62.5l-95 22q16 74 76.5 113t139.5 39q111 0 169 -53t58 -152v-337h-104v61h-6q-23 -30 -63.5 -53.5t-99.5 -23.5zM257 72q66 0 105.5 40.5t39.5 97.5
q-67 23 -133 23q-52 0 -81 -21t-29 -62q0 -34 27.5 -56t70.5 -22z" />
    <glyph glyph-name="AEacute" unicode="&#x1fc;" horiz-adv-x="1012" 
d="M10 0l425 716h517v-104h-345v-189h314v-104h-314v-215h345v-104h-454v185h-251l-108 -185h-129zM306 289h192v323h-7l-31 -60zM638 813l50 147h124l-85 -147h-89z" />
    <glyph glyph-name="aeacute" unicode="&#x1fd;" horiz-adv-x="937" 
d="M233 -16q-82 0 -132 45t-50 121q0 53 27.5 89.5t73 55.5t100.5 19q42 0 78 -5t72 -15v50q0 49 -34 78.5t-90 29.5q-45 0 -76.5 -21.5t-43.5 -62.5l-95 22q16 74 76.5 113t139.5 39q137 0 192 -88q33 42 79.5 65t102.5 23q119 0 180.5 -67t61.5 -183q0 -29 -3 -52h-384
q5 -78 46 -119t103 -41q55 0 85.5 24.5t44.5 61.5l94 -25q-20 -68 -76 -112.5t-152 -44.5q-71 0 -125 32.5t-85 89.5q-35 -57 -88 -89.5t-122 -32.5zM513 321h276q-3 59 -37 94.5t-98 35.5q-53 0 -91 -33t-50 -97zM257 72q66 0 105.5 40.5t39.5 97.5q-67 23 -133 23
q-52 0 -81 -21t-29 -62q0 -34 27.5 -56t70.5 -22zM423 629l50 147h124l-85 -147h-89z" />
    <glyph glyph-name="Oslashacute" unicode="&#x1fe;" horiz-adv-x="787" 
d="M187 -51l-75 47l49 77q-52 50 -81 123t-29 162q0 110 43.5 194.5t120.5 132t179 47.5q88 0 160 -38l47 74l74 -48l-48 -77q51 -50 80 -123t29 -162q0 -110 -43 -194t-120 -132t-179 -48q-89 0 -161 38zM162 358q0 -61 15.5 -109t42.5 -82l278 438q-47 23 -104 23
q-67 0 -119.5 -31.5t-82.5 -92t-30 -146.5zM394 88q67 0 119 31.5t82.5 92t30.5 146.5q0 61 -15.5 109t-43.5 82l-277 -438q46 -23 104 -23zM349 813l50 147h124l-85 -147h-89z" />
    <glyph glyph-name="oslashacute" unicode="&#x1ff;" 
d="M161 -40l-72 41l32 52q-38 37 -58.5 90.5t-20.5 119.5q0 82 31.5 145t89.5 98.5t137 35.5q61 0 111 -22l28 45l72 -40l-31 -51q37 -38 57.5 -91.5t20.5 -119.5q0 -82 -31.5 -145t-89 -98.5t-137.5 -35.5q-60 0 -111 22zM149 263q0 -70 30 -116l178 286q-26 10 -57 10
q-66 0 -108.5 -46.5t-42.5 -133.5zM300 83q67 0 109 46.5t42 133.5q0 71 -30 116l-177 -286q26 -10 56 -10zM255 629l50 147h124l-85 -147h-89z" />
    <glyph glyph-name="uni0218" unicode="&#x218;" horiz-adv-x="616" 
d="M314 -16q-110 0 -182 56.5t-91 162.5l110 24q11 -62 52 -100.5t112 -38.5q64 0 104 29t40 78q0 51 -36 76.5t-117 50.5l-53 17q-45 13 -87.5 36t-70.5 61.5t-28 99.5q0 55 29 99.5t82.5 70.5t127.5 26q113 0 174 -54.5t71 -137.5l-104 -16q-10 48 -44.5 77t-95.5 29
q-57 0 -94.5 -25t-37.5 -65t35 -65.5t104 -46.5l52 -16q56 -17 102 -42.5t73 -66.5t27 -106q0 -70 -35 -117t-92.5 -71.5t-126.5 -24.5zM190 -278l56 206h128l-92 -206h-92z" />
    <glyph glyph-name="uni0219" unicode="&#x219;" horiz-adv-x="506" 
d="M260 -16q-92 0 -152.5 44t-71.5 120l103 17q8 -38 39.5 -62t81.5 -24q43 0 74.5 17.5t31.5 51.5q0 31 -26.5 50t-75.5 28l-63 12q-66 12 -108 49t-42 101q0 46 27 80.5t72.5 54t100.5 19.5q82 0 137 -35t68 -109l-97 -15q-10 38 -38.5 53.5t-67.5 15.5q-42 0 -69 -17
t-27 -44q0 -26 20.5 -42.5t67.5 -26.5l73 -15q74 -15 114.5 -52t40.5 -104q0 -51 -28.5 -88.5t-76.5 -58t-108 -20.5zM134 -278l56 206h128l-92 -206h-92z" />
    <glyph glyph-name="uni021A" unicode="&#x21a;" horiz-adv-x="601" 
d="M246 0v612h-218v104h545v-104h-218v-612h-109zM179 -278l56 206h128l-92 -206h-92z" />
    <glyph glyph-name="uni021B" unicode="&#x21b;" horiz-adv-x="387" 
d="M268 -8q-69 0 -110 41.5t-41 114.5v284h-85v94h85v144h107v-144h120v-94h-120v-265q0 -74 65 -74q17 0 30 4.5t27 12.5v-104q-16 -6 -34.5 -10t-43.5 -4zM120 -278l56 206h128l-92 -206h-92z" />
    <glyph glyph-name="uni0237" unicode="&#x237;" horiz-adv-x="251" 
d="M32 -226q-31 0 -57 7v103q9 -5 21 -8.5t24 -3.5q51 0 51 66v588h107v-588q0 -87 -41 -125.5t-105 -38.5z" />
    <glyph glyph-name="uni0259" unicode="&#x259;" horiz-adv-x="576" 
d="M283 -16q-118 0 -179.5 67t-61.5 183q0 29 2 52h385q-5 78 -46 119t-104 41q-51 0 -82 -25t-47 -61l-94 25q19 68 76.5 112.5t150.5 44.5q77 0 133.5 -35.5t87 -98t30.5 -144.5q0 -84 -32 -147t-88.5 -98t-130.5 -35zM283 75q53 0 91 33t50 97h-276q3 -59 37 -94.5
t98 -35.5z" />
    <glyph glyph-name="circumflex" unicode="&#x2c6;" horiz-adv-x="425" 
d="M49 629v6l116 141h95l116 -141v-6h-101l-58 80h-10l-57 -80h-101z" />
    <glyph glyph-name="caron" unicode="&#x2c7;" horiz-adv-x="425" 
d="M165 629l-116 141v6h101l57 -80h10l58 80h101v-6l-116 -141h-95z" />
    <glyph glyph-name="breve" unicode="&#x2d8;" horiz-adv-x="407" 
d="M204 634q-64 0 -101 39.5t-37 102.5h80q0 -27 14.5 -47t43.5 -20q30 0 44 20t14 47h80q0 -63 -36.5 -102.5t-101.5 -39.5z" />
    <glyph glyph-name="dotaccent" unicode="&#x2d9;" horiz-adv-x="248" 
d="M127 635q-30 0 -51.5 21.5t-21.5 51.5t21.5 51.5t51.5 21.5t51.5 -21.5t21.5 -51.5t-21.5 -51.5t-51.5 -21.5z" />
    <glyph glyph-name="ring" unicode="&#x2da;" horiz-adv-x="405" 
d="M202 604q-46 0 -78.5 32.5t-32.5 78.5t32.5 78.5t78.5 32.5q47 0 79.5 -32.5t32.5 -78.5t-32.5 -78.5t-79.5 -32.5zM202 669q20 0 33 13.5t13 32.5q0 20 -13 33t-33 13q-19 0 -32 -13t-13 -33q0 -19 13 -32.5t32 -13.5z" />
    <glyph glyph-name="ogonek" unicode="&#x2db;" horiz-adv-x="413" 
d="M210 -234q-59 0 -93.5 33.5t-34.5 86.5q0 41 22 70t48 44h101q-33 -21 -55.5 -46.5t-22.5 -53.5q0 -24 13.5 -38t36.5 -14t44 12v-82q-25 -12 -59 -12z" />
    <glyph glyph-name="tilde" unicode="&#x2dc;" horiz-adv-x="408" 
d="M272 636q-26 0 -47 9.5t-37 20.5q-13 8 -24 13.5t-23 5.5q-14 0 -23.5 -9.5t-10.5 -28.5h-81q0 60 31.5 91t77.5 31q28 0 49 -9t38 -21q13 -8 23.5 -13.5t21.5 -5.5q31 0 34 38h81q0 -59 -31.5 -90.5t-78.5 -31.5z" />
    <glyph glyph-name="hungarumlaut" unicode="&#x2dd;" horiz-adv-x="432" 
d="M73 629l50 147h124l-85 -147h-89zM252 629l50 147h124l-85 -147h-89z" />
    <glyph glyph-name="gravecomb" unicode="&#x300;" horiz-adv-x="0" 
d="M177 629l-85 147h124l50 -147h-89z" />
    <glyph glyph-name="acutecomb" unicode="&#x301;" horiz-adv-x="0" 
d="M154 629l50 147h124l-85 -147h-89z" />
    <glyph glyph-name="uni0302" unicode="&#x302;" horiz-adv-x="0" 
d="M49 629v6l116 141h95l116 -141v-6h-101l-58 80h-10l-57 -80h-101z" />
    <glyph glyph-name="tildecomb" unicode="&#x303;" horiz-adv-x="0" 
d="M272 636q-26 0 -47 9.5t-37 20.5q-13 8 -24 13.5t-23 5.5q-14 0 -23.5 -9.5t-10.5 -28.5h-81q0 60 31.5 91t77.5 31q28 0 49 -9t38 -21q13 -8 23.5 -13.5t21.5 -5.5q31 0 34 38h81q0 -59 -31.5 -90.5t-78.5 -31.5z" />
    <glyph glyph-name="uni0304" unicode="&#x304;" horiz-adv-x="0" 
d="M61 665v83h286v-83h-286z" />
    <glyph glyph-name="uni0306" unicode="&#x306;" horiz-adv-x="0" 
d="M204 634q-64 0 -101 39.5t-37 102.5h80q0 -27 14.5 -47t43.5 -20q30 0 44 20t14 47h80q0 -63 -36.5 -102.5t-101.5 -39.5z" />
    <glyph glyph-name="uni0307" unicode="&#x307;" horiz-adv-x="0" 
d="M127 635q-30 0 -51.5 21.5t-21.5 51.5t21.5 51.5t51.5 21.5t51.5 -21.5t21.5 -51.5t-21.5 -51.5t-51.5 -21.5z" />
    <glyph glyph-name="uni0308" unicode="&#x308;" horiz-adv-x="0" 
d="M304 641q-25 0 -43.5 18.5t-18.5 43.5q0 27 18.5 44.5t43.5 17.5q27 0 45 -17.5t18 -44.5q0 -25 -18 -43.5t-45 -18.5zM117 641q-25 0 -43.5 18.5t-18.5 43.5q0 27 18.5 44.5t43.5 17.5q27 0 44.5 -17.5t17.5 -44.5q0 -25 -17.5 -43.5t-44.5 -18.5z" />
    <glyph glyph-name="hookabovecomb" unicode="&#x309;" horiz-adv-x="0" 
d="M78 594l-19 58q28 8 42 19t14 31q0 18 -12 26.5t-31 8.5q-15 0 -28.5 -4t-23.5 -9l-20 61q21 8 41 12.5t42 4.5q53 0 80.5 -25.5t27.5 -70.5q0 -50 -32.5 -77t-80.5 -35z" />
    <glyph glyph-name="uni030A" unicode="&#x30a;" horiz-adv-x="0" 
d="M202 604q-46 0 -78.5 32.5t-32.5 78.5t32.5 78.5t78.5 32.5q47 0 79.5 -32.5t32.5 -78.5t-32.5 -78.5t-79.5 -32.5zM202 669q20 0 33 13.5t13 32.5q0 20 -13 33t-33 13q-19 0 -32 -13t-13 -33q0 -19 13 -32.5t32 -13.5z" />
    <glyph glyph-name="uni030B" unicode="&#x30b;" horiz-adv-x="0" 
d="M73 629l50 147h124l-85 -147h-89zM252 629l50 147h124l-85 -147h-89z" />
    <glyph glyph-name="uni030C" unicode="&#x30c;" horiz-adv-x="0" 
d="M165 629l-116 141v6h101l57 -80h10l58 80h101v-6l-116 -141h-95z" />
    <glyph glyph-name="uni0312" unicode="&#x312;" horiz-adv-x="0" 
d="M310 838l-56 -206h-128l92 206h92z" />
    <glyph glyph-name="uni031B" unicode="&#x31b;" horiz-adv-x="0" 
d="M0 447v79h21q37 0 37 39v74h83v-73q0 -119 -120 -119h-21z" />
    <glyph glyph-name="dotbelowcomb" unicode="&#x323;" horiz-adv-x="0" 
d="M119 -226q-27 0 -46 19t-19 46t19 45.5t46 18.5t45.5 -18.5t18.5 -45.5t-18.5 -46t-45.5 -19z" />
    <glyph glyph-name="uni0324" unicode="&#x324;" horiz-adv-x="0" 
d="M250 -224q-25 0 -44 18.5t-19 44.5q0 27 19 44.5t44 17.5q27 0 45 -17.5t18 -44.5q0 -26 -18 -44.5t-45 -18.5zM63 -224q-26 0 -44.5 18.5t-18.5 44.5q0 27 18.5 44.5t44.5 17.5t44 -17.5t18 -44.5q0 -26 -18 -44.5t-44 -18.5z" />
    <glyph glyph-name="uni0326" unicode="&#x326;" horiz-adv-x="0" 
d="M100 -278l56 206h128l-92 -206h-92z" />
    <glyph glyph-name="uni0327" unicode="&#x327;" horiz-adv-x="0" 
d="M164 -246q-37 0 -63.5 20t-35.5 50l59 19q4 -13 15 -21.5t26 -8.5q19 0 29.5 11t10.5 28q0 18 -11 29t-29 11q-19 0 -33 -15l-51 23l39 100h60l-25 -56q9 3 21 3q41 0 67.5 -25.5t26.5 -69.5q0 -42 -29 -70t-77 -28z" />
    <glyph glyph-name="uni0328" unicode="&#x328;" horiz-adv-x="0" 
d="M210 -234q-59 0 -93.5 33.5t-34.5 86.5q0 41 22 70t48 44h101q-33 -21 -55.5 -46.5t-22.5 -53.5q0 -24 13.5 -38t36.5 -14t44 12v-82q-25 -12 -59 -12z" />
    <glyph glyph-name="uni032E" unicode="&#x32e;" horiz-adv-x="0" 
d="M204 -223q-64 0 -101 39.5t-37 102.5h80q0 -27 14.5 -47t43.5 -20q30 0 44 20t14 47h80q0 -63 -36.5 -102.5t-101.5 -39.5z" />
    <glyph glyph-name="uni0331" unicode="&#x331;" horiz-adv-x="0" 
d="M61 -181v83h286v-83h-286z" />
    <glyph glyph-name="uni0374" unicode="&#x374;" horiz-adv-x="460" 
d="M154 470l83 246h132l-124 -246h-91z" />
    <glyph glyph-name="uni0375" unicode="&#x375;" horiz-adv-x="460" 
d="M368 148l-83 -246h-132l124 246h91z" />
    <glyph glyph-name="uni037A" unicode="&#x37a;" horiz-adv-x="417" 
d="M152 -54h79l35 -162h-114v162z" />
    <glyph glyph-name="uni037E" unicode="&#x37e;" horiz-adv-x="276" 
d="M141 386q-32 0 -53.5 22t-21.5 53q0 32 21.5 53.5t53.5 21.5q31 0 53 -21.5t22 -53.5q0 -31 -22 -53t-53 -22zM12 -121l75 251h127l-112 -251h-90z" />
    <glyph glyph-name="tonos" unicode="&#x384;" horiz-adv-x="406" 
d="M154 629l34 161h126l-70 -161h-90z" />
    <glyph glyph-name="dieresistonos" unicode="&#x385;" horiz-adv-x="519" 
d="M203 629l14 161h118l-48 -161h-84zM114 644q-24 0 -41.5 17.5t-17.5 41.5q0 26 17.5 42.5t41.5 16.5q26 0 42.5 -16.5t16.5 -42.5q0 -24 -16.5 -41.5t-42.5 -17.5zM405 644q-24 0 -42 17.5t-17 41.5q0 26 17.5 42.5t41.5 16.5q26 0 42.5 -16.5t17.5 -42.5
q0 -24 -17 -41.5t-43 -17.5z" />
    <glyph glyph-name="Alphatonos" unicode="&#x386;" horiz-adv-x="678" 
d="M17 0l259 716h125l260 -716h-120l-63 184h-279l-63 -184h-119zM310 505l-76 -219h209l-76 219l-25 82h-6zM-7 555l34 161h126l-70 -161h-90z" />
    <glyph glyph-name="anoteleia" unicode="&#x387;" horiz-adv-x="276" 
d="M138 386q-31 0 -53 22t-22 53t22 53t53 22t53 -22t22 -53t-22 -53t-53 -22z" />
    <glyph glyph-name="Epsilontonos" unicode="&#x388;" 
d="M86 0v716h454v-104h-345v-189h314v-104h-314v-215h345v-104h-454zM-157 555l34 161h126l-70 -161h-90z" />
    <glyph glyph-name="Etatonos" unicode="&#x389;" horiz-adv-x="716" 
d="M86 0v716h109v-298h328v298h109v-716h-109v314h-328v-314h-109zM-157 555l34 161h126l-70 -161h-90z" />
    <glyph glyph-name="Iotatonos" unicode="&#x38a;" horiz-adv-x="275" 
d="M86 0v716h109v-716h-109zM-157 555l34 161h126l-70 -161h-90z" />
    <glyph glyph-name="Omicrontonos" unicode="&#x38c;" horiz-adv-x="804" 
d="M394 -16q-102 0 -179 48t-120.5 132t-43.5 194t43.5 194.5t120.5 132t179 47.5t179 -47.5t120 -132t43 -194.5t-43 -194t-120 -132t-179 -48zM394 88q67 0 119 31.5t82.5 92t30.5 146.5t-30.5 146.5t-82.5 92t-119 31.5t-119.5 -31.5t-82.5 -92t-30 -146.5t30 -146.5
t82.5 -92t119.5 -31.5zM-80 555l34 161h126l-70 -161h-90z" />
    <glyph glyph-name="Upsilontonos" unicode="&#x38e;" horiz-adv-x="609" 
d="M252 0v328l-235 388h128l158 -270h6l153 270h129l-230 -388v-328h-109zM-197 555l34 161h126l-70 -161h-90z" />
    <glyph glyph-name="Omegatonos" unicode="&#x38f;" horiz-adv-x="758" 
d="M61 0v99h172v34q-80 31 -131 99.5t-51 179.5q0 95 42.5 167t116 112.5t169.5 40.5q95 0 169 -40.5t116 -112.5t42 -167q0 -111 -50.5 -179.5t-131.5 -99.5v-34h173v-99h-270v193q77 21 123 74.5t46 145.5q0 69 -28.5 118t-78 75.5t-110.5 26.5q-62 0 -111 -26.5
t-77.5 -76t-28.5 -117.5q0 -92 45.5 -145.5t122.5 -74.5v-193h-269zM-127 555l34 161h126l-70 -161h-90z" />
    <glyph glyph-name="iotadieresistonos" unicode="&#x390;" horiz-adv-x="329" 
d="M220 -8q-70 0 -110.5 41.5t-40.5 114.5v378h107v-359q0 -74 64 -74q18 0 31 4.5t27 12.5v-104q-17 -6 -35 -10t-43 -4zM78 629l14 161h118l-48 -161h-84zM-11 644q-24 0 -41.5 17.5t-17.5 41.5q0 26 17.5 42.5t41.5 16.5q26 0 42.5 -16.5t16.5 -42.5q0 -24 -16.5 -41.5
t-42.5 -17.5zM280 644q-24 0 -42 17.5t-17 41.5q0 26 17.5 42.5t41.5 16.5q26 0 42.5 -16.5t17.5 -42.5q0 -24 -17 -41.5t-43 -17.5z" />
    <glyph glyph-name="Alpha" unicode="&#x391;" horiz-adv-x="678" 
d="M17 0l259 716h125l260 -716h-120l-63 184h-279l-63 -184h-119zM310 505l-76 -219h209l-76 219l-25 82h-6z" />
    <glyph glyph-name="Beta" unicode="&#x392;" horiz-adv-x="654" 
d="M86 0v716h286q63 0 111 -21t75.5 -61t27.5 -97t-27 -95t-68 -58v-6q53 -18 86 -62t33 -106q0 -64 -29.5 -111.5t-80 -73t-113.5 -25.5h-301zM195 426h175q51 0 80 24t29 71t-28 71t-77 24h-179v-190zM195 101h191q53 0 83.5 31t30.5 83t-31 83t-87 31h-187v-228z" />
    <glyph glyph-name="Gamma" unicode="&#x393;" horiz-adv-x="548" 
d="M86 0v716h420v-104h-311v-612h-109z" />
    <glyph glyph-name="uni0394" unicode="&#x394;" horiz-adv-x="669" 
d="M37 0v68l235 648h124l236 -649v-67h-595zM167 102h335l-165 484h-6z" />
    <glyph glyph-name="Epsilon" unicode="&#x395;" 
d="M86 0v716h454v-104h-345v-189h314v-104h-314v-215h345v-104h-454z" />
    <glyph glyph-name="Zeta" unicode="&#x396;" horiz-adv-x="595" 
d="M38 0v112l382 500h-366v104h489v-112l-379 -500h383v-104h-509z" />
    <glyph glyph-name="Eta" unicode="&#x397;" horiz-adv-x="718" 
d="M86 0v716h109v-298h328v298h109v-716h-109v314h-328v-314h-109z" />
    <glyph glyph-name="Theta" unicode="&#x398;" horiz-adv-x="787" 
d="M394 -16q-102 0 -179 48t-120.5 132t-43.5 194t43.5 194.5t120.5 132t179 47.5t179 -47.5t120 -132t43 -194.5t-43 -194t-120 -132t-179 -48zM394 88q67 0 119 31.5t82.5 92t30.5 146.5t-30.5 146.5t-82.5 92t-119 31.5t-119.5 -31.5t-82.5 -92t-30 -146.5t30 -146.5
t82.5 -92t119.5 -31.5zM239 309v98h308v-98h-308z" />
    <glyph glyph-name="Iota" unicode="&#x399;" horiz-adv-x="281" 
d="M86 0v716h109v-716h-109z" />
    <glyph glyph-name="Kappa" unicode="&#x39a;" horiz-adv-x="637" 
d="M86 0v716h110v-347h6l272 347h135v-6l-286 -358l302 -346v-6h-140l-283 328h-6v-328h-110z" />
    <glyph glyph-name="Lambda" unicode="&#x39b;" horiz-adv-x="678" 
d="M17 0l259 716h125l260 -716h-120l-174 505l-25 82h-6l-26 -82l-174 -505h-119z" />
    <glyph glyph-name="Mu" unicode="&#x39c;" horiz-adv-x="869" 
d="M86 0v716h147l198 -543h6l199 543h147v-716h-108v404l6 125h-6l-197 -529h-87l-198 529h-6l6 -125v-404h-107z" />
    <glyph glyph-name="Nu" unicode="&#x39d;" horiz-adv-x="725" 
d="M86 0v716h129l316 -525h6l-6 137v388h108v-716h-114l-331 552h-6l6 -138v-414h-108z" />
    <glyph glyph-name="Xi" unicode="&#x39e;" horiz-adv-x="625" 
d="M60 612v104h504v-104h-504zM102 307v102h421v-102h-421zM60 0v104h504v-104h-504z" />
    <glyph glyph-name="Omicron" unicode="&#x39f;" horiz-adv-x="787" 
d="M394 -16q-102 0 -179 48t-120.5 132t-43.5 194t43.5 194.5t120.5 132t179 47.5t179 -47.5t120 -132t43 -194.5t-43 -194t-120 -132t-179 -48zM394 88q67 0 119 31.5t82.5 92t30.5 146.5t-30.5 146.5t-82.5 92t-119 31.5t-119.5 -31.5t-82.5 -92t-30 -146.5t30 -146.5
t82.5 -92t119.5 -31.5z" />
    <glyph glyph-name="Pi" unicode="&#x3a0;" horiz-adv-x="694" 
d="M86 0v716h522v-716h-109v612h-304v-612h-109z" />
    <glyph glyph-name="Rho" unicode="&#x3a1;" horiz-adv-x="629" 
d="M86 0v716h268q67 0 121.5 -24t86 -73.5t31.5 -126.5t-31.5 -127t-86 -74t-121.5 -24h-159v-267h-109zM195 371h162q60 0 94 31t34 90t-34 89.5t-94 30.5h-162v-241z" />
    <glyph glyph-name="Sigma" unicode="&#x3a3;" horiz-adv-x="594" 
d="M38 0v82l187 290l-181 270v74h492v-104h-334l150 -230v-10l-173 -268h367v-104h-508z" />
    <glyph glyph-name="Tau" unicode="&#x3a4;" horiz-adv-x="601" 
d="M246 0v612h-218v104h545v-104h-218v-612h-109z" />
    <glyph glyph-name="Upsilon" unicode="&#x3a5;" horiz-adv-x="609" 
d="M252 0v328l-235 388h128l158 -270h6l153 270h129l-230 -388v-328h-109z" />
    <glyph glyph-name="Phi" unicode="&#x3a6;" horiz-adv-x="807" 
d="M349 -5v60q-93 8 -159.5 49.5t-102.5 107.5t-36 146t36 146t102.5 107.5t159.5 49.5v60h109v-60q93 -8 159.5 -49.5t102.5 -107.5t36 -146t-36 -146t-102.5 -107.5t-159.5 -49.5v-60h-109zM645 358q0 82 -47 138.5t-140 66.5v-410q93 11 140 67t47 138zM162 358
q0 -82 47 -138t140 -67v410q-93 -10 -140 -66.5t-47 -138.5z" />
    <glyph glyph-name="Chi" unicode="&#x3a7;" horiz-adv-x="654" 
d="M22 0l232 372l-217 344h132l155 -257h6l155 257h134l-219 -344l233 -372h-133l-170 279h-6l-170 -279h-132z" />
    <glyph glyph-name="Psi" unicode="&#x3a8;" horiz-adv-x="783" 
d="M337 0v156q-79 2 -139.5 36t-95.5 99.5t-35 160.5v264h110v-258q0 -93 39 -143.5t121 -54.5v456h109v-456q82 4 121 54.5t39 143.5v258h110v-264q0 -95 -34.5 -160t-95.5 -99.5t-140 -36.5v-156h-109z" />
    <glyph glyph-name="uni03A9" unicode="&#x3a9;" horiz-adv-x="758" 
d="M61 0v99h172v34q-80 31 -131 99.5t-51 179.5q0 95 42.5 167t116 112.5t169.5 40.5q95 0 169 -40.5t116 -112.5t42 -167q0 -111 -50.5 -179.5t-131.5 -99.5v-34h173v-99h-270v193q77 21 123 74.5t46 145.5q0 69 -28.5 118t-78 75.5t-110.5 26.5q-62 0 -111 -26.5
t-77.5 -76t-28.5 -117.5q0 -92 45.5 -145.5t122.5 -74.5v-193h-269z" />
    <glyph glyph-name="Iotadieresis" unicode="&#x3aa;" horiz-adv-x="281" 
d="M53 825q-26 0 -44.5 18.5t-18.5 43.5q0 27 18.5 44.5t44.5 17.5q27 0 44.5 -17.5t17.5 -44.5q0 -25 -17.5 -43.5t-44.5 -18.5zM228 825q-25 0 -44 18.5t-19 43.5q0 27 19 44.5t44 17.5q27 0 45 -17.5t18 -44.5q0 -25 -18 -43.5t-45 -18.5zM86 0v716h110v-716h-110z" />
    <glyph glyph-name="Upsilondieresis" unicode="&#x3ab;" horiz-adv-x="609" 
d="M252 0v328l-235 388h128l158 -270h6l153 270h129l-230 -388v-328h-109zM397 825q-25 0 -43.5 18.5t-18.5 43.5q0 27 18.5 44.5t43.5 17.5q27 0 45 -17.5t18 -44.5q0 -25 -18 -43.5t-45 -18.5zM210 825q-25 0 -43.5 18.5t-18.5 43.5q0 27 18.5 44.5t43.5 17.5
q27 0 44.5 -17.5t17.5 -44.5q0 -25 -17.5 -43.5t-44.5 -18.5z" />
    <glyph glyph-name="alphatonos" unicode="&#x3ac;" horiz-adv-x="678" 
d="M275 -16q-74 0 -126 36.5t-79.5 99.5t-27.5 142q0 88 30.5 151t83 96t118.5 33q56 0 99.5 -24t64.5 -61h6v69h101v-351q0 -39 13 -59t43 -20q13 0 24 4t22 10v-108q-29 -10 -62 -10q-55 0 -86.5 23t-43.5 74h-6q-22 -51 -68.5 -78t-105.5 -27zM296 83q65 0 106.5 45.5
t41.5 134.5t-41.5 134.5t-106.5 45.5q-64 0 -105.5 -45.5t-41.5 -134.5t41.5 -134.5t105.5 -45.5zM225 629l34 161h126l-70 -161h-90z" />
    <glyph glyph-name="epsilontonos" unicode="&#x3ad;" horiz-adv-x="527" 
d="M267 -16q-105 0 -160 43t-55 107q0 53 27 85t76 42v4q-48 13 -71 45.5t-23 74.5q0 74 57 115.5t166 41.5q71 0 125 -19.5t86 -61.5l-65 -70q-24 26 -60.5 41.5t-90.5 15.5q-66 0 -90 -22.5t-24 -51.5q0 -32 26.5 -47.5t73.5 -15.5h101v-94h-106q-56 0 -78.5 -18
t-22.5 -49t27 -50t82 -19q57 0 101 20t68 48l62 -66q-17 -24 -47.5 -46.5t-76.5 -37.5t-108 -15zM221 628l34 161h126l-70 -161h-90z" />
    <glyph glyph-name="etatonos" unicode="&#x3ae;" horiz-adv-x="589" 
d="M73 0v526h101v-67h6q21 37 62.5 60t93.5 23q90 0 137.5 -53.5t47.5 -146.5v-558h-108v544q0 59 -29 87t-77 28q-59 0 -93 -42t-34 -102v-299h-107zM219 629l34 161h126l-70 -161h-90z" />
    <glyph glyph-name="iotatonos" unicode="&#x3af;" horiz-adv-x="329" 
d="M220 -8q-70 0 -110.5 41.5t-40.5 114.5v378h107v-359q0 -74 64 -74q18 0 31 4.5t27 12.5v-104q-17 -6 -35 -10t-43 -4zM76 629l34 161h126l-70 -161h-90z" />
    <glyph glyph-name="upsilondieresistonos" unicode="&#x3b0;" horiz-adv-x="585" 
d="M293 -16q-103 0 -163.5 59t-60.5 177v306h107v-298q0 -81 33 -113t84 -32t83.5 32t32.5 113v298h107v-306q0 -118 -60.5 -177t-162.5 -59zM246 629l14 161h118l-48 -161h-84zM157 644q-24 0 -41.5 17.5t-17.5 41.5q0 26 17.5 42.5t41.5 16.5q26 0 42.5 -16.5t16.5 -42.5
q0 -24 -16.5 -41.5t-42.5 -17.5zM448 644q-24 0 -42 17.5t-17 41.5q0 26 17.5 42.5t41.5 16.5q26 0 42.5 -16.5t17.5 -42.5q0 -24 -17 -41.5t-43 -17.5z" />
    <glyph glyph-name="alpha" unicode="&#x3b1;" horiz-adv-x="678" 
d="M275 -16q-74 0 -126 36.5t-79.5 99.5t-27.5 142q0 88 30.5 151t83 96t118.5 33q56 0 99.5 -24t64.5 -61h6v69h101v-351q0 -39 13 -59t43 -20q13 0 24 4t22 10v-108q-29 -10 -62 -10q-55 0 -86.5 23t-43.5 74h-6q-22 -51 -68.5 -78t-105.5 -27zM296 83q65 0 106.5 45.5
t41.5 134.5t-41.5 134.5t-106.5 45.5q-64 0 -105.5 -45.5t-41.5 -134.5t41.5 -134.5t105.5 -45.5z" />
    <glyph glyph-name="beta" unicode="&#x3b2;" horiz-adv-x="618" 
d="M73 -216v746q0 129 62 196t176 67q82 0 132.5 -30.5t73 -79t22.5 -102.5q0 -43 -15.5 -75.5t-38.5 -53t-45 -29.5v-6q59 -17 98 -62.5t39 -123.5q0 -81 -32.5 -136t-86 -83t-117.5 -28q-52 0 -96 22.5t-65 59.5h-6l6 -71v-211h-107zM329 83q68 0 104 40t36 102
q0 137 -144 137h-62v94h49q62 0 92 32.5t30 84.5q0 54 -32 87.5t-93 33.5q-68 0 -101.5 -41.5t-33.5 -117.5v-270q0 -84 40.5 -133t114.5 -49z" />
    <glyph glyph-name="gamma" unicode="&#x3b3;" horiz-adv-x="545" 
d="M218 -216v216l-204 526h118l138 -388h6l140 388h115l-205 -526v-216h-108z" />
    <glyph glyph-name="delta" unicode="&#x3b4;" horiz-adv-x="595" 
d="M296 -16q-75 0 -133.5 35.5t-92 98t-33.5 144.5q0 73 27 130.5t78 94t122 44.5l-175 154v91h442v-102h-275l156 -139q81 -71 111 -134.5t30 -134.5q0 -84 -33 -147.5t-91 -99t-133 -35.5zM295 83q67 0 109 46.5t42 133.5t-42 133.5t-109 46.5q-66 0 -108.5 -46.5
t-42.5 -133.5t42.5 -133.5t108.5 -46.5z" />
    <glyph glyph-name="epsilon" unicode="&#x3b5;" horiz-adv-x="527" 
d="M267 -16q-105 0 -160 43t-55 107q0 53 27 85t76 42v4q-48 13 -71 45.5t-23 74.5q0 74 57 115.5t166 41.5q71 0 125 -19.5t86 -61.5l-65 -70q-24 26 -60.5 41.5t-90.5 15.5q-66 0 -90 -22.5t-24 -51.5q0 -32 26.5 -47.5t73.5 -15.5h101v-94h-106q-56 0 -78.5 -18
t-22.5 -49t27 -50t82 -19q57 0 101 20t68 48l62 -66q-17 -24 -47.5 -46.5t-76.5 -37.5t-108 -15z" />
    <glyph glyph-name="zeta" unicode="&#x3b6;" horiz-adv-x="495" 
d="M327 -181v90q23 0 35 11.5t12 27.5q0 17 -11.5 27.5t-35.5 11.5l-31 1q-127 4 -195.5 53.5t-68.5 145.5q0 44 15 86.5t49 93.5t93 121l163 194h-310v94h430v-86l-218 -270q-44 -55 -69 -91t-35.5 -64t-10.5 -59q0 -61 41 -88.5t116 -30.5l25 -1q76 -3 115 -38t39 -95
q0 -64 -42 -99t-106 -35z" />
    <glyph glyph-name="eta" unicode="&#x3b7;" horiz-adv-x="589" 
d="M73 0v526h101v-67h6q21 37 62.5 60t93.5 23q90 0 137.5 -53.5t47.5 -146.5v-558h-108v544q0 59 -29 87t-77 28q-59 0 -93 -42t-34 -102v-299h-107z" />
    <glyph glyph-name="theta" unicode="&#x3b8;" horiz-adv-x="597" 
d="M299 -16q-75 0 -132 40.5t-88.5 129.5t-31.5 235t31.5 234.5t88.5 129t132 40.5t131.5 -40.5t88 -129t31.5 -234.5t-31.5 -235t-88 -129.5t-131.5 -40.5zM299 693q-37 0 -68.5 -21.5t-51.5 -76.5t-24 -155h287q-3 100 -23.5 155t-52 76.5t-67.5 21.5zM299 83q37 0 68 24
t51 81t24 158h-287q5 -101 24.5 -158t50.5 -81t69 -24z" />
    <glyph glyph-name="iota" unicode="&#x3b9;" horiz-adv-x="329" 
d="M220 -8q-70 0 -110.5 41.5t-40.5 114.5v378h107v-359q0 -74 64 -74q18 0 31 4.5t27 12.5v-104q-17 -6 -35 -10t-43 -4z" />
    <glyph glyph-name="kappa" unicode="&#x3ba;" horiz-adv-x="535" 
d="M73 0v526h107v-214h4l203 214h129v-6l-192 -197l197 -317v-6h-122l-151 244l-68 -69v-175h-107z" />
    <glyph glyph-name="lambda" unicode="&#x3bb;" horiz-adv-x="553" 
d="M13 0l214 526l-30 87q-16 47 -33 63t-49 16q-17 0 -33 -4t-29 -11v104q14 5 33 8t39 3q40 0 69 -12.5t51 -43t42 -83.5l252 -653h-116l-142 371h-5l-144 -371h-119z" />
    <glyph glyph-name="uni03BC" unicode="&#x3bc;" horiz-adv-x="653" 
d="M73 -216v742h107v-326q0 -65 31.5 -91t73.5 -26q62 0 95 43t33 105v295h108v-356q0 -35 13 -54.5t42 -19.5q13 0 24 4t22 10v-108q-14 -4 -28 -7t-33 -3q-62 0 -91 26t-39 71h-6q-20 -42 -56 -73.5t-87 -31.5q-35 0 -61 13t-40 34h-6l5 -57v-190h-107z" />
    <glyph glyph-name="nu" unicode="&#x3bd;" horiz-adv-x="545" 
d="M217 0l-203 526h118l138 -387h6l140 387h115l-205 -526h-109z" />
    <glyph glyph-name="xi" unicode="&#x3be;" horiz-adv-x="518" 
d="M332 -181v90q23 0 35 11.5t12 27.5q0 17 -11.5 27.5t-35.5 11.5l-31 1q-135 5 -199.5 64.5t-64.5 156.5q0 82 38 129t103 66v6q-56 17 -86.5 52t-30.5 89q0 46 22.5 80t61.5 51h-108v94h420v-90h-129q-81 0 -120.5 -35.5t-39.5 -88.5q0 -59 38 -86t88 -27h119v-95h-122
q-67 0 -107 -34.5t-40 -101.5q0 -66 42 -97t115 -34l25 -1q76 -3 115 -38t39 -95q0 -64 -42 -99t-106 -35z" />
    <glyph glyph-name="omicron" unicode="&#x3bf;" 
d="M300 -16q-79 0 -137 35.5t-89.5 98.5t-31.5 145t31.5 145t89.5 98.5t137 35.5q80 0 137.5 -35.5t89 -98.5t31.5 -145t-31.5 -145t-89 -98.5t-137.5 -35.5zM300 83q67 0 109 46.5t42 133.5t-42 133.5t-109 46.5q-66 0 -108.5 -46.5t-42.5 -133.5t42.5 -133.5t108.5 -46.5z
" />
    <glyph glyph-name="pi" unicode="&#x3c0;" horiz-adv-x="727" 
d="M145 0v432h-113v94h654v-94h-128v-264q0 -37 13 -56t45 -19q10 0 21 2.5t25 10.5v-105q-13 -4 -31 -6.5t-29 -2.5q-79 0 -114 40t-35 121v279h-203v-432h-105z" />
    <glyph glyph-name="rho" unicode="&#x3c1;" horiz-adv-x="618" 
d="M73 -216v476q0 89 33.5 152t91.5 96.5t133 33.5q84 0 138.5 -37.5t81 -101t26.5 -140.5q0 -86 -30 -148.5t-82.5 -96.5t-120.5 -34q-60 0 -101 23.5t-63 58.5h-6l6 -71v-211h-107zM322 83q64 0 106 45.5t42 134.5t-42 134.5t-106 45.5q-63 0 -105.5 -45.5t-42.5 -134.5
t42.5 -134.5t105.5 -45.5z" />
    <glyph glyph-name="uni03C2" unicode="&#x3c2;" horiz-adv-x="565" 
d="M337 -181v90q23 0 35 11.5t12 27.5q0 17 -11.5 27.5t-35.5 11.5l-31 1q-128 4 -196 78t-68 195q0 86 32.5 149t90.5 97.5t135 34.5q89 0 150.5 -45.5t75.5 -130.5l-104 -17q-10 45 -44 69.5t-82 24.5q-40 0 -73 -19.5t-53.5 -59.5t-20.5 -102q0 -78 41 -125.5t116 -49.5
l25 -1q76 -3 115 -38t39 -95q0 -64 -42 -99t-106 -35z" />
    <glyph glyph-name="sigma" unicode="&#x3c3;" horiz-adv-x="639" 
d="M294 -16q-75 0 -132 35.5t-88.5 97t-31.5 137.5q0 79 32 140.5t92.5 96.5t144.5 35h297v-94h-58l-79 7v-6q34 -28 55.5 -72t21.5 -104q0 -76 -32 -138t-89 -98.5t-133 -36.5zM295 83q62 0 104 46.5t42 125.5q0 55 -20 93.5t-53.5 58t-72.5 19.5q-38 0 -71.5 -19.5
t-54 -58t-20.5 -93.5q0 -53 20 -91.5t53.5 -59.5t72.5 -21z" />
    <glyph glyph-name="tau" unicode="&#x3c4;" horiz-adv-x="535" 
d="M346 -8q-70 0 -110.5 42t-40.5 114v284h-163v94h462v-94h-192v-262q0 -77 63 -77q18 0 31.5 4t27.5 13v-104q-18 -6 -35.5 -10t-42.5 -4z" />
    <glyph glyph-name="upsilon" unicode="&#x3c5;" horiz-adv-x="585" 
d="M293 -16q-103 0 -163.5 59t-60.5 177v306h107v-298q0 -81 33 -113t84 -32t83.5 32t32.5 113v298h107v-306q0 -118 -60.5 -177t-162.5 -59z" />
    <glyph glyph-name="phi" unicode="&#x3c6;" horiz-adv-x="731" 
d="M312 -216v200q-87 4 -147.5 41t-91.5 99t-31 140q0 75 31 137t91.5 99.5t147.5 41.5v128h107v-128q87 -4 147 -40.5t91.5 -99t31.5 -142.5q0 -76 -31.5 -137t-91.5 -98t-147 -41v-200h-107zM581 260q0 89 -43 137.5t-119 52.5v-375q76 5 119 54t43 131zM150 264
q0 -86 43 -135t119 -54v375q-76 -4 -119 -54t-43 -132z" />
    <glyph glyph-name="chi" unicode="&#x3c7;" horiz-adv-x="556" 
d="M22 -216l202 377l-200 365h123l136 -268l125 268h119l-191 -370l201 -372h-124l-136 276l-134 -276h-121z" />
    <glyph glyph-name="psi" unicode="&#x3c8;" horiz-adv-x="733" 
d="M312 -216v201q-117 5 -180 66.5t-63 178.5v296h107v-295q0 -75 33 -109t103 -39v587h108v-587q70 5 103.5 39t33.5 109v295h107v-296q0 -117 -63 -178.5t-181 -66.5v-201h-108z" />
    <glyph glyph-name="omega" unicode="&#x3c9;" horiz-adv-x="830" 
d="M253 -16q-54 0 -99.5 26.5t-73.5 83t-28 146.5q0 54 11.5 108.5t32.5 101t50 76.5h115q-48 -58 -75 -133t-27 -153q0 -77 26.5 -117t73.5 -40q41 0 72 31t31 98v180h107v-180q0 -67 30.5 -98t70.5 -31q44 0 72.5 40t28.5 117q0 78 -27 153t-75 133h114q29 -30 50.5 -76.5
t33 -101t11.5 -108.5q0 -85 -28 -142t-73.5 -85.5t-99.5 -28.5q-50 0 -93.5 27t-68.5 86q-23 -59 -68 -86t-94 -27z" />
    <glyph glyph-name="iotadieresis" unicode="&#x3ca;" horiz-adv-x="329" 
d="M220 -8q-70 0 -110.5 41.5t-40.5 114.5v378h107v-359q0 -74 64 -74q18 0 31 4.5t27 12.5v-104q-17 -6 -35 -10t-43 -4zM218 641q-25 0 -43.5 18.5t-18.5 43.5q0 27 18.5 44.5t43.5 17.5q27 0 45 -17.5t18 -44.5q0 -25 -18 -43.5t-45 -18.5zM31 641q-25 0 -43.5 18.5
t-18.5 43.5q0 27 18.5 44.5t43.5 17.5q27 0 44.5 -17.5t17.5 -44.5q0 -25 -17.5 -43.5t-44.5 -18.5z" />
    <glyph glyph-name="upsilondieresis" unicode="&#x3cb;" horiz-adv-x="585" 
d="M293 -16q-103 0 -163.5 59t-60.5 177v306h107v-298q0 -81 33 -113t84 -32t83.5 32t32.5 113v298h107v-306q0 -118 -60.5 -177t-162.5 -59zM386 641q-25 0 -43.5 18.5t-18.5 43.5q0 27 18.5 44.5t43.5 17.5q27 0 45 -17.5t18 -44.5q0 -25 -18 -43.5t-45 -18.5zM199 641
q-25 0 -43.5 18.5t-18.5 43.5q0 27 18.5 44.5t43.5 17.5q27 0 44.5 -17.5t17.5 -44.5q0 -25 -17.5 -43.5t-44.5 -18.5z" />
    <glyph glyph-name="omicrontonos" unicode="&#x3cc;" 
d="M300 -16q-79 0 -137 35.5t-89.5 98.5t-31.5 145t31.5 145t89.5 98.5t137 35.5q80 0 137.5 -35.5t89 -98.5t31.5 -145t-31.5 -145t-89 -98.5t-137.5 -35.5zM300 83q67 0 109 46.5t42 133.5t-42 133.5t-109 46.5q-66 0 -108.5 -46.5t-42.5 -133.5t42.5 -133.5t108.5 -46.5z
M251 629l34 161h126l-70 -161h-90z" />
    <glyph glyph-name="upsilontonos" unicode="&#x3cd;" horiz-adv-x="585" 
d="M293 -16q-103 0 -163.5 59t-60.5 177v306h107v-298q0 -81 33 -113t84 -32t83.5 32t32.5 113v298h107v-306q0 -118 -60.5 -177t-162.5 -59zM243 629l34 161h126l-70 -161h-90z" />
    <glyph glyph-name="omegatonos" unicode="&#x3ce;" horiz-adv-x="830" 
d="M253 -16q-54 0 -99.5 26.5t-73.5 83t-28 146.5q0 54 11.5 108.5t32.5 101t50 76.5h115q-48 -58 -75 -133t-27 -153q0 -77 26.5 -117t73.5 -40q41 0 72 31t31 98v180h107v-180q0 -67 30.5 -98t70.5 -31q44 0 72.5 40t28.5 117q0 78 -27 153t-75 133h114q29 -30 50.5 -76.5
t33 -101t11.5 -108.5q0 -85 -28 -142t-73.5 -85.5t-99.5 -28.5q-50 0 -93.5 27t-68.5 86q-23 -59 -68 -86t-94 -27zM366 629l34 161h126l-70 -161h-90z" />
    <glyph glyph-name="uni03CF" unicode="&#x3cf;" horiz-adv-x="664" 
d="M403 -216l122 243l-237 294l-93 -112v-209h-109v716h109v-339h6l277 339h135v-6l-251 -301l293 -363v-6l-131 -256h-121z" />
    <glyph glyph-name="uni03D7" unicode="&#x3d7;" horiz-adv-x="562" 
d="M303 -216l124 247l-179 213l-68 -69v-175h-107v526h107v-214h4l203 214h129v-6l-192 -197l224 -273v-6l-130 -260h-115z" />
    <glyph glyph-name="uni0400" unicode="&#x400;" 
d="M86 0v716h454v-104h-345v-189h314v-104h-314v-215h345v-104h-454zM270 813l-85 147h124l50 -147h-89z" />
    <glyph glyph-name="uni0401" unicode="&#x401;" 
d="M86 0v716h454v-104h-345v-189h314v-104h-314v-215h345v-104h-454zM408 825q-25 0 -43.5 18.5t-18.5 43.5q0 27 18.5 44.5t43.5 17.5q27 0 45 -17.5t18 -44.5q0 -25 -18 -43.5t-45 -18.5zM221 825q-25 0 -43.5 18.5t-18.5 43.5q0 27 18.5 44.5t43.5 17.5q27 0 44.5 -17.5
t17.5 -44.5q0 -25 -17.5 -43.5t-44.5 -18.5z" />
    <glyph glyph-name="uni0402" unicode="&#x402;" horiz-adv-x="736" 
d="M209 0v612h-181v104h509v-104h-219v-151l-6 -73h6q29 22 71.5 36t100.5 14q61 0 111 -26.5t79.5 -76t29.5 -116.5q0 -109 -67.5 -164t-179.5 -55h-28v100h23q68 0 105 32t37 86q0 51 -34.5 84.5t-92.5 33.5q-50 0 -90.5 -14t-64.5 -38v-284h-109z" />
    <glyph glyph-name="uni0403" unicode="&#x403;" horiz-adv-x="540" 
d="M86 0v716h420v-104h-311v-612h-109zM252 813l50 147h124l-85 -147h-89z" />
    <glyph glyph-name="uni0404" unicode="&#x404;" horiz-adv-x="728" 
d="M378 -16q-97 0 -170.5 46t-115 129.5t-41.5 198.5t42.5 199t116.5 129.5t169 45.5q78 0 143 -27t106.5 -79.5t48.5 -129.5l-108 -18q-12 64 -59.5 107t-130.5 43t-144.5 -56t-75.5 -164h323v-99h-323q13 -108 74.5 -164.5t145.5 -56.5q79 0 128.5 41.5t62.5 109.5
l108 -12q-19 -113 -96 -178t-204 -65z" />
    <glyph glyph-name="uni0405" unicode="&#x405;" horiz-adv-x="616" 
d="M314 -16q-110 0 -182 56.5t-91 162.5l110 24q11 -62 52 -100.5t112 -38.5q64 0 104 29t40 78q0 51 -36 76.5t-117 50.5l-53 17q-45 13 -87.5 36t-70.5 61.5t-28 99.5q0 55 29 99.5t82.5 70.5t127.5 26q113 0 174 -54.5t71 -137.5l-104 -16q-10 48 -44.5 77t-95.5 29
q-57 0 -94.5 -25t-37.5 -65t35 -65.5t104 -46.5l52 -16q56 -17 102 -42.5t73 -66.5t27 -106q0 -70 -35 -117t-92.5 -71.5t-126.5 -24.5z" />
    <glyph glyph-name="uni0406" unicode="&#x406;" horiz-adv-x="281" 
d="M86 0v716h109v-716h-109z" />
    <glyph glyph-name="uni0407" unicode="&#x407;" horiz-adv-x="271" 
d="M217 829q-23 0 -41 17.5t-18 40.5q0 26 18 43t41 17q25 0 42.5 -17t17.5 -43q0 -23 -17.5 -40.5t-42.5 -17.5zM63 829q-24 0 -41.5 17.5t-17.5 40.5q0 26 17.5 43t41.5 17q25 0 42 -17t17 -43q0 -23 -17 -40.5t-42 -17.5zM86 0v716h109v-716h-109z" />
    <glyph glyph-name="uni0408" unicode="&#x408;" horiz-adv-x="553" 
d="M259 -16q-94 0 -155.5 55.5t-74.5 158.5l105 22q20 -132 125 -132q55 0 86.5 35t31.5 101v492h109v-489q0 -82 -29.5 -136t-80.5 -80.5t-117 -26.5z" />
    <glyph glyph-name="uni0409" unicode="&#x409;" horiz-adv-x="1012" 
d="M77 -8q-8 0 -19.5 1t-19.5 3v105q8 -3 16.5 -4t16.5 -1q35 0 52 34t22.5 98t5.5 155v333h446v-266h128q64 0 119.5 -25t89 -74.5t33.5 -124.5t-33.5 -125t-89 -75.5t-119.5 -25.5h-237v612h-228v-279q0 -65 -6 -125.5t-24.5 -109.5t-55 -77.5t-97.5 -28.5zM597 103h135
q59 0 92.5 32t33.5 91t-33.5 91t-92.5 32h-135v-246z" />
    <glyph glyph-name="uni040A" unicode="&#x40a;" horiz-adv-x="1023" 
d="M86 0v716h109v-296h303v296h110v-296h134q64 0 118 -23t86 -70t32 -117t-32 -116.5t-86 -70t-118 -23.5h-244v318h-303v-318h-109zM608 103h138q55 0 87 29.5t32 77.5q0 49 -32 78.5t-87 29.5h-138v-215z" />
    <glyph glyph-name="uni040B" unicode="&#x40b;" horiz-adv-x="754" 
d="M206 0v612h-178v104h505v-104h-217v-174l-6 -73h6q27 32 71 52.5t99 20.5q59 0 106.5 -25t75 -72.5t27.5 -115.5v-225h-109v204q0 62 -31.5 97t-91.5 35q-48 0 -86 -22t-61 -57v-257h-110z" />
    <glyph glyph-name="uni040C" unicode="&#x40c;" horiz-adv-x="637" 
d="M86 0v716h110v-347h6l272 347h135v-6l-286 -358l302 -346v-6h-140l-283 328h-6v-328h-110zM277 813l50 147h124l-85 -147h-89z" />
    <glyph glyph-name="uni040D" unicode="&#x40d;" horiz-adv-x="725" 
d="M86 0v716h109v-406l-6 -138h6l336 544h108v-716h-108v403l6 138h-6l-335 -541h-110zM318 813l-85 147h124l50 -147h-89z" />
    <glyph glyph-name="uni040E" unicode="&#x40e;" horiz-adv-x="617" 
d="M182 -16q-42 0 -71 13v103q41 -15 67 -15q56 0 79 55l20 51l-262 525h125l190 -393h5l158 393h116l-251 -605q-30 -72 -71.5 -99.5t-104.5 -27.5zM311 818q-71 0 -112 39.5t-41 102.5h81q0 -27 17.5 -50.5t54.5 -23.5q36 0 53.5 23.5t17.5 50.5h80q0 -63 -40 -102.5
t-111 -39.5z" />
    <glyph glyph-name="uni040F" unicode="&#x40f;" horiz-adv-x="692" 
d="M292 -152v152h-206v716h110v-612h300v612h110v-716h-207v-152h-107z" />
    <glyph glyph-name="uni0410" unicode="&#x410;" horiz-adv-x="678" 
d="M17 0l259 716h125l260 -716h-120l-63 184h-279l-63 -184h-119zM310 505l-76 -219h209l-76 219l-25 82h-6z" />
    <glyph glyph-name="uni0411" unicode="&#x411;" horiz-adv-x="626" 
d="M86 0v716h435v-102h-325v-182h145q65 0 120.5 -24t89 -72t33.5 -119q0 -72 -33.5 -120t-89 -72.5t-120.5 -24.5h-255zM196 103h152q59 0 93 29.5t34 84.5t-34 84.5t-93 29.5h-152v-228z" />
    <glyph glyph-name="uni0412" unicode="&#x412;" horiz-adv-x="654" 
d="M86 0v716h286q63 0 111 -21t75.5 -61t27.5 -97t-27 -95t-68 -58v-6q53 -18 86 -62t33 -106q0 -64 -29.5 -111.5t-80 -73t-113.5 -25.5h-301zM195 426h175q51 0 80 24t29 71t-28 71t-77 24h-179v-190zM195 101h191q53 0 83.5 31t30.5 83t-31 83t-87 31h-187v-228z" />
    <glyph glyph-name="uni0413" unicode="&#x413;" horiz-adv-x="540" 
d="M86 0v716h420v-104h-311v-612h-109z" />
    <glyph glyph-name="uni0414" unicode="&#x414;" horiz-adv-x="732" 
d="M35 -152v256h61q24 38 38 99.5t19.5 135.5t5.5 149v228h454v-612h84v-256h-107v152h-448v-152h-107zM214 104h289v508h-237v-141q0 -110 -12.5 -203t-39.5 -158v-6z" />
    <glyph glyph-name="uni0415" unicode="&#x415;" 
d="M86 0v716h454v-104h-345v-189h314v-104h-314v-215h345v-104h-454z" />
    <glyph glyph-name="uni0416" unicode="&#x416;" horiz-adv-x="926" 
d="M12 0v6l278 349l-263 355v6h130l245 -347h6v347h110v-347h6l246 347h129v-6l-263 -355l279 -349v-6h-138l-253 328h-6v-328h-110v328h-6l-253 -328h-137z" />
    <glyph glyph-name="uni0417" unicode="&#x417;" horiz-adv-x="640" 
d="M334 -16q-69 0 -128 24t-99.5 73t-55.5 125l101 22q16 -69 64 -105.5t117 -36.5q40 0 74.5 12.5t56 38.5t21.5 66q0 52 -36.5 87t-101.5 35h-100v98h100q55 0 84.5 30t29.5 76q0 51 -35 77.5t-98 26.5q-59 0 -101.5 -26t-58.5 -79l-104 16q24 95 95 141.5t168 46.5
q75 0 130 -25t85.5 -68.5t30.5 -99.5q0 -51 -26 -92t-75 -65v-6q56 -23 90.5 -66t34.5 -107q0 -60 -31.5 -110t-90.5 -79.5t-141 -29.5z" />
    <glyph glyph-name="uni0418" unicode="&#x418;" horiz-adv-x="725" 
d="M86 0v716h109v-406l-6 -138h6l336 544h108v-716h-108v403l6 138h-6l-335 -541h-110z" />
    <glyph glyph-name="uni0419" unicode="&#x419;" horiz-adv-x="725" 
d="M86 0v716h109v-406l-6 -138h6l336 544h108v-716h-108v403l6 138h-6l-335 -541h-110zM361 818q-71 0 -112 39.5t-41 102.5h81q0 -27 17.5 -50.5t54.5 -23.5q36 0 53.5 23.5t17.5 50.5h80q0 -63 -40 -102.5t-111 -39.5z" />
    <glyph glyph-name="uni041A" unicode="&#x41a;" horiz-adv-x="637" 
d="M86 0v716h110v-347h6l272 347h135v-6l-286 -358l302 -346v-6h-140l-283 328h-6v-328h-110z" />
    <glyph glyph-name="uni041B" unicode="&#x41b;" horiz-adv-x="703" 
d="M77 -8q-8 0 -19.5 1t-19.5 3v105q8 -3 16.5 -4t16.5 -1q36 0 53.5 34t23.5 98t6 155v333h463v-716h-109v612h-248v-279q0 -65 -6 -125.5t-24.5 -109.5t-55 -77.5t-97.5 -28.5z" />
    <glyph glyph-name="uni041C" unicode="&#x41c;" horiz-adv-x="869" 
d="M86 0v716h147l198 -543h6l199 543h147v-716h-108v404l6 125h-6l-197 -529h-87l-198 529h-6l6 -125v-404h-107z" />
    <glyph glyph-name="uni041D" unicode="&#x41d;" horiz-adv-x="718" 
d="M86 0v716h109v-298h328v298h109v-716h-109v314h-328v-314h-109z" />
    <glyph glyph-name="uni041E" unicode="&#x41e;" horiz-adv-x="787" 
d="M394 -16q-102 0 -179 48t-120.5 132t-43.5 194t43.5 194.5t120.5 132t179 47.5t179 -47.5t120 -132t43 -194.5t-43 -194t-120 -132t-179 -48zM394 88q67 0 119 31.5t82.5 92t30.5 146.5t-30.5 146.5t-82.5 92t-119 31.5t-119.5 -31.5t-82.5 -92t-30 -146.5t30 -146.5
t82.5 -92t119.5 -31.5z" />
    <glyph glyph-name="uni041F" unicode="&#x41f;" horiz-adv-x="704" 
d="M86 0v716h532v-716h-109v612h-314v-612h-109z" />
    <glyph glyph-name="uni0420" unicode="&#x420;" horiz-adv-x="629" 
d="M86 0v716h268q67 0 121.5 -24t86 -73.5t31.5 -126.5t-31.5 -127t-86 -74t-121.5 -24h-159v-267h-109zM195 371h162q60 0 94 31t34 90t-34 89.5t-94 30.5h-162v-241z" />
    <glyph glyph-name="uni0421" unicode="&#x421;" horiz-adv-x="726" 
d="M378 -16q-97 0 -170.5 46t-115 129.5t-41.5 198.5t42.5 199t116.5 129.5t169 45.5q77 0 141.5 -27t106 -79.5t48.5 -129.5l-108 -18q-12 64 -59 107t-129 43q-61 0 -110.5 -30.5t-78 -91t-28.5 -148.5t28.5 -148t77.5 -91t111 -31q79 0 128 41.5t62 109.5l108 -12
q-19 -113 -96 -178t-203 -65z" />
    <glyph glyph-name="uni0422" unicode="&#x422;" horiz-adv-x="601" 
d="M246 0v612h-218v104h545v-104h-218v-612h-109z" />
    <glyph glyph-name="uni0423" unicode="&#x423;" horiz-adv-x="617" 
d="M182 -16q-42 0 -71 13v103q41 -15 67 -15q56 0 79 55l20 51l-262 525h125l190 -393h5l158 393h116l-251 -605q-30 -72 -71.5 -99.5t-104.5 -27.5z" />
    <glyph glyph-name="uni0424" unicode="&#x424;" horiz-adv-x="805" 
d="M348 -16v94l-13 2q-82 6 -145 41.5t-98.5 97.5t-35.5 148q0 85 35.5 145t98.5 95t145 43l13 2v80h109v-80l13 -2q82 -8 145 -43t98.5 -95t35.5 -145q0 -86 -35.5 -148t-98.5 -97.5t-145 -41.5l-13 -2v-94h-109zM335 179l13 -1v375l-13 -2q-75 -7 -122 -54.5t-47 -129.5
q0 -85 47 -133.5t122 -54.5zM470 551l-13 2v-375l13 1q74 6 121.5 54.5t47.5 133.5q0 82 -47.5 129.5t-121.5 54.5z" />
    <glyph glyph-name="uni0425" unicode="&#x425;" horiz-adv-x="654" 
d="M22 0l232 372l-217 344h132l155 -257h6l155 257h134l-219 -344l233 -372h-133l-170 279h-6l-170 -279h-132z" />
    <glyph glyph-name="uni0426" unicode="&#x426;" horiz-adv-x="724" 
d="M582 -152v152h-496v716h109v-612h300v612h110v-612h84v-256h-107z" />
    <glyph glyph-name="uni0427" unicode="&#x427;" horiz-adv-x="650" 
d="M454 0v292q-30 -15 -71 -23.5t-96 -8.5q-64 0 -116 26.5t-82.5 76t-30.5 118.5v235h110v-216q0 -67 39 -101.5t101 -34.5q48 0 84 10t62 29v313h110v-716h-110z" />
    <glyph glyph-name="uni0428" unicode="&#x428;" horiz-adv-x="930" 
d="M86 0v716h110v-612h214v612h110v-612h214v612h110v-716h-758z" />
    <glyph glyph-name="uni0429" unicode="&#x429;" horiz-adv-x="969" 
d="M821 -152v152h-735v716h110v-612h214v612h110v-612h214v612h110v-612h84v-256h-107z" />
    <glyph glyph-name="uni042A" unicode="&#x42a;" horiz-adv-x="748" 
d="M216 0v614h-190v102h300v-266h134q65 0 120.5 -25t89 -74.5t33.5 -124.5t-33.5 -125t-89 -75.5t-120.5 -25.5h-244zM326 103h142q58 0 91.5 32t33.5 91t-33.5 91t-91.5 32h-142v-246z" />
    <glyph glyph-name="uni042B" unicode="&#x42b;" horiz-adv-x="852" 
d="M86 0v716h110v-266h132q65 0 119.5 -25t88 -74.5t33.5 -124.5t-33.5 -125t-88 -75.5t-119.5 -25.5h-242zM656 0v716h110v-716h-110zM196 103h139q59 0 92 32t33 91t-33 91t-92 32h-139v-246z" />
    <glyph glyph-name="uni042C" unicode="&#x42c;" horiz-adv-x="628" 
d="M86 0v716h110v-266h146q65 0 120 -25t88 -74.5t33 -124.5t-33 -125t-88 -75.5t-120 -25.5h-256zM196 103h153q59 0 92 32t33 91t-33 91t-92 32h-153v-246z" />
    <glyph glyph-name="uni042D" unicode="&#x42d;" horiz-adv-x="731" 
d="M351 -16q-128 0 -204.5 61.5t-96.5 169.5l109 16q14 -63 62.5 -103t127.5 -40q86 0 146.5 56.5t72.5 164.5h-326v98h326q-13 109 -73.5 165t-145.5 56q-81 0 -128 -37.5t-60 -96.5l-105 16q10 72 50.5 121.5t103.5 75t139 25.5q96 0 171 -45.5t117.5 -129.5t42.5 -199
t-41.5 -198.5t-116 -129.5t-171.5 -46z" />
    <glyph glyph-name="uni042E" unicode="&#x42e;" horiz-adv-x="1045" 
d="M662 -16q-93 0 -164.5 41.5t-115 116t-51.5 172.5h-136v-314h-109v716h109v-298h138q11 94 55 164.5t114 110t160 39.5q98 0 173 -47.5t117 -132t42 -194.5t-42 -194t-117 -132t-173 -48zM662 88q63 0 113.5 31.5t79 92t28.5 146.5t-28.5 146.5t-79 92t-113.5 31.5
q-65 0 -115 -31.5t-78.5 -92t-28.5 -146.5t28.5 -146.5t78.5 -92t115 -31.5z" />
    <glyph glyph-name="uni042F" unicode="&#x42f;" horiz-adv-x="659" 
d="M53 0v6l188 271v5q-66 19 -109 71.5t-43 138.5q0 73 33 123t88 75.5t119 25.5h244v-716h-109v268h-106l-181 -268h-124zM322 369h142v244h-142q-57 0 -90.5 -31.5t-33.5 -89.5q0 -60 33.5 -91.5t90.5 -31.5z" />
    <glyph glyph-name="uni0430" unicode="&#x430;" horiz-adv-x="573" 
d="M233 -16q-82 0 -132 45t-50 121q0 53 27.5 89.5t73 55.5t100.5 19q42 0 78 -5t72 -15v50q0 49 -34 78.5t-90 29.5q-45 0 -76.5 -21.5t-43.5 -62.5l-95 22q16 74 76.5 113t139.5 39q111 0 169 -53t58 -152v-337h-104v61h-6q-23 -30 -63.5 -53.5t-99.5 -23.5zM257 72
q66 0 105.5 40.5t39.5 97.5q-67 23 -133 23q-52 0 -81 -21t-29 -62q0 -34 27.5 -56t70.5 -22z" />
    <glyph glyph-name="uni0431" unicode="&#x431;" horiz-adv-x="592" 
d="M300 -16q-72 0 -128 34.5t-88.5 107t-32.5 188.5q0 89 7.5 152t26.5 108t53 80q32 31 76.5 49.5t120.5 29.5q51 8 66 17.5t15 25.5h94q0 -44 -15 -70t-51 -40.5t-98 -23.5q-55 -8 -88 -20.5t-56 -34.5q-25 -26 -40.5 -64.5t-20.5 -97.5h6q24 42 70 69t102 27
q69 0 121 -35t81 -95.5t29 -136.5q0 -77 -31 -138t-87.5 -96.5t-131.5 -35.5zM301 83q63 0 103 46.5t40 127.5q0 79 -40 124.5t-103 45.5q-61 0 -102 -45.5t-41 -124.5q0 -81 40 -127.5t103 -46.5z" />
    <glyph glyph-name="uni0432" unicode="&#x432;" horiz-adv-x="557" 
d="M73 0v526h268q44 0 79 -18.5t55 -49t20 -68.5q0 -41 -17 -71t-44 -45v-6q35 -15 58 -45.5t23 -71.5q0 -47 -23 -80.5t-59.5 -52t-77.5 -18.5h-282zM180 311h148q26 0 44 17.5t18 45.5q0 27 -18 45t-44 18h-148v-126zM180 91h164q28 0 46.5 19.5t18.5 49.5q0 29 -18.5 49
t-46.5 20h-164v-138z" />
    <glyph glyph-name="uni0433" unicode="&#x433;" horiz-adv-x="440" 
d="M73 0v526h333v-94h-226v-432h-107z" />
    <glyph glyph-name="uni0434" unicode="&#x434;" horiz-adv-x="627" 
d="M27 -152v246h54q14 20 25.5 56.5t18.5 83t7 95.5v197h383v-432h72v-246h-99v152h-362v-152h-99zM196 94h212v338h-175v-112q0 -72 -9 -125t-28 -95v-6z" />
    <glyph glyph-name="uni0435" unicode="&#x435;" horiz-adv-x="576" 
d="M292 -16q-76 0 -132.5 35.5t-87 98t-30.5 144.5q0 84 32 147t88.5 98t129.5 35q119 0 180.5 -67t61.5 -183q0 -29 -3 -52h-384q5 -78 46 -119t103 -41q55 0 85.5 24.5t44.5 61.5l94 -25q-20 -68 -76 -112.5t-152 -44.5zM293 451q-54 0 -91.5 -33t-49.5 -97h276
q-3 59 -37 94.5t-98 35.5z" />
    <glyph glyph-name="uni0436" unicode="&#x436;" horiz-adv-x="760" 
d="M13 0v6l201 273l-190 241l3 6h120l174 -234h6v234h107v-234h6l175 234h123v-6l-191 -243l200 -271v-6h-124l-183 259h-6v-259h-107v259h-6l-183 -259h-125z" />
    <glyph glyph-name="uni0437" unicode="&#x437;" horiz-adv-x="515" 
d="M261 -16q-51 0 -98 16.5t-81.5 52t-47.5 93.5l97 21q14 -47 48.5 -68t81.5 -21t77.5 21t30.5 55q0 31 -22 49.5t-68 18.5h-85v85h81q41 0 61 19.5t20 51.5q0 33 -27 53t-72 20q-44 0 -75.5 -20t-48.5 -63l-91 27q25 78 83.5 112.5t130.5 34.5q60 0 106 -19t72 -54t26 -82
q0 -38 -19.5 -68.5t-52.5 -45.5v-6q42 -17 65.5 -51.5t23.5 -75.5q0 -48 -27.5 -83t-76 -54t-112.5 -19z" />
    <glyph glyph-name="uni0438" unicode="&#x438;" horiz-adv-x="606" 
d="M73 0v526h107v-272l-6 -99h6l246 371h107v-526h-107v271l6 99h-6l-246 -370h-107z" />
    <glyph glyph-name="uni0439" unicode="&#x439;" horiz-adv-x="606" 
d="M73 0v526h107v-272l-6 -99h6l246 371h107v-526h-107v271l6 99h-6l-246 -370h-107zM304 634q-71 0 -112 39.5t-41 102.5h81q0 -27 17.5 -50.5t54.5 -23.5q36 0 53.5 23.5t17.5 50.5h80q0 -63 -40 -102.5t-111 -39.5z" />
    <glyph glyph-name="uni043A" unicode="&#x43a;" horiz-adv-x="534" 
d="M73 0v526h108v-234h6l211 234h123v-6l-223 -241l223 -273v-6h-130l-204 259h-6v-259h-108z" />
    <glyph glyph-name="uni043B" unicode="&#x43b;" horiz-adv-x="578" 
d="M69 -8q-23 0 -45 5v101q15 -7 31 -7q31 0 45 24t17.5 66t3.5 95v250h384v-526h-108v432h-174v-174q0 -81 -14.5 -140.5t-48 -92.5t-91.5 -33z" />
    <glyph glyph-name="uni043C" unicode="&#x43c;" horiz-adv-x="707" 
d="M73 0v526h126l152 -327h6l153 327h124v-526h-103v262l6 101h-6l-142 -297h-71l-142 297h-6l6 -101v-262h-103z" />
    <glyph glyph-name="uni043D" unicode="&#x43d;" horiz-adv-x="594" 
d="M73 0v526h107v-212h234v212h107v-526h-107v220h-234v-220h-107z" />
    <glyph glyph-name="uni043E" unicode="&#x43e;" 
d="M300 -16q-79 0 -137 35.5t-89.5 98.5t-31.5 145t31.5 145t89.5 98.5t137 35.5q80 0 137.5 -35.5t89 -98.5t31.5 -145t-31.5 -145t-89 -98.5t-137.5 -35.5zM300 83q67 0 109 46.5t42 133.5t-42 133.5t-109 46.5q-66 0 -108.5 -46.5t-42.5 -133.5t42.5 -133.5t108.5 -46.5z
" />
    <glyph glyph-name="uni043F" unicode="&#x43f;" horiz-adv-x="584" 
d="M73 0v526h438v-526h-108v432h-223v-432h-107z" />
    <glyph glyph-name="uni0440" unicode="&#x440;" horiz-adv-x="618" 
d="M73 -216v742h101v-69h6q20 34 62.5 59.5t99.5 25.5q69 0 122 -33.5t83 -96t30 -149.5t-30 -149.5t-83 -96t-122 -33.5q-60 0 -101.5 24.5t-60.5 57.5h-6l6 -74v-208h-107zM322 83q64 0 106 45.5t42 134.5t-42 134.5t-106 45.5q-63 0 -105.5 -45.5t-42.5 -134.5
t42.5 -134.5t105.5 -45.5z" />
    <glyph glyph-name="uni0441" unicode="&#x441;" horiz-adv-x="565" 
d="M293 -16q-75 0 -131.5 34.5t-88 97.5t-31.5 147q0 85 32.5 147.5t90 97t132.5 34.5q94 0 154.5 -47t74.5 -129l-104 -17q-10 43 -42.5 68.5t-84.5 25.5q-62 0 -104 -46.5t-42 -133.5t41.5 -133.5t104.5 -46.5q99 0 128 99l101 -24q-19 -77 -77 -125.5t-154 -48.5z" />
    <glyph glyph-name="uni0442" unicode="&#x442;" horiz-adv-x="498" 
d="M196 0v432h-166v94h438v-94h-165v-432h-107z" />
    <glyph glyph-name="uni0443" unicode="&#x443;" horiz-adv-x="554" 
d="M112 -221q-47 0 -81 15v102q9 -6 29.5 -13t44.5 -7q32 0 54 18t43 68l21 50l-210 514h120l144 -371h4l142 371h117l-246 -600q-33 -81 -74.5 -114t-107.5 -33z" />
    <glyph glyph-name="uni0444" unicode="&#x444;" horiz-adv-x="731" 
d="M312 -216v210q-87 4 -147.5 39.5t-91.5 95t-31 135.5q0 73 31 132.5t91.5 95.5t147.5 40v244h107v-244q87 -3 147 -38.5t91.5 -96t31.5 -137.5q0 -73 -31.5 -132t-91.5 -94.5t-147 -39.5v-210h-107zM582 260q0 84 -43.5 130.5t-119.5 49.5v-355q76 4 119.5 50.5
t43.5 124.5zM149 264q0 -81 43.5 -128t119.5 -51v355q-76 -4 -119.5 -51t-43.5 -125z" />
    <glyph glyph-name="uni0445" unicode="&#x445;" horiz-adv-x="527" 
d="M19 0l182 267l-179 259h123l118 -176h3l113 176h127l-182 -259l184 -267h-124l-120 183h-3l-118 -183h-124z" />
    <glyph glyph-name="uni0446" unicode="&#x446;" horiz-adv-x="615" 
d="M476 -152v152h-403v526h107v-432h216v432h107v-432h72v-246h-99z" />
    <glyph glyph-name="uni0447" unicode="&#x447;" horiz-adv-x="535" 
d="M355 0v200q-20 -15 -50 -24.5t-66 -9.5q-89 0 -141.5 53t-52.5 142v165h108v-154q0 -50 27.5 -79t78.5 -29q28 0 54 10.5t42 27.5v224h107v-526h-107z" />
    <glyph glyph-name="uni0448" unicode="&#x448;" horiz-adv-x="791" 
d="M73 0v526h106v-432h163v432h107v-432h163v432h106v-526h-645z" />
    <glyph glyph-name="uni0449" unicode="&#x449;" horiz-adv-x="830" 
d="M691 -152v152h-618v526h106v-432h163v432h107v-432h163v432h106v-432h73v-246h-100z" />
    <glyph glyph-name="uni044A" unicode="&#x44a;" horiz-adv-x="603" 
d="M165 0v431h-135v95h242v-176h121q82 0 130.5 -47t48.5 -128t-48.5 -128t-130.5 -47h-228zM272 91h113q37 0 59 23.5t22 60.5q0 39 -22 62t-59 23h-113v-169z" />
    <glyph glyph-name="uni044B" unicode="&#x44b;" horiz-adv-x="722" 
d="M73 0v526h107v-176h112q83 0 131.5 -47t48.5 -128t-48.5 -128t-131.5 -47h-219zM541 0v526h108v-526h-108zM180 91h104q37 0 59.5 23t22.5 61q0 39 -22.5 62.5t-59.5 23.5h-104v-170z" />
    <glyph glyph-name="uni044C" unicode="&#x44c;" horiz-adv-x="520" 
d="M73 0v526h107v-176h130q82 0 130 -47t48 -128t-48 -128t-130 -47h-237zM180 91h121q37 0 59 22.5t22 61.5t-22 62t-59 23h-121v-169z" />
    <glyph glyph-name="uni044D" unicode="&#x44d;" horiz-adv-x="572" 
d="M272 -16q-92 0 -153.5 45t-79.5 121l103 17q13 -39 48 -63t86 -24q58 0 97.5 37t50.5 108h-218v81h217q-9 64 -49 102t-98 38q-52 0 -86.5 -25t-51.5 -66l-98 24q26 77 88.5 120t149.5 43q75 0 132 -34t88.5 -96.5t31.5 -148.5q0 -85 -32 -148t-90.5 -97t-135.5 -34z" />
    <glyph glyph-name="uni044E" unicode="&#x44e;" horiz-adv-x="811" 
d="M519 -16q-71 0 -124 29.5t-85 82.5t-40 124h-90v-220h-107v526h107v-212h92q14 103 79 165.5t168 62.5q77 0 133 -35.5t86.5 -98.5t30.5 -145t-30.5 -145t-86.5 -98.5t-133 -35.5zM519 83q63 0 103 46.5t40 133.5t-40 133.5t-103 46.5t-103.5 -46.5t-40.5 -133.5
t40.5 -133.5t103.5 -46.5z" />
    <glyph glyph-name="uni044F" unicode="&#x44f;" horiz-adv-x="540" 
d="M36 0v6l138 181l-3 6q-51 18 -82.5 58.5t-31.5 99.5q0 81 47.5 128t130.5 47h232v-526h-107v179h-69l-134 -179h-121zM247 266h113v169h-113q-37 0 -60.5 -22.5t-23.5 -61.5t23.5 -62t60.5 -23z" />
    <glyph glyph-name="uni0450" unicode="&#x450;" horiz-adv-x="576" 
d="M292 -16q-76 0 -132.5 35.5t-87 98t-30.5 144.5q0 84 32 147t88.5 98t129.5 35q119 0 180.5 -67t61.5 -183q0 -29 -3 -52h-384q5 -78 46 -119t103 -41q55 0 85.5 24.5t44.5 61.5l94 -25q-20 -68 -76 -112.5t-152 -44.5zM293 451q-54 0 -91.5 -33t-49.5 -97h276
q-3 59 -37 94.5t-98 35.5zM244 629l-85 147h124l50 -147h-89z" />
    <glyph glyph-name="uni0451" unicode="&#x451;" horiz-adv-x="576" 
d="M292 -16q-76 0 -132.5 35.5t-87 98t-30.5 144.5q0 84 32 147t88.5 98t129.5 35q119 0 180.5 -67t61.5 -183q0 -29 -3 -52h-384q5 -78 46 -119t103 -41q55 0 85.5 24.5t44.5 61.5l94 -25q-20 -68 -76 -112.5t-152 -44.5zM293 451q-54 0 -91.5 -33t-49.5 -97h276
q-3 59 -37 94.5t-98 35.5zM386 641q-25 0 -43.5 18.5t-18.5 43.5q0 27 18.5 44.5t43.5 17.5q27 0 45 -17.5t18 -44.5q0 -25 -18 -43.5t-45 -18.5zM199 641q-25 0 -43.5 18.5t-18.5 43.5q0 27 18.5 44.5t43.5 17.5q27 0 44.5 -17.5t17.5 -44.5q0 -25 -17.5 -43.5t-44.5 -18.5
z" />
    <glyph glyph-name="uni0452" unicode="&#x452;" 
d="M385 -226q-31 0 -57 7v103q9 -5 21 -8.5t24 -3.5q51 0 51 66v390q0 55 -29.5 85t-82.5 30q-39 0 -68.5 -20.5t-46.5 -55t-17 -77.5v-290h-108v617h-70v79h70v80h108v-80h137v-79h-137v-83l-6 -79h6q20 37 63.5 62t98.5 25q93 0 141 -55t48 -145v-404q0 -87 -41 -125.5
t-105 -38.5z" />
    <glyph glyph-name="uni0453" unicode="&#x453;" horiz-adv-x="440" 
d="M73 0v526h333v-94h-226v-432h-107zM195 629l50 147h124l-85 -147h-89z" />
    <glyph glyph-name="uni0454" unicode="&#x454;" horiz-adv-x="571" 
d="M297 -16q-78 0 -135 34.5t-88.5 97.5t-31.5 147q0 85 32.5 147.5t91 97t136.5 34.5q93 0 154 -45t77 -125l-102 -17q-27 90 -131 90q-62 0 -102 -37t-50 -102h218v-81h-218q10 -71 50.5 -107.5t100.5 -36.5q103 0 134 99l99 -24q-19 -77 -78.5 -124.5t-156.5 -47.5z" />
    <glyph glyph-name="uni0455" unicode="&#x455;" horiz-adv-x="506" 
d="M260 -16q-92 0 -152.5 44t-71.5 120l103 17q8 -38 39.5 -62t81.5 -24q43 0 74.5 17.5t31.5 51.5q0 31 -26.5 50t-75.5 28l-63 12q-66 12 -108 49t-42 101q0 46 27 80.5t72.5 54t100.5 19.5q82 0 137 -35t68 -109l-97 -15q-10 38 -38.5 53.5t-67.5 15.5q-42 0 -69 -17
t-27 -44q0 -26 20.5 -42.5t67.5 -26.5l73 -15q74 -15 114.5 -52t40.5 -104q0 -51 -28.5 -88.5t-76.5 -58t-108 -20.5z" />
    <glyph glyph-name="uni0456" unicode="&#x456;" horiz-adv-x="253" 
d="M127 635q-30 0 -51.5 21.5t-21.5 51.5t21.5 51.5t51.5 21.5t51.5 -21.5t21.5 -51.5t-21.5 -51.5t-51.5 -21.5zM73 0v526h107v-526h-107z" />
    <glyph glyph-name="uni0457" unicode="&#x457;" horiz-adv-x="252" 
d="M192 652q-23 0 -40 16.5t-17 39.5q0 24 17 40t40 16q24 0 40.5 -16t16.5 -40q0 -23 -16.5 -39.5t-40.5 -16.5zM60 652q-23 0 -40 16.5t-17 39.5q0 24 17 40t40 16q24 0 40 -16t16 -40q0 -23 -16 -39.5t-40 -16.5zM71 0v526h108v-526h-108z" />
    <glyph glyph-name="uni0458" unicode="&#x458;" horiz-adv-x="251" 
d="M125 635q-30 0 -51 21.5t-21 51.5t21 51.5t51 21.5q31 0 52 -21.5t21 -51.5t-21 -51.5t-52 -21.5zM32 -226q-31 0 -57 7v103q9 -5 21 -8.5t24 -3.5q51 0 51 66v588h107v-588q0 -87 -41 -125.5t-105 -38.5z" />
    <glyph glyph-name="uni0459" unicode="&#x459;" horiz-adv-x="821" 
d="M69 -8q-23 0 -45 5v101q15 -7 31 -7q31 0 45 24t17.5 66t3.5 95v250h376v-176h113q82 0 130.5 -47t48.5 -128t-48.5 -128t-130.5 -47h-220v432h-167v-174q0 -81 -14.5 -140.5t-48 -92.5t-91.5 -33zM497 91h104q37 0 59.5 23t22.5 61q0 39 -22.5 62.5t-59.5 23.5h-104
v-170z" />
    <glyph glyph-name="uni045A" unicode="&#x45a;" horiz-adv-x="826" 
d="M73 0v526h107v-191h215v191h107v-191h119q49 0 88.5 -20.5t62 -58t22.5 -88.5t-23 -89t-62 -58.5t-88 -20.5h-226v244h-215v-244h-107zM502 91h107q36 0 57 20.5t21 56.5q0 35 -21 55.5t-57 20.5h-107v-153z" />
    <glyph glyph-name="uni045B" unicode="&#x45b;" 
d="M72 0v617h-70v79h70v80h108v-80h137v-79h-137v-83l-6 -79h6q20 37 63.5 62t98.5 25q93 0 141 -55t48 -145v-342h-107v328q0 55 -29.5 85t-82.5 30q-39 0 -68.5 -20.5t-46.5 -55t-17 -77.5v-290h-108z" />
    <glyph glyph-name="uni045C" unicode="&#x45c;" horiz-adv-x="534" 
d="M73 0v526h108v-234h6l211 234h123v-6l-223 -241l223 -273v-6h-130l-204 259h-6v-259h-108zM225 629l50 147h124l-85 -147h-89z" />
    <glyph glyph-name="uni045D" unicode="&#x45d;" horiz-adv-x="606" 
d="M73 0v526h107v-272l-6 -99h6l246 371h107v-526h-107v271l6 99h-6l-246 -370h-107zM259 629l-85 147h124l50 -147h-89z" />
    <glyph glyph-name="uni045E" unicode="&#x45e;" horiz-adv-x="554" 
d="M112 -221q-47 0 -81 15v102q9 -6 29.5 -13t44.5 -7q32 0 54 18t43 68l21 50l-210 514h120l144 -371h4l142 371h117l-246 -600q-33 -81 -74.5 -114t-107.5 -33zM278 634q-71 0 -112 39.5t-41 102.5h81q0 -27 17.5 -50.5t54.5 -23.5q36 0 53.5 23.5t17.5 50.5h80
q0 -63 -40 -102.5t-111 -39.5z" />
    <glyph glyph-name="uni045F" unicode="&#x45f;" horiz-adv-x="575" 
d="M238 -152v152h-165v526h107v-432h216v432h106v-526h-164v-152h-100z" />
    <glyph glyph-name="uni0462" unicode="&#x462;" horiz-adv-x="661" 
d="M137 0v566h-121v81h121v69h109v-69h155v-81h-155v-116h128q64 0 119.5 -25t89 -74.5t33.5 -124.5t-33.5 -125t-89 -75.5t-119.5 -25.5h-237zM246 103h135q59 0 92.5 32t33.5 91t-33.5 91t-92.5 32h-135v-246z" />
    <glyph glyph-name="uni0463" unicode="&#x463;" horiz-adv-x="522" 
d="M83 0v501h-81v79h81v196h107v-196h130v-79h-130v-151h122q82 0 130 -47t48 -128t-48 -128t-130 -47h-229zM190 91h113q37 0 59 23t22 61q0 39 -22 62t-59 23h-113v-169z" />
    <glyph glyph-name="uni046A" unicode="&#x46a;" horiz-adv-x="757" 
d="M19 0v6l59 236q17 66 69.5 108t126.5 50l-198 249v67h601v-67l-194 -249q73 -8 126.5 -50t69.5 -108l59 -236v-6h-112l-49 199q-13 56 -49 84.5t-84 28.5h-11v-312h-109v312h-11q-48 0 -84 -28.5t-50 -84.5l-48 -199h-112zM375 412h6l157 215h-322z" />
    <glyph glyph-name="uni046B" unicode="&#x46b;" horiz-adv-x="646" 
d="M13 0v6l52 158q22 68 61.5 97.5t104.5 32.5l-171 159v73h526v-73l-171 -159q66 -3 105.5 -32.5t61.5 -97.5l51 -158v-6h-109l-42 142q-12 41 -35 58t-53 17h-17v-217h-108v217h-17q-30 0 -53 -17t-35 -58l-42 -142h-109zM320 316h6l132 128h-269z" />
    <glyph glyph-name="uni0472" unicode="&#x472;" horiz-adv-x="787" 
d="M394 -16q-102 0 -179 48t-120.5 132t-43.5 194t43.5 194.5t120.5 132t179 47.5t179 -47.5t120 -132t43 -194.5t-43 -194t-120 -132t-179 -48zM394 628q-91 0 -153.5 -57t-75.5 -163h458q-13 106 -76 163t-153 57zM394 88q90 0 153 57t76 164h-458q13 -107 75.5 -164
t153.5 -57z" />
    <glyph glyph-name="uni0473" unicode="&#x473;" horiz-adv-x="605" 
d="M300 -16q-79 0 -137 35.5t-89.5 98.5t-31.5 145t31.5 145t89.5 98.5t137 35.5q80 0 137.5 -35.5t89 -98.5t31.5 -145t-31.5 -145t-89 -98.5t-137.5 -35.5zM300 447q-60 0 -101.5 -38t-50.5 -110h303q-8 72 -49 110t-102 38zM300 79q58 0 98 35t52 100h-300
q12 -65 52.5 -100t97.5 -35z" />
    <glyph glyph-name="uni0474" unicode="&#x474;" horiz-adv-x="665" 
d="M266 0l-251 716h120l160 -476l23 -81h6l23 81l117 374q20 62 58 86t90 24q16 0 26 -1t22 -3v-100q-15 4 -36 4q-47 0 -69 -65l-183 -559h-106z" />
    <glyph glyph-name="uni0475" unicode="&#x475;" horiz-adv-x="566" 
d="M217 0l-203 526h118l138 -388h5l94 270q24 70 56.5 102t88.5 32q25 0 42 -6v-97q-7 2 -14 3.5t-16 1.5q-22 0 -37 -14t-27 -47l-140 -383h-105z" />
    <glyph glyph-name="uni048A" unicode="&#x48a;" horiz-adv-x="773" 
d="M361 818q-71 0 -112 39.5t-41 102.5h81q0 -27 17.5 -50.5t54.5 -23.5q36 0 53 23.5t17 50.5h81q0 -63 -40 -102.5t-111 -39.5zM86 0v716h109v-406l-6 -138h6l336 544h108v-612h113l-85 -256h-113l51 152h-76v104h2v299l6 138h-6l-335 -541h-110z" />
    <glyph glyph-name="uni048B" unicode="&#x48b;" horiz-adv-x="645" 
d="M304 634q-71 0 -112 39.5t-41 102.5h81q0 -27 17.5 -50.5t54.5 -23.5q36 0 53 23.5t17 50.5h81q0 -63 -40 -102.5t-111 -39.5zM73 0v526h107v-272l-6 -99h6l246 371h107v-429h95l-83 -249h-105l50 152h-64v271l6 99h-6l-246 -370h-107z" />
    <glyph glyph-name="uni048C" unicode="&#x48c;" horiz-adv-x="679" 
d="M142 0v579h-118v82h118v71h109v-71h153v-82h-153v-134h141q65 0 120 -24.5t89 -74t34 -123.5q0 -73 -34 -123t-89 -75t-120 -25h-250zM251 103h148q59 0 92.5 31t33.5 89q0 59 -33.5 90t-92.5 31h-148v-241z" />
    <glyph glyph-name="uni048D" unicode="&#x48d;" horiz-adv-x="526" 
d="M87 0v604h-85v79h85v93h107v-93h126v-79h-126v-254h122q82 0 130 -47t48 -128t-48 -128t-130 -47h-229zM194 91h113q37 0 59 23t22 61q0 39 -22 62t-59 23h-113v-169z" />
    <glyph glyph-name="uni048E" unicode="&#x48e;" horiz-adv-x="629" 
d="M86 0v716h268q67 0 121.5 -24t86 -73.5t31.5 -126.5q0 -58 -18.5 -100.5t-50.5 -70.5l58 -76l-61 -47l-65 85q-46 -16 -102 -16h-159v-267h-109zM195 371h162q15 0 29 2l-54 70l61 47l64 -82q28 31 28 84q0 59 -34 89.5t-94 30.5h-162v-241z" />
    <glyph glyph-name="uni048F" unicode="&#x48f;" horiz-adv-x="618" 
d="M73 -216v742h101v-69h6q20 34 62.5 59.5t99.5 25.5q69 0 122 -33.5t83 -96t30 -149.5q0 -74 -22 -130.5t-62 -92.5l55 -74l-58 -41l-56 77q-42 -18 -92 -18q-60 0 -101.5 24.5t-60.5 57.5h-6l6 -74v-208h-107zM322 83q26 0 48 8l-61 83l57 41l63 -86q19 23 30 56.5
t11 77.5q0 89 -42 134.5t-106 45.5q-63 0 -105.5 -45.5t-42.5 -134.5t42.5 -134.5t105.5 -45.5z" />
    <glyph glyph-name="uni0490" unicode="&#x490;" horiz-adv-x="538" 
d="M86 0v716h310v142h108v-246h-309v-612h-109z" />
    <glyph glyph-name="uni0491" unicode="&#x491;" horiz-adv-x="440" 
d="M73 0v526h233v142h100v-236h-226v-432h-107z" />
    <glyph glyph-name="uni0492" unicode="&#x492;" horiz-adv-x="546" 
d="M92 0v307h-72v86h72v323h420v-104h-311v-219h185v-86h-185v-307h-109z" />
    <glyph glyph-name="uni0493" unicode="&#x493;" horiz-adv-x="434" 
d="M68 0v224h-59v80h59v222h332v-94h-225v-128h141v-80h-141v-224h-107z" />
    <glyph glyph-name="uni0494" unicode="&#x494;" horiz-adv-x="631" 
d="M344 -141q-15 0 -29.5 1.5t-30.5 5.5v103q24 -11 47 -11q78 0 119 51t41 135q0 80 -38.5 126t-103.5 46q-54 0 -92 -17.5t-62 -46.5v-252h-109v716h420v-104h-311v-177l-6 -72h6q28 24 70 39.5t98 15.5q68 0 121.5 -32t84.5 -93t31 -149q0 -132 -67 -208.5t-189 -76.5z
" />
    <glyph glyph-name="uni0495" unicode="&#x495;" horiz-adv-x="541" 
d="M292 -229q-15 0 -30.5 1.5t-28.5 5.5v104q11 -7 23.5 -10t25.5 -3q52 0 81 44t29 124q0 74 -28.5 113.5t-81.5 39.5q-26 0 -53 -8.5t-49 -25.5v-156h-107v526h333v-95h-226v-182q22 16 54.5 26t67.5 10q95 0 146 -65.5t51 -182.5q0 -126 -56 -196t-151 -70z" />
    <glyph glyph-name="uni0496" unicode="&#x496;" horiz-adv-x="939" 
d="M12 0v6l278 349l-263 355v6h130l245 -347h6v347h110v-347h6l246 347h129v-6l-263 -355l200 -251h93v-256h-107v152h-45l-253 328h-6v-328h-110v328h-6l-253 -328h-137z" />
    <glyph glyph-name="uni0497" unicode="&#x497;" horiz-adv-x="787" 
d="M13 0v6l201 273l-190 241l3 6h120l174 -234h6v234h107v-234h6l175 234h123v-6l-191 -243l133 -180h89v-249h-100v152h-46l-183 259h-6v-259h-107v259h-6l-183 -259h-125z" />
    <glyph glyph-name="uni0498" unicode="&#x498;" horiz-adv-x="640" 
d="M272 -152v141q-82 14 -142 67.5t-79 149.5l101 22q16 -69 64 -105.5t117 -36.5q40 0 74.5 12.5t56 38.5t21.5 66q0 52 -36.5 87t-101.5 35h-100v98h100q55 0 84.5 30t29.5 76q0 51 -35 77.5t-98 26.5q-59 0 -101.5 -26t-58.5 -79l-104 16q24 95 95 141.5t168 46.5
q75 0 130 -25t85.5 -68.5t30.5 -99.5q0 -51 -26 -92t-75 -65v-6q56 -23 90.5 -66t34.5 -107q0 -55 -26 -101t-75 -76.5t-117 -38.5v-139h-107z" />
    <glyph glyph-name="uni0499" unicode="&#x499;" horiz-adv-x="515" 
d="M219 -152v139q-64 8 -116 46t-69 113l97 21q14 -47 48.5 -68t81.5 -21t77.5 21t30.5 55q0 31 -22 49.5t-68 18.5h-85v85h81q41 0 61 19.5t20 51.5q0 33 -27 53t-72 20q-44 0 -75.5 -20t-48.5 -63l-91 27q25 78 83.5 112.5t130.5 34.5q60 0 106 -19t72 -54t26 -82
q0 -38 -19.5 -68.5t-52.5 -45.5v-6q42 -17 65.5 -51.5t23.5 -75.5q0 -61 -43.5 -100.5t-115.5 -51.5v-140h-99z" />
    <glyph glyph-name="uni049A" unicode="&#x49a;" horiz-adv-x="646" 
d="M86 0v716h110v-347h6l272 347h135v-6l-286 -358l216 -248h97v-256h-106v152h-45l-283 328h-6v-328h-110z" />
    <glyph glyph-name="uni049B" unicode="&#x49b;" horiz-adv-x="556" 
d="M73 0v526h108v-234h6l211 234h123v-6l-223 -241l149 -182h90v-249h-99v152h-47l-204 259h-6v-259h-108z" />
    <glyph glyph-name="uni049C" unicode="&#x49c;" horiz-adv-x="730" 
d="M86 0v716h109v-310h41v113h77v-113h18l38 59l195 251h138v-6l-287 -358l303 -346v-6h-143l-208 244l-38 58h-16v-114h-77v114h-41v-302h-109z" />
    <glyph glyph-name="uni049D" unicode="&#x49d;" horiz-adv-x="607" 
d="M73 0v526h107v-210h49v123h76v-123h15l141 210h124v-6l-177 -243l187 -271v-6h-124l-150 226h-16v-117h-76v117h-49v-226h-107z" />
    <glyph glyph-name="uni049E" unicode="&#x49e;" horiz-adv-x="681" 
d="M130 0v557h-112v84h112v75h110v-75h115v-84h-115v-188h6l273 347h134v-6l-285 -358l301 -346v-6h-140l-283 328h-6v-328h-110z" />
    <glyph glyph-name="uni049F" unicode="&#x49f;" horiz-adv-x="552" 
d="M88 0v603h-87v80h87v93h108v-93h120v-80h-120v-311h6l197 234h132v-6l-215 -244l225 -270v-6h-130l-209 259h-6v-259h-108z" />
    <glyph glyph-name="uni04A0" unicode="&#x4a0;" horiz-adv-x="767" 
d="M216 0v614h-190v102h300v-347h6l272 347h135v-6l-286 -358l302 -346v-6h-140l-283 328h-6v-328h-110z" />
    <glyph glyph-name="uni04A1" unicode="&#x4a1;" horiz-adv-x="628" 
d="M167 0v432h-137v94h245v-234h6l203 234h128v-6l-216 -242l219 -272v-6h-129l-205 259h-6v-259h-108z" />
    <glyph glyph-name="uni04A2" unicode="&#x4a2;" horiz-adv-x="758" 
d="M86 0v716h109v-298h328v298h109v-612h84v-256h-107v152h-86v314h-328v-314h-109z" />
    <glyph glyph-name="uni04A3" unicode="&#x4a3;" horiz-adv-x="635" 
d="M73 0v526h107v-212h234v212h107v-432h73v-246h-100v152h-80v220h-234v-220h-107z" />
    <glyph glyph-name="uni04A4" unicode="&#x4a4;" horiz-adv-x="917" 
d="M86 0v716h109v-298h310v298h378v-104h-269v-612h-109v314h-310v-314h-109z" />
    <glyph glyph-name="uni04A5" unicode="&#x4a5;" horiz-adv-x="732" 
d="M73 0v526h107v-212h216v212h302v-94h-195v-432h-107v220h-216v-220h-107z" />
    <glyph glyph-name="uni04A8" unicode="&#x4a8;" horiz-adv-x="833" 
d="M397 -16q-73 0 -136 27.5t-110 77.5t-73.5 118.5t-26.5 150.5q0 102 34.5 180t91.5 128.5t123 67.5l39 -93q-42 -11 -83 -46.5t-67.5 -95t-26.5 -141.5q0 -79 29.5 -140t81 -96t117.5 -35q13 0 26 1.5t28 5.5q-52 55 -78 135t-26 172q0 57 11.5 111t36 97.5t64.5 69
t98 25.5q64 0 113.5 -35t77.5 -103.5t28 -166.5q0 -83 -32 -166t-89 -143q30 -6 63.5 -4.5t60.5 8.5l3 -94q-62 -12 -117.5 -7t-107.5 23q-38 -18 -70.5 -25t-82.5 -7zM546 127q24 20 50.5 55.5t44.5 87t18 118.5q0 109 -29 161.5t-80 52.5q-43 0 -73.5 -47.5t-30.5 -158.5
q0 -44 9 -92.5t30.5 -94t60.5 -82.5z" />
    <glyph glyph-name="uni04A9" unicode="&#x4a9;" horiz-adv-x="618" 
d="M294 -16q-75 0 -133.5 36t-92 98.5t-33.5 143.5q0 76 22.5 133t60.5 94.5t85 52.5l48 -87q-45 -17 -77.5 -65.5t-32.5 -127.5q0 -52 19.5 -92.5t53 -64t77.5 -23.5q5 0 9 0.5t11 2.5q-31 38 -49 91.5t-18 108.5q0 60 17.5 113.5t54 86.5t93.5 33q47 0 86 -23.5
t62.5 -73.5t23.5 -129q0 -57 -23 -115t-59 -98q25 -5 48.5 -3.5t44.5 6.5l-11 -82q-53 -8 -97.5 -5t-75.5 12q-53 -23 -114 -23zM409 110q23 20 44.5 65.5t21.5 110.5q0 73 -19 104.5t-47 31.5q-26 0 -44 -32.5t-18 -104.5q0 -26 6 -58t20 -63t36 -54z" />
    <glyph glyph-name="uni04AA" unicode="&#x4aa;" horiz-adv-x="745" 
d="M321 -152v140q-81 13 -141.5 61.5t-94.5 127t-34 181.5q0 115 42.5 199t116.5 129.5t169 45.5q77 0 141.5 -27t106 -79.5t48.5 -129.5l-108 -18q-12 64 -59 107t-129 43q-61 0 -110.5 -30.5t-78 -91t-28.5 -148.5t28.5 -148t77.5 -91t111 -31q79 0 128 41.5t62 109.5
l108 -12q-17 -101 -81 -164t-168 -76v-139h-107z" />
    <glyph glyph-name="uni04AB" unicode="&#x4ab;" horiz-adv-x="559" 
d="M245 -152v140q-92 16 -147.5 89t-55.5 186q0 85 32.5 147.5t90 97t132.5 34.5q94 0 154.5 -47t74.5 -129l-104 -17q-10 43 -42.5 68.5t-84.5 25.5q-62 0 -104 -46.5t-42 -133.5t41.5 -133.5t104.5 -46.5q99 0 128 99l101 -24q-16 -66 -61.5 -112t-118.5 -58v-140h-99z
" />
    <glyph glyph-name="uni04AC" unicode="&#x4ac;" horiz-adv-x="601" 
d="M332 -152v152h-86v612h-218v104h545v-104h-218v-508h85v-256h-108z" />
    <glyph glyph-name="uni04AD" unicode="&#x4ad;" horiz-adv-x="498" 
d="M276 -152v152h-80v432h-166v94h438v-94h-165v-338h72v-246h-99z" />
    <glyph glyph-name="Ustraitcy" unicode="&#x4ae;" horiz-adv-x="609" 
d="M252 0v328l-235 388h128l158 -270h6l153 270h129l-230 -388v-328h-109z" />
    <glyph glyph-name="ustraitcy" unicode="&#x4af;" horiz-adv-x="545" 
d="M218 -216v216l-204 526h118l138 -387h6l140 387h115l-205 -526v-216h-108z" />
    <glyph glyph-name="Ustraitstrokecy" unicode="&#x4b0;" horiz-adv-x="609" 
d="M252 0v271h-177v82h162l-220 363h128l158 -270h6l153 270h129l-215 -363h159v-82h-174v-271h-109z" />
    <glyph glyph-name="ustraitstrokecy" unicode="&#x4b1;" horiz-adv-x="545" 
d="M218 -216v216h-145v77h119l-31 68l-147 381h118l138 -387h6l140 387h115l-148 -381l-31 -68h117v-77h-143v-216h-108z" />
    <glyph glyph-name="uni04B2" unicode="&#x4b2;" horiz-adv-x="657" 
d="M22 0l232 372l-217 344h132l155 -257h6l155 257h134l-219 -344l167 -268h94v-256h-107v152h-54l-170 279h-6l-170 -279h-132z" />
    <glyph glyph-name="uni04B3" unicode="&#x4b3;" horiz-adv-x="535" 
d="M19 0l182 267l-179 259h123l118 -176h3l113 176h127l-182 -259l117 -170h86v-249h-99v152h-44l-120 183h-3l-118 -183h-124z" />
    <glyph glyph-name="uni04B4" unicode="&#x4b4;" horiz-adv-x="844" 
d="M702 -152v152h-493v612h-181v104h463v-104h-173v-508h298v612h110v-612h82v-256h-106z" />
    <glyph glyph-name="uni04B5" unicode="&#x4b5;" horiz-adv-x="705" 
d="M566 -152v152h-402v432h-134v94h367v-94h-126v-338h215v432h107v-432h72v-246h-99z" />
    <glyph glyph-name="uni04B6" unicode="&#x4b6;" horiz-adv-x="690" 
d="M454 0v292q-30 -15 -71 -23.5t-96 -8.5q-64 0 -116 26.5t-82.5 76t-30.5 118.5v235h110v-216q0 -67 39 -101.5t101 -34.5q48 0 84 10t62 29v313h110v-612h83v-256h-107v152h-86z" />
    <glyph glyph-name="uni04B7" unicode="&#x4b7;" horiz-adv-x="575" 
d="M355 0v200q-20 -15 -50 -24.5t-66 -9.5q-89 0 -141.5 53t-52.5 142v165h108v-154q0 -50 27.5 -79t78.5 -29q28 0 54 10.5t42 27.5v224h107v-432h72v-246h-99v152h-80z" />
    <glyph glyph-name="uni04B8" unicode="&#x4b8;" horiz-adv-x="650" 
d="M454 0v292q-19 -10 -42.5 -17t-52.5 -11v-110h-78v106q-63 1 -113.5 28t-80 76t-29.5 117v235h110v-216q0 -59 31 -93t82 -41v119h78v-118q57 8 95 36v313h110v-716h-110z" />
    <glyph glyph-name="uni04B9" unicode="&#x4b9;" horiz-adv-x="547" 
d="M367 0v200q-24 -20 -67 -28v-110h-76v105q-82 6 -130.5 58t-48.5 136v165h108v-154q0 -83 71 -105v125h76v-127q22 4 39 14t28 23v224h107v-526h-107z" />
    <glyph glyph-name="uni04BA" unicode="&#x4ba;" horiz-adv-x="650" 
d="M196 716v-292q30 15 71 23.5t96 8.5q64 0 116 -26.5t82.5 -76t30.5 -118.5v-235h-110v216q0 67 -39 101.5t-101 34.5q-48 0 -84 -10t-62 -29v-313h-110v716h110z" />
    <glyph glyph-name="uni04BB" unicode="&#x4bb;" 
d="M73 0v776h107v-242l-6 -79h6q20 37 64 62t98 25q93 0 141.5 -55t48.5 -145v-342h-107v328q0 55 -30 85t-82 30q-39 0 -69 -20.5t-47 -55t-17 -77.5v-290h-107z" />
    <glyph glyph-name="uni04BC" unicode="&#x4bc;" horiz-adv-x="880" 
d="M509 -16q-95 0 -170 44t-119.5 122t-50.5 181q-54 4 -101 27t-76 75l72 72q25 -39 50 -58.5t59 -24.5q12 92 57.5 162t115.5 109t157 39q69 0 128.5 -26.5t104 -74.5t69.5 -112.5t25 -140.5q0 -25 -3 -49h-553q4 -78 37 -131.5t84.5 -81.5t111.5 -28q65 0 114.5 32.5
t75.5 99.5l105 -31q-22 -71 -68 -116t-105 -67t-120 -22zM278 420h440q-5 65 -35 111.5t-77 71.5t-103 25q-57 0 -105 -23.5t-80 -69.5t-40 -115z" />
    <glyph glyph-name="uni04BD" unicode="&#x4bd;" horiz-adv-x="677" 
d="M393 -16q-73 0 -127.5 32.5t-86 90t-35.5 133.5q-48 3 -88.5 23t-62.5 65l61 58q21 -30 42.5 -45t51.5 -20q10 67 44 116.5t85.5 77t115.5 27.5q119 0 180.5 -67t61.5 -183q0 -29 -3 -52h-384q5 -78 46 -119t103 -41q55 0 85.5 24.5t44.5 61.5l94 -25q-20 -68 -76 -112.5
t-152 -44.5zM394 451q-54 0 -91.5 -33t-49.5 -97h276q-3 59 -37 94.5t-98 35.5z" />
    <glyph glyph-name="uni04BE" unicode="&#x4be;" horiz-adv-x="880" 
d="M441 -152v142q-78 15 -137.5 61.5t-94.5 118t-40 161.5q-54 4 -101 27t-76 75l72 72q25 -39 50 -58.5t59 -24.5q12 92 57.5 162t115.5 109t157 39q69 0 128.5 -26.5t104 -74.5t69.5 -112.5t25 -140.5q0 -25 -3 -49h-553q4 -78 37 -131.5t84.5 -81.5t111.5 -28
q65 0 114.5 32.5t75.5 99.5l105 -31q-20 -63 -59.5 -106t-90.5 -67t-105 -30v-138h-106zM278 420h440q-5 65 -35 111.5t-77 71.5t-103 25q-57 0 -105 -23.5t-80 -69.5t-40 -115z" />
    <glyph glyph-name="uni04BF" unicode="&#x4bf;" horiz-adv-x="677" 
d="M348 -152v140q-91 14 -145 82t-59 170q-48 3 -88.5 23t-62.5 65l61 58q21 -30 42.5 -45t51.5 -20q10 67 44 116.5t85.5 77t115.5 27.5q119 0 180.5 -67t61.5 -183q0 -29 -3 -52h-384q5 -78 46 -119t103 -41q55 0 85.5 24.5t44.5 61.5l94 -25q-17 -58 -60 -99.5
t-114 -53.5v-140h-99zM394 451q-54 0 -91.5 -33t-49.5 -97h276q-3 59 -37 94.5t-98 35.5z" />
    <glyph glyph-name="uni04C0" unicode="&#x4c0;" horiz-adv-x="281" 
d="M86 0v716h109v-716h-109z" />
    <glyph glyph-name="uni04C1" unicode="&#x4c1;" horiz-adv-x="926" 
d="M12 0v6l278 349l-263 355v6h130l245 -347h6v347h110v-347h6l246 347h129v-6l-263 -355l279 -349v-6h-138l-253 328h-6v-328h-110v328h-6l-253 -328h-137zM462 818q-71 0 -112 39.5t-41 102.5h81q0 -27 17.5 -50.5t54.5 -23.5q36 0 53.5 23.5t17.5 50.5h80
q0 -63 -40 -102.5t-111 -39.5z" />
    <glyph glyph-name="uni04C2" unicode="&#x4c2;" horiz-adv-x="760" 
d="M13 0v6l201 273l-190 241l3 6h120l174 -234h6v234h107v-234h6l175 234h123v-6l-191 -243l200 -271v-6h-124l-183 259h-6v-259h-107v259h-6l-183 -259h-125zM381 634q-71 0 -112 39.5t-41 102.5h81q0 -27 17.5 -50.5t54.5 -23.5q36 0 53.5 23.5t17.5 50.5h80
q0 -63 -40 -102.5t-111 -39.5z" />
    <glyph glyph-name="uni04C3" unicode="&#x4c3;" horiz-adv-x="631" 
d="M312 -169l-23 106q87 6 136.5 57t49.5 133q0 68 -33 104.5t-88 51t-120 14.5h-43v-297h-110v716h110v-337h6l272 337h135v-6l-274 -334q73 -4 130.5 -30t91 -78.5t33.5 -138.5q0 -126 -74 -201.5t-199 -96.5z" />
    <glyph glyph-name="uni04C4" unicode="&#x4c4;" horiz-adv-x="516" 
d="M276 -156l-29 93q54 9 91.5 46t37.5 106q0 49 -23 76t-56.5 37t-63.5 10h-62v-212h-108v526h108v-234h6l202 234h122v-6l-208 -232q84 -4 137.5 -55.5t53.5 -143.5q0 -66 -26.5 -117t-73.5 -84t-108 -44z" />
    <glyph glyph-name="uni04C5" unicode="&#x4c5;" horiz-adv-x="751" 
d="M533 -152l51 152h-76v612h-248v-279q0 -65 -6 -125.5t-24.5 -109.5t-55 -77.5t-97.5 -28.5q-8 0 -19.5 1t-19.5 3v105q8 -3 16.5 -4t16.5 -1q36 0 53.5 34t23.5 98t6 155v333h463v-612h114l-86 -256h-112z" />
    <glyph glyph-name="uni04C6" unicode="&#x4c6;" horiz-adv-x="616" 
d="M69 -8q-23 0 -45 5v101q15 -7 31 -7q31 0 45 24t17.5 66t3.5 95v250h384v-432h95l-83 -246h-106l51 152h-65v432h-174v-174q0 -81 -14.5 -140.5t-48 -92.5t-91.5 -33z" />
    <glyph glyph-name="uni04C7" unicode="&#x4c7;" horiz-adv-x="711" 
d="M426 -168q-43 0 -82 18t-62 50l68 72q16 -21 36 -28.5t37 -7.5q45 0 68.5 36t23.5 96v246h-320v-314h-109v716h109v-298h320v298h110v-644q0 -78 -27.5 -131.5t-72.5 -81t-99 -27.5z" />
    <glyph glyph-name="uni04C8" unicode="&#x4c8;" horiz-adv-x="594" 
d="M370 -226q-31 0 -56 7v104q10 -6 22.5 -9.5t24.5 -3.5q29 0 41 17.5t12 50.5v280h-234v-220h-107v526h107v-212h234v212h107v-587q0 -88 -43 -126.5t-108 -38.5z" />
    <glyph glyph-name="uni04C9" unicode="&#x4c9;" horiz-adv-x="766" 
d="M548 -152l51 152h-76v314h-328v-314h-109v716h109v-298h328v298h109v-612h114l-86 -256h-112z" />
    <glyph glyph-name="uni04CA" unicode="&#x4ca;" horiz-adv-x="633" 
d="M428 -152l50 152h-64v220h-234v-220h-107v526h107v-212h234v212h107v-432h95l-83 -246h-105z" />
    <glyph glyph-name="uni04CB" unicode="&#x4cb;" horiz-adv-x="650" 
d="M370 -152v256h84v188q-30 -15 -71 -23.5t-96 -8.5q-64 0 -116 26.5t-82.5 76t-30.5 118.5v235h110v-216q0 -67 39 -101.5t101 -34.5q48 0 84 10t62 29v313h110v-716h-87v-152h-107z" />
    <glyph glyph-name="uni04CC" unicode="&#x4cc;" horiz-adv-x="535" 
d="M282 -152v234h73v118q-20 -15 -50 -24.5t-66 -9.5q-89 0 -141.5 53t-52.5 142v165h108v-154q0 -50 27.5 -79t78.5 -29q28 0 54 10.5t42 27.5v224h107v-526h-81v-152h-99z" />
    <glyph glyph-name="uni04CD" unicode="&#x4cd;" horiz-adv-x="918" 
d="M699 -152l51 152h-75v404l6 125h-6l-197 -529h-87l-198 529h-6l6 -125v-404h-107v716h147l198 -543h6l199 543h147v-612h114l-85 -256h-113z" />
    <glyph glyph-name="uni04CE" unicode="&#x4ce;" horiz-adv-x="747" 
d="M542 -152l51 152h-62v262l6 101h-6l-142 -297h-71l-142 297h-6l6 -101v-262h-103v526h126l152 -327h6l153 327h124v-432h97l-83 -246h-106z" />
    <glyph glyph-name="uni04CF" unicode="&#x4cf;" horiz-adv-x="254" 
d="M73 0v776h108v-776h-108z" />
    <glyph glyph-name="uni04D0" unicode="&#x4d0;" horiz-adv-x="678" 
d="M17 0l259 716h125l260 -716h-120l-63 184h-279l-63 -184h-119zM310 505l-76 -219h209l-76 219l-25 82h-6zM338 818q-71 0 -112 39.5t-41 102.5h81q0 -27 17.5 -50.5t54.5 -23.5q36 0 53.5 23.5t17.5 50.5h80q0 -63 -40 -102.5t-111 -39.5z" />
    <glyph glyph-name="uni04D1" unicode="&#x4d1;" horiz-adv-x="573" 
d="M233 -16q-82 0 -132 45t-50 121q0 53 27.5 89.5t73 55.5t100.5 19q42 0 78 -5t72 -15v50q0 49 -34 78.5t-90 29.5q-45 0 -76.5 -21.5t-43.5 -62.5l-95 22q16 74 76.5 113t139.5 39q111 0 169 -53t58 -152v-337h-104v61h-6q-23 -30 -63.5 -53.5t-99.5 -23.5zM257 72
q66 0 105.5 40.5t39.5 97.5q-67 23 -133 23q-52 0 -81 -21t-29 -62q0 -34 27.5 -56t70.5 -22zM287 634q-71 0 -112 39.5t-41 102.5h81q0 -27 17.5 -50.5t54.5 -23.5q36 0 53.5 23.5t17.5 50.5h80q0 -63 -40 -102.5t-111 -39.5z" />
    <glyph glyph-name="uni04D2" unicode="&#x4d2;" horiz-adv-x="678" 
d="M17 0l259 716h125l260 -716h-120l-63 184h-279l-63 -184h-119zM310 505l-76 -219h209l-76 219l-25 82h-6zM432 825q-25 0 -43.5 18.5t-18.5 43.5q0 27 18.5 44.5t43.5 17.5q27 0 45 -17.5t18 -44.5q0 -25 -18 -43.5t-45 -18.5zM245 825q-25 0 -43.5 18.5t-18.5 43.5
q0 27 18.5 44.5t43.5 17.5q27 0 44.5 -17.5t17.5 -44.5q0 -25 -17.5 -43.5t-44.5 -18.5z" />
    <glyph glyph-name="uni04D3" unicode="&#x4d3;" horiz-adv-x="573" 
d="M233 -16q-82 0 -132 45t-50 121q0 53 27.5 89.5t73 55.5t100.5 19q42 0 78 -5t72 -15v50q0 49 -34 78.5t-90 29.5q-45 0 -76.5 -21.5t-43.5 -62.5l-95 22q16 74 76.5 113t139.5 39q111 0 169 -53t58 -152v-337h-104v61h-6q-23 -30 -63.5 -53.5t-99.5 -23.5zM257 72
q66 0 105.5 40.5t39.5 97.5q-67 23 -133 23q-52 0 -81 -21t-29 -62q0 -34 27.5 -56t70.5 -22zM380 641q-25 0 -43.5 18.5t-18.5 43.5q0 27 18.5 44.5t43.5 17.5q27 0 45 -17.5t18 -44.5q0 -25 -18 -43.5t-45 -18.5zM193 641q-25 0 -43.5 18.5t-18.5 43.5q0 27 18.5 44.5
t43.5 17.5q27 0 44.5 -17.5t17.5 -44.5q0 -25 -17.5 -43.5t-44.5 -18.5z" />
    <glyph glyph-name="uni04D4" unicode="&#x4d4;" horiz-adv-x="1012" 
d="M10 0l425 716h517v-104h-345v-189h314v-104h-314v-215h345v-104h-454v185h-251l-108 -185h-129zM306 289h192v323h-7l-31 -60z" />
    <glyph glyph-name="uni04D5" unicode="&#x4d5;" horiz-adv-x="937" 
d="M233 -16q-82 0 -132 45t-50 121q0 53 27.5 89.5t73 55.5t100.5 19q42 0 78 -5t72 -15v50q0 49 -34 78.5t-90 29.5q-45 0 -76.5 -21.5t-43.5 -62.5l-95 22q16 74 76.5 113t139.5 39q137 0 192 -88q33 42 79.5 65t102.5 23q119 0 180.5 -67t61.5 -183q0 -29 -3 -52h-384
q5 -78 46 -119t103 -41q55 0 85.5 24.5t44.5 61.5l94 -25q-20 -68 -76 -112.5t-152 -44.5q-71 0 -125 32.5t-85 89.5q-35 -57 -88 -89.5t-122 -32.5zM513 321h276q-3 59 -37 94.5t-98 35.5q-53 0 -91 -33t-50 -97zM257 72q66 0 105.5 40.5t39.5 97.5q-67 23 -133 23
q-52 0 -81 -21t-29 -62q0 -34 27.5 -56t70.5 -22z" />
    <glyph glyph-name="uni04D6" unicode="&#x4d6;" 
d="M86 0v716h454v-104h-345v-189h314v-104h-314v-215h345v-104h-454zM313 818q-71 0 -112 39.5t-41 102.5h81q0 -27 17.5 -50.5t54.5 -23.5q36 0 53.5 23.5t17.5 50.5h80q0 -63 -40 -102.5t-111 -39.5z" />
    <glyph glyph-name="uni04D7" unicode="&#x4d7;" horiz-adv-x="576" 
d="M292 -16q-76 0 -132.5 35.5t-87 98t-30.5 144.5q0 84 32 147t88.5 98t129.5 35q119 0 180.5 -67t61.5 -183q0 -29 -3 -52h-384q5 -78 46 -119t103 -41q55 0 85.5 24.5t44.5 61.5l94 -25q-20 -68 -76 -112.5t-152 -44.5zM293 451q-54 0 -91.5 -33t-49.5 -97h276
q-3 59 -37 94.5t-98 35.5zM288 634q-71 0 -112 39.5t-41 102.5h81q0 -27 17.5 -50.5t54.5 -23.5q36 0 53.5 23.5t17.5 50.5h80q0 -63 -40 -102.5t-111 -39.5z" />
    <glyph glyph-name="uni04D8" unicode="&#x4d8;" horiz-adv-x="763" 
d="M381 -16q-70 0 -130.5 26.5t-105 74.5t-70 112.5t-25.5 140.5q0 25 3 49h553q-6 78 -38 131.5t-82 81.5t-109 28q-66 0 -116.5 -32.5t-77.5 -99.5l-105 31q22 71 69 116t107 67t121 22q99 0 175 -48t119 -132t43 -194q0 -82 -25 -150.5t-69.5 -118.5t-104.5 -77.5
t-132 -27.5zM381 88q84 0 145 52.5t76 155.5h-440q5 -65 35.5 -111.5t78.5 -71.5t105 -25z" />
    <glyph glyph-name="uni04D9" unicode="&#x4d9;" horiz-adv-x="576" 
d="M283 -16q-118 0 -179.5 67t-61.5 183q0 29 2 52h385q-5 78 -46 119t-104 41q-51 0 -82 -25t-47 -61l-94 25q19 68 76.5 112.5t150.5 44.5q77 0 133.5 -35.5t87 -98t30.5 -144.5q0 -84 -32 -147t-88.5 -98t-130.5 -35zM283 75q53 0 91 33t50 97h-276q3 -59 37 -94.5
t98 -35.5z" />
    <glyph glyph-name="uni04DA" unicode="&#x4da;" horiz-adv-x="763" 
d="M381 -16q-70 0 -130.5 26.5t-105 74.5t-70 112.5t-25.5 140.5q0 25 3 49h553q-6 78 -38 131.5t-82 81.5t-109 28q-66 0 -116.5 -32.5t-77.5 -99.5l-105 31q22 71 69 116t107 67t121 22q99 0 175 -48t119 -132t43 -194q0 -82 -25 -150.5t-69.5 -118.5t-104.5 -77.5
t-132 -27.5zM381 88q84 0 145 52.5t76 155.5h-440q5 -65 35.5 -111.5t78.5 -71.5t105 -25zM474 825q-25 0 -43.5 18.5t-18.5 43.5q0 27 18.5 44.5t43.5 17.5q27 0 45 -17.5t18 -44.5q0 -25 -18 -43.5t-45 -18.5zM287 825q-25 0 -43.5 18.5t-18.5 43.5q0 27 18.5 44.5
t43.5 17.5q27 0 44.5 -17.5t17.5 -44.5q0 -25 -17.5 -43.5t-44.5 -18.5z" />
    <glyph glyph-name="uni04DB" unicode="&#x4db;" horiz-adv-x="576" 
d="M283 -16q-118 0 -179.5 67t-61.5 183q0 29 2 52h385q-5 78 -46 119t-104 41q-51 0 -82 -25t-47 -61l-94 25q19 68 76.5 112.5t150.5 44.5q77 0 133.5 -35.5t87 -98t30.5 -144.5q0 -84 -32 -147t-88.5 -98t-130.5 -35zM283 75q53 0 91 33t50 97h-276q3 -59 37 -94.5
t98 -35.5zM381 641q-25 0 -43.5 18.5t-18.5 43.5q0 27 18.5 44.5t43.5 17.5q27 0 45 -17.5t18 -44.5q0 -25 -18 -43.5t-45 -18.5zM194 641q-25 0 -43.5 18.5t-18.5 43.5q0 27 18.5 44.5t43.5 17.5q27 0 44.5 -17.5t17.5 -44.5q0 -25 -17.5 -43.5t-44.5 -18.5z" />
    <glyph glyph-name="uni04DC" unicode="&#x4dc;" horiz-adv-x="926" 
d="M12 0v6l278 349l-263 355v6h130l245 -347h6v347h110v-347h6l246 347h129v-6l-263 -355l279 -349v-6h-138l-253 328h-6v-328h-110v328h-6l-253 -328h-137zM556 825q-25 0 -43.5 18.5t-18.5 43.5q0 27 18.5 44.5t43.5 17.5q27 0 45 -17.5t18 -44.5q0 -25 -18 -43.5
t-45 -18.5zM369 825q-25 0 -43.5 18.5t-18.5 43.5q0 27 18.5 44.5t43.5 17.5q27 0 44.5 -17.5t17.5 -44.5q0 -25 -17.5 -43.5t-44.5 -18.5z" />
    <glyph glyph-name="uni04DD" unicode="&#x4dd;" horiz-adv-x="760" 
d="M13 0v6l201 273l-190 241l3 6h120l174 -234h6v234h107v-234h6l175 234h123v-6l-191 -243l200 -271v-6h-124l-183 259h-6v-259h-107v259h-6l-183 -259h-125zM474 641q-25 0 -43.5 18.5t-18.5 43.5q0 27 18.5 44.5t43.5 17.5q27 0 45 -17.5t18 -44.5q0 -25 -18 -43.5
t-45 -18.5zM287 641q-25 0 -43.5 18.5t-18.5 43.5q0 27 18.5 44.5t43.5 17.5q27 0 44.5 -17.5t17.5 -44.5q0 -25 -17.5 -43.5t-44.5 -18.5z" />
    <glyph glyph-name="uni04DE" unicode="&#x4de;" horiz-adv-x="640" 
d="M334 -16q-69 0 -128 24t-99.5 73t-55.5 125l101 22q16 -69 64 -105.5t117 -36.5q40 0 74.5 12.5t56 38.5t21.5 66q0 52 -36.5 87t-101.5 35h-100v98h100q55 0 84.5 30t29.5 76q0 51 -35 77.5t-98 26.5q-59 0 -101.5 -26t-58.5 -79l-104 16q24 95 95 141.5t168 46.5
q75 0 130 -25t85.5 -68.5t30.5 -99.5q0 -51 -26 -92t-75 -65v-6q56 -23 90.5 -66t34.5 -107q0 -60 -31.5 -110t-90.5 -79.5t-141 -29.5zM419 825q-25 0 -43.5 18.5t-18.5 43.5q0 27 18.5 44.5t43.5 17.5q27 0 45 -17.5t18 -44.5q0 -25 -18 -43.5t-45 -18.5zM232 825
q-25 0 -43.5 18.5t-18.5 43.5q0 27 18.5 44.5t43.5 17.5q27 0 44.5 -17.5t17.5 -44.5q0 -25 -17.5 -43.5t-44.5 -18.5z" />
    <glyph glyph-name="uni04DF" unicode="&#x4df;" horiz-adv-x="515" 
d="M261 -16q-51 0 -98 16.5t-81.5 52t-47.5 93.5l97 21q14 -47 48.5 -68t81.5 -21t77.5 21t30.5 55q0 31 -22 49.5t-68 18.5h-85v85h81q41 0 61 19.5t20 51.5q0 33 -27 53t-72 20q-44 0 -75.5 -20t-48.5 -63l-91 27q25 78 83.5 112.5t130.5 34.5q60 0 106 -19t72 -54t26 -82
q0 -38 -19.5 -68.5t-52.5 -45.5v-6q42 -17 65.5 -51.5t23.5 -75.5q0 -48 -27.5 -83t-76 -54t-112.5 -19zM351 641q-25 0 -43.5 18.5t-18.5 43.5q0 27 18.5 44.5t43.5 17.5q27 0 45 -17.5t18 -44.5q0 -25 -18 -43.5t-45 -18.5zM164 641q-25 0 -43.5 18.5t-18.5 43.5
q0 27 18.5 44.5t43.5 17.5q27 0 44.5 -17.5t17.5 -44.5q0 -25 -17.5 -43.5t-44.5 -18.5z" />
    <glyph glyph-name="uni04E0" unicode="&#x4e0;" horiz-adv-x="604" 
d="M303 -16q-113 0 -186.5 59.5t-95.5 161.5l102 23q13 -65 61 -103.5t116 -38.5q67 0 109.5 32t42.5 88q0 54 -37.5 86.5t-100.5 32.5h-101v94l177 193h-314v104h452v-105l-186 -196q101 -4 161.5 -61t60.5 -151q0 -67 -33 -116.5t-92 -76t-136 -26.5z" />
    <glyph glyph-name="uni04E1" unicode="&#x4e1;" horiz-adv-x="511" 
d="M237 -231q-84 0 -149 40t-88 121l105 24q14 -44 49.5 -66.5t80.5 -22.5q64 0 99 36t35 98q0 59 -35 97t-104 38h-85v83l181 215h-285v94h408v-89l-193 -221q103 -6 162 -63.5t59 -153.5q0 -67 -28.5 -119t-82.5 -81.5t-129 -29.5z" />
    <glyph glyph-name="uni04E2" unicode="&#x4e2;" horiz-adv-x="725" 
d="M86 0v716h109v-406l-6 -138h6l336 544h108v-716h-108v403l6 138h-6l-335 -541h-110zM219 849v83h286v-83h-286z" />
    <glyph glyph-name="uni04E3" unicode="&#x4e3;" horiz-adv-x="606" 
d="M73 0v526h107v-272l-6 -99h6l246 371h107v-526h-107v271l6 99h-6l-246 -370h-107zM161 665v83h286v-83h-286z" />
    <glyph glyph-name="uni04E4" unicode="&#x4e4;" horiz-adv-x="725" 
d="M86 0v716h109v-406l-6 -138h6l336 544h108v-716h-108v403l6 138h-6l-335 -541h-110zM455 825q-25 0 -43.5 18.5t-18.5 43.5q0 27 18.5 44.5t43.5 17.5q27 0 45 -17.5t18 -44.5q0 -25 -18 -43.5t-45 -18.5zM268 825q-25 0 -43.5 18.5t-18.5 43.5q0 27 18.5 44.5t43.5 17.5
q27 0 44.5 -17.5t17.5 -44.5q0 -25 -17.5 -43.5t-44.5 -18.5z" />
    <glyph glyph-name="uni04E5" unicode="&#x4e5;" horiz-adv-x="606" 
d="M73 0v526h107v-272l-6 -99h6l246 371h107v-526h-107v271l6 99h-6l-246 -370h-107zM397 641q-25 0 -43.5 18.5t-18.5 43.5q0 27 18.5 44.5t43.5 17.5q27 0 45 -17.5t18 -44.5q0 -25 -18 -43.5t-45 -18.5zM210 641q-25 0 -43.5 18.5t-18.5 43.5q0 27 18.5 44.5t43.5 17.5
q27 0 44.5 -17.5t17.5 -44.5q0 -25 -17.5 -43.5t-44.5 -18.5z" />
    <glyph glyph-name="uni04E6" unicode="&#x4e6;" horiz-adv-x="787" 
d="M394 -16q-102 0 -179 48t-120.5 132t-43.5 194t43.5 194.5t120.5 132t179 47.5t179 -47.5t120 -132t43 -194.5t-43 -194t-120 -132t-179 -48zM394 88q67 0 119 31.5t82.5 92t30.5 146.5t-30.5 146.5t-82.5 92t-119 31.5t-119.5 -31.5t-82.5 -92t-30 -146.5t30 -146.5
t82.5 -92t119.5 -31.5zM487 825q-25 0 -43.5 18.5t-18.5 43.5q0 27 18.5 44.5t43.5 17.5q27 0 45 -17.5t18 -44.5q0 -25 -18 -43.5t-45 -18.5zM300 825q-25 0 -43.5 18.5t-18.5 43.5q0 27 18.5 44.5t43.5 17.5q27 0 44.5 -17.5t17.5 -44.5q0 -25 -17.5 -43.5t-44.5 -18.5z
" />
    <glyph glyph-name="uni04E7" unicode="&#x4e7;" 
d="M300 -16q-79 0 -137 35.5t-89.5 98.5t-31.5 145t31.5 145t89.5 98.5t137 35.5q80 0 137.5 -35.5t89 -98.5t31.5 -145t-31.5 -145t-89 -98.5t-137.5 -35.5zM300 83q67 0 109 46.5t42 133.5t-42 133.5t-109 46.5q-66 0 -108.5 -46.5t-42.5 -133.5t42.5 -133.5t108.5 -46.5z
M393 641q-25 0 -43.5 18.5t-18.5 43.5q0 27 18.5 44.5t43.5 17.5q27 0 45 -17.5t18 -44.5q0 -25 -18 -43.5t-45 -18.5zM206 641q-25 0 -43.5 18.5t-18.5 43.5q0 27 18.5 44.5t43.5 17.5q27 0 44.5 -17.5t17.5 -44.5q0 -25 -17.5 -43.5t-44.5 -18.5z" />
    <glyph glyph-name="uni04E8" unicode="&#x4e8;" horiz-adv-x="787" 
d="M394 -16q-102 0 -179 48t-120.5 132t-43.5 194t43.5 194.5t120.5 132t179 47.5t179 -47.5t120 -132t43 -194.5t-43 -194t-120 -132t-179 -48zM394 628q-91 0 -153.5 -57t-75.5 -163h458q-13 106 -76 163t-153 57zM394 88q90 0 153 57t76 164h-458q13 -107 75.5 -164
t153.5 -57z" />
    <glyph glyph-name="uni04E9" unicode="&#x4e9;" horiz-adv-x="605" 
d="M300 -16q-79 0 -137 35.5t-89.5 98.5t-31.5 145t31.5 145t89.5 98.5t137 35.5q80 0 137.5 -35.5t89 -98.5t31.5 -145t-31.5 -145t-89 -98.5t-137.5 -35.5zM300 447q-60 0 -101.5 -38t-50.5 -110h303q-8 72 -49 110t-102 38zM300 79q58 0 98 35t52 100h-300
q12 -65 52.5 -100t97.5 -35z" />
    <glyph glyph-name="uni04EA" unicode="&#x4ea;" horiz-adv-x="787" 
d="M394 -16q-102 0 -179 48t-120.5 132t-43.5 194t43.5 194.5t120.5 132t179 47.5t179 -47.5t120 -132t43 -194.5t-43 -194t-120 -132t-179 -48zM394 628q-91 0 -153.5 -57t-75.5 -163h458q-13 106 -76 163t-153 57zM394 88q90 0 153 57t76 164h-458q13 -107 75.5 -164
t153.5 -57zM487 825q-25 0 -43.5 18.5t-18.5 43.5q0 27 18.5 44.5t43.5 17.5q27 0 45 -17.5t18 -44.5q0 -25 -18 -43.5t-45 -18.5zM300 825q-25 0 -43.5 18.5t-18.5 43.5q0 27 18.5 44.5t43.5 17.5q27 0 44.5 -17.5t17.5 -44.5q0 -25 -17.5 -43.5t-44.5 -18.5z" />
    <glyph glyph-name="uni04EB" unicode="&#x4eb;" horiz-adv-x="605" 
d="M300 -16q-79 0 -137 35.5t-89.5 98.5t-31.5 145t31.5 145t89.5 98.5t137 35.5q80 0 137.5 -35.5t89 -98.5t31.5 -145t-31.5 -145t-89 -98.5t-137.5 -35.5zM300 447q-60 0 -101.5 -38t-50.5 -110h303q-8 72 -49 110t-102 38zM300 79q58 0 98 35t52 100h-300
q12 -65 52.5 -100t97.5 -35zM396 641q-25 0 -43.5 18.5t-18.5 43.5q0 27 18.5 44.5t43.5 17.5q27 0 45 -17.5t18 -44.5q0 -25 -18 -43.5t-45 -18.5zM209 641q-25 0 -43.5 18.5t-18.5 43.5q0 27 18.5 44.5t43.5 17.5q27 0 44.5 -17.5t17.5 -44.5q0 -25 -17.5 -43.5
t-44.5 -18.5z" />
    <glyph glyph-name="uni04EC" unicode="&#x4ec;" horiz-adv-x="731" 
d="M351 -16q-128 0 -204.5 61.5t-96.5 169.5l109 16q14 -63 62.5 -103t127.5 -40q86 0 146.5 56.5t72.5 164.5h-326v98h326q-13 109 -73.5 165t-145.5 56q-81 0 -128 -37.5t-60 -96.5l-105 16q10 72 50.5 121.5t103.5 75t139 25.5q96 0 171 -45.5t117.5 -129.5t42.5 -199
t-41.5 -198.5t-116 -129.5t-171.5 -46zM448 825q-25 0 -43.5 18.5t-18.5 43.5q0 27 18.5 44.5t43.5 17.5q27 0 45 -17.5t18 -44.5q0 -25 -18 -43.5t-45 -18.5zM261 825q-25 0 -43.5 18.5t-18.5 43.5q0 27 18.5 44.5t43.5 17.5q27 0 44.5 -17.5t17.5 -44.5q0 -25 -17.5 -43.5
t-44.5 -18.5z" />
    <glyph glyph-name="uni04ED" unicode="&#x4ed;" horiz-adv-x="572" 
d="M272 -16q-92 0 -153.5 45t-79.5 121l103 17q13 -39 48 -63t86 -24q58 0 97.5 37t50.5 108h-218v81h217q-9 64 -49 102t-98 38q-52 0 -86.5 -25t-51.5 -66l-98 24q26 77 88.5 120t149.5 43q75 0 132 -34t88.5 -96.5t31.5 -148.5q0 -85 -32 -148t-90.5 -97t-135.5 -34z
M367 641q-25 0 -43.5 18.5t-18.5 43.5q0 27 18.5 44.5t43.5 17.5q27 0 45 -17.5t18 -44.5q0 -25 -18 -43.5t-45 -18.5zM180 641q-25 0 -43.5 18.5t-18.5 43.5q0 27 18.5 44.5t43.5 17.5q27 0 44.5 -17.5t17.5 -44.5q0 -25 -17.5 -43.5t-44.5 -18.5z" />
    <glyph glyph-name="uni04EE" unicode="&#x4ee;" horiz-adv-x="617" 
d="M182 -16q-42 0 -71 13v103q41 -15 67 -15q56 0 79 55l20 51l-262 525h125l190 -393h5l158 393h116l-251 -605q-30 -72 -71.5 -99.5t-104.5 -27.5zM170 849v83h286v-83h-286z" />
    <glyph glyph-name="uni04EF" unicode="&#x4ef;" horiz-adv-x="554" 
d="M112 -221q-47 0 -81 15v102q9 -6 29.5 -13t44.5 -7q32 0 54 18t43 68l21 50l-210 514h120l144 -371h4l142 371h117l-246 -600q-33 -81 -74.5 -114t-107.5 -33zM135 665v83h286v-83h-286z" />
    <glyph glyph-name="uni04F0" unicode="&#x4f0;" horiz-adv-x="617" 
d="M182 -16q-42 0 -71 13v103q41 -15 67 -15q56 0 79 55l20 51l-262 525h125l190 -393h5l158 393h116l-251 -605q-30 -72 -71.5 -99.5t-104.5 -27.5zM406 825q-25 0 -43.5 18.5t-18.5 43.5q0 27 18.5 44.5t43.5 17.5q27 0 45 -17.5t18 -44.5q0 -25 -18 -43.5t-45 -18.5z
M219 825q-25 0 -43.5 18.5t-18.5 43.5q0 27 18.5 44.5t43.5 17.5q27 0 44.5 -17.5t17.5 -44.5q0 -25 -17.5 -43.5t-44.5 -18.5z" />
    <glyph glyph-name="uni04F1" unicode="&#x4f1;" horiz-adv-x="554" 
d="M112 -221q-47 0 -81 15v102q9 -6 29.5 -13t44.5 -7q32 0 54 18t43 68l21 50l-210 514h120l144 -371h4l142 371h117l-246 -600q-33 -81 -74.5 -114t-107.5 -33zM370 641q-25 0 -43.5 18.5t-18.5 43.5q0 27 18.5 44.5t43.5 17.5q27 0 45 -17.5t18 -44.5q0 -25 -18 -43.5
t-45 -18.5zM183 641q-25 0 -43.5 18.5t-18.5 43.5q0 27 18.5 44.5t43.5 17.5q27 0 44.5 -17.5t17.5 -44.5q0 -25 -17.5 -43.5t-44.5 -18.5z" />
    <glyph glyph-name="uni04F2" unicode="&#x4f2;" horiz-adv-x="617" 
d="M182 -16q-42 0 -71 13v103q41 -15 67 -15q56 0 79 55l20 51l-262 525h125l190 -393h5l158 393h116l-251 -605q-30 -72 -71.5 -99.5t-104.5 -27.5zM179 813l50 147h124l-85 -147h-89zM358 813l50 147h124l-85 -147h-89z" />
    <glyph glyph-name="uni04F3" unicode="&#x4f3;" horiz-adv-x="554" 
d="M112 -221q-47 0 -81 15v102q9 -6 29.5 -13t44.5 -7q32 0 54 18t43 68l21 50l-210 514h120l144 -371h4l142 371h117l-246 -600q-33 -81 -74.5 -114t-107.5 -33zM144 629l50 147h124l-85 -147h-89zM323 629l50 147h124l-85 -147h-89z" />
    <glyph glyph-name="uni04F4" unicode="&#x4f4;" horiz-adv-x="650" 
d="M454 0v292q-30 -15 -71 -23.5t-96 -8.5q-64 0 -116 26.5t-82.5 76t-30.5 118.5v235h110v-216q0 -67 39 -101.5t101 -34.5q48 0 84 10t62 29v313h110v-716h-110zM400 825q-25 0 -43.5 18.5t-18.5 43.5q0 27 18.5 44.5t43.5 17.5q27 0 45 -17.5t18 -44.5q0 -25 -18 -43.5
t-45 -18.5zM213 825q-25 0 -43.5 18.5t-18.5 43.5q0 27 18.5 44.5t43.5 17.5q27 0 44.5 -17.5t17.5 -44.5q0 -25 -17.5 -43.5t-44.5 -18.5z" />
    <glyph glyph-name="uni04F5" unicode="&#x4f5;" horiz-adv-x="535" 
d="M355 0v200q-20 -15 -50 -24.5t-66 -9.5q-89 0 -141.5 53t-52.5 142v165h108v-154q0 -50 27.5 -79t78.5 -29q28 0 54 10.5t42 27.5v224h107v-526h-107zM347 641q-25 0 -43.5 18.5t-18.5 43.5q0 27 18.5 44.5t43.5 17.5q27 0 45 -17.5t18 -44.5q0 -25 -18 -43.5t-45 -18.5z
M160 641q-25 0 -43.5 18.5t-18.5 43.5q0 27 18.5 44.5t43.5 17.5q27 0 44.5 -17.5t17.5 -44.5q0 -25 -17.5 -43.5t-44.5 -18.5z" />
    <glyph glyph-name="uni04F6" unicode="&#x4f6;" horiz-adv-x="540" 
d="M172 -152v152h-86v716h420v-104h-311v-508h84v-256h-107z" />
    <glyph glyph-name="uni04F7" unicode="&#x4f7;" horiz-adv-x="440" 
d="M154 -152v152h-81v526h333v-94h-225v-335h72v-249h-99z" />
    <glyph glyph-name="uni04F8" unicode="&#x4f8;" horiz-adv-x="852" 
d="M86 0v716h110v-266h132q65 0 119.5 -25t88 -74.5t33.5 -124.5t-33.5 -125t-88 -75.5t-119.5 -25.5h-242zM656 0v716h110v-716h-110zM196 103h139q59 0 92 32t33 91t-33 91t-92 32h-139v-246zM520 825q-25 0 -43.5 18.5t-18.5 43.5q0 27 18.5 44.5t43.5 17.5
q27 0 45 -17.5t18 -44.5q0 -25 -18 -43.5t-45 -18.5zM333 825q-25 0 -43.5 18.5t-18.5 43.5q0 27 18.5 44.5t43.5 17.5q27 0 44.5 -17.5t17.5 -44.5q0 -25 -17.5 -43.5t-44.5 -18.5z" />
    <glyph glyph-name="uni04F9" unicode="&#x4f9;" horiz-adv-x="722" 
d="M73 0v526h107v-176h112q83 0 131.5 -47t48.5 -128t-48.5 -128t-131.5 -47h-219zM541 0v526h108v-526h-108zM180 91h104q37 0 59.5 23t22.5 61q0 39 -22.5 62.5t-59.5 23.5h-104v-170zM456 641q-25 0 -43.5 18.5t-18.5 43.5q0 27 18.5 44.5t43.5 17.5q27 0 45 -17.5
t18 -44.5q0 -25 -18 -43.5t-45 -18.5zM269 641q-25 0 -43.5 18.5t-18.5 43.5q0 27 18.5 44.5t43.5 17.5q27 0 44.5 -17.5t17.5 -44.5q0 -25 -17.5 -43.5t-44.5 -18.5z" />
    <glyph glyph-name="uni04FA" unicode="&#x4fa;" horiz-adv-x="543" 
d="M113 -152l51 152h-75v307h-72v86h72v323h420v-104h-311v-219h185v-86h-185v-203h114l-86 -256h-113z" />
    <glyph glyph-name="uni04FB" unicode="&#x4fb;" horiz-adv-x="434" 
d="M68 0v224h-59v80h59v222h332v-94h-225v-128h141v-80h-141v-130h95l-83 -246h-105l50 152h-64z" />
    <glyph glyph-name="uni04FC" unicode="&#x4fc;" horiz-adv-x="696" 
d="M450 -161l-22 94q38 -5 59 9t21 39q0 21 -15 43l-163 255h-6l-170 -279h-132l232 372l-217 344h132l155 -257h6l155 257h134l-219 -344l192 -300q35 -56 35 -108q0 -59 -47 -96t-130 -29z" />
    <glyph glyph-name="uni04FD" unicode="&#x4fd;" horiz-adv-x="556" 
d="M345 -152l-29 89q30 -1 48 13.5t18 37.5q0 19 -14 40l-103 155h-4l-118 -183h-124l182 267l-179 259h123l118 -176h3l113 176h127l-182 -259l130 -187q18 -25 26.5 -51t8.5 -49q0 -54 -39 -91.5t-105 -40.5z" />
    <glyph glyph-name="uni04FE" unicode="&#x4fe;" horiz-adv-x="651" 
d="M22 0l210 332h-98v81h97l-194 303h131l155 -257h6l155 257h132l-196 -303h97v-81h-98l211 -332h-132l-169 279h-6l-170 -279h-131z" />
    <glyph glyph-name="uni04FF" unicode="&#x4ff;" horiz-adv-x="511" 
d="M11 0l153 225h-70v72h77l-158 229h124l117 -176h3l113 176h128l-161 -229h78v-72h-70l154 -225h-123l-120 183h-3l-119 -183h-123z" />
    <glyph glyph-name="uni0510" unicode="&#x510;" horiz-adv-x="626" 
d="M310 -16q-81 0 -140 29.5t-91 78.5t-32 108q0 66 35 109.5t90 66.5v6q-52 24 -79.5 65t-27.5 92q0 56 30.5 99.5t85.5 68.5t130 25q96 0 166.5 -46.5t92.5 -141.5l-104 -16q-14 53 -55 79t-100 26q-62 0 -98 -26.5t-36 -77.5q0 -46 31 -76t89 -30h100v-98h-100
q-65 0 -101.5 -35.5t-36.5 -88.5q0 -39 21.5 -64.5t56 -38t74.5 -12.5q68 0 114.5 36.5t64.5 105.5l96 -23q-24 -114 -99 -167.5t-177 -53.5z" />
    <glyph glyph-name="uni0511" unicode="&#x511;" horiz-adv-x="521" 
d="M268 -16q-63 0 -111.5 19t-76.5 53t-28 81q0 43 24.5 78.5t66.5 53.5v6q-37 15 -59 44.5t-22 70.5q0 45 26 79t72.5 53.5t106.5 19.5q74 0 133 -32.5t83 -107.5l-92 -27q-17 40 -49 58t-74 18q-48 0 -75.5 -20t-27.5 -54q0 -32 24 -51t70 -19h73v-85h-76
q-47 0 -71.5 -18.5t-24.5 -48.5q0 -35 30.5 -55.5t80.5 -20.5q44 0 78 20.5t48 66.5l96 -21q-14 -58 -47.5 -93.5t-79.5 -51.5t-98 -16z" />
    <glyph glyph-name="uni0512" unicode="&#x512;" horiz-adv-x="702" 
d="M415 -168q-45 0 -82.5 18t-61.5 50l69 72q17 -22 36.5 -29t36.5 -7q46 0 70 36.5t24 96.5v543h-247v-279q0 -65 -6 -125.5t-24.5 -109.5t-55 -77.5t-97.5 -28.5q-8 0 -19.5 1t-19.5 3v105q8 -3 16.5 -4t16.5 -1q36 0 53.5 34t23.5 98t6 155v333h462v-644
q0 -78 -27.5 -131.5t-73 -81t-100.5 -27.5z" />
    <glyph glyph-name="uni0513" unicode="&#x513;" horiz-adv-x="578" 
d="M69 -8q-23 0 -45 5v101q15 -7 31 -7q31 0 45 24t17.5 66t3.5 95v250h384v-587q0 -88 -43.5 -126.5t-107.5 -38.5q-31 0 -57 7v104q10 -6 23 -9.5t25 -3.5q28 0 40 17.5t12 50.5v492h-174v-174q0 -81 -14.5 -140.5t-48 -92.5t-91.5 -33z" />
    </font>
</defs>
</svg>
