<?xml version="1.0" standalone="no"?>
<!DOCTYPE svg PUBLIC "-//W3C//DTD SVG 1.1//EN" "http://www.w3.org/Graphics/SVG/1.1/DTD/svg11.dtd" >
<svg xmlns="http://www.w3.org/2000/svg" xmlns:xlink="http://www.w3.org/1999/xlink" version="1.1">
<metadata>
Created by FontForge 20170731 at Thu Apr  2 17:24:31 2020
 By Aleksey,,,
Copyright 2015 Google LLC. All Rights Reserved.
</metadata>
<defs>
<font id="GoogleSansText-Bold" horiz-adv-x="0" >
  <font-face 
    font-family="Google Sans Text"
    font-weight="700"
    font-stretch="normal"
    units-per-em="1000"
    panose-1="2 11 8 3 3 5 2 4 2 4"
    ascent="800"
    descent="-200"
    x-height="526"
    cap-height="716"
    bbox="-433 -292 3284 1115"
    underline-thickness="84"
    underline-position="-286"
    unicode-range="U+0002-FFFD"
  />
<missing-glyph horiz-adv-x="590" 
d="M82 0v716h426v-716h-426zM146 60h298v596h-298v-596z" />
    <glyph glyph-name="G.logo" unicode="Glogoligature" horiz-adv-x="861" 
d="M460 -16q-85 0 -160 32t-132.5 88.5t-90.5 130.5t-33 159t33 159t90.5 130.5t132.5 88.5t160 32q94 0 162.5 -32.5t118.5 -80.5l-79 -79q-36 34 -85.5 57t-116.5 23q-62 0 -115.5 -23t-93.5 -64t-62.5 -95t-22.5 -116t22.5 -116t62.5 -95t93.5 -64t115.5 -23
q80 0 129 26.5t78 55.5q24 24 39.5 59t21.5 82h-268v112h377q6 -30 6 -70q0 -42 -9 -88.5t-30 -91.5t-58 -82q-54 -56 -124 -85.5t-162 -29.5z" />
    <glyph glyph-name="e.logo" unicode="elogoligature" horiz-adv-x="514" 
d="M289 -16q-75 0 -134 35t-93.5 95t-34.5 134q0 79 34 138t90.5 92.5t124.5 33.5q51 0 90 -17.5t66 -44.5t44.5 -55.5t25.5 -50.5l12 -30l-353 -146q41 -80 128 -80q44 0 76 20t54 53l90 -60q-14 -21 -43 -48.5t-72.5 -48t-104.5 -20.5zM142 256l236 98q-10 25 -36.5 40.5
t-61.5 15.5q-30 0 -62.5 -17t-54.5 -51.5t-21 -85.5z" />
    <glyph glyph-name="g.logo" unicode="glogoligature" horiz-adv-x="566" 
d="M277 -253q-64 0 -111 24.5t-77.5 60.5t-45.5 71l101 42q9 -21 26.5 -43t44.5 -36.5t62 -14.5q65 0 103 39.5t38 115.5v38h-4q-19 -24 -55.5 -42t-83.5 -18q-49 0 -94.5 20t-81.5 56t-56.5 84t-20.5 103q0 56 20.5 104t56.5 84.5t81.5 56.5t94.5 20q47 0 83.5 -18
t55.5 -41h4v43h110v-474q0 -97 -34.5 -158t-91.5 -89t-125 -28zM285 88q40 0 71.5 20.5t50.5 56.5t19 82q0 47 -19 83t-50.5 57t-71.5 21t-73.5 -21t-53.5 -57t-20 -83q0 -46 20 -82t53.5 -56.5t73.5 -20.5z" />
    <glyph glyph-name="l.logo" unicode="llogoligature" horiz-adv-x="187" 
d="M42 0v776h116v-776h-116z" />
    <glyph glyph-name="o.logo" unicode="ologoligature" horiz-adv-x="578" 
d="M287 -16q-73 0 -133 34.5t-96 94t-36 135.5q0 77 36 136.5t96 93.5t133 34t133 -34t96 -93.5t36 -136.5q0 -76 -36 -135.5t-96 -94t-133 -34.5zM287 88q40 0 74 20.5t54.5 56.5t20.5 83q0 48 -20.5 84t-54.5 56t-74 20t-74 -20t-54.5 -56t-20.5 -84q0 -47 20.5 -83
t54.5 -56.5t74 -20.5z" />
    <glyph glyph-name="f_b" unicode="fb" horiz-adv-x="1032" 
d="M756 -16q-59 0 -97 22.5t-60 54.5h-8v-61h-123v654h-151q-34 0 -51.5 -19t-17.5 -52v-57h120v-112h-120v-414h-131v414h-89v112h89v65q0 89 51.5 137t136.5 48h294v-234l-8 -78h8q18 30 58.5 54t98.5 24q67 0 119.5 -32.5t83.5 -94.5t31 -152q0 -89 -31 -151.5t-83.5 -95
t-119.5 -32.5zM725 106q57 0 95.5 40.5t38.5 116.5t-38.5 116.5t-95.5 40.5t-95.5 -40.5t-38.5 -116.5t38.5 -116.5t95.5 -40.5z" />
    <glyph glyph-name="f_f" unicode="ff" horiz-adv-x="755" 
d="M117 0v414h-89v112h89v81q0 89 52 137t131 48q24 0 46 -3t35 -8v-126q-13 6 -28.5 10.5t-35.5 4.5q-31 0 -50 -19t-19 -52v-73h220v81q0 89 52 137t131 48q24 0 46 -3t35 -8v-126q-13 6 -28.5 10.5t-35.5 4.5q-31 0 -50 -19t-19 -52v-73h120v-112h-120v-414h-131v414
h-220v-414h-131z" />
    <glyph glyph-name="f_f_b" unicode="ffb" horiz-adv-x="1383" 
d="M1107 -16q-59 0 -97 22.5t-60 54.5h-8v-61h-123v654h-151q-34 0 -51.5 -19t-17.5 -52v-57h120v-112h-120v-414h-131v414h-220v-414h-131v414h-89v112h89v81q0 89 52 137t131 48q24 0 46 -3t35 -8v-126q-13 6 -28.5 10.5t-35.5 4.5q-31 0 -50 -19t-19 -52v-73h220v65
q0 89 51.5 137t136.5 48h294v-234l-8 -78h8q18 30 58.5 54t98.5 24q67 0 119.5 -32.5t83.5 -94.5t31 -152q0 -89 -31 -151.5t-83.5 -95t-119.5 -32.5zM1076 106q57 0 95.5 40.5t38.5 116.5t-38.5 116.5t-95.5 40.5t-95.5 -40.5t-38.5 -116.5t38.5 -116.5t95.5 -40.5z" />
    <glyph glyph-name="f_f_h" unicode="ffh" horiz-adv-x="1369" 
d="M117 0v414h-89v112h89v81q0 89 52 137t131 48q24 0 46 -3t35 -8v-126q-13 6 -28.5 10.5t-35.5 4.5q-31 0 -50 -19t-19 -52v-73h220v65q0 89 51.5 137t136.5 48h294v-234l-8 -86h8q20 39 63.5 62.5t94.5 23.5q95 0 144 -55t49 -150v-337h-131v316q0 51 -25.5 77.5
t-72.5 26.5q-55 0 -88.5 -41t-33.5 -105v-274h-131v654h-151q-34 0 -51.5 -19t-17.5 -52v-57h120v-112h-120v-414h-131v414h-220v-414h-131z" />
    <glyph glyph-name="f_f_i" unicode="ffi" horiz-adv-x="1023" 
d="M117 0v414h-89v112h89v81q0 89 52 137t131 48q24 0 46 -3t35 -8v-126q-13 6 -28.5 10.5t-35.5 4.5q-31 0 -50 -19t-19 -52v-73h220v81q0 89 52 137t131 48q24 0 46 -3t35 -8v-126q-13 6 -28.5 10.5t-35.5 4.5q-31 0 -50 -19t-19 -52v-73h351v-526h-131v414h-220v-414
h-131v414h-220v-414h-131zM885 616q-35 0 -60 25t-25 60t25 60t60 25t60 -25t25 -60t-25 -60t-60 -25z" />
    <glyph glyph-name="f_f_j" unicode="ffj" horiz-adv-x="1023" 
d="M794 -226q-19 0 -34.5 1.5t-34.5 5.5v126q11 -5 22.5 -9t26.5 -4q45 0 45 56v464h-220v-414h-131v414h-220v-414h-131v414h-89v112h89v81q0 89 52 137t131 48q24 0 46 -3t35 -8v-126q-13 6 -28.5 10.5t-35.5 4.5q-31 0 -50 -19t-19 -52v-73h220v81q0 89 52 137t131 48
q24 0 46 -3t35 -8v-126q-13 6 -28.5 10.5t-35.5 4.5q-31 0 -50 -19t-19 -52v-73h351v-576q0 -63 -21 -102t-56 -56.5t-79 -17.5zM885 616q-35 0 -60 25t-25 60t25 60t60 25t60 -25t25 -60t-25 -60t-60 -25z" />
    <glyph glyph-name="f_f_k" unicode="ffk" horiz-adv-x="1317" 
d="M117 0v414h-89v112h89v81q0 89 52 137t131 48q24 0 46 -3t35 -8v-126q-13 6 -28.5 10.5t-35.5 4.5q-31 0 -50 -19t-19 -52v-73h220v65q0 89 51.5 137t136.5 48h294v-436h7l177 186h158v-8l-190 -194l201 -316v-8h-152l-143 227l-58 -59v-168h-131v654h-151
q-34 0 -51.5 -19t-17.5 -52v-57h120v-112h-120v-414h-131v414h-220v-414h-131z" />
    <glyph glyph-name="f_f_l" unicode="ffl" horiz-adv-x="1024" 
d="M117 0v414h-89v112h89v81q0 89 52 137t131 48q24 0 46 -3t35 -8v-126q-13 6 -28.5 10.5t-35.5 4.5q-31 0 -50 -19t-19 -52v-73h220v65q0 89 51.5 137t136.5 48h294v-776h-131v654h-151q-34 0 -51.5 -19t-17.5 -52v-57h120v-112h-120v-414h-131v414h-220v-414h-131z" />
    <glyph glyph-name="f_f_t" unicode="fft" horiz-adv-x="1115" 
d="M984 -8q-77 0 -121 45.5t-44 125.5v251h-220v-414h-131v414h-220v-414h-131v414h-89v112h89v81q0 89 52 137t131 48q24 0 46 -3t35 -8v-126q-13 6 -28.5 10.5t-35.5 4.5q-31 0 -50 -19t-19 -52v-73h220v81q0 89 52 137t131 48q24 0 46 -3t35 -8v-126q-13 6 -28.5 10.5
t-35.5 4.5q-31 0 -50 -19t-19 -52v-73h220v144h131v-144h120v-112h-120v-231q0 -68 61 -68q19 0 32.5 5t29.5 14v-125q-20 -8 -41.5 -12.5t-47.5 -4.5z" />
    <glyph glyph-name="f_h" unicode="fh" horiz-adv-x="1018" 
d="M117 0v414h-89v112h89v65q0 89 51.5 137t136.5 48h294v-234l-8 -86h8q20 39 63.5 62.5t94.5 23.5q95 0 144 -55t49 -150v-337h-131v316q0 51 -25.5 77.5t-72.5 26.5q-55 0 -88.5 -41t-33.5 -105v-274h-131v654h-151q-34 0 -51.5 -19t-17.5 -52v-57h120v-112h-120v-414
h-131z" />
    <glyph glyph-name="f_i" unicode="fi" horiz-adv-x="672" 
d="M117 0v414h-89v112h89v81q0 89 52 137t131 48q24 0 46 -3t35 -8v-126q-13 6 -28.5 10.5t-35.5 4.5q-31 0 -50 -19t-19 -52v-73h351v-526h-131v414h-220v-414h-131zM534 616q-35 0 -60 25t-25 60t25 60t60 25t60 -25t25 -60t-25 -60t-60 -25z" />
    <glyph glyph-name="f_j" unicode="fj" horiz-adv-x="672" 
d="M443 -226q-19 0 -34.5 1.5t-34.5 5.5v126q11 -5 22.5 -9t26.5 -4q45 0 45 56v464h-220v-414h-131v414h-89v112h89v81q0 89 52 137t131 48q24 0 46 -3t35 -8v-126q-13 6 -28.5 10.5t-35.5 4.5q-31 0 -50 -19t-19 -52v-73h351v-576q0 -63 -21 -102t-56 -56.5t-79 -17.5z
M534 616q-35 0 -60 25t-25 60t25 60t60 25t60 -25t25 -60t-25 -60t-60 -25z" />
    <glyph glyph-name="f_k" unicode="fk" horiz-adv-x="966" 
d="M117 0v414h-89v112h89v65q0 89 51.5 137t136.5 48h294v-436h7l177 186h158v-8l-190 -194l201 -316v-8h-152l-143 227l-58 -59v-168h-131v654h-151q-34 0 -51.5 -19t-17.5 -52v-57h120v-112h-120v-414h-131z" />
    <glyph glyph-name="f_l" unicode="fl" horiz-adv-x="673" 
d="M117 0v414h-89v112h89v65q0 89 51.5 137t136.5 48h294v-776h-131v654h-151q-34 0 -51.5 -19t-17.5 -52v-57h120v-112h-120v-414h-131z" />
    <glyph glyph-name="f_t" unicode="ft" horiz-adv-x="764" 
d="M633 -8q-77 0 -121 45.5t-44 125.5v251h-220v-414h-131v414h-89v112h89v81q0 89 52 137t131 48q24 0 46 -3t35 -8v-126q-13 6 -28.5 10.5t-35.5 4.5q-31 0 -50 -19t-19 -52v-73h220v144h131v-144h120v-112h-120v-231q0 -68 61 -68q19 0 32.5 5t29.5 14v-125
q-20 -8 -41.5 -12.5t-47.5 -4.5z" />
    <glyph glyph-name="r_f" unicode="rf" horiz-adv-x="826" 
d="M539 0v414h-89v112h89v81q0 89 52 137t131 48q24 0 46 -3t35 -8v-126q-13 6 -28.5 10.5t-35.5 4.5q-31 0 -50 -19t-19 -52v-73h120v-112h-120v-414h-131zM73 0v526h123v-68h8q17 36 50 60t81 24q19 0 31 -2t21 -4v-130q-14 6 -32 10t-41 4q-48 0 -79 -35.5t-31 -97.5
v-287h-131z" />
    <glyph glyph-name="r_f_f" unicode="rff" horiz-adv-x="1177" 
d="M73 0v526h123v-68h8q17 36 50 60t81 24q19 0 31 -2t21 -4v-130q-14 6 -32 10t-41 4q-48 0 -79 -35.5t-31 -97.5v-287h-131zM539 0v414h-89v112h89v81q0 89 52 137t131 48q24 0 46 -3t35 -8v-126q-13 6 -28.5 10.5t-35.5 4.5q-31 0 -50 -19t-19 -52v-73h220v81
q0 89 52 137t131 48q24 0 46 -3t35 -8v-126q-13 6 -28.5 10.5t-35.5 4.5q-31 0 -50 -19t-19 -52v-73h120v-112h-120v-414h-131v414h-220v-414h-131z" />
    <glyph glyph-name="r_t" unicode="rt" horiz-adv-x="847" 
d="M73 0v526h123v-68h8q17 36 50 60t81 24q19 0 31 -2t21 -4v-130q-14 6 -32 10t-41 4q-48 0 -79 -35.5t-31 -97.5v-287h-131zM716 -8q-77 0 -121 45.5t-44 125.5v251h-87v112h87v144h131v-144h120v-112h-120v-231q0 -68 61 -68q19 0 32.5 5t29.5 14v-125
q-20 -8 -41.5 -12.5t-47.5 -4.5z" />
    <glyph glyph-name="t_f" unicode="tf" horiz-adv-x="757" 
d="M284 -8q-77 0 -121 45.5t-44 125.5v251h-87v112h87v144h131v-144h220v81q0 89 52 137t131 48q24 0 46 -3t35 -8v-126q-13 6 -28.5 10.5t-35.5 4.5q-31 0 -50 -19t-19 -52v-73h120v-112h-120v-414h-131v414h-220v-231q0 -68 61 -68q19 0 32.5 5t29.5 14v-125
q-20 -8 -41.5 -12.5t-47.5 -4.5z" />
    <glyph glyph-name="t_t" unicode="tt" horiz-adv-x="766" 
d="M284 -8q-77 0 -121 45.5t-44 125.5v251h-87v112h87v144h131v-144h220v144h131v-144h120v-112h-120v-231q0 -68 61 -68q19 0 32.5 5t29.5 14v-125q-20 -8 -41.5 -12.5t-47.5 -4.5q-77 0 -121 45.5t-44 125.5v251h-220v-231q0 -68 61 -68q19 0 32.5 5t29.5 14v-125
q-20 -8 -41.5 -12.5t-47.5 -4.5z" />
    <glyph glyph-name="Google.logo" unicode="Googlelogoligature" horiz-adv-x="3284" 
d="M460 -16q-85 0 -160 32t-132.5 88.5t-90.5 130.5t-33 159t33 159t90.5 130.5t132.5 88.5t160 32q94 0 162.5 -32.5t118.5 -80.5l-79 -79q-36 34 -85.5 57t-116.5 23q-62 0 -115.5 -23t-93.5 -64t-62.5 -95t-22.5 -116t22.5 -116t62.5 -95t93.5 -64t115.5 -23
q80 0 129 26.5t78 55.5q24 24 39.5 59t21.5 82h-268v112h377q6 -30 6 -70q0 -42 -9 -88.5t-30 -91.5t-58 -82q-54 -56 -124 -85.5t-162 -29.5zM2625 0v776h116v-776h-116zM1148 -16q-73 0 -133 34.5t-96 94t-36 135.5q0 77 36 136.5t96 93.5t133 34t133 -34t96 -93.5
t36 -136.5q0 -76 -36 -135.5t-96 -94t-133 -34.5zM1726 -16q-73 0 -133 34.5t-96 94t-36 135.5q0 77 36 136.5t96 93.5t133 34t133 -34t96 -93.5t36 -136.5q0 -76 -36 -135.5t-96 -94t-133 -34.5zM2294 -253q-64 0 -111 24.5t-77.5 60.5t-45.5 71l101 42q9 -21 26.5 -43
t44.5 -36.5t62 -14.5q65 0 103 39.5t38 115.5v38h-4q-19 -24 -55.5 -42t-83.5 -18q-49 0 -94.5 20t-81.5 56t-56.5 84t-20.5 103q0 56 20.5 104t56.5 84.5t81.5 56.5t94.5 20q47 0 83.5 -18t55.5 -41h4v43h110v-474q0 -97 -34.5 -158t-91.5 -89t-125 -28zM3059 -16
q-75 0 -134 35t-93.5 95t-34.5 134q0 79 34 138t90.5 92.5t124.5 33.5q51 0 90 -17.5t66 -44.5t44.5 -55.5t25.5 -50.5l12 -30l-353 -146q41 -80 128 -80q44 0 76 20t54 53l90 -60q-14 -21 -43 -48.5t-72.5 -48t-104.5 -20.5zM2912 256l236 98q-10 25 -36.5 40.5t-61.5 15.5
q-29 0 -62 -17t-55 -51.5t-21 -85.5zM1148 88q40 0 74 20.5t54.5 56.5t20.5 83q0 48 -20.5 84t-54.5 56t-74 20t-74 -20t-54.5 -56t-20.5 -84q0 -47 20.5 -83t54.5 -56.5t74 -20.5zM1726 88q40 0 74 20.5t54.5 56.5t20.5 83q0 48 -20.5 84t-54.5 56t-74 20t-74 -20
t-54.5 -56t-20.5 -84q0 -47 20.5 -83t54.5 -56.5t74 -20.5zM2302 88q40 0 71.5 20.5t50.5 56.5t19 82q0 47 -19 83t-50.5 57t-71.5 21t-73.5 -21t-53.5 -57t-20 -83q0 -46 20 -82t53.5 -56.5t73.5 -20.5z" />
    <glyph glyph-name=".notdef" horiz-adv-x="590" 
d="M82 0v716h426v-716h-426zM146 60h298v596h-298v-596z" />
    <glyph glyph-name=".null" 
 />
    <glyph glyph-name="nonmarkingreturn" horiz-adv-x="333" 
 />
    <glyph glyph-name="uni0002" 
 />
    <glyph glyph-name="uni0009" unicode="&#x9;" 
 />
    <glyph glyph-name="CR" unicode="&#xd;" 
 />
    <glyph glyph-name="space" unicode=" " horiz-adv-x="256" 
 />
    <glyph glyph-name="exclam" unicode="!" horiz-adv-x="304" 
d="M97 262l-12 264v190h134v-190l-12 -264h-110zM152 -6q-36 0 -61.5 25.5t-25.5 61.5t25.5 61t61.5 25t61.5 -25t25.5 -61t-25.5 -61.5t-61.5 -25.5z" />
    <glyph glyph-name="quotedbl" unicode="&#x22;" horiz-adv-x="422" 
d="M250 490v226h119v-226h-119zM52 490v226h119v-226h-119z" />
    <glyph glyph-name="numbersign" unicode="#" horiz-adv-x="704" 
d="M111 0l27 179h-103l17 102h102l22 154h-111l16 102h111l26 179h110l-26 -179h152l26 179h111l-26 -179h104l-16 -102h-104l-22 -154h113l-16 -102h-113l-27 -179h-111l27 179h-152l-27 -179h-110zM260 277h158l24 162h-158z" />
    <glyph glyph-name="dollar" unicode="$" horiz-adv-x="635" 
d="M278 -100v87q-97 11 -157.5 67t-79.5 153l135 30q9 -49 34 -81t68 -44v215l-24 7q-26 8 -57 21.5t-59 35.5t-45.5 56t-17.5 82q0 78 52.5 134.5t150.5 66.5v86h90v-87q90 -12 141 -63t63 -132l-123 -19q-8 34 -28 58t-53 34v-184l14 -4q61 -18 107 -44t72 -67t26 -105
q0 -66 -30 -112t-79.5 -72t-109.5 -33v-86h-90zM202 535q0 -51 76 -82v157q-35 -7 -55.5 -27t-20.5 -48zM453 200q0 36 -18.5 57.5t-66.5 39.5v-188q41 7 63 30t22 61z" />
    <glyph glyph-name="percent" unicode="%" horiz-adv-x="923" 
d="M225 378q-56 0 -97 24t-62.5 64t-21.5 89t21.5 89t62.5 64t97 24q57 0 97 -24t61.5 -64t21.5 -89t-21.5 -89t-61.5 -64t-97 -24zM279 0h-115l480 716h115zM225 476q31 0 51.5 20.5t20.5 58.5t-20.5 58.5t-51.5 20.5q-30 0 -51.5 -20.5t-21.5 -58.5t21.5 -58.5t51.5 -20.5
zM699 -16q-56 0 -97 24t-62.5 64t-21.5 89t21.5 89t62.5 64t97 24q57 0 97 -24t61.5 -64t21.5 -89t-21.5 -89t-61.5 -64t-97 -24zM699 82q31 0 51.5 20.5t20.5 58.5t-20.5 58.5t-51.5 20.5q-30 0 -51.5 -20.5t-21.5 -58.5t21.5 -58.5t51.5 -20.5z" />
    <glyph glyph-name="ampersand" unicode="&#x26;" horiz-adv-x="738" 
d="M310 -16q-120 0 -188.5 64.5t-68.5 179.5q0 68 32 119t85 87q-15 23 -25.5 51.5t-10.5 59.5q0 54 25 96.5t70 66.5t103 24q84 0 135.5 -39t70.5 -130l-126 -18q-9 34 -30 53t-52 19q-30 0 -50.5 -19t-20.5 -49q0 -21 11 -41.5t27 -38.5l208 -239l62 102h128l-116 -187
l126 -145h-160l-43 49q-36 -30 -84 -47.5t-108 -17.5zM179 232q0 -42 19.5 -71t50.5 -44t67 -15q30 0 59 7.5t53 23.5l-187 214q-62 -46 -62 -115z" />
    <glyph glyph-name="quotesingle" unicode="'" horiz-adv-x="224" 
d="M52 490v226h119v-226h-119z" />
    <glyph glyph-name="parenleft" unicode="(" horiz-adv-x="389" 
d="M258 -156q-40 47 -80.5 119t-68 164t-27.5 195q0 104 27.5 195.5t68 164t80.5 118.5l99 -68q-64 -84 -104 -187t-40 -223t40 -223t104 -187z" />
    <glyph glyph-name="parenright" unicode=")" horiz-adv-x="389" 
d="M131 -156l-99 68q65 84 104.5 187t39.5 223t-39.5 223t-104.5 187l99 68q40 -46 80.5 -118.5t68 -164t27.5 -195.5q0 -103 -27.5 -195t-68 -164t-80.5 -119z" />
    <glyph glyph-name="asterisk" unicode="*" horiz-adv-x="496" 
d="M166 335l-76 58l76 101l-3 9l-113 42l31 89l111 -41l9 3v120h94v-120l8 -3l112 41l31 -89l-113 -42l-3 -9l76 -101l-76 -58l-78 106h-8z" />
    <glyph glyph-name="plus" unicode="+" horiz-adv-x="597" 
d="M70 213v116h170v170h116v-170h171v-116h-171v-170h-116v170h-170z" />
    <glyph glyph-name="comma" unicode="," horiz-adv-x="294" 
d="M12 -118l76 256h154l-123 -256h-107z" />
    <glyph glyph-name="hyphen" unicode="-" horiz-adv-x="483" 
d="M72 252v116h339v-116h-339z" />
    <glyph glyph-name="period" unicode="." horiz-adv-x="294" 
d="M147 -6q-36 0 -61.5 25.5t-25.5 61.5t25.5 61t61.5 25t61.5 -25t25.5 -61t-25.5 -61.5t-61.5 -25.5z" />
    <glyph glyph-name="slash" unicode="/" horiz-adv-x="362" 
d="M0 0l233 716h129l-233 -716h-129z" />
    <glyph glyph-name="zero" unicode="0" horiz-adv-x="672" 
d="M336 -16q-91 0 -154.5 47t-97 131.5t-33.5 195.5t33.5 195t97 131.5t154.5 47.5t154.5 -47.5t97 -131.5t33.5 -195t-33.5 -195.5t-97 -131.5t-154.5 -47zM335 106q74 0 114.5 65t40.5 187t-40.5 187t-114.5 65t-113.5 -65t-39.5 -187t39.5 -187t113.5 -65z" />
    <glyph glyph-name="one" unicode="1" horiz-adv-x="426" 
d="M209 0v550l-159 -118v144l191 140h99v-716h-131z" />
    <glyph glyph-name="two" unicode="2" horiz-adv-x="580" 
d="M64 0v120q95 75 157 129t98 99q33 42 46.5 80.5t13.5 82.5t-28.5 71.5t-72.5 27.5q-43 0 -71.5 -26t-36.5 -76l-123 11q6 61 35 109t79.5 76t118.5 28q109 0 170 -57t61 -158q0 -68 -25.5 -127t-66.5 -111q-36 -45 -81 -84.5t-93 -75.5l3 -5h281v-114h-465z" />
    <glyph glyph-name="three" unicode="3" horiz-adv-x="569" 
d="M281 -16q-64 0 -117.5 23.5t-88 70.5t-43.5 116l129 26q8 -52 39.5 -81t80.5 -29q50 0 80 27t30 75t-33.5 77.5t-89.5 29.5h-57v114h53q47 0 77.5 22t30.5 70q0 38 -25.5 63.5t-70.5 25.5q-42 0 -69.5 -25t-34.5 -60l-126 14q9 53 38 95.5t78 68t116 25.5t117 -25
t77.5 -68.5t27.5 -99.5q0 -59 -26.5 -93.5t-60.5 -57.5v-8q49 -21 79.5 -64t30.5 -114q0 -60 -29.5 -109.5t-83.5 -79t-129 -29.5z" />
    <glyph glyph-name="four" unicode="4" horiz-adv-x="630" 
d="M366 0v130h-317v105l306 481h140v-464h84v-122h-84v-130h-129zM188 252h178v268h-8z" />
    <glyph glyph-name="five" unicode="5" horiz-adv-x="591" 
d="M297 -16q-63 0 -117 23t-88.5 71t-41.5 121l131 17q5 -48 35.5 -79.5t80.5 -31.5q53 0 83 33t30 91q0 59 -30 91.5t-82 32.5q-31 0 -57 -13.5t-42 -33.5l-127 55l43 355h388v-114h-283l-26 -168l8 -3q20 17 51 28t66 11q65 0 115 -28.5t78.5 -82.5t28.5 -130
q0 -74 -31 -129.5t-86 -85.5t-127 -30z" />
    <glyph glyph-name="six" unicode="6" horiz-adv-x="586" 
d="M301 -16q-61 0 -109 22t-83 62q-31 36 -47.5 86.5t-16.5 111.5q0 136 68 249q41 68 103.5 124t146.5 94l66 -102q-84 -37 -149 -97.5t-95 -142.5l6 -5q19 29 56 44t73 15q65 0 115.5 -28t79 -78.5t28.5 -118.5t-33.5 -121.5t-88.5 -84t-120 -30.5zM301 104q47 0 79.5 31
t32.5 85t-32.5 84.5t-79.5 30.5t-79.5 -30.5t-32.5 -84.5t32.5 -85t79.5 -31z" />
    <glyph glyph-name="seven" unicode="7" horiz-adv-x="557" 
d="M290 0h-143q0 129 28 237t76 195.5t106 153.5l-5 8h-308v122h469v-128q-76 -76 -125.5 -173.5t-73.5 -204t-24 -210.5z" />
    <glyph glyph-name="eight" unicode="8" horiz-adv-x="568" 
d="M284 -16q-75 0 -128.5 29t-82.5 78t-29 107q0 66 31 110.5t75 66.5v8q-35 23 -60.5 61t-25.5 90q0 55 27.5 99.5t77 71.5t115.5 27t115.5 -27t77 -71.5t27.5 -99.5q0 -52 -25.5 -90t-60.5 -61v-8q44 -22 75 -66.5t31 -110.5q0 -58 -29 -107t-82.5 -78t-128.5 -29z
M284 433q43 0 68 27t25 64q0 38 -25 65t-68 27t-68 -27t-25 -65q0 -37 25 -64t68 -27zM284 105q50 0 79.5 30t29.5 76t-29.5 76t-79.5 30q-49 0 -79 -30t-30 -76t30 -76t79 -30z" />
    <glyph glyph-name="nine" unicode="9" horiz-adv-x="586" 
d="M225 -16l-66 102q84 38 149 98t95 142l-6 5q-19 -28 -56 -43.5t-73 -15.5q-65 0 -115.5 28t-79 78.5t-28.5 118.5t33.5 121.5t88.5 84t120 30.5q61 0 109.5 -22t82.5 -62q31 -36 47.5 -86t16.5 -112q0 -136 -68 -249q-40 -68 -103 -124t-147 -94zM287 382q47 0 79.5 30.5
t32.5 84.5t-32.5 85t-79.5 31t-79.5 -31t-32.5 -85t32.5 -84.5t79.5 -30.5z" />
    <glyph glyph-name="colon" unicode=":" horiz-adv-x="294" 
d="M147 365q-36 0 -61.5 25.5t-25.5 61.5t25.5 61t61.5 25t61.5 -25t25.5 -61t-25.5 -61.5t-61.5 -25.5zM147 -6q-36 0 -61.5 25.5t-25.5 61.5t25.5 61t61.5 25t61.5 -25t25.5 -61t-25.5 -61.5t-61.5 -25.5z" />
    <glyph glyph-name="semicolon" unicode=";" horiz-adv-x="294" 
d="M147 365q-36 0 -61.5 25.5t-25.5 61.5t25.5 61t61.5 25t61.5 -25t25.5 -61t-25.5 -61.5t-61.5 -25.5zM12 -118l76 256h154l-123 -256h-107z" />
    <glyph glyph-name="less" unicode="&#x3c;" horiz-adv-x="541" 
d="M475 14l-415 205v104l415 205v-131l-258 -122v-8l258 -122v-131z" />
    <glyph glyph-name="equal" unicode="=" horiz-adv-x="609" 
d="M70 369v116h469v-116h-469zM70 153v116h469v-116h-469z" />
    <glyph glyph-name="greater" unicode="&#x3e;" horiz-adv-x="541" 
d="M66 14v131l258 122v8l-258 122v131l415 -205v-104z" />
    <glyph glyph-name="question" unicode="?" horiz-adv-x="553" 
d="M210 255v28q0 34 8 59.5t28.5 49t55.5 50.5q28 22 42.5 43t14.5 52q0 33 -24 52.5t-62 19.5t-63 -21t-33 -56l-119 15q12 82 67.5 133.5t149.5 51.5q98 0 155.5 -50.5t57.5 -134.5q0 -57 -24.5 -98.5t-62.5 -73.5q-24 -19 -37 -34t-17.5 -30.5t-4.5 -39.5v-16h-132z
M275 -6q-36 0 -61.5 25.5t-25.5 61.5t25.5 61t61.5 25t61 -25t25 -61t-25 -61.5t-61 -25.5z" />
    <glyph glyph-name="at" unicode="@" horiz-adv-x="931" 
d="M464 -110q-91 0 -165.5 32t-128 89t-82 132t-28.5 161q0 84 29.5 157.5t83 129.5t127.5 87.5t164 31.5q93 0 168 -30.5t128.5 -84.5t82 -125t28.5 -152q0 -63 -21.5 -115t-61 -83.5t-93.5 -31.5q-40 0 -72.5 20.5t-48.5 54.5q-22 -34 -58 -54.5t-84 -20.5q-53 0 -93.5 27
t-63.5 74.5t-23 110.5t24 110.5t65 74.5t92 27q37 0 64 -15t43 -37h8v38h98v-251q0 -28 13.5 -50t40.5 -22q38 0 57 35.5t19 98.5q0 62 -23 117.5t-65 99t-99 68.5t-125 25q-86 0 -155 -39.5t-109 -110.5t-40 -165q0 -72 24.5 -131.5t66.5 -102.5t97 -66t116 -23q46 0 87 10
t70 27l36 -86q-35 -18 -83.5 -30t-109.5 -12zM448 185q40 0 68 28.5t28 86.5q0 60 -28 87.5t-68 27.5t-68 -28.5t-28 -86.5t28 -86.5t68 -28.5z" />
    <glyph glyph-name="A" unicode="A" horiz-adv-x="704" 
d="M14 0l260 716h155l261 -716h-149l-58 171h-262l-58 -171h-149zM323 474l-60 -179h178l-60 179l-25 86h-8z" />
    <glyph glyph-name="B" unicode="B" horiz-adv-x="674" 
d="M88 0v716h295q99 0 160 -45.5t61 -131.5q0 -56 -27.5 -94t-67.5 -58v-8q55 -19 87.5 -62t32.5 -105q0 -66 -31.5 -113.5t-83.5 -73t-116 -25.5h-310zM222 436h157q44 0 69 21.5t25 58.5t-24 58t-66 21h-161v-159zM222 122h170q50 0 76 28.5t26 70.5t-26.5 70.5
t-78.5 28.5h-167v-198z" />
    <glyph glyph-name="C" unicode="C" horiz-adv-x="748" 
d="M386 -16q-97 0 -172 46.5t-117 130.5t-42 197q0 114 42.5 198t118 130t173.5 46q77 0 143 -27t109.5 -80t52.5 -133l-138 -23q-14 64 -57.5 100t-109.5 36q-55 0 -100.5 -28.5t-72 -83.5t-26.5 -135q0 -79 26 -134t71 -83.5t102 -28.5q64 0 109 35t58 98l141 -15
q-15 -72 -53.5 -127.5t-102 -87t-155.5 -31.5z" />
    <glyph glyph-name="D" unicode="D" horiz-adv-x="739" 
d="M88 0v716h238q175 0 266.5 -93t91.5 -265t-91.5 -265t-266.5 -93h-238zM222 128h98q111 0 170 55t59 175t-59 175t-170 55h-98v-460z" />
    <glyph glyph-name="E" unicode="E" horiz-adv-x="618" 
d="M88 0v716h468v-128h-334v-152h303v-128h-303v-180h334v-128h-468z" />
    <glyph glyph-name="F" unicode="F" horiz-adv-x="573" 
d="M88 0v716h441v-128h-307v-174h276v-128h-276v-286h-134z" />
    <glyph glyph-name="G" unicode="G" horiz-adv-x="782" 
d="M377 -16q-92 0 -165 46.5t-115 130.5t-42 197t44 197t121 130.5t175 46.5q119 0 202 -53.5t103 -154.5l-131 -35q-18 56 -61 85.5t-114 29.5q-56 0 -102.5 -28t-74 -83t-27.5 -135t26.5 -135t72.5 -83t102 -28q80 0 130.5 44t60.5 115h-190v114h322v-385h-124v88h-8
q-33 -52 -83 -78t-122 -26z" />
    <glyph glyph-name="H" unicode="H" horiz-adv-x="742" 
d="M88 0v716h134v-286h298v286h134v-716h-134v302h-298v-302h-134z" />
    <glyph glyph-name="I" unicode="I" horiz-adv-x="310" 
d="M88 0v716h134v-716h-134z" />
    <glyph glyph-name="J" unicode="J" horiz-adv-x="575" 
d="M271 -16q-97 0 -162.5 56t-79.5 162l130 27q8 -56 37 -86.5t75 -30.5q48 0 75 30.5t27 86.5v487h134v-490q0 -82 -31 -135.5t-84 -80t-121 -26.5z" />
    <glyph glyph-name="K" unicode="K" horiz-adv-x="675" 
d="M88 0v716h134v-303h8l250 303h163v-8l-249 -296l274 -404v-8h-163l-204 302l-79 -94v-208h-134z" />
    <glyph glyph-name="L" unicode="L" horiz-adv-x="595" 
d="M88 0v716h134v-588h334v-128h-468z" />
    <glyph glyph-name="M" unicode="M" horiz-adv-x="894" 
d="M88 0v716h173l182 -502h8l181 502h174v-716h-133v351l8 117h-8l-174 -468h-104l-175 468h-8l8 -117v-351h-132z" />
    <glyph glyph-name="N" unicode="N" horiz-adv-x="748" 
d="M88 0v716h157l282 -482h8l-8 138v344h133v-716h-143l-297 508h-8l8 -138v-370h-132z" />
    <glyph glyph-name="O" unicode="O" horiz-adv-x="806" 
d="M403 -16q-106 0 -184 48.5t-121 133t-43 192.5q0 109 43 193t121 132.5t184 48.5t184 -48.5t121 -132.5t43 -193q0 -108 -43 -192.5t-121 -133t-184 -48.5zM403 112q95 0 153.5 64t58.5 182t-58.5 182t-153.5 64t-153.5 -64t-58.5 -182t58.5 -182t153.5 -64z" />
    <glyph glyph-name="P" unicode="P" horiz-adv-x="651" 
d="M88 0v716h272q76 0 133 -24.5t89.5 -76t32.5 -131.5t-32.5 -131.5t-89.5 -76t-133 -24.5h-138v-252h-134zM222 380h143q55 0 86 25.5t31 78.5t-31 78.5t-86 25.5h-143v-208z" />
    <glyph glyph-name="Q" unicode="Q" horiz-adv-x="806" 
d="M403 -16q-106 0 -184 48.5t-121 133t-43 192.5q0 109 43 193t121 132.5t184 48.5t184 -48.5t121 -133t43 -192.5q0 -85 -27 -156t-77 -121l54 -81l-100 -67l-53 80q-66 -29 -145 -29zM403 112q38 0 71 11l-81 121l100 68l78 -117q21 30 32.5 71t11.5 92q0 118 -58.5 182
t-153.5 64t-153.5 -64t-58.5 -182t58.5 -182t153.5 -64z" />
    <glyph glyph-name="R" unicode="R" horiz-adv-x="665" 
d="M88 0v716h300q107 0 171.5 -59.5t64.5 -166.5q0 -74 -42.5 -126.5t-107.5 -73.5l-1 -7l166 -275v-8h-149l-161 269h-107v-269h-134zM222 393h165q46 0 74 25.5t28 73.5t-26 73.5t-75 25.5h-166v-198z" />
    <glyph glyph-name="S" unicode="S" horiz-adv-x="631" 
d="M324 -16q-118 0 -189.5 57t-93.5 166l135 30q11 -57 48.5 -91t100.5 -34q56 0 90 23.5t34 64.5q0 30 -13.5 49t-45.5 34.5t-88 32.5l-52 16q-26 8 -57 21.5t-59 36.5t-45.5 57t-17.5 82q0 57 28 103t82 73t132 27q114 0 178 -53t77 -145l-128 -19q-10 42 -41 67.5
t-84 25.5q-51 0 -82 -20t-31 -53q0 -34 30.5 -56.5t95.5 -42.5l50 -15q61 -18 107 -44.5t72 -68t26 -105.5q0 -73 -36.5 -121.5t-95.5 -73t-127 -24.5z" />
    <glyph glyph-name="T" unicode="T" horiz-adv-x="630" 
d="M248 0v588h-220v128h574v-128h-220v-588h-134z" />
    <glyph glyph-name="U" unicode="U" horiz-adv-x="721" 
d="M361 -16q-132 0 -207.5 79t-75.5 219v434h133v-443q0 -76 38 -118.5t112 -42.5t111.5 42.5t37.5 118.5v443h133v-434q0 -90 -34 -157t-97 -104t-151 -37z" />
    <glyph glyph-name="V" unicode="V" horiz-adv-x="671" 
d="M260 0l-244 716h145l142 -432l25 -91h8l26 91l148 432h146l-253 -716h-143z" />
    <glyph glyph-name="W" unicode="W" horiz-adv-x="961" 
d="M203 0l-184 716h149l92 -400l12 -75h8l16 75l120 400h132l118 -400l16 -73h8l11 73l92 400h149l-179 -716h-144l-117 430l-15 78h-8l-16 -78l-122 -430h-138z" />
    <glyph glyph-name="X" unicode="X" horiz-adv-x="696" 
d="M23 0l233 374l-217 342h166l139 -234h8l139 234h168l-220 -342l235 -374h-168l-154 258h-8l-154 -258h-167z" />
    <glyph glyph-name="Y" unicode="Y" horiz-adv-x="642" 
d="M256 0v325l-238 391h159l142 -241h8l135 241h162l-234 -391v-325h-134z" />
    <glyph glyph-name="Z" unicode="Z" horiz-adv-x="624" 
d="M38 0v136l379 452h-363v128h518v-136l-375 -452h379v-128h-538z" />
    <glyph glyph-name="bracketleft" unicode="[" horiz-adv-x="414" 
d="M100 -124v916h264v-108h-136v-700h136v-108h-264z" />
    <glyph glyph-name="backslash" unicode="\" horiz-adv-x="362" 
d="M233 0l-233 716h129l233 -716h-129z" />
    <glyph glyph-name="bracketright" unicode="]" horiz-adv-x="414" 
d="M50 -124v108h136v700h-136v108h264v-916h-264z" />
    <glyph glyph-name="asciicircum" unicode="^" horiz-adv-x="535" 
d="M16 410l195 306h113l195 -306h-136l-111 180h-8l-112 -180h-136z" />
    <glyph glyph-name="underscore" unicode="_" horiz-adv-x="499" 
d="M0 -216v116h499v-116h-499z" />
    <glyph glyph-name="grave" unicode="`" horiz-adv-x="443" 
d="M186 629l-90 147h153l42 -147h-105z" />
    <glyph glyph-name="a" unicode="a" horiz-adv-x="594" 
d="M234 -16q-84 0 -133 46t-49 123q0 53 27 90.5t73.5 57.5t103.5 20q37 0 71.5 -4.5t70.5 -12.5v42q0 41 -29 66t-82 25q-39 0 -68 -19.5t-40 -54.5l-114 24q12 53 45.5 87t80 51t98.5 17q119 0 178 -54t59 -158v-330h-128v52h-8q-23 -28 -63 -48t-93 -20zM267 86
q62 0 96.5 36.5t34.5 84.5q-28 9 -60 14.5t-63 5.5q-49 0 -71 -20.5t-22 -52.5q0 -30 24 -49t61 -19z" />
    <glyph glyph-name="b" unicode="b" horiz-adv-x="637" 
d="M361 -16q-59 0 -97 22.5t-60 54.5h-8v-61h-123v776h131v-234l-8 -78h8q18 30 58.5 54t98.5 24q67 0 119.5 -32.5t83.5 -94.5t31 -152q0 -89 -31 -151.5t-83.5 -95t-119.5 -32.5zM330 106q57 0 95.5 40.5t38.5 116.5t-38.5 116.5t-95.5 40.5t-95.5 -40.5t-38.5 -116.5
t38.5 -116.5t95.5 -40.5z" />
    <glyph glyph-name="c" unicode="c" horiz-adv-x="581" 
d="M300 -16q-76 0 -134 34.5t-91 97.5t-33 147q0 85 33.5 147.5t92.5 97t137 34.5q92 0 157 -45t81 -135l-128 -20q-10 39 -40 59t-73 20q-52 0 -90.5 -40.5t-38.5 -117.5t37.5 -117.5t91.5 -40.5q88 0 114 89l126 -29q-19 -79 -80 -130t-162 -51z" />
    <glyph glyph-name="d" unicode="d" horiz-adv-x="636" 
d="M274 -16q-65 0 -118 32t-84 94.5t-31 152.5q0 91 32 153t85.5 94t116.5 32q59 0 98.5 -21.5t58.5 -56.5h8l-8 78v234h131v-776h-123v61h-8q-21 -31 -60 -54t-98 -23zM306 106q57 0 95.5 39t38.5 118t-38.5 118t-95.5 39t-95.5 -39t-38.5 -118t38.5 -118t95.5 -39z" />
    <glyph glyph-name="e" unicode="e" horiz-adv-x="590" 
d="M301 -16q-79 0 -137 34t-90 97t-32 148q0 86 33.5 148.5t92.5 96.5t134 34q125 0 185.5 -68t60.5 -184q0 -33 -3 -57h-377q7 -66 45 -99.5t93 -33.5q46 0 74.5 22.5t41.5 54.5l114 -31q-24 -72 -81.5 -117t-153.5 -45zM303 436q-47 0 -81 -27.5t-48 -82.5h249
q-4 50 -34.5 80t-85.5 30z" />
    <glyph glyph-name="f" unicode="f" horiz-adv-x="404" 
d="M117 0v414h-89v112h89v81q0 89 52 137t131 48q24 0 46 -3t35 -8v-126q-13 6 -28.5 10.5t-35.5 4.5q-31 0 -50 -19t-19 -52v-73h120v-112h-120v-414h-131z" />
    <glyph glyph-name="g" unicode="g" horiz-adv-x="612" 
d="M293 -232q-106 0 -168.5 48t-78.5 122l131 27q11 -36 39.5 -58.5t76.5 -22.5q62 0 96 39t34 111v40h-8q-28 -35 -63.5 -52.5t-91.5 -17.5q-60 0 -111 32.5t-82 92.5t-31 144t31 144.5t82 92.5t111 32q106 0 155 -70h8v54h125v-488q0 -125 -67 -197.5t-188 -72.5zM295 124
q53 0 90.5 38t37.5 111q0 74 -37.5 111.5t-90.5 37.5q-52 0 -90 -37.5t-38 -111.5q0 -73 38 -111t90 -38z" />
    <glyph glyph-name="h" unicode="h" horiz-adv-x="623" 
d="M73 0v776h131v-234l-8 -86h8q20 39 63.5 62.5t94.5 23.5q95 0 144 -55t49 -150v-337h-131v316q0 51 -25.5 77.5t-72.5 26.5q-55 0 -88.5 -41t-33.5 -105v-274h-131z" />
    <glyph glyph-name="i" unicode="i" horiz-adv-x="278" 
d="M140 616q-35 0 -60 25t-25 60t25 60t60 25t60 -25t25 -60t-25 -60t-60 -25zM74 0v526h131v-526h-131z" />
    <glyph glyph-name="j" unicode="j" horiz-adv-x="275" 
d="M137 616q-35 0 -60 25t-25 60t25 60t60 25t60 -25t25 -60t-25 -60t-60 -25zM45 -226q-19 0 -34.5 1.5t-34.5 5.5v126q11 -5 22.5 -9t26.5 -4q45 0 45 56v576h131v-576q0 -63 -21 -102t-56 -56.5t-79 -17.5z" />
    <glyph glyph-name="k" unicode="k" horiz-adv-x="571" 
d="M73 0v776h131v-436h7l177 186h158v-8l-190 -194l201 -316v-8h-152l-143 227l-58 -59v-168h-131z" />
    <glyph glyph-name="l" unicode="l" horiz-adv-x="279" 
d="M74 0v776h131v-776h-131z" />
    <glyph glyph-name="m" unicode="m" horiz-adv-x="891" 
d="M73 0v526h123v-64h8q22 36 59.5 58t86.5 22q53 0 89 -22.5t53 -58.5q23 36 63 58.5t100 22.5q86 0 127 -52t41 -140v-350h-130v329q0 46 -20.5 69t-56.5 23q-46 0 -74 -34t-28 -93v-294h-131v329q0 92 -83 92q-43 0 -69.5 -34t-26.5 -93v-294h-131z" />
    <glyph glyph-name="n" unicode="n" horiz-adv-x="613" 
d="M73 0v526h123v-64h8q23 37 64 58.5t92 21.5q91 0 138 -54.5t47 -152.5v-335h-131v317q0 50 -24.5 76.5t-68.5 26.5q-54 0 -85.5 -40t-31.5 -99v-281h-131z" />
    <glyph glyph-name="o" unicode="o" horiz-adv-x="614" 
d="M307 -16q-81 0 -140.5 35.5t-92 98.5t-32.5 145t32.5 145t92 98.5t140.5 35.5q82 0 141 -35.5t91.5 -98.5t32.5 -145t-32.5 -145t-91.5 -98.5t-141 -35.5zM307 106q59 0 96.5 40t37.5 117t-37.5 117t-96.5 40t-96.5 -40t-37.5 -117t37.5 -117t96.5 -40z" />
    <glyph glyph-name="p" unicode="p" horiz-adv-x="636" 
d="M73 -216v742h123v-61h8q20 31 59.5 54t97.5 23q67 0 119.5 -32t83.5 -94t31 -153q0 -90 -31 -152.5t-83.5 -94.5t-119.5 -32q-60 0 -99.5 23.5t-57.5 54.5h-8l8 -78v-200h-131zM330 106q57 0 95.5 39t38.5 118q0 80 -38.5 118.5t-95.5 38.5t-95.5 -38.5t-38.5 -118.5
q0 -79 38.5 -118t95.5 -39z" />
    <glyph glyph-name="q" unicode="q" horiz-adv-x="635" 
d="M432 -216v200l8 78h-8q-18 -31 -58.5 -54.5t-100.5 -23.5q-65 0 -118 32t-83.5 94.5t-30.5 152.5q0 91 31 153t84 94t119 32q58 0 97.5 -23t59.5 -54h8v61h123v-742h-131zM306 106q57 0 95.5 39t38.5 118q0 80 -38.5 118.5t-95.5 38.5t-95.5 -38.5t-38.5 -118.5
q0 -79 38.5 -118t95.5 -39z" />
    <glyph glyph-name="r" unicode="r" horiz-adv-x="422" 
d="M73 0v526h123v-68h8q17 36 50 60t81 24q19 0 31 -2t21 -4v-130q-14 6 -32 10t-41 4q-48 0 -79 -35.5t-31 -97.5v-287h-131z" />
    <glyph glyph-name="s" unicode="s" horiz-adv-x="525" 
d="M269 -16q-102 0 -160.5 47.5t-71.5 121.5l125 21q8 -36 36 -55.5t71 -19.5q37 0 64.5 13.5t27.5 42.5q0 26 -26 42t-72 24l-60 11q-64 12 -106 50t-42 101q0 47 27.5 83t74 56t104.5 20q186 0 214 -144l-115 -18q-11 31 -36 44t-60 13q-37 0 -59.5 -15t-22.5 -35
q0 -21 18 -35t58 -22l73 -15q77 -16 119 -52.5t42 -105.5q0 -52 -30 -91t-80.5 -60.5t-112.5 -21.5z" />
    <glyph glyph-name="t" unicode="t" horiz-adv-x="415" 
d="M284 -8q-77 0 -121 45.5t-44 125.5v251h-87v112h87v144h131v-144h120v-112h-120v-231q0 -68 61 -68q19 0 32.5 5t29.5 14v-125q-20 -8 -41.5 -12.5t-47.5 -4.5z" />
    <glyph glyph-name="u" unicode="u" horiz-adv-x="613" 
d="M253 -16q-91 0 -138 55t-47 152v335h131v-317q0 -50 24.5 -76.5t68.5 -26.5q54 0 85.5 40t31.5 99v281h131v-526h-123v64h-8q-22 -37 -63.5 -58.5t-92.5 -21.5z" />
    <glyph glyph-name="v" unicode="v" horiz-adv-x="593" 
d="M231 0l-217 526h148l131 -345h8l132 345h146l-219 -526h-129z" />
    <glyph glyph-name="w" unicode="w" horiz-adv-x="807" 
d="M166 0l-152 526h146l79 -335h7l92 335h132l93 -335h7l79 335h144l-153 -526h-141l-94 340h-7l-92 -340h-140z" />
    <glyph glyph-name="x" unicode="x" horiz-adv-x="553" 
d="M20 0l179 267l-179 259h154l101 -153h6l94 153h159l-181 -259l181 -267h-154l-101 157h-6l-100 -157h-153z" />
    <glyph glyph-name="y" unicode="y" horiz-adv-x="595" 
d="M116 -226q-28 0 -52 5t-40 12v127q13 -7 37.5 -15.5t52.5 -8.5q32 0 53.5 16.5t43.5 63.5l19 43l-217 509h149l135 -333h8l131 333h145l-257 -605q-23 -54 -51 -86.5t-65.5 -46.5t-91.5 -14z" />
    <glyph glyph-name="z" unicode="z" horiz-adv-x="520" 
d="M41 0v107l270 308h-262v111h420v-107l-271 -308h279v-111h-436z" />
    <glyph glyph-name="braceleft" unicode="{" horiz-adv-x="388" 
d="M282 -124q-86 0 -131.5 46.5t-45.5 130.5v150q0 41 -21.5 58.5t-53.5 17.5v110q32 0 53.5 17.5t21.5 58.5v150q0 84 45.5 130.5t131.5 46.5h56v-108h-32q-30 0 -51.5 -21.5t-21.5 -58.5v-150q0 -47 -16.5 -77t-63.5 -39v-8q47 -9 63.5 -39t16.5 -77v-150
q0 -37 21.5 -58.5t51.5 -21.5h32v-108h-56z" />
    <glyph glyph-name="bar" unicode="|" horiz-adv-x="320" 
d="M100 -120v912h120v-912h-120z" />
    <glyph glyph-name="braceright" unicode="}" horiz-adv-x="388" 
d="M50 -124v108h32q30 0 51.5 21.5t21.5 58.5v150q0 47 17 77t63 39v8q-46 9 -63 39t-17 77v150q0 37 -21.5 58.5t-51.5 21.5h-32v108h56q86 0 131.5 -46.5t45.5 -130.5v-150q0 -41 21.5 -58.5t53.5 -17.5v-110q-32 0 -53.5 -17.5t-21.5 -58.5v-150q0 -84 -45.5 -130.5
t-131.5 -46.5h-56z" />
    <glyph glyph-name="asciitilde" unicode="~" horiz-adv-x="580" 
d="M401 223q-35 0 -66.5 11t-58.5 23q-22 10 -42 17.5t-38 7.5q-25 0 -35 -15t-12 -36h-104q0 74 34 118t99 44q38 0 69.5 -11.5t58.5 -23.5q22 -10 41 -17t37 -7q26 0 36 15t11 36h104q0 -73 -34.5 -117.5t-99.5 -44.5z" />
    <glyph glyph-name="uni00A0" unicode="&#xa0;" horiz-adv-x="256" 
 />
    <glyph glyph-name="exclamdown" unicode="&#xa1;" horiz-adv-x="304" 
d="M152 368q-36 0 -61.5 25.5t-25.5 61.5t25.5 61.5t61.5 25.5t61.5 -25.5t25.5 -61.5t-25.5 -61.5t-61.5 -25.5zM85 -216v206l12 271h110l12 -271v-206h-134z" />
    <glyph glyph-name="cent" unicode="&#xa2;" horiz-adv-x="569" 
d="M251 0v102q-98 13 -152 83.5t-54 172.5q0 101 55 170.5t151 84.5v103h89v-101q74 -9 124 -51t65 -120l-114 -13q-16 56 -75 72v-291q33 7 51 26.5t28 47.5l114 -18q-22 -71 -70 -113.5t-123 -52.5v-102h-89zM165 358q0 -56 21.5 -93t64.5 -51v288q-43 -14 -64.5 -51
t-21.5 -93z" />
    <glyph glyph-name="sterling" unicode="&#xa3;" horiz-adv-x="588" 
d="M54 0v106q42 23 66.5 62t24.5 81q0 15 -2 29h-96v100h58q-16 31 -30 66t-14 81q0 59 26.5 105.5t76.5 74t118 27.5q107 0 162.5 -47.5t68.5 -136.5l-123 -21q-6 44 -34 66.5t-72 22.5q-46 0 -72.5 -26.5t-26.5 -70.5q0 -40 15.5 -73t32.5 -68h172v-100h-143q1 -10 1 -20
q0 -46 -13 -76.5t-35 -58.5l5 -7h149q67 0 75 66l116 -18q-5 -77 -49 -120.5t-132 -43.5h-325z" />
    <glyph glyph-name="currency" unicode="&#xa4;" horiz-adv-x="656" 
d="M133 71l-63 65l72 71q-16 26 -25 55.5t-9 62.5t9 63t25 55l-72 72l63 64l73 -71q55 36 122 36t122 -36l73 71l63 -64l-71 -72q33 -52 33 -118q0 -33 -8.5 -62.5t-24.5 -55.5l71 -71l-63 -65l-73 71q-55 -36 -122 -36t-122 36zM328 209q51 0 81.5 31.5t30.5 84.5
t-30.5 84.5t-81.5 31.5t-81.5 -31.5t-30.5 -84.5t30.5 -84.5t81.5 -31.5z" />
    <glyph glyph-name="yen" unicode="&#xa5;" horiz-adv-x="670" 
d="M268 0v125h-169v116h169v81h-169v116h94l-173 278h161l122 -210l28 -68h8l28 68l121 210h162l-173 -278h91v-116h-165v-81h165v-116h-165v-125h-135z" />
    <glyph glyph-name="brokenbar" unicode="&#xa6;" horiz-adv-x="320" 
d="M100 396v360h120v-360h-120zM100 -120v392h120v-392h-120z" />
    <glyph glyph-name="section" unicode="&#xa7;" horiz-adv-x="583" 
d="M294 -232q-105 0 -164 52.5t-75 143.5l127 28q8 -43 37 -73.5t79 -30.5q91 0 91 80q0 36 -30.5 56.5t-105.5 42.5q-6 2 -13 4.5t-13 4.5q-79 28 -118.5 78.5t-39.5 112.5q0 46 21 81t61 60q-33 24 -53 58t-20 79q0 53 25.5 95.5t72.5 67t113 24.5q96 0 149.5 -43
t68.5 -121l-127 -25q-6 32 -28.5 50.5t-64.5 18.5q-29 0 -53.5 -15t-24.5 -45q0 -26 20.5 -46t78.5 -40q8 -2 17.5 -6t16.5 -7q86 -31 136 -79.5t50 -130.5q0 -47 -22 -81t-50 -56q29 -26 46 -60.5t17 -78.5q0 -60 -30 -105t-80.5 -69.5t-114.5 -24.5zM340 164q12 -3 23 -7
q15 13 25.5 32t10.5 39q0 43 -30.5 73t-104.5 54q-4 1 -8.5 2.5t-8.5 2.5q-25 -12 -40 -33t-15 -47q0 -37 25.5 -59.5t79.5 -42.5q11 -4 21.5 -7.5t21.5 -6.5z" />
    <glyph glyph-name="dieresis" unicode="&#xa8;" horiz-adv-x="452" 
d="M327 633q-29 0 -50 21t-21 51t21 50.5t50 20.5q31 0 51.5 -20.5t20.5 -50.5t-20.5 -51t-51.5 -21zM125 633q-30 0 -51 21t-21 51t21 50.5t51 20.5t50.5 -20.5t20.5 -50.5t-20.5 -51t-50.5 -21z" />
    <glyph glyph-name="copyright" unicode="&#xa9;" horiz-adv-x="564" 
d="M282 252q-66 0 -120.5 32.5t-87 87t-32.5 120.5t32.5 120.5t87 87t120.5 32.5t120.5 -32.5t87 -87t32.5 -120.5t-32.5 -120.5t-87 -87t-120.5 -32.5zM282 300q53 0 97 26.5t70 70t26 95.5q0 53 -26 96.5t-70 69.5t-97 26q-52 0 -95.5 -26t-70 -69.5t-26.5 -96.5
q0 -52 26.5 -95.5t70 -70t95.5 -26.5zM283 368q-46 0 -80 33t-34 91t34.5 91t80.5 33t71.5 -22t32.5 -51l-44 -12q-6 17 -20 29t-37 12q-32 0 -52 -21t-20 -59t20 -59t52 -21q25 0 38 11.5t20 31.5l43 -7q-11 -39 -38.5 -59.5t-66.5 -20.5z" />
    <glyph glyph-name="ordfeminine" unicode="&#xaa;" horiz-adv-x="504" 
d="M203 264q-70 0 -112.5 39t-42.5 106q0 65 49 101t122 36q34 0 65 -4.5t55 -10.5v24q0 38 -20 60.5t-68 22.5q-64 0 -84 -52l-109 17q15 56 65 92.5t128 36.5q104 0 154.5 -45.5t50.5 -132.5v-276h-117v46h-8q-21 -27 -53 -43.5t-75 -16.5zM233 355q44 0 75 29t31 66
q-13 3 -39.5 7.5t-57.5 4.5q-38 0 -56.5 -15.5t-18.5 -37.5q0 -26 17.5 -40t48.5 -14z" />
    <glyph glyph-name="guillemotleft" unicode="&#xab;" horiz-adv-x="666" 
d="M268 33l-220 238l220 238l75 -69l-158 -169l158 -169zM521 33l-220 238l220 238l75 -69l-158 -169l158 -169z" />
    <glyph glyph-name="logicalnot" unicode="&#xac;" horiz-adv-x="621" 
d="M412 105v185h-352v114h466v-299h-114z" />
    <glyph glyph-name="uni00AD" unicode="&#xad;" horiz-adv-x="483" 
d="M72 252v116h339v-116h-339z" />
    <glyph glyph-name="registered" unicode="&#xae;" horiz-adv-x="564" 
d="M282 252q-66 0 -120.5 32.5t-87 87t-32.5 120.5t32.5 120.5t87 87t120.5 32.5t120.5 -32.5t87 -87t32.5 -120.5t-32.5 -120.5t-87 -87t-120.5 -32.5zM282 300q53 0 97 26.5t70 70t26 95.5q0 53 -26 96.5t-70 69.5t-97 26q-52 0 -95.5 -26t-70 -69.5t-26.5 -96.5
q0 -52 26.5 -95.5t70 -70t95.5 -26.5zM197 374v236h102q36 0 62.5 -19.5t26.5 -60.5q0 -25 -13.5 -43.5t-36.5 -27.5l-2 -2l46 -83h-52l-44 81h-43v-81h-46zM243 497h53q23 0 34.5 7t11.5 26q0 20 -11.5 28t-33.5 8h-54v-69z" />
    <glyph glyph-name="macron" unicode="&#xaf;" horiz-adv-x="416" 
d="M60 657v100h296v-100h-296z" />
    <glyph glyph-name="degree" unicode="&#xb0;" horiz-adv-x="349" 
d="M175 466q-61 0 -99 38t-38 95t38 95t99 38q62 0 99 -38t37 -95t-37 -95t-99 -38zM175 543q24 0 40 15.5t16 40.5t-16 40.5t-40 15.5q-25 0 -41 -15.5t-16 -40.5t16 -40.5t41 -15.5z" />
    <glyph glyph-name="plusminus" unicode="&#xb1;" horiz-adv-x="581" 
d="M232 183v145h-170v108h170v145h116v-145h171v-108h-171v-145h-116zM62 0v116h457v-116h-457z" />
    <glyph glyph-name="uni00B2" unicode="&#xb2;" horiz-adv-x="329" 
d="M34 458v63q48 35 80 61.5t51 48.5q22 25 30 46t8 43q0 21 -11.5 33t-31.5 12q-19 0 -31.5 -13.5t-15.5 -36.5l-85 15q7 53 42 83.5t90 30.5q62 0 97.5 -31.5t35.5 -92.5q0 -34 -12.5 -62t-32.5 -52q-16 -20 -37 -37.5t-41 -31.5h125v-79h-261z" />
    <glyph glyph-name="uni00B3" unicode="&#xb3;" horiz-adv-x="352" 
d="M175 450q-58 0 -98 30t-50 88l87 17q4 -29 20.5 -43.5t40.5 -14.5t38 12t14 35q0 22 -17 33.5t-43 11.5h-32v70h31q51 0 51 39q0 19 -13 29t-33 10q-18 0 -32 -10t-19 -27l-83 14q9 44 44 72t92 28q63 0 97 -30t34 -75q0 -28 -14.5 -48.5t-32.5 -31.5q23 -9 41 -31.5
t18 -56.5q0 -53 -40 -87t-101 -34z" />
    <glyph glyph-name="acute" unicode="&#xb4;" horiz-adv-x="443" 
d="M152 629l42 147h153l-90 -147h-105z" />
    <glyph glyph-name="uni00B5" unicode="&#xb5;" horiz-adv-x="681" 
d="M73 -216v742h131v-314q0 -56 26 -81t66 -25q55 0 86.5 40t31.5 104v276h131v-336q0 -71 53 -71q15 0 28 4.5t23 11.5v-130q-18 -5 -36.5 -9t-40.5 -4q-60 0 -91 28t-42 74h-8q-22 -52 -60 -81t-87 -29q-25 0 -45 7t-35 17h-8l8 -65v-159h-131z" />
    <glyph glyph-name="paragraph" unicode="&#xb6;" horiz-adv-x="661" 
d="M279 -216v512h-25q-59 0 -110.5 25t-82.5 72.5t-31 112.5q0 66 31 113t82.5 72t110.5 25h327v-932h-110v825h-82v-825h-110z" />
    <glyph glyph-name="periodcentered" unicode="&#xb7;" horiz-adv-x="294" 
d="M147 238q-36 0 -61.5 25.5t-25.5 61.5t25.5 61t61.5 25t61.5 -25t25.5 -61t-25.5 -61.5t-61.5 -25.5z" />
    <glyph glyph-name="cedilla" unicode="&#xb8;" horiz-adv-x="411" 
d="M167 -248q-39 0 -65.5 19.5t-37.5 49.5l66 24q4 -12 14 -20t23 -8q17 0 26 10t9 25t-9.5 24.5t-25.5 9.5q-10 0 -17 -4t-12 -9l-59 27l39 100h68l-24 -56q8 2 18 2q41 0 68.5 -25.5t27.5 -69.5q0 -41 -29 -70t-80 -29z" />
    <glyph glyph-name="uni00B9" unicode="&#xb9;" horiz-adv-x="275" 
d="M122 458v259l-92 -67v110l100 76h81v-378h-89z" />
    <glyph glyph-name="ordmasculine" unicode="&#xba;" horiz-adv-x="541" 
d="M270 264q-68 0 -119.5 29t-80 82t-28.5 123q0 71 28.5 123.5t80 81.5t119.5 29q69 0 120.5 -29t80 -81.5t28.5 -123.5q0 -70 -30 -123t-81.5 -82t-117.5 -29zM270 373q50 0 80.5 33t30.5 92t-30.5 92t-80.5 33q-49 0 -80 -33t-31 -92t31 -92t80 -33z" />
    <glyph glyph-name="guillemotright" unicode="&#xbb;" horiz-adv-x="666" 
d="M145 33l-75 69l158 169l-158 169l75 69l220 -238zM398 33l-75 69l158 169l-158 169l75 69l220 -238z" />
    <glyph glyph-name="onequarter" unicode="&#xbc;" horiz-adv-x="820" 
d="M146 338v259l-92 -67v110l100 76h81v-378h-89zM208 -16l-79 53l465 694l79 -53zM622 0v65h-175v64l171 249h90v-239h52v-74h-52v-65h-86zM537 139h85v115h-8z" />
    <glyph glyph-name="onehalf" unicode="&#xbd;" horiz-adv-x="852" 
d="M146 338v259l-92 -67v110l100 76h81v-378h-89zM208 -16l-79 53l465 694l79 -53zM527 0v63q48 35 80 61.5t51 48.5q22 25 30 46t8 43q0 21 -11.5 33t-31.5 12q-19 0 -31.5 -13.5t-15.5 -36.5l-85 15q7 53 42 83.5t90 30.5q62 0 97.5 -31.5t35.5 -92.5q0 -34 -12.5 -62
t-32.5 -52q-16 -20 -37 -37.5t-41 -31.5h125v-79h-261z" />
    <glyph glyph-name="threequarters" unicode="&#xbe;" horiz-adv-x="888" 
d="M199 330q-58 0 -98 30t-50 88l87 17q4 -29 20.5 -43.5t40.5 -14.5t38 12t14 35q0 22 -17 33.5t-43 11.5h-32v70h31q51 0 51 39q0 19 -13 29t-33 10q-18 0 -32 -10t-19 -27l-83 14q9 44 44 72t92 28q63 0 97 -30t34 -75q0 -28 -14.5 -48.5t-32.5 -31.5q23 -9 41 -31.5
t18 -56.5q0 -53 -40 -87t-101 -34zM276 -16l-79 53l465 694l79 -53zM690 0v65h-175v64l171 249h90v-239h52v-74h-52v-65h-86zM605 139h85v115h-8z" />
    <glyph glyph-name="questiondown" unicode="&#xbf;" horiz-adv-x="553" 
d="M278 369q-36 0 -61 25t-25 61t25 61.5t61 25.5t61.5 -25.5t25.5 -61.5t-25.5 -61t-61.5 -25zM278 -232q-98 0 -155.5 50.5t-57.5 134.5q0 57 24 98t63 74q35 30 47 53t12 58v23h132v-35q0 -50 -19.5 -87.5t-72.5 -78.5q-28 -22 -42.5 -42.5t-14.5 -52.5q0 -33 24.5 -52.5
t61.5 -19.5q38 0 63.5 21t32.5 56l119 -15q-12 -82 -67 -133.5t-150 -51.5z" />
    <glyph glyph-name="Agrave" unicode="&#xc0;" horiz-adv-x="704" 
d="M14 0l260 716h155l261 -716h-149l-58 171h-262l-58 -171h-149zM323 474l-60 -179h178l-60 179l-25 86h-8zM300 813l-90 147h153l42 -147h-105z" />
    <glyph glyph-name="Aacute" unicode="&#xc1;" horiz-adv-x="704" 
d="M14 0l260 716h155l261 -716h-149l-58 171h-262l-58 -171h-149zM323 474l-60 -179h178l-60 179l-25 86h-8zM299 813l42 147h153l-90 -147h-105z" />
    <glyph glyph-name="Acircumflex" unicode="&#xc2;" horiz-adv-x="704" 
d="M14 0l260 716h155l261 -716h-149l-58 171h-262l-58 -171h-149zM323 474l-60 -179h178l-60 179l-25 86h-8zM173 813v8l122 139h114l122 -139v-8h-123l-50 73h-12l-50 -73h-123z" />
    <glyph glyph-name="Atilde" unicode="&#xc3;" horiz-adv-x="704" 
d="M14 0l260 716h155l261 -716h-149l-58 171h-262l-58 -171h-149zM323 474l-60 -179h178l-60 179l-25 86h-8zM418 815q-28 0 -48.5 8t-35.5 18q-12 8 -21.5 12.5t-21.5 4.5q-10 0 -19 -8.5t-10 -26.5h-92q0 65 31.5 99t82.5 34q29 0 49.5 -8t37.5 -19q11 -7 20 -11.5
t20 -4.5q27 0 30 35h92q0 -64 -32 -98.5t-83 -34.5z" />
    <glyph glyph-name="Adieresis" unicode="&#xc4;" horiz-adv-x="704" 
d="M14 0l260 716h155l261 -716h-149l-58 171h-262l-58 -171h-149zM323 474l-60 -179h178l-60 179l-25 86h-8zM453 817q-29 0 -50 21t-21 51t21 50.5t50 20.5q31 0 51.5 -20.5t20.5 -50.5t-20.5 -51t-51.5 -21zM251 817q-30 0 -51 21t-21 51t21 50.5t51 20.5t50.5 -20.5
t20.5 -50.5t-20.5 -51t-50.5 -21z" />
    <glyph glyph-name="Aring" unicode="&#xc5;" horiz-adv-x="704" 
d="M14 0l242 667q-19 19 -30.5 44.5t-11.5 55.5q0 39 18 70.5t49.5 50t69.5 18.5q39 0 70.5 -18.5t50 -50t18.5 -70.5q0 -29 -11.5 -55t-31.5 -45l243 -667h-149l-58 171h-262l-58 -171h-149zM351 716q22 0 36.5 14.5t14.5 35.5q0 23 -14.5 37.5t-36.5 14.5t-36.5 -14.5
t-14.5 -37.5q0 -21 14.5 -35.5t36.5 -14.5zM323 474l-60 -179h178l-60 179l-25 86h-8z" />
    <glyph glyph-name="AE" unicode="&#xc6;" horiz-adv-x="1031" 
d="M7 0l418 716h544v-128h-334v-152h303v-128h-303v-180h334v-128h-468v173h-238l-98 -173h-158zM334 301h167v287h-10l-33 -70z" />
    <glyph glyph-name="Ccedilla" unicode="&#xc7;" horiz-adv-x="748" 
d="M399 -248q-39 0 -65.5 19.5t-37.5 49.5l66 24q4 -12 14 -20t23 -8q17 0 26 10t9 25t-9.5 24.5t-25.5 9.5q-10 0 -17 -4t-12 -9l-59 27l34 86q-87 10 -152 58.5t-101.5 128.5t-36.5 185q0 114 42.5 198t118 130t173.5 46q77 0 143 -27t109.5 -80t52.5 -133l-138 -23
q-14 64 -57.5 100t-109.5 36q-55 0 -100.5 -28.5t-72 -83.5t-26.5 -135q0 -79 26 -134t71 -83.5t102 -28.5q64 0 109 35t58 98l141 -15q-22 -104 -91 -171.5t-195 -73.5l-17 -41q8 2 18 2q41 0 68.5 -25.5t27.5 -69.5q0 -41 -29 -70t-80 -29z" />
    <glyph glyph-name="Egrave" unicode="&#xc8;" horiz-adv-x="618" 
d="M88 0v716h468v-128h-334v-152h303v-128h-303v-180h334v-128h-468zM270 813l-90 147h153l42 -147h-105z" />
    <glyph glyph-name="Eacute" unicode="&#xc9;" horiz-adv-x="618" 
d="M88 0v716h468v-128h-334v-152h303v-128h-303v-180h334v-128h-468zM269 813l42 147h153l-90 -147h-105z" />
    <glyph glyph-name="Ecircumflex" unicode="&#xca;" horiz-adv-x="618" 
d="M88 0v716h468v-128h-334v-152h303v-128h-303v-180h334v-128h-468zM143 813v8l122 139h114l122 -139v-8h-123l-50 73h-12l-50 -73h-123z" />
    <glyph glyph-name="Edieresis" unicode="&#xcb;" horiz-adv-x="618" 
d="M88 0v716h468v-128h-334v-152h303v-128h-303v-180h334v-128h-468zM423 817q-29 0 -50 21t-21 51t21 50.5t50 20.5q31 0 51.5 -20.5t20.5 -50.5t-20.5 -51t-51.5 -21zM221 817q-30 0 -51 21t-21 51t21 50.5t51 20.5t50.5 -20.5t20.5 -50.5t-20.5 -51t-50.5 -21z" />
    <glyph glyph-name="Igrave" unicode="&#xcc;" horiz-adv-x="310" 
d="M88 0v716h134v-716h-134zM102 813l-90 147h153l42 -147h-105z" />
    <glyph glyph-name="Iacute" unicode="&#xcd;" horiz-adv-x="310" 
d="M88 0v716h134v-716h-134zM101 813l42 147h153l-90 -147h-105z" />
    <glyph glyph-name="Icircumflex" unicode="&#xce;" horiz-adv-x="310" 
d="M88 0v716h134v-716h-134zM-25 813v8l122 139h114l122 -139v-8h-123l-50 73h-12l-50 -73h-123z" />
    <glyph glyph-name="Idieresis" unicode="&#xcf;" horiz-adv-x="310" 
d="M60 817q-30 0 -51 21t-21 51t21 50.5t51 20.5t50.5 -20.5t20.5 -50.5t-20.5 -51t-50.5 -21zM250 817q-29 0 -50 21t-21 51t21 50.5t50 20.5q31 0 51.5 -20.5t20.5 -50.5t-20.5 -51t-51.5 -21zM89 0v716h134v-716h-134z" />
    <glyph glyph-name="Eth" unicode="&#xd0;" horiz-adv-x="769" 
d="M118 0v302h-77v110h77v304h238q175 0 266.5 -93t91.5 -265t-91.5 -265t-266.5 -93h-238zM252 128h98q111 0 170 55t59 175t-59 175t-170 55h-98v-176h184v-110h-184v-174z" />
    <glyph glyph-name="Ntilde" unicode="&#xd1;" horiz-adv-x="748" 
d="M88 0v716h157l282 -482h8l-8 138v344h133v-716h-143l-297 508h-8l8 -138v-370h-132zM440 815q-28 0 -48.5 8t-35.5 18q-12 8 -21.5 12.5t-21.5 4.5q-10 0 -19 -8.5t-10 -26.5h-92q0 65 31.5 99t82.5 34q29 0 49.5 -8t37.5 -19q11 -7 20 -11.5t20 -4.5q27 0 30 35h92
q0 -64 -32 -98.5t-83 -34.5z" />
    <glyph glyph-name="Ograve" unicode="&#xd2;" horiz-adv-x="806" 
d="M403 -16q-106 0 -184 48.5t-121 133t-43 192.5q0 109 43 193t121 132.5t184 48.5t184 -48.5t121 -132.5t43 -193q0 -108 -43 -192.5t-121 -133t-184 -48.5zM403 112q95 0 153.5 64t58.5 182t-58.5 182t-153.5 64t-153.5 -64t-58.5 -182t58.5 -182t153.5 -64zM351 813
l-90 147h153l42 -147h-105z" />
    <glyph glyph-name="Oacute" unicode="&#xd3;" horiz-adv-x="806" 
d="M403 -16q-106 0 -184 48.5t-121 133t-43 192.5q0 109 43 193t121 132.5t184 48.5t184 -48.5t121 -132.5t43 -193q0 -108 -43 -192.5t-121 -133t-184 -48.5zM403 112q95 0 153.5 64t58.5 182t-58.5 182t-153.5 64t-153.5 -64t-58.5 -182t58.5 -182t153.5 -64zM350 813
l42 147h153l-90 -147h-105z" />
    <glyph glyph-name="Ocircumflex" unicode="&#xd4;" horiz-adv-x="806" 
d="M403 -16q-106 0 -184 48.5t-121 133t-43 192.5q0 109 43 193t121 132.5t184 48.5t184 -48.5t121 -132.5t43 -193q0 -108 -43 -192.5t-121 -133t-184 -48.5zM403 112q95 0 153.5 64t58.5 182t-58.5 182t-153.5 64t-153.5 -64t-58.5 -182t58.5 -182t153.5 -64zM224 813v8
l122 139h114l122 -139v-8h-123l-50 73h-12l-50 -73h-123z" />
    <glyph glyph-name="Otilde" unicode="&#xd5;" horiz-adv-x="806" 
d="M403 -16q-106 0 -184 48.5t-121 133t-43 192.5q0 109 43 193t121 132.5t184 48.5t184 -48.5t121 -132.5t43 -193q0 -108 -43 -192.5t-121 -133t-184 -48.5zM403 112q95 0 153.5 64t58.5 182t-58.5 182t-153.5 64t-153.5 -64t-58.5 -182t58.5 -182t153.5 -64zM469 815
q-28 0 -48.5 8t-35.5 18q-12 8 -21.5 12.5t-21.5 4.5q-10 0 -19 -8.5t-10 -26.5h-92q0 65 31.5 99t82.5 34q29 0 49.5 -8t37.5 -19q11 -7 20 -11.5t20 -4.5q27 0 30 35h92q0 -64 -32 -98.5t-83 -34.5z" />
    <glyph glyph-name="Odieresis" unicode="&#xd6;" horiz-adv-x="806" 
d="M403 -16q-106 0 -184 48.5t-121 133t-43 192.5q0 109 43 193t121 132.5t184 48.5t184 -48.5t121 -132.5t43 -193q0 -108 -43 -192.5t-121 -133t-184 -48.5zM403 112q95 0 153.5 64t58.5 182t-58.5 182t-153.5 64t-153.5 -64t-58.5 -182t58.5 -182t153.5 -64zM504 817
q-29 0 -50 21t-21 51t21 50.5t50 20.5q31 0 51.5 -20.5t20.5 -50.5t-20.5 -51t-51.5 -21zM302 817q-30 0 -51 21t-21 51t21 50.5t51 20.5t50.5 -20.5t20.5 -50.5t-20.5 -51t-50.5 -21z" />
    <glyph glyph-name="multiply" unicode="&#xd7;" horiz-adv-x="635" 
d="M153 34l-81 81l163 156l-163 156l81 81l165 -158l164 158l81 -81l-163 -156l163 -156l-81 -81l-164 158z" />
    <glyph glyph-name="Oslash" unicode="&#xd8;" horiz-adv-x="806" 
d="M204 -57l-91 59l48 76q-51 50 -78.5 122t-27.5 158q0 109 43 193t121 132.5t184 48.5q84 0 153 -32l46 73l91 -59l-48 -76q51 -50 78.5 -122t27.5 -158q0 -108 -43 -192.5t-121 -133t-184 -48.5q-84 0 -153 32zM191 358q0 -51 11.5 -92t32.5 -72l250 395q-37 15 -82 15
q-95 0 -153.5 -64t-58.5 -182zM403 112q95 0 153.5 64t58.5 182q0 51 -11.5 92t-32.5 71l-251 -394q38 -15 83 -15z" />
    <glyph glyph-name="Ugrave" unicode="&#xd9;" horiz-adv-x="721" 
d="M361 -16q-132 0 -207.5 79t-75.5 219v434h133v-443q0 -76 38 -118.5t112 -42.5t111.5 42.5t37.5 118.5v443h133v-434q0 -90 -34 -157t-97 -104t-151 -37zM309 813l-90 147h153l42 -147h-105z" />
    <glyph glyph-name="Uacute" unicode="&#xda;" horiz-adv-x="721" 
d="M361 -16q-132 0 -207.5 79t-75.5 219v434h133v-443q0 -76 38 -118.5t112 -42.5t111.5 42.5t37.5 118.5v443h133v-434q0 -90 -34 -157t-97 -104t-151 -37zM308 813l42 147h153l-90 -147h-105z" />
    <glyph glyph-name="Ucircumflex" unicode="&#xdb;" horiz-adv-x="721" 
d="M361 -16q-132 0 -207.5 79t-75.5 219v434h133v-443q0 -76 38 -118.5t112 -42.5t111.5 42.5t37.5 118.5v443h133v-434q0 -90 -34 -157t-97 -104t-151 -37zM182 813v8l122 139h114l122 -139v-8h-123l-50 73h-12l-50 -73h-123z" />
    <glyph glyph-name="Udieresis" unicode="&#xdc;" horiz-adv-x="721" 
d="M361 -16q-132 0 -207.5 79t-75.5 219v434h133v-443q0 -76 38 -118.5t112 -42.5t111.5 42.5t37.5 118.5v443h133v-434q0 -90 -34 -157t-97 -104t-151 -37zM462 817q-29 0 -50 21t-21 51t21 50.5t50 20.5q31 0 51.5 -20.5t20.5 -50.5t-20.5 -51t-51.5 -21zM260 817
q-30 0 -51 21t-21 51t21 50.5t51 20.5t50.5 -20.5t20.5 -50.5t-20.5 -51t-50.5 -21z" />
    <glyph glyph-name="Yacute" unicode="&#xdd;" horiz-adv-x="642" 
d="M256 0v325l-238 391h159l142 -241h8l135 241h162l-234 -391v-325h-134zM267 813l42 147h153l-90 -147h-105z" />
    <glyph glyph-name="Thorn" unicode="&#xde;" horiz-adv-x="651" 
d="M88 0v716h134v-104h138q76 0 133 -24.5t89.5 -76t32.5 -131.5t-32.5 -131.5t-89.5 -76t-133 -24.5h-138v-148h-134zM222 276h143q55 0 86 25.5t31 78.5t-31 78.5t-86 25.5h-143v-208z" />
    <glyph glyph-name="germandbls" unicode="&#xdf;" horiz-adv-x="623" 
d="M354 -8q-16 0 -39 1.5t-37 4.5v119q12 -2 26.5 -4t30.5 -2q42 0 69.5 27t27.5 79q0 53 -33 80t-85 27h-26v115h21q50 0 74.5 25t24.5 65t-26 61t-67 21q-45 0 -71 -27.5t-26 -78.5v-505h-132v507q0 65 26.5 115.5t78 80t124.5 29.5q65 0 114.5 -24t77 -67t27.5 -100
q0 -58 -22.5 -93.5t-58.5 -54.5v-8q46 -19 78.5 -60.5t32.5 -114.5q0 -101 -57 -159.5t-153 -58.5z" />
    <glyph glyph-name="agrave" unicode="&#xe0;" horiz-adv-x="594" 
d="M234 -16q-84 0 -133 46t-49 123q0 53 27 90.5t73.5 57.5t103.5 20q37 0 71.5 -4.5t70.5 -12.5v42q0 41 -29 66t-82 25q-39 0 -68 -19.5t-40 -54.5l-114 24q12 53 45.5 87t80 51t98.5 17q119 0 178 -54t59 -158v-330h-128v52h-8q-23 -28 -63 -48t-93 -20zM267 86
q62 0 96.5 36.5t34.5 84.5q-28 9 -60 14.5t-63 5.5q-49 0 -71 -20.5t-22 -52.5q0 -30 24 -49t61 -19zM241 629l-90 147h153l42 -147h-105z" />
    <glyph glyph-name="aacute" unicode="&#xe1;" horiz-adv-x="594" 
d="M234 -16q-84 0 -133 46t-49 123q0 53 27 90.5t73.5 57.5t103.5 20q37 0 71.5 -4.5t70.5 -12.5v42q0 41 -29 66t-82 25q-39 0 -68 -19.5t-40 -54.5l-114 24q12 53 45.5 87t80 51t98.5 17q119 0 178 -54t59 -158v-330h-128v52h-8q-23 -28 -63 -48t-93 -20zM267 86
q62 0 96.5 36.5t34.5 84.5q-28 9 -60 14.5t-63 5.5q-49 0 -71 -20.5t-22 -52.5q0 -30 24 -49t61 -19zM240 629l42 147h153l-90 -147h-105z" />
    <glyph glyph-name="acircumflex" unicode="&#xe2;" horiz-adv-x="594" 
d="M234 -16q-84 0 -133 46t-49 123q0 53 27 90.5t73.5 57.5t103.5 20q37 0 71.5 -4.5t70.5 -12.5v42q0 41 -29 66t-82 25q-39 0 -68 -19.5t-40 -54.5l-114 24q12 53 45.5 87t80 51t98.5 17q119 0 178 -54t59 -158v-330h-128v52h-8q-23 -28 -63 -48t-93 -20zM267 86
q62 0 96.5 36.5t34.5 84.5q-28 9 -60 14.5t-63 5.5q-49 0 -71 -20.5t-22 -52.5q0 -30 24 -49t61 -19zM114 629v8l122 139h114l122 -139v-8h-123l-50 73h-12l-50 -73h-123z" />
    <glyph glyph-name="atilde" unicode="&#xe3;" horiz-adv-x="594" 
d="M234 -16q-84 0 -133 46t-49 123q0 53 27 90.5t73.5 57.5t103.5 20q37 0 71.5 -4.5t70.5 -12.5v42q0 41 -29 66t-82 25q-39 0 -68 -19.5t-40 -54.5l-114 24q12 53 45.5 87t80 51t98.5 17q119 0 178 -54t59 -158v-330h-128v52h-8q-23 -28 -63 -48t-93 -20zM267 86
q62 0 96.5 36.5t34.5 84.5q-28 9 -60 14.5t-63 5.5q-49 0 -71 -20.5t-22 -52.5q0 -30 24 -49t61 -19zM360 631q-28 0 -48.5 8t-35.5 18q-12 8 -21.5 12.5t-21.5 4.5q-10 0 -19 -8.5t-10 -26.5h-92q0 65 31.5 99t82.5 34q29 0 49.5 -8t37.5 -19q11 -7 20 -11.5t20 -4.5
q27 0 30 35h92q0 -64 -32 -98.5t-83 -34.5z" />
    <glyph glyph-name="adieresis" unicode="&#xe4;" horiz-adv-x="594" 
d="M234 -16q-84 0 -133 46t-49 123q0 53 27 90.5t73.5 57.5t103.5 20q37 0 71.5 -4.5t70.5 -12.5v42q0 41 -29 66t-82 25q-39 0 -68 -19.5t-40 -54.5l-114 24q12 53 45.5 87t80 51t98.5 17q119 0 178 -54t59 -158v-330h-128v52h-8q-23 -28 -63 -48t-93 -20zM267 86
q62 0 96.5 36.5t34.5 84.5q-28 9 -60 14.5t-63 5.5q-49 0 -71 -20.5t-22 -52.5q0 -30 24 -49t61 -19zM394 633q-29 0 -50 21t-21 51t21 50.5t50 20.5q31 0 51.5 -20.5t20.5 -50.5t-20.5 -51t-51.5 -21zM192 633q-30 0 -51 21t-21 51t21 50.5t51 20.5t50.5 -20.5t20.5 -50.5
t-20.5 -51t-50.5 -21z" />
    <glyph glyph-name="aring" unicode="&#xe5;" horiz-adv-x="594" 
d="M234 -16q-84 0 -133 46t-49 123q0 53 27 90.5t73.5 57.5t103.5 20q37 0 71.5 -4.5t70.5 -12.5v42q0 41 -29 66t-82 25q-39 0 -68 -19.5t-40 -54.5l-114 24q12 53 45.5 87t80 51t98.5 17q119 0 178 -54t59 -158v-330h-128v52h-8q-23 -28 -63 -48t-93 -20zM267 86
q62 0 96.5 36.5t34.5 84.5q-28 9 -60 14.5t-63 5.5q-49 0 -71 -20.5t-22 -52.5q0 -30 24 -49t61 -19zM293 604q-47 0 -80 33t-33 80t33 80t80 33t80 -33t33 -80t-33 -80t-80 -33zM293 678q17 0 28 11.5t11 27.5q0 17 -11 28t-28 11t-28 -11t-11 -28q0 -16 11 -27.5t28 -11.5
z" />
    <glyph glyph-name="ae" unicode="&#xe6;" horiz-adv-x="949" 
d="M234 -16q-84 0 -133 46t-49 123q0 53 27 90.5t73.5 57.5t103.5 20q37 0 71.5 -4.5t70.5 -12.5v42q0 41 -29 66t-82 25q-39 0 -68 -19.5t-40 -54.5l-114 24q12 53 45.5 87t80 51t98.5 17q132 0 192 -77q34 37 80 57t100 20q125 0 185.5 -68t60.5 -184q0 -33 -3 -57h-377
q7 -66 45 -99.5t93 -33.5q46 0 74.5 22.5t41.5 54.5l114 -31q-24 -72 -81.5 -117t-153.5 -45q-71 0 -125 30t-87 84q-36 -52 -89.5 -83t-124.5 -31zM533 326h249q-4 50 -34.5 80t-85.5 30q-46 0 -80.5 -27.5t-48.5 -82.5zM267 86q62 0 96.5 36.5t34.5 84.5q-28 9 -60 14.5
t-63 5.5q-49 0 -71 -20.5t-22 -52.5q0 -30 24 -49t61 -19z" />
    <glyph glyph-name="ccedilla" unicode="&#xe7;" horiz-adv-x="581" 
d="M311 -248q-39 0 -65.5 19.5t-37.5 49.5l66 24q4 -12 14 -20t23 -8q17 0 26 10t9 25t-9.5 24.5t-25.5 9.5q-10 0 -17 -4t-12 -9l-59 27l34 87q-64 10 -112.5 46t-75.5 95t-27 135q0 85 33.5 147.5t92.5 97t137 34.5q92 0 157 -45t81 -135l-128 -20q-10 39 -40 59t-73 20
q-52 0 -90.5 -40.5t-38.5 -117.5t37.5 -117.5t91.5 -40.5q88 0 114 89l126 -29q-18 -75 -73 -124.5t-146 -55.5l-17 -41q8 2 18 2q41 0 68.5 -25.5t27.5 -69.5q0 -41 -29 -70t-80 -29z" />
    <glyph glyph-name="egrave" unicode="&#xe8;" horiz-adv-x="590" 
d="M301 -16q-79 0 -137 34t-90 97t-32 148q0 86 33.5 148.5t92.5 96.5t134 34q125 0 185.5 -68t60.5 -184q0 -33 -3 -57h-377q7 -66 45 -99.5t93 -33.5q46 0 74.5 22.5t41.5 54.5l114 -31q-24 -72 -81.5 -117t-153.5 -45zM303 436q-47 0 -81 -27.5t-48 -82.5h249
q-4 50 -34.5 80t-85.5 30zM251 629l-90 147h153l42 -147h-105z" />
    <glyph glyph-name="eacute" unicode="&#xe9;" horiz-adv-x="590" 
d="M301 -16q-79 0 -137 34t-90 97t-32 148q0 86 33.5 148.5t92.5 96.5t134 34q125 0 185.5 -68t60.5 -184q0 -33 -3 -57h-377q7 -66 45 -99.5t93 -33.5q46 0 74.5 22.5t41.5 54.5l114 -31q-24 -72 -81.5 -117t-153.5 -45zM303 436q-47 0 -81 -27.5t-48 -82.5h249
q-4 50 -34.5 80t-85.5 30zM250 629l42 147h153l-90 -147h-105z" />
    <glyph glyph-name="ecircumflex" unicode="&#xea;" horiz-adv-x="590" 
d="M301 -16q-79 0 -137 34t-90 97t-32 148q0 86 33.5 148.5t92.5 96.5t134 34q125 0 185.5 -68t60.5 -184q0 -33 -3 -57h-377q7 -66 45 -99.5t93 -33.5q46 0 74.5 22.5t41.5 54.5l114 -31q-24 -72 -81.5 -117t-153.5 -45zM303 436q-47 0 -81 -27.5t-48 -82.5h249
q-4 50 -34.5 80t-85.5 30zM124 629v8l122 139h114l122 -139v-8h-123l-50 73h-12l-50 -73h-123z" />
    <glyph glyph-name="edieresis" unicode="&#xeb;" horiz-adv-x="590" 
d="M301 -16q-79 0 -137 34t-90 97t-32 148q0 86 33.5 148.5t92.5 96.5t134 34q125 0 185.5 -68t60.5 -184q0 -33 -3 -57h-377q7 -66 45 -99.5t93 -33.5q46 0 74.5 22.5t41.5 54.5l114 -31q-24 -72 -81.5 -117t-153.5 -45zM303 436q-47 0 -81 -27.5t-48 -82.5h249
q-4 50 -34.5 80t-85.5 30zM404 633q-29 0 -50 21t-21 51t21 50.5t50 20.5q31 0 51.5 -20.5t20.5 -50.5t-20.5 -51t-51.5 -21zM202 633q-30 0 -51 21t-21 51t21 50.5t51 20.5t50.5 -20.5t20.5 -50.5t-20.5 -51t-50.5 -21z" />
    <glyph glyph-name="igrave" unicode="&#xec;" horiz-adv-x="275" 
d="M72 0v526h131v-526h-131zM86 629l-90 147h153l42 -147h-105z" />
    <glyph glyph-name="iacute" unicode="&#xed;" horiz-adv-x="275" 
d="M72 0v526h131v-526h-131zM85 629l42 147h153l-90 -147h-105z" />
    <glyph glyph-name="icircumflex" unicode="&#xee;" horiz-adv-x="275" 
d="M72 0v526h131v-526h-131zM-41 629v8l122 139h114l122 -139v-8h-123l-50 73h-12l-50 -73h-123z" />
    <glyph glyph-name="idieresis" unicode="&#xef;" horiz-adv-x="275" 
d="M49 633q-30 0 -51 21t-21 51t21 50.5t51 20.5t50.5 -20.5t20.5 -50.5t-20.5 -51t-50.5 -21zM227 633q-29 0 -50 21t-21 51t21 50.5t50 20.5q31 0 51.5 -20.5t20.5 -50.5t-20.5 -51t-51.5 -21zM72 0v526h131v-526h-131z" />
    <glyph glyph-name="eth" unicode="&#xf0;" horiz-adv-x="589" 
d="M291 -16q-74 0 -130.5 35t-87.5 95t-31 133q0 75 28.5 134.5t81 93.5t124.5 34q37 0 65.5 -11.5t44.5 -25.5l7 5q-15 38 -35.5 63.5t-46.5 44.5l-118 -52l-34 80l55 24q-22 9 -45 14t-45 10l41 99q50 -12 94.5 -28t81.5 -39l102 45l34 -78l-51 -24q60 -66 90.5 -152.5
t30.5 -210.5q0 -86 -32 -151.5t-89.5 -101.5t-134.5 -36zM293 101q56 0 90 38t34 108t-34 107.5t-90 37.5q-55 0 -90 -37.5t-35 -107.5t35 -108t90 -38z" />
    <glyph glyph-name="ntilde" unicode="&#xf1;" horiz-adv-x="613" 
d="M73 0v526h123v-64h8q23 37 64 58.5t92 21.5q91 0 138 -54.5t47 -152.5v-335h-131v317q0 50 -24.5 76.5t-68.5 26.5q-54 0 -85.5 -40t-31.5 -99v-281h-131zM388 631q-28 0 -48.5 8t-35.5 18q-12 8 -21.5 12.5t-21.5 4.5q-10 0 -19 -8.5t-10 -26.5h-92q0 65 31.5 99
t82.5 34q29 0 49.5 -8t37.5 -19q11 -7 20 -11.5t20 -4.5q27 0 30 35h92q0 -64 -32 -98.5t-83 -34.5z" />
    <glyph glyph-name="ograve" unicode="&#xf2;" horiz-adv-x="614" 
d="M307 -16q-81 0 -140.5 35.5t-92 98.5t-32.5 145t32.5 145t92 98.5t140.5 35.5q82 0 141 -35.5t91.5 -98.5t32.5 -145t-32.5 -145t-91.5 -98.5t-141 -35.5zM307 106q59 0 96.5 40t37.5 117t-37.5 117t-96.5 40t-96.5 -40t-37.5 -117t37.5 -117t96.5 -40zM255 629l-90 147
h153l42 -147h-105z" />
    <glyph glyph-name="oacute" unicode="&#xf3;" horiz-adv-x="614" 
d="M307 -16q-81 0 -140.5 35.5t-92 98.5t-32.5 145t32.5 145t92 98.5t140.5 35.5q82 0 141 -35.5t91.5 -98.5t32.5 -145t-32.5 -145t-91.5 -98.5t-141 -35.5zM307 106q59 0 96.5 40t37.5 117t-37.5 117t-96.5 40t-96.5 -40t-37.5 -117t37.5 -117t96.5 -40zM254 629l42 147
h153l-90 -147h-105z" />
    <glyph glyph-name="ocircumflex" unicode="&#xf4;" horiz-adv-x="614" 
d="M307 -16q-81 0 -140.5 35.5t-92 98.5t-32.5 145t32.5 145t92 98.5t140.5 35.5q82 0 141 -35.5t91.5 -98.5t32.5 -145t-32.5 -145t-91.5 -98.5t-141 -35.5zM307 106q59 0 96.5 40t37.5 117t-37.5 117t-96.5 40t-96.5 -40t-37.5 -117t37.5 -117t96.5 -40zM128 629v8
l122 139h114l122 -139v-8h-123l-50 73h-12l-50 -73h-123z" />
    <glyph glyph-name="otilde" unicode="&#xf5;" horiz-adv-x="614" 
d="M307 -16q-81 0 -140.5 35.5t-92 98.5t-32.5 145t32.5 145t92 98.5t140.5 35.5q82 0 141 -35.5t91.5 -98.5t32.5 -145t-32.5 -145t-91.5 -98.5t-141 -35.5zM307 106q59 0 96.5 40t37.5 117t-37.5 117t-96.5 40t-96.5 -40t-37.5 -117t37.5 -117t96.5 -40zM374 631
q-28 0 -48.5 8t-35.5 18q-12 8 -21.5 12.5t-21.5 4.5q-10 0 -19 -8.5t-10 -26.5h-92q0 65 31.5 99t82.5 34q29 0 49.5 -8t37.5 -19q11 -7 20 -11.5t20 -4.5q27 0 30 35h92q0 -64 -32 -98.5t-83 -34.5z" />
    <glyph glyph-name="odieresis" unicode="&#xf6;" horiz-adv-x="614" 
d="M307 -16q-81 0 -140.5 35.5t-92 98.5t-32.5 145t32.5 145t92 98.5t140.5 35.5q82 0 141 -35.5t91.5 -98.5t32.5 -145t-32.5 -145t-91.5 -98.5t-141 -35.5zM307 106q59 0 96.5 40t37.5 117t-37.5 117t-96.5 40t-96.5 -40t-37.5 -117t37.5 -117t96.5 -40zM408 633
q-29 0 -50 21t-21 51t21 50.5t50 20.5q31 0 51.5 -20.5t20.5 -50.5t-20.5 -51t-51.5 -21zM206 633q-30 0 -51 21t-21 51t21 50.5t51 20.5t50.5 -20.5t20.5 -50.5t-20.5 -51t-50.5 -21z" />
    <glyph glyph-name="divide" unicode="&#xf7;" horiz-adv-x="581" 
d="M290 394q-34 0 -58 24t-24 58t24 58t58 24q35 0 58.5 -24t23.5 -58t-23.5 -58t-58.5 -24zM62 217v108h457v-108h-457zM290 -16q-34 0 -58 24t-24 58t24 58t58 24q35 0 58.5 -24t23.5 -58t-23.5 -58t-58.5 -24z" />
    <glyph glyph-name="oslash" unicode="&#xf8;" horiz-adv-x="614" 
d="M176 -46l-90 51l32 52q-36 37 -56 89.5t-20 116.5q0 82 32.5 145t92 98.5t140.5 35.5q55 0 102 -17l29 47l91 -50l-33 -53q37 -37 56.5 -89.5t19.5 -116.5q0 -82 -32.5 -145t-91.5 -98.5t-141 -35.5q-55 0 -102 17zM173 263q0 -52 18 -89l150 242q-16 4 -34 4
q-59 0 -96.5 -40t-37.5 -117zM307 106q59 0 96.5 40t37.5 117q0 52 -18 88l-150 -241q16 -4 34 -4z" />
    <glyph glyph-name="ugrave" unicode="&#xf9;" horiz-adv-x="613" 
d="M253 -16q-91 0 -138 55t-47 152v335h131v-317q0 -50 24.5 -76.5t68.5 -26.5q54 0 85.5 40t31.5 99v281h131v-526h-123v64h-8q-22 -37 -63.5 -58.5t-92.5 -21.5zM252 629l-90 147h153l42 -147h-105z" />
    <glyph glyph-name="uacute" unicode="&#xfa;" horiz-adv-x="613" 
d="M253 -16q-91 0 -138 55t-47 152v335h131v-317q0 -50 24.5 -76.5t68.5 -26.5q54 0 85.5 40t31.5 99v281h131v-526h-123v64h-8q-22 -37 -63.5 -58.5t-92.5 -21.5zM251 629l42 147h153l-90 -147h-105z" />
    <glyph glyph-name="ucircumflex" unicode="&#xfb;" horiz-adv-x="613" 
d="M253 -16q-91 0 -138 55t-47 152v335h131v-317q0 -50 24.5 -76.5t68.5 -26.5q54 0 85.5 40t31.5 99v281h131v-526h-123v64h-8q-22 -37 -63.5 -58.5t-92.5 -21.5zM125 629v8l122 139h114l122 -139v-8h-123l-50 73h-12l-50 -73h-123z" />
    <glyph glyph-name="udieresis" unicode="&#xfc;" horiz-adv-x="613" 
d="M253 -16q-91 0 -138 55t-47 152v335h131v-317q0 -50 24.5 -76.5t68.5 -26.5q54 0 85.5 40t31.5 99v281h131v-526h-123v64h-8q-22 -37 -63.5 -58.5t-92.5 -21.5zM405 633q-29 0 -50 21t-21 51t21 50.5t50 20.5q31 0 51.5 -20.5t20.5 -50.5t-20.5 -51t-51.5 -21zM203 633
q-30 0 -51 21t-21 51t21 50.5t51 20.5t50.5 -20.5t20.5 -50.5t-20.5 -51t-50.5 -21z" />
    <glyph glyph-name="yacute" unicode="&#xfd;" horiz-adv-x="595" 
d="M116 -226q-28 0 -52 5t-40 12v127q13 -7 37.5 -15.5t52.5 -8.5q32 0 53.5 16.5t43.5 63.5l19 43l-217 509h149l135 -333h8l131 333h145l-257 -605q-23 -54 -51 -86.5t-65.5 -46.5t-91.5 -14zM248 629l42 147h153l-90 -147h-105z" />
    <glyph glyph-name="thorn" unicode="&#xfe;" horiz-adv-x="636" 
d="M73 -216v992h131v-234l-8 -77h8q20 31 59.5 54t97.5 23q67 0 119.5 -32t83.5 -94t31 -153q0 -90 -31 -152.5t-83.5 -94.5t-119.5 -32q-60 0 -99.5 23.5t-57.5 54.5h-8l8 -78v-200h-131zM330 106q57 0 95.5 39t38.5 118q0 80 -38.5 118.5t-95.5 38.5t-95.5 -38.5
t-38.5 -118.5q0 -79 38.5 -118t95.5 -39z" />
    <glyph glyph-name="ydieresis" unicode="&#xff;" horiz-adv-x="595" 
d="M116 -226q-28 0 -52 5t-40 12v127q13 -7 37.5 -15.5t52.5 -8.5q32 0 53.5 16.5t43.5 63.5l19 43l-217 509h149l135 -333h8l131 333h145l-257 -605q-23 -54 -51 -86.5t-65.5 -46.5t-91.5 -14zM402 633q-29 0 -50 21t-21 51t21 50.5t50 20.5q31 0 51.5 -20.5t20.5 -50.5
t-20.5 -51t-51.5 -21zM200 633q-30 0 -51 21t-21 51t21 50.5t51 20.5t50.5 -20.5t20.5 -50.5t-20.5 -51t-50.5 -21z" />
    <glyph glyph-name="Amacron" unicode="&#x100;" horiz-adv-x="704" 
d="M14 0l260 716h155l261 -716h-149l-58 171h-262l-58 -171h-149zM323 474l-60 -179h178l-60 179l-25 86h-8zM204 841v100h296v-100h-296z" />
    <glyph glyph-name="amacron" unicode="&#x101;" horiz-adv-x="594" 
d="M234 -16q-84 0 -133 46t-49 123q0 53 27 90.5t73.5 57.5t103.5 20q37 0 71.5 -4.5t70.5 -12.5v42q0 41 -29 66t-82 25q-39 0 -68 -19.5t-40 -54.5l-114 24q12 53 45.5 87t80 51t98.5 17q119 0 178 -54t59 -158v-330h-128v52h-8q-23 -28 -63 -48t-93 -20zM267 86
q62 0 96.5 36.5t34.5 84.5q-28 9 -60 14.5t-63 5.5q-49 0 -71 -20.5t-22 -52.5q0 -30 24 -49t61 -19zM145 657v100h296v-100h-296z" />
    <glyph glyph-name="Abreve" unicode="&#x102;" horiz-adv-x="704" 
d="M14 0l260 716h155l261 -716h-149l-58 171h-262l-58 -171h-149zM323 474l-60 -179h178l-60 179l-25 86h-8zM352 814q-64 0 -104 40.5t-40 105.5h93q0 -25 12.5 -41.5t38.5 -16.5t39 16.5t13 41.5h92q0 -65 -39.5 -105.5t-104.5 -40.5z" />
    <glyph glyph-name="abreve" unicode="&#x103;" horiz-adv-x="594" 
d="M234 -16q-84 0 -133 46t-49 123q0 53 27 90.5t73.5 57.5t103.5 20q37 0 71.5 -4.5t70.5 -12.5v42q0 41 -29 66t-82 25q-39 0 -68 -19.5t-40 -54.5l-114 24q12 53 45.5 87t80 51t98.5 17q119 0 178 -54t59 -158v-330h-128v52h-8q-23 -28 -63 -48t-93 -20zM267 86
q62 0 96.5 36.5t34.5 84.5q-28 9 -60 14.5t-63 5.5q-49 0 -71 -20.5t-22 -52.5q0 -30 24 -49t61 -19zM293 630q-64 0 -104 40.5t-40 105.5h93q0 -25 12.5 -41.5t38.5 -16.5t39 16.5t13 41.5h92q0 -65 -39.5 -105.5t-104.5 -40.5z" />
    <glyph glyph-name="Aogonek" unicode="&#x104;" horiz-adv-x="704" 
d="M640 -234q-62 0 -98 34.5t-36 86.5q0 40 19.5 66.5t41.5 41.5l-2 5h-24l-58 171h-262l-58 -171h-149l260 716h155l261 -716q-31 -20 -52 -43.5t-21 -51.5q0 -21 12 -32.5t32 -11.5q11 0 20.5 3t22.5 10v-95q-29 -13 -64 -13zM263 295h178l-60 179l-25 86h-8l-25 -86z" />
    <glyph glyph-name="aogonek" unicode="&#x105;" horiz-adv-x="594" 
d="M476 -234q-62 0 -98 34.5t-36 86.5q0 42 20.5 69.5t39.5 38.5l-4 5v52h-8q-23 -28 -63 -48t-93 -20q-84 0 -133 46t-49 123q0 53 27 90.5t73.5 57.5t103.5 20q37 0 71.5 -4.5t70.5 -12.5v42q0 41 -29 66t-82 25q-39 0 -68 -19.5t-40 -54.5l-114 24q12 53 45.5 87t80 51
t98.5 17q119 0 178 -54t59 -158v-330q-31 -20 -52 -43.5t-21 -51.5q0 -21 12 -32.5t32 -11.5q11 0 20.5 3t22.5 10v-95q-29 -13 -64 -13zM267 86q62 0 96.5 36.5t34.5 84.5q-28 9 -60 14.5t-63 5.5q-49 0 -71 -20.5t-22 -52.5q0 -30 24 -49t61 -19z" />
    <glyph glyph-name="Cacute" unicode="&#x106;" horiz-adv-x="748" 
d="M386 -16q-97 0 -172 46.5t-117 130.5t-42 197q0 114 42.5 198t118 130t173.5 46q77 0 143 -27t109.5 -80t52.5 -133l-138 -23q-14 64 -57.5 100t-109.5 36q-55 0 -100.5 -28.5t-72 -83.5t-26.5 -135q0 -79 26 -134t71 -83.5t102 -28.5q64 0 109 35t58 98l141 -15
q-15 -72 -53.5 -127.5t-102 -87t-155.5 -31.5zM336 813l42 147h153l-90 -147h-105z" />
    <glyph glyph-name="cacute" unicode="&#x107;" horiz-adv-x="581" 
d="M300 -16q-76 0 -134 34.5t-91 97.5t-33 147q0 85 33.5 147.5t92.5 97t137 34.5q92 0 157 -45t81 -135l-128 -20q-10 39 -40 59t-73 20q-52 0 -90.5 -40.5t-38.5 -117.5t37.5 -117.5t91.5 -40.5q88 0 114 89l126 -29q-19 -79 -80 -130t-162 -51zM254 629l42 147h153
l-90 -147h-105z" />
    <glyph glyph-name="Ccircumflex" unicode="&#x108;" horiz-adv-x="748" 
d="M386 -16q-97 0 -172 46.5t-117 130.5t-42 197q0 114 42.5 198t118 130t173.5 46q77 0 143 -27t109.5 -80t52.5 -133l-138 -23q-14 64 -57.5 100t-109.5 36q-55 0 -100.5 -28.5t-72 -83.5t-26.5 -135q0 -79 26 -134t71 -83.5t102 -28.5q64 0 109 35t58 98l141 -15
q-15 -72 -53.5 -127.5t-102 -87t-155.5 -31.5zM210 813v8l122 139h114l122 -139v-8h-123l-50 73h-12l-50 -73h-123z" />
    <glyph glyph-name="ccircumflex" unicode="&#x109;" horiz-adv-x="581" 
d="M300 -16q-76 0 -134 34.5t-91 97.5t-33 147q0 85 33.5 147.5t92.5 97t137 34.5q92 0 157 -45t81 -135l-128 -20q-10 39 -40 59t-73 20q-52 0 -90.5 -40.5t-38.5 -117.5t37.5 -117.5t91.5 -40.5q88 0 114 89l126 -29q-19 -79 -80 -130t-162 -51zM128 629v8l122 139h114
l122 -139v-8h-123l-50 73h-12l-50 -73h-123z" />
    <glyph glyph-name="Cdotaccent" unicode="&#x10a;" horiz-adv-x="748" 
d="M386 -16q-97 0 -172 46.5t-117 130.5t-42 197q0 114 42.5 198t118 130t173.5 46q77 0 143 -27t109.5 -80t52.5 -133l-138 -23q-14 64 -57.5 100t-109.5 36q-55 0 -100.5 -28.5t-72 -83.5t-26.5 -135q0 -79 26 -134t71 -83.5t102 -28.5q64 0 109 35t58 98l141 -15
q-15 -72 -53.5 -127.5t-102 -87t-155.5 -31.5zM389 812q-31 0 -53 22t-22 53t22 53t53 22t53 -22t22 -53t-22 -53t-53 -22z" />
    <glyph glyph-name="cdotaccent" unicode="&#x10b;" horiz-adv-x="581" 
d="M300 -16q-76 0 -134 34.5t-91 97.5t-33 147q0 85 33.5 147.5t92.5 97t137 34.5q92 0 157 -45t81 -135l-128 -20q-10 39 -40 59t-73 20q-52 0 -90.5 -40.5t-38.5 -117.5t37.5 -117.5t91.5 -40.5q88 0 114 89l126 -29q-19 -79 -80 -130t-162 -51zM307 616q-35 0 -60 25
t-25 60t25 60t60 25t60 -25t25 -60t-25 -60t-60 -25z" />
    <glyph glyph-name="Ccaron" unicode="&#x10c;" horiz-adv-x="748" 
d="M386 -16q-97 0 -172 46.5t-117 130.5t-42 197q0 114 42.5 198t118 130t173.5 46q77 0 143 -27t109.5 -80t52.5 -133l-138 -23q-14 64 -57.5 100t-109.5 36q-55 0 -100.5 -28.5t-72 -83.5t-26.5 -135q0 -79 26 -134t71 -83.5t102 -28.5q64 0 109 35t58 98l141 -15
q-15 -72 -53.5 -127.5t-102 -87t-155.5 -31.5zM332 813l-122 139v8h123l50 -73h12l50 73h123v-8l-122 -139h-114z" />
    <glyph glyph-name="ccaron" unicode="&#x10d;" horiz-adv-x="581" 
d="M300 -16q-76 0 -134 34.5t-91 97.5t-33 147q0 85 33.5 147.5t92.5 97t137 34.5q92 0 157 -45t81 -135l-128 -20q-10 39 -40 59t-73 20q-52 0 -90.5 -40.5t-38.5 -117.5t37.5 -117.5t91.5 -40.5q88 0 114 89l126 -29q-19 -79 -80 -130t-162 -51zM250 629l-122 139v8h123
l50 -73h12l50 73h123v-8l-122 -139h-114z" />
    <glyph glyph-name="Dcaron" unicode="&#x10e;" horiz-adv-x="739" 
d="M88 0v716h238q175 0 266.5 -93t91.5 -265t-91.5 -265t-266.5 -93h-238zM222 128h98q111 0 170 55t59 175t-59 175t-170 55h-98v-460zM294 813l-122 139v8h123l50 -73h12l50 73h123v-8l-122 -139h-114z" />
    <glyph glyph-name="dcaron" unicode="&#x10f;" horiz-adv-x="747" 
d="M275 -16q-65 0 -118 32t-84 94.5t-31 152.5q0 91 32 153t85.5 94t116.5 32q59 0 98.5 -21.5t58.5 -56.5h8l-8 78v234h131v-776h-123v61h-8q-21 -31 -60 -54t-98 -23zM307 106q57 0 95.5 39t38.5 118t-38.5 118t-95.5 39t-95.5 -39t-38.5 -118t38.5 -118t95.5 -39z
M619 561v215h138l-41 -215h-97z" />
    <glyph glyph-name="Dcroat" unicode="&#x110;" horiz-adv-x="769" 
d="M118 0v316h-77v110h77v290h238q175 0 266.5 -93t91.5 -265t-91.5 -265t-266.5 -93h-238zM252 128h98q111 0 170 55t59 175t-59 175t-170 55h-98v-162h184v-110h-184v-188z" />
    <glyph glyph-name="dcroat" unicode="&#x111;" horiz-adv-x="636" 
d="M275 -16q-65 0 -118 32t-84 94.5t-31 152.5q0 91 32 153t85.5 94t116.5 32q59 0 98.5 -21.5t58.5 -56.5h8l-8 78v69h-131v91h131v74h131v-74h67v-91h-67v-611h-123v61h-8q-21 -31 -60 -54t-98 -23zM307 106q57 0 95.5 39t38.5 118t-38.5 118t-95.5 39t-95.5 -39
t-38.5 -118t38.5 -118t95.5 -39z" />
    <glyph glyph-name="Emacron" unicode="&#x112;" horiz-adv-x="618" 
d="M88 0v716h468v-128h-334v-152h303v-128h-303v-180h334v-128h-468zM174 841v100h296v-100h-296z" />
    <glyph glyph-name="emacron" unicode="&#x113;" horiz-adv-x="590" 
d="M301 -16q-79 0 -137 34t-90 97t-32 148q0 86 33.5 148.5t92.5 96.5t134 34q125 0 185.5 -68t60.5 -184q0 -33 -3 -57h-377q7 -66 45 -99.5t93 -33.5q46 0 74.5 22.5t41.5 54.5l114 -31q-24 -72 -81.5 -117t-153.5 -45zM303 436q-47 0 -81 -27.5t-48 -82.5h249
q-4 50 -34.5 80t-85.5 30zM155 657v100h296v-100h-296z" />
    <glyph glyph-name="Ebreve" unicode="&#x114;" horiz-adv-x="618" 
d="M88 0v716h468v-128h-334v-152h303v-128h-303v-180h334v-128h-468zM322 814q-64 0 -104 40.5t-40 105.5h93q0 -25 12.5 -41.5t38.5 -16.5t39 16.5t13 41.5h92q0 -65 -39.5 -105.5t-104.5 -40.5z" />
    <glyph glyph-name="ebreve" unicode="&#x115;" horiz-adv-x="590" 
d="M301 -16q-79 0 -137 34t-90 97t-32 148q0 86 33.5 148.5t92.5 96.5t134 34q125 0 185.5 -68t60.5 -184q0 -33 -3 -57h-377q7 -66 45 -99.5t93 -33.5q46 0 74.5 22.5t41.5 54.5l114 -31q-24 -72 -81.5 -117t-153.5 -45zM303 436q-47 0 -81 -27.5t-48 -82.5h249
q-4 50 -34.5 80t-85.5 30zM303 630q-64 0 -104 40.5t-40 105.5h93q0 -25 12.5 -41.5t38.5 -16.5t39 16.5t13 41.5h92q0 -65 -39.5 -105.5t-104.5 -40.5z" />
    <glyph glyph-name="Edotaccent" unicode="&#x116;" horiz-adv-x="618" 
d="M88 0v716h468v-128h-334v-152h303v-128h-303v-180h334v-128h-468zM322 812q-31 0 -53 22t-22 53t22 53t53 22t53 -22t22 -53t-22 -53t-53 -22z" />
    <glyph glyph-name="edotaccent" unicode="&#x117;" horiz-adv-x="590" 
d="M301 -16q-79 0 -137 34t-90 97t-32 148q0 86 33.5 148.5t92.5 96.5t134 34q125 0 185.5 -68t60.5 -184q0 -33 -3 -57h-377q7 -66 45 -99.5t93 -33.5q46 0 74.5 22.5t41.5 54.5l114 -31q-24 -72 -81.5 -117t-153.5 -45zM303 436q-47 0 -81 -27.5t-48 -82.5h249
q-4 50 -34.5 80t-85.5 30zM303 616q-35 0 -60 25t-25 60t25 60t60 25t60 -25t25 -60t-25 -60t-60 -25z" />
    <glyph glyph-name="Eogonek" unicode="&#x118;" horiz-adv-x="618" 
d="M88 0v716h468v-128h-334v-152h303v-128h-303v-180h334v-128h-468zM506 -234q-62 0 -98 34.5t-36 86.5q0 42 21.5 70t45.5 43h117q-31 -20 -52 -43.5t-21 -51.5q0 -21 12 -32.5t32 -11.5q11 0 20.5 3t22.5 10v-95q-29 -13 -64 -13z" />
    <glyph glyph-name="eogonek" unicode="&#x119;" horiz-adv-x="590" 
d="M348 -234q-62 0 -98 34.5t-36 86.5q0 34 14.5 58.5t33.5 40.5q-101 13 -160.5 86t-59.5 191q0 86 33.5 148.5t92.5 96.5t134 34q125 0 185.5 -68t60.5 -184q0 -33 -3 -57h-377q7 -66 45 -99.5t93 -33.5q46 0 74.5 22.5t41.5 54.5l114 -31q-17 -52 -47.5 -85.5
t-74.5 -55.5q-89 -43 -89 -100q0 -21 12 -32.5t32 -11.5q11 0 20.5 3t22.5 10v-95q-29 -13 -64 -13zM174 326h249q-4 50 -34.5 80t-85.5 30q-46 0 -80.5 -27.5t-48.5 -82.5z" />
    <glyph glyph-name="Ecaron" unicode="&#x11a;" horiz-adv-x="618" 
d="M88 0v716h468v-128h-334v-152h303v-128h-303v-180h334v-128h-468zM265 813l-122 139v8h123l50 -73h12l50 73h123v-8l-122 -139h-114z" />
    <glyph glyph-name="ecaron" unicode="&#x11b;" horiz-adv-x="590" 
d="M301 -16q-79 0 -137 34t-90 97t-32 148q0 86 33.5 148.5t92.5 96.5t134 34q125 0 185.5 -68t60.5 -184q0 -33 -3 -57h-377q7 -66 45 -99.5t93 -33.5q46 0 74.5 22.5t41.5 54.5l114 -31q-24 -72 -81.5 -117t-153.5 -45zM303 436q-47 0 -81 -27.5t-48 -82.5h249
q-4 50 -34.5 80t-85.5 30zM246 629l-122 139v8h123l50 -73h12l50 73h123v-8l-122 -139h-114z" />
    <glyph glyph-name="Gcircumflex" unicode="&#x11c;" horiz-adv-x="782" 
d="M377 -16q-92 0 -165 46.5t-115 130.5t-42 197t44 197t121 130.5t175 46.5q119 0 202 -53.5t103 -154.5l-131 -35q-18 56 -61 85.5t-114 29.5q-56 0 -102.5 -28t-74 -83t-27.5 -135t26.5 -135t72.5 -83t102 -28q80 0 130.5 44t60.5 115h-190v114h322v-385h-124v88h-8
q-33 -52 -83 -78t-122 -26zM219 813v8l122 139h114l122 -139v-8h-123l-50 73h-12l-50 -73h-123z" />
    <glyph glyph-name="gcircumflex" unicode="&#x11d;" horiz-adv-x="612" 
d="M293 -232q-106 0 -168.5 48t-78.5 122l131 27q11 -36 39.5 -58.5t76.5 -22.5q62 0 96 39t34 111v40h-8q-28 -35 -63.5 -52.5t-91.5 -17.5q-60 0 -111 32.5t-82 92.5t-31 144t31 144.5t82 92.5t111 32q106 0 155 -70h8v54h125v-488q0 -125 -67 -197.5t-188 -72.5zM295 124
q53 0 90.5 38t37.5 111q0 74 -37.5 111.5t-90.5 37.5q-52 0 -90 -37.5t-38 -111.5q0 -73 38 -111t90 -38zM119 629v8l122 139h114l122 -139v-8h-123l-50 73h-12l-50 -73h-123z" />
    <glyph glyph-name="Gbreve" unicode="&#x11e;" horiz-adv-x="782" 
d="M377 -16q-92 0 -165 46.5t-115 130.5t-42 197t44 197t121 130.5t175 46.5q119 0 202 -53.5t103 -154.5l-131 -35q-18 56 -61 85.5t-114 29.5q-56 0 -102.5 -28t-74 -83t-27.5 -135t26.5 -135t72.5 -83t102 -28q80 0 130.5 44t60.5 115h-190v114h322v-385h-124v88h-8
q-33 -52 -83 -78t-122 -26zM398 814q-64 0 -104 40.5t-40 105.5h93q0 -25 12.5 -41.5t38.5 -16.5t39 16.5t13 41.5h92q0 -65 -39.5 -105.5t-104.5 -40.5z" />
    <glyph glyph-name="gbreve" unicode="&#x11f;" horiz-adv-x="612" 
d="M293 -232q-106 0 -168.5 48t-78.5 122l131 27q11 -36 39.5 -58.5t76.5 -22.5q62 0 96 39t34 111v40h-8q-28 -35 -63.5 -52.5t-91.5 -17.5q-60 0 -111 32.5t-82 92.5t-31 144t31 144.5t82 92.5t111 32q106 0 155 -70h8v54h125v-488q0 -125 -67 -197.5t-188 -72.5zM295 124
q53 0 90.5 38t37.5 111q0 74 -37.5 111.5t-90.5 37.5q-52 0 -90 -37.5t-38 -111.5q0 -73 38 -111t90 -38zM298 630q-64 0 -104 40.5t-40 105.5h93q0 -25 12.5 -41.5t38.5 -16.5t39 16.5t13 41.5h92q0 -65 -39.5 -105.5t-104.5 -40.5z" />
    <glyph glyph-name="Gdotaccent" unicode="&#x120;" horiz-adv-x="782" 
d="M377 -16q-92 0 -165 46.5t-115 130.5t-42 197t44 197t121 130.5t175 46.5q119 0 202 -53.5t103 -154.5l-131 -35q-18 56 -61 85.5t-114 29.5q-56 0 -102.5 -28t-74 -83t-27.5 -135t26.5 -135t72.5 -83t102 -28q80 0 130.5 44t60.5 115h-190v114h322v-385h-124v88h-8
q-33 -52 -83 -78t-122 -26zM398 812q-31 0 -53 22t-22 53t22 53t53 22t53 -22t22 -53t-22 -53t-53 -22z" />
    <glyph glyph-name="gdotaccent" unicode="&#x121;" horiz-adv-x="612" 
d="M293 -232q-106 0 -168.5 48t-78.5 122l131 27q11 -36 39.5 -58.5t76.5 -22.5q62 0 96 39t34 111v40h-8q-28 -35 -63.5 -52.5t-91.5 -17.5q-60 0 -111 32.5t-82 92.5t-31 144t31 144.5t82 92.5t111 32q106 0 155 -70h8v54h125v-488q0 -125 -67 -197.5t-188 -72.5zM295 124
q53 0 90.5 38t37.5 111q0 74 -37.5 111.5t-90.5 37.5q-52 0 -90 -37.5t-38 -111.5q0 -73 38 -111t90 -38zM298 616q-35 0 -60 25t-25 60t25 60t60 25t60 -25t25 -60t-25 -60t-60 -25z" />
    <glyph glyph-name="uni0122" unicode="&#x122;" horiz-adv-x="782" 
d="M377 -16q-92 0 -165 46.5t-115 130.5t-42 197t44 197t121 130.5t175 46.5q119 0 202 -53.5t103 -154.5l-131 -35q-18 56 -61 85.5t-114 29.5q-56 0 -102.5 -28t-74 -83t-27.5 -135t26.5 -135t72.5 -83t102 -28q80 0 130.5 44t60.5 115h-190v114h322v-385h-124v88h-8
q-33 -52 -83 -78t-122 -26zM252 -292l58 220h157l-104 -220h-111z" />
    <glyph glyph-name="uni0123" unicode="&#x123;" horiz-adv-x="612" 
d="M293 -232q-106 0 -168.5 48t-78.5 122l131 27q11 -36 39.5 -58.5t76.5 -22.5q62 0 96 39t34 111v40h-8q-28 -35 -63.5 -52.5t-91.5 -17.5q-60 0 -111 32.5t-82 92.5t-31 144t31 144.5t82 92.5t111 32q106 0 155 -70h8v54h125v-488q0 -125 -67 -197.5t-188 -72.5zM295 124
q53 0 90.5 38t37.5 111q0 74 -37.5 111.5t-90.5 37.5q-52 0 -90 -37.5t-38 -111.5q0 -73 38 -111t90 -38zM435 852l-58 -220h-157l104 220h111z" />
    <glyph glyph-name="Hcircumflex" unicode="&#x124;" horiz-adv-x="742" 
d="M88 0v716h134v-286h298v286h134v-716h-134v302h-298v-302h-134zM191 813v8l122 139h114l122 -139v-8h-123l-50 73h-12l-50 -73h-123z" />
    <glyph glyph-name="hcircumflex" unicode="&#x125;" horiz-adv-x="623" 
d="M73 0v776h131v-234l-8 -86h8q20 39 63.5 62.5t94.5 23.5q95 0 144 -55t49 -150v-337h-131v316q0 51 -25.5 77.5t-72.5 26.5q-55 0 -88.5 -41t-33.5 -105v-274h-131zM-40 837v8l122 139h114l122 -139v-8h-123l-50 73h-12l-50 -73h-123z" />
    <glyph glyph-name="Hbar" unicode="&#x126;" horiz-adv-x="735" 
d="M85 0v509h-74v98h74v109h134v-109h298v109h134v-109h73v-98h-73v-509h-134v302h-298v-302h-134zM219 430h298v79h-298v-79z" />
    <glyph glyph-name="hbar" unicode="&#x127;" horiz-adv-x="623" 
d="M73 0v611h-67v91h67v74h131v-74h131v-91h-131v-69l-8 -86h8q20 39 63.5 62.5t94.5 23.5q95 0 144 -55t49 -150v-337h-131v316q0 51 -25.5 77.5t-72.5 26.5q-55 0 -88.5 -41t-33.5 -105v-274h-131z" />
    <glyph glyph-name="Itilde" unicode="&#x128;" horiz-adv-x="310" 
d="M88 0v716h134v-716h-134zM220 815q-28 0 -48.5 8t-35.5 18q-12 8 -21.5 12.5t-21.5 4.5q-10 0 -19 -8.5t-10 -26.5h-92q0 65 31.5 99t82.5 34q29 0 49.5 -8t37.5 -19q11 -7 20 -11.5t20 -4.5q27 0 30 35h92q0 -64 -32 -98.5t-83 -34.5z" />
    <glyph glyph-name="itilde" unicode="&#x129;" horiz-adv-x="275" 
d="M72 0v526h131v-526h-131zM205 631q-28 0 -48.5 8t-35.5 18q-12 8 -21.5 12.5t-21.5 4.5q-10 0 -19 -8.5t-10 -26.5h-92q0 65 31.5 99t82.5 34q29 0 49.5 -8t37.5 -19q11 -7 20 -11.5t20 -4.5q27 0 30 35h92q0 -64 -32 -98.5t-83 -34.5z" />
    <glyph glyph-name="Imacron" unicode="&#x12a;" horiz-adv-x="310" 
d="M12 841v100h284v-100h-284zM88 0v716h134v-716h-134z" />
    <glyph glyph-name="imacron" unicode="&#x12b;" horiz-adv-x="275" 
d="M72 0v526h131v-526h-131zM-10 657v100h296v-100h-296z" />
    <glyph glyph-name="Ibreve" unicode="&#x12c;" horiz-adv-x="310" 
d="M88 0v716h134v-716h-134zM154 814q-64 0 -104 40.5t-40 105.5h93q0 -25 12.5 -41.5t38.5 -16.5t39 16.5t13 41.5h92q0 -65 -39.5 -105.5t-104.5 -40.5z" />
    <glyph glyph-name="ibreve" unicode="&#x12d;" horiz-adv-x="275" 
d="M72 0v526h131v-526h-131zM138 630q-64 0 -104 40.5t-40 105.5h93q0 -25 12.5 -41.5t38.5 -16.5t39 16.5t13 41.5h92q0 -65 -39.5 -105.5t-104.5 -40.5z" />
    <glyph glyph-name="Iogonek" unicode="&#x12e;" horiz-adv-x="310" 
d="M172 -234q-62 0 -98 34.5t-36 86.5q0 39 19 66t41 43l-2 4h-8v716h134v-716q-31 -20 -52 -43.5t-21 -51.5q0 -21 12 -32.5t32 -11.5q11 0 20.5 3t22.5 10v-95q-29 -13 -64 -13z" />
    <glyph glyph-name="iogonek" unicode="&#x12f;" horiz-adv-x="275" 
d="M138 616q-35 0 -60 25t-25 60t25 60t60 25t60 -25t25 -60t-25 -60t-60 -25zM153 -234q-62 0 -98 34.5t-36 86.5q0 42 20.5 69.5t37.5 37.5l-5 6v526h131v-526q-31 -20 -52 -43.5t-21 -51.5q0 -21 12 -32.5t32 -11.5q11 0 20.5 3t22.5 10v-95q-29 -13 -64 -13z" />
    <glyph glyph-name="Idotaccent" unicode="&#x130;" horiz-adv-x="310" 
d="M88 0v716h134v-716h-134zM154 812q-31 0 -53 22t-22 53t22 53t53 22t53 -22t22 -53t-22 -53t-53 -22z" />
    <glyph glyph-name="dotlessi" unicode="&#x131;" horiz-adv-x="275" 
d="M72 0v526h131v-526h-131z" />
    <glyph glyph-name="Jcircumflex" unicode="&#x134;" horiz-adv-x="575" 
d="M271 -16q-97 0 -162.5 56t-79.5 162l130 27q8 -56 37 -86.5t75 -30.5q48 0 75 30.5t27 86.5v487h134v-490q0 -82 -31 -135.5t-84 -80t-121 -26.5zM261 813v8l122 139h114l122 -139v-8h-123l-50 73h-12l-50 -73h-123z" />
    <glyph glyph-name="jcircumflex" unicode="&#x135;" horiz-adv-x="276" 
d="M45 -226q-19 0 -34.5 1.5t-34.5 5.5v126q11 -5 22.5 -9t26.5 -4q45 0 45 56v576h131v-576q0 -63 -21 -102t-56 -56.5t-79 -17.5zM-43 629v8l122 139h114l122 -139v-8h-123l-50 73h-12l-50 -73h-123z" />
    <glyph glyph-name="uni0136" unicode="&#x136;" horiz-adv-x="675" 
d="M88 0v716h134v-303h8l250 303h163v-8l-249 -296l274 -404v-8h-163l-204 302l-79 -94v-208h-134zM212 -292l58 220h157l-104 -220h-111z" />
    <glyph glyph-name="uni0137" unicode="&#x137;" horiz-adv-x="571" 
d="M73 0v776h131v-436h7l177 186h158v-8l-190 -194l201 -316v-8h-152l-143 227l-58 -59v-168h-131zM155 -292l58 220h157l-104 -220h-111z" />
    <glyph glyph-name="kgreenlandic" unicode="&#x138;" horiz-adv-x="571" 
d="M73 0v526h131v-186h7l177 186h158v-8l-190 -194l201 -316v-8h-152l-143 227l-58 -59v-168h-131z" />
    <glyph glyph-name="Lacute" unicode="&#x139;" horiz-adv-x="595" 
d="M88 0v716h134v-588h334v-128h-468zM102 813l42 147h153l-90 -147h-105z" />
    <glyph glyph-name="lacute" unicode="&#x13a;" horiz-adv-x="279" 
d="M74 0v776h131v-776h-131zM87 879l42 147h153l-90 -147h-105z" />
    <glyph glyph-name="uni013B" unicode="&#x13b;" horiz-adv-x="595" 
d="M88 0v716h134v-588h334v-128h-468zM180 -292l58 220h157l-104 -220h-111z" />
    <glyph glyph-name="uni013C" unicode="&#x13c;" horiz-adv-x="279" 
d="M74 0v776h131v-776h-131zM3 -292l58 220h157l-104 -220h-111z" />
    <glyph glyph-name="Lcaron" unicode="&#x13d;" horiz-adv-x="595" 
d="M88 0v716h134v-588h334v-128h-468zM379 501v215h138l-41 -215h-97z" />
    <glyph glyph-name="lcaron" unicode="&#x13e;" horiz-adv-x="388" 
d="M74 0v776h131v-776h-131zM260 561v215h138l-41 -215h-97z" />
    <glyph glyph-name="Ldot" unicode="&#x13f;" horiz-adv-x="595" 
d="M88 0v716h134v-588h334v-128h-468zM477 258q-36 0 -61.5 25.5t-25.5 61.5t25.5 61t61.5 25t61.5 -25t25.5 -61t-25.5 -61.5t-61.5 -25.5z" />
    <glyph glyph-name="Lslash" unicode="&#x141;" horiz-adv-x="685" 
d="M178 0v232l-69 -44l-59 93l128 81v354h134v-270l117 74l57 -92l-174 -111v-189h334v-128h-468z" />
    <glyph glyph-name="lslash" unicode="&#x142;" horiz-adv-x="448" 
d="M159 0v280l-54 -39l-65 86l119 86v363h131v-269l53 38l65 -87l-118 -85v-373h-131z" />
    <glyph glyph-name="Nacute" unicode="&#x143;" horiz-adv-x="748" 
d="M88 0v716h157l282 -482h8l-8 138v344h133v-716h-143l-297 508h-8l8 -138v-370h-132zM321 813l42 147h153l-90 -147h-105z" />
    <glyph glyph-name="nacute" unicode="&#x144;" horiz-adv-x="613" 
d="M73 0v526h123v-64h8q23 37 64 58.5t92 21.5q91 0 138 -54.5t47 -152.5v-335h-131v317q0 50 -24.5 76.5t-68.5 26.5q-54 0 -85.5 -40t-31.5 -99v-281h-131zM268 629l42 147h153l-90 -147h-105z" />
    <glyph glyph-name="uni0145" unicode="&#x145;" horiz-adv-x="748" 
d="M88 0v716h157l282 -482h8l-8 138v344h133v-716h-143l-297 508h-8l8 -138v-370h-132zM235 -292l58 220h157l-104 -220h-111z" />
    <glyph glyph-name="uni0146" unicode="&#x146;" horiz-adv-x="613" 
d="M73 0v526h123v-64h8q23 37 64 58.5t92 21.5q91 0 138 -54.5t47 -152.5v-335h-131v317q0 50 -24.5 76.5t-68.5 26.5q-54 0 -85.5 -40t-31.5 -99v-281h-131zM170 -292l58 220h157l-104 -220h-111z" />
    <glyph glyph-name="Ncaron" unicode="&#x147;" horiz-adv-x="748" 
d="M88 0v716h157l282 -482h8l-8 138v344h133v-716h-143l-297 508h-8l8 -138v-370h-132zM317 813l-122 139v8h123l50 -73h12l50 73h123v-8l-122 -139h-114z" />
    <glyph glyph-name="ncaron" unicode="&#x148;" horiz-adv-x="613" 
d="M73 0v526h123v-64h8q23 37 64 58.5t92 21.5q91 0 138 -54.5t47 -152.5v-335h-131v317q0 50 -24.5 76.5t-68.5 26.5q-54 0 -85.5 -40t-31.5 -99v-281h-131zM264 629l-122 139v8h123l50 -73h12l50 73h123v-8l-122 -139h-114z" />
    <glyph glyph-name="Eng" unicode="&#x14a;" horiz-adv-x="748" 
d="M489 -232q-27 0 -44 3t-36 8v126q15 -7 30.5 -12t34.5 -5q52 0 52 59v53l-306 508h-8l8 -138v-370h-132v716h155l284 -468h8l-8 138v330h133v-772q0 -64 -24 -102.5t-62.5 -56t-84.5 -17.5z" />
    <glyph glyph-name="eng" unicode="&#x14b;" horiz-adv-x="613" 
d="M389 -226q-19 0 -34.5 1.5t-34.5 5.5v126q11 -5 22.5 -9t26.5 -4q45 0 45 56v367q0 50 -24.5 76.5t-68.5 26.5q-54 0 -85.5 -40t-31.5 -99v-281h-131v526h123v-64h8q23 37 64 58.5t92 21.5q91 0 138 -54.5t47 -152.5v-385q0 -63 -21 -102t-56 -56.5t-79 -17.5z" />
    <glyph glyph-name="Omacron" unicode="&#x14c;" horiz-adv-x="806" 
d="M403 -16q-106 0 -184 48.5t-121 133t-43 192.5q0 109 43 193t121 132.5t184 48.5t184 -48.5t121 -132.5t43 -193q0 -108 -43 -192.5t-121 -133t-184 -48.5zM403 112q95 0 153.5 64t58.5 182t-58.5 182t-153.5 64t-153.5 -64t-58.5 -182t58.5 -182t153.5 -64zM255 841v100
h296v-100h-296z" />
    <glyph glyph-name="omacron" unicode="&#x14d;" horiz-adv-x="614" 
d="M307 -16q-81 0 -140.5 35.5t-92 98.5t-32.5 145t32.5 145t92 98.5t140.5 35.5q82 0 141 -35.5t91.5 -98.5t32.5 -145t-32.5 -145t-91.5 -98.5t-141 -35.5zM307 106q59 0 96.5 40t37.5 117t-37.5 117t-96.5 40t-96.5 -40t-37.5 -117t37.5 -117t96.5 -40zM159 657v100h296
v-100h-296z" />
    <glyph glyph-name="Obreve" unicode="&#x14e;" horiz-adv-x="806" 
d="M403 -16q-106 0 -184 48.5t-121 133t-43 192.5q0 109 43 193t121 132.5t184 48.5t184 -48.5t121 -132.5t43 -193q0 -108 -43 -192.5t-121 -133t-184 -48.5zM403 112q95 0 153.5 64t58.5 182t-58.5 182t-153.5 64t-153.5 -64t-58.5 -182t58.5 -182t153.5 -64zM403 814
q-64 0 -104 40.5t-40 105.5h93q0 -25 12.5 -41.5t38.5 -16.5t39 16.5t13 41.5h92q0 -65 -39.5 -105.5t-104.5 -40.5z" />
    <glyph glyph-name="obreve" unicode="&#x14f;" horiz-adv-x="614" 
d="M307 -16q-81 0 -140.5 35.5t-92 98.5t-32.5 145t32.5 145t92 98.5t140.5 35.5q82 0 141 -35.5t91.5 -98.5t32.5 -145t-32.5 -145t-91.5 -98.5t-141 -35.5zM307 106q59 0 96.5 40t37.5 117t-37.5 117t-96.5 40t-96.5 -40t-37.5 -117t37.5 -117t96.5 -40zM307 630
q-64 0 -104 40.5t-40 105.5h93q0 -25 12.5 -41.5t38.5 -16.5t39 16.5t13 41.5h92q0 -65 -39.5 -105.5t-104.5 -40.5z" />
    <glyph glyph-name="Ohungarumlaut" unicode="&#x150;" horiz-adv-x="806" 
d="M403 -16q-106 0 -184 48.5t-121 133t-43 192.5q0 109 43 193t121 132.5t184 48.5t184 -48.5t121 -132.5t43 -193q0 -108 -43 -192.5t-121 -133t-184 -48.5zM403 112q95 0 153.5 64t58.5 182t-58.5 182t-153.5 64t-153.5 -64t-58.5 -182t58.5 -182t153.5 -64zM252 813
l42 147h153l-90 -147h-105zM450 813l42 147h153l-90 -147h-105z" />
    <glyph glyph-name="ohungarumlaut" unicode="&#x151;" horiz-adv-x="614" 
d="M307 -16q-81 0 -140.5 35.5t-92 98.5t-32.5 145t32.5 145t92 98.5t140.5 35.5q82 0 141 -35.5t91.5 -98.5t32.5 -145t-32.5 -145t-91.5 -98.5t-141 -35.5zM307 106q59 0 96.5 40t37.5 117t-37.5 117t-96.5 40t-96.5 -40t-37.5 -117t37.5 -117t96.5 -40zM156 629l42 147
h153l-90 -147h-105zM354 629l42 147h153l-90 -147h-105z" />
    <glyph glyph-name="OE" unicode="&#x152;" horiz-adv-x="1139" 
d="M397 -16q-103 0 -180 48.5t-119.5 133t-42.5 192.5q0 109 42.5 193t119.5 132.5t180 48.5q66 0 117 -19.5t88 -62.5h7v66h468v-128h-334v-152h303v-128h-303v-180h334v-128h-468v62h-7q-70 -78 -205 -78zM403 112q95 0 153.5 64t58.5 182t-58.5 182t-153.5 64t-153.5 -64
t-58.5 -182t58.5 -182t153.5 -64z" />
    <glyph glyph-name="oe" unicode="&#x153;" horiz-adv-x="995" 
d="M307 -16q-81 0 -140.5 35.5t-92 98.5t-32.5 145t32.5 145t92 98.5t140.5 35.5q131 0 202 -94q35 47 86 70.5t112 23.5q125 0 185.5 -68t60.5 -184q0 -33 -3 -57h-377q7 -66 45 -99.5t93 -33.5q46 0 74.5 22.5t41.5 54.5l114 -31q-24 -72 -81.5 -117t-153.5 -45
q-130 0 -198 92q-71 -92 -201 -92zM579 326h249q-4 50 -34.5 80t-85.5 30q-46 0 -80.5 -27.5t-48.5 -82.5zM307 106q59 0 96.5 40t37.5 117t-37.5 117t-96.5 40t-96.5 -40t-37.5 -117t37.5 -117t96.5 -40z" />
    <glyph glyph-name="Racute" unicode="&#x154;" horiz-adv-x="665" 
d="M88 0v716h300q107 0 171.5 -59.5t64.5 -166.5q0 -74 -42.5 -126.5t-107.5 -73.5l-1 -7l166 -275v-8h-149l-161 269h-107v-269h-134zM222 393h165q46 0 74 25.5t28 73.5t-26 73.5t-75 25.5h-166v-198zM282 813l42 147h153l-90 -147h-105z" />
    <glyph glyph-name="racute" unicode="&#x155;" horiz-adv-x="422" 
d="M73 0v526h123v-68h8q17 36 50 60t81 24q19 0 31 -2t21 -4v-130q-14 6 -32 10t-41 4q-48 0 -79 -35.5t-31 -97.5v-287h-131zM186 629l42 147h153l-90 -147h-105z" />
    <glyph glyph-name="uni0156" unicode="&#x156;" horiz-adv-x="665" 
d="M88 0v716h300q107 0 171.5 -59.5t64.5 -166.5q0 -74 -42.5 -126.5t-107.5 -73.5l-1 -7l166 -275v-8h-149l-161 269h-107v-269h-134zM222 393h165q46 0 74 25.5t28 73.5t-26 73.5t-75 25.5h-166v-198zM209 -292l58 220h157l-104 -220h-111z" />
    <glyph glyph-name="uni0157" unicode="&#x157;" horiz-adv-x="422" 
d="M73 0v526h123v-68h8q17 36 50 60t81 24q19 0 31 -2t21 -4v-130q-14 6 -32 10t-41 4q-48 0 -79 -35.5t-31 -97.5v-287h-131zM0 -292l58 220h157l-104 -220h-111z" />
    <glyph glyph-name="Rcaron" unicode="&#x158;" horiz-adv-x="665" 
d="M88 0v716h300q107 0 171.5 -59.5t64.5 -166.5q0 -74 -42.5 -126.5t-107.5 -73.5l-1 -7l166 -275v-8h-149l-161 269h-107v-269h-134zM222 393h165q46 0 74 25.5t28 73.5t-26 73.5t-75 25.5h-166v-198zM278 813l-122 139v8h123l50 -73h12l50 73h123v-8l-122 -139h-114z" />
    <glyph glyph-name="rcaron" unicode="&#x159;" horiz-adv-x="422" 
d="M73 0v526h123v-68h8q17 36 50 60t81 24q19 0 31 -2t21 -4v-130q-14 6 -32 10t-41 4q-48 0 -79 -35.5t-31 -97.5v-287h-131zM182 629l-122 139v8h123l50 -73h12l50 73h123v-8l-122 -139h-114z" />
    <glyph glyph-name="Sacute" unicode="&#x15a;" horiz-adv-x="631" 
d="M324 -16q-118 0 -189.5 57t-93.5 166l135 30q11 -57 48.5 -91t100.5 -34q56 0 90 23.5t34 64.5q0 30 -13.5 49t-45.5 34.5t-88 32.5l-52 16q-26 8 -57 21.5t-59 36.5t-45.5 57t-17.5 82q0 57 28 103t82 73t132 27q114 0 178 -53t77 -145l-128 -19q-10 42 -41 67.5
t-84 25.5q-51 0 -82 -20t-31 -53q0 -34 30.5 -56.5t95.5 -42.5l50 -15q61 -18 107 -44.5t72 -68t26 -105.5q0 -73 -36.5 -121.5t-95.5 -73t-127 -24.5zM262 813l42 147h153l-90 -147h-105z" />
    <glyph glyph-name="sacute" unicode="&#x15b;" horiz-adv-x="525" 
d="M269 -16q-102 0 -160.5 47.5t-71.5 121.5l125 21q8 -36 36 -55.5t71 -19.5q37 0 64.5 13.5t27.5 42.5q0 26 -26 42t-72 24l-60 11q-64 12 -106 50t-42 101q0 47 27.5 83t74 56t104.5 20q186 0 214 -144l-115 -18q-11 31 -36 44t-60 13q-37 0 -59.5 -15t-22.5 -35
q0 -21 18 -35t58 -22l73 -15q77 -16 119 -52.5t42 -105.5q0 -52 -30 -91t-80.5 -60.5t-112.5 -21.5zM209 629l42 147h153l-90 -147h-105z" />
    <glyph glyph-name="Scircumflex" unicode="&#x15c;" horiz-adv-x="631" 
d="M324 -16q-118 0 -189.5 57t-93.5 166l135 30q11 -57 48.5 -91t100.5 -34q56 0 90 23.5t34 64.5q0 30 -13.5 49t-45.5 34.5t-88 32.5l-52 16q-26 8 -57 21.5t-59 36.5t-45.5 57t-17.5 82q0 57 28 103t82 73t132 27q114 0 178 -53t77 -145l-128 -19q-10 42 -41 67.5
t-84 25.5q-51 0 -82 -20t-31 -53q0 -34 30.5 -56.5t95.5 -42.5l50 -15q61 -18 107 -44.5t72 -68t26 -105.5q0 -73 -36.5 -121.5t-95.5 -73t-127 -24.5zM136 813v8l122 139h114l122 -139v-8h-123l-50 73h-12l-50 -73h-123z" />
    <glyph glyph-name="scircumflex" unicode="&#x15d;" horiz-adv-x="525" 
d="M269 -16q-102 0 -160.5 47.5t-71.5 121.5l125 21q8 -36 36 -55.5t71 -19.5q37 0 64.5 13.5t27.5 42.5q0 26 -26 42t-72 24l-60 11q-64 12 -106 50t-42 101q0 47 27.5 83t74 56t104.5 20q186 0 214 -144l-115 -18q-11 31 -36 44t-60 13q-37 0 -59.5 -15t-22.5 -35
q0 -21 18 -35t58 -22l73 -15q77 -16 119 -52.5t42 -105.5q0 -52 -30 -91t-80.5 -60.5t-112.5 -21.5zM83 629v8l122 139h114l122 -139v-8h-123l-50 73h-12l-50 -73h-123z" />
    <glyph glyph-name="Scedilla" unicode="&#x15e;" horiz-adv-x="631" 
d="M324 -16q-118 0 -189.5 57t-93.5 166l135 30q11 -57 48.5 -91t100.5 -34q56 0 90 23.5t34 64.5q0 30 -13.5 49t-45.5 34.5t-88 32.5l-52 16q-26 8 -57 21.5t-59 36.5t-45.5 57t-17.5 82q0 57 28 103t82 73t132 27q114 0 178 -53t77 -145l-128 -19q-10 42 -41 67.5
t-84 25.5q-51 0 -82 -20t-31 -53q0 -34 30.5 -56.5t95.5 -42.5l50 -15q61 -18 107 -44.5t72 -68t26 -105.5q0 -73 -36.5 -121.5t-95.5 -73t-127 -24.5zM335 -248q-39 0 -65.5 19.5t-37.5 49.5l66 24q4 -12 14 -20t23 -8q17 0 26 10t9 25t-9.5 24.5t-25.5 9.5q-10 0 -17 -4
t-12 -9l-59 27l39 100h68l-24 -56q8 2 18 2q41 0 68.5 -25.5t27.5 -69.5q0 -41 -29 -70t-80 -29z" />
    <glyph glyph-name="scedilla" unicode="&#x15f;" horiz-adv-x="525" 
d="M269 -16q-102 0 -160.5 47.5t-71.5 121.5l125 21q8 -36 36 -55.5t71 -19.5q37 0 64.5 13.5t27.5 42.5q0 26 -26 42t-72 24l-60 11q-64 12 -106 50t-42 101q0 47 27.5 83t74 56t104.5 20q186 0 214 -144l-115 -18q-11 31 -36 44t-60 13q-37 0 -59.5 -15t-22.5 -35
q0 -21 18 -35t58 -22l73 -15q77 -16 119 -52.5t42 -105.5q0 -52 -30 -91t-80.5 -60.5t-112.5 -21.5zM277 -248q-39 0 -65.5 19.5t-37.5 49.5l66 24q4 -12 14 -20t23 -8q17 0 26 10t9 25t-9.5 24.5t-25.5 9.5q-10 0 -17 -4t-12 -9l-59 27l39 100h68l-24 -56q8 2 18 2
q41 0 68.5 -25.5t27.5 -69.5q0 -41 -29 -70t-80 -29z" />
    <glyph glyph-name="Scaron" unicode="&#x160;" horiz-adv-x="631" 
d="M324 -16q-118 0 -189.5 57t-93.5 166l135 30q11 -57 48.5 -91t100.5 -34q56 0 90 23.5t34 64.5q0 30 -13.5 49t-45.5 34.5t-88 32.5l-52 16q-26 8 -57 21.5t-59 36.5t-45.5 57t-17.5 82q0 57 28 103t82 73t132 27q114 0 178 -53t77 -145l-128 -19q-10 42 -41 67.5
t-84 25.5q-51 0 -82 -20t-31 -53q0 -34 30.5 -56.5t95.5 -42.5l50 -15q61 -18 107 -44.5t72 -68t26 -105.5q0 -73 -36.5 -121.5t-95.5 -73t-127 -24.5zM258 813l-122 139v8h123l50 -73h12l50 73h123v-8l-122 -139h-114z" />
    <glyph glyph-name="scaron" unicode="&#x161;" horiz-adv-x="525" 
d="M269 -16q-102 0 -160.5 47.5t-71.5 121.5l125 21q8 -36 36 -55.5t71 -19.5q37 0 64.5 13.5t27.5 42.5q0 26 -26 42t-72 24l-60 11q-64 12 -106 50t-42 101q0 47 27.5 83t74 56t104.5 20q186 0 214 -144l-115 -18q-11 31 -36 44t-60 13q-37 0 -59.5 -15t-22.5 -35
q0 -21 18 -35t58 -22l73 -15q77 -16 119 -52.5t42 -105.5q0 -52 -30 -91t-80.5 -60.5t-112.5 -21.5zM205 629l-122 139v8h123l50 -73h12l50 73h123v-8l-122 -139h-114z" />
    <glyph glyph-name="uni0162" unicode="&#x162;" horiz-adv-x="630" 
d="M330 -248q-39 0 -65.5 19.5t-37.5 49.5l66 24q4 -12 14 -20t23 -8q17 0 26 10t9 25t-9.5 24.5t-25.5 9.5q-10 0 -17 -4t-12 -9l-59 27l39 100h-33v588h-220v128h574v-128h-220v-588h-33l-24 -56q8 2 18 2q41 0 68.5 -25.5t27.5 -69.5q0 -41 -29 -70t-80 -29z" />
    <glyph glyph-name="uni0163" unicode="&#x163;" horiz-adv-x="415" 
d="M284 -8h-5l-19 -48q8 2 18 2q41 0 68.5 -25.5t27.5 -69.5q0 -41 -29 -70t-80 -29q-39 0 -65.5 19.5t-37.5 49.5l66 24q4 -12 14 -20t23 -8q17 0 26 10t9 25t-9.5 24.5t-25.5 9.5q-10 0 -17 -4t-12 -9l-59 27l39 103q-46 17 -71.5 58t-25.5 102v251h-87v112h87v144h131
v-144h120v-112h-120v-231q0 -68 61 -68q19 0 32.5 5t29.5 14v-125q-20 -8 -41.5 -12.5t-47.5 -4.5z" />
    <glyph glyph-name="Tcaron" unicode="&#x164;" horiz-adv-x="630" 
d="M248 0v588h-220v128h574v-128h-220v-588h-134zM258 813l-122 139v8h123l50 -73h12l50 73h123v-8l-122 -139h-114z" />
    <glyph glyph-name="tcaron" unicode="&#x165;" horiz-adv-x="410" 
d="M315 586v190h118l-27 -190h-91zM284 -8q-77 0 -121 45.5t-44 125.5v251h-87v112h87v144h131v-144h120v-112h-120v-231q0 -68 61 -68q19 0 32.5 5t29.5 14v-125q-20 -8 -41.5 -12.5t-47.5 -4.5z" />
    <glyph glyph-name="Tbar" unicode="&#x166;" horiz-adv-x="630" 
d="M248 0v307h-135v106h135v175h-220v128h574v-128h-220v-175h135v-106h-135v-307h-134z" />
    <glyph glyph-name="tbar" unicode="&#x167;" horiz-adv-x="415" 
d="M32 222v100h87v92h-87v112h87v144h131v-144h120v-112h-120v-92h113v-100h-113v-39q0 -68 61 -68q19 0 32.5 5t29.5 14v-125q-20 -8 -41.5 -12.5t-47.5 -4.5q-77 0 -121 45.5t-44 125.5v59h-87z" />
    <glyph glyph-name="Utilde" unicode="&#x168;" horiz-adv-x="721" 
d="M361 -16q-132 0 -207.5 79t-75.5 219v434h133v-443q0 -76 38 -118.5t112 -42.5t111.5 42.5t37.5 118.5v443h133v-434q0 -90 -34 -157t-97 -104t-151 -37zM427 815q-28 0 -48.5 8t-35.5 18q-12 8 -21.5 12.5t-21.5 4.5q-10 0 -19 -8.5t-10 -26.5h-92q0 65 31.5 99t82.5 34
q29 0 49.5 -8t37.5 -19q11 -7 20 -11.5t20 -4.5q27 0 30 35h92q0 -64 -32 -98.5t-83 -34.5z" />
    <glyph glyph-name="utilde" unicode="&#x169;" horiz-adv-x="613" 
d="M253 -16q-91 0 -138 55t-47 152v335h131v-317q0 -50 24.5 -76.5t68.5 -26.5q54 0 85.5 40t31.5 99v281h131v-526h-123v64h-8q-22 -37 -63.5 -58.5t-92.5 -21.5zM371 631q-28 0 -48.5 8t-35.5 18q-12 8 -21.5 12.5t-21.5 4.5q-10 0 -19 -8.5t-10 -26.5h-92q0 65 31.5 99
t82.5 34q29 0 49.5 -8t37.5 -19q11 -7 20 -11.5t20 -4.5q27 0 30 35h92q0 -64 -32 -98.5t-83 -34.5z" />
    <glyph glyph-name="Umacron" unicode="&#x16a;" horiz-adv-x="721" 
d="M361 -16q-132 0 -207.5 79t-75.5 219v434h133v-443q0 -76 38 -118.5t112 -42.5t111.5 42.5t37.5 118.5v443h133v-434q0 -90 -34 -157t-97 -104t-151 -37zM213 841v100h296v-100h-296z" />
    <glyph glyph-name="umacron" unicode="&#x16b;" horiz-adv-x="613" 
d="M253 -16q-91 0 -138 55t-47 152v335h131v-317q0 -50 24.5 -76.5t68.5 -26.5q54 0 85.5 40t31.5 99v281h131v-526h-123v64h-8q-22 -37 -63.5 -58.5t-92.5 -21.5zM156 657v100h296v-100h-296z" />
    <glyph glyph-name="Ubreve" unicode="&#x16c;" horiz-adv-x="721" 
d="M361 -16q-132 0 -207.5 79t-75.5 219v434h133v-443q0 -76 38 -118.5t112 -42.5t111.5 42.5t37.5 118.5v443h133v-434q0 -90 -34 -157t-97 -104t-151 -37zM361 814q-64 0 -104 40.5t-40 105.5h93q0 -25 12.5 -41.5t38.5 -16.5t39 16.5t13 41.5h92q0 -65 -39.5 -105.5
t-104.5 -40.5z" />
    <glyph glyph-name="ubreve" unicode="&#x16d;" horiz-adv-x="613" 
d="M253 -16q-91 0 -138 55t-47 152v335h131v-317q0 -50 24.5 -76.5t68.5 -26.5q54 0 85.5 40t31.5 99v281h131v-526h-123v64h-8q-22 -37 -63.5 -58.5t-92.5 -21.5zM304 630q-64 0 -104 40.5t-40 105.5h93q0 -25 12.5 -41.5t38.5 -16.5t39 16.5t13 41.5h92
q0 -65 -39.5 -105.5t-104.5 -40.5z" />
    <glyph glyph-name="Uring" unicode="&#x16e;" horiz-adv-x="721" 
d="M361 -16q-132 0 -207.5 79t-75.5 219v434h133v-443q0 -76 38 -118.5t112 -42.5t111.5 42.5t37.5 118.5v443h133v-434q0 -90 -34 -157t-97 -104t-151 -37zM361 788q-47 0 -80 33t-33 80t33 80t80 33t80 -33t33 -80t-33 -80t-80 -33zM361 862q17 0 28 11.5t11 27.5
q0 17 -11 28t-28 11t-28 -11t-11 -28q0 -16 11 -27.5t28 -11.5z" />
    <glyph glyph-name="uring" unicode="&#x16f;" horiz-adv-x="613" 
d="M253 -16q-91 0 -138 55t-47 152v335h131v-317q0 -50 24.5 -76.5t68.5 -26.5q54 0 85.5 40t31.5 99v281h131v-526h-123v64h-8q-22 -37 -63.5 -58.5t-92.5 -21.5zM304 604q-47 0 -80 33t-33 80t33 80t80 33t80 -33t33 -80t-33 -80t-80 -33zM304 678q17 0 28 11.5t11 27.5
q0 17 -11 28t-28 11t-28 -11t-11 -28q0 -16 11 -27.5t28 -11.5z" />
    <glyph glyph-name="Uhungarumlaut" unicode="&#x170;" horiz-adv-x="721" 
d="M361 -16q-132 0 -207.5 79t-75.5 219v434h133v-443q0 -76 38 -118.5t112 -42.5t111.5 42.5t37.5 118.5v443h133v-434q0 -90 -34 -157t-97 -104t-151 -37zM210 813l42 147h153l-90 -147h-105zM408 813l42 147h153l-90 -147h-105z" />
    <glyph glyph-name="uhungarumlaut" unicode="&#x171;" horiz-adv-x="613" 
d="M253 -16q-91 0 -138 55t-47 152v335h131v-317q0 -50 24.5 -76.5t68.5 -26.5q54 0 85.5 40t31.5 99v281h131v-526h-123v64h-8q-22 -37 -63.5 -58.5t-92.5 -21.5zM153 629l42 147h153l-90 -147h-105zM351 629l42 147h153l-90 -147h-105z" />
    <glyph glyph-name="Uogonek" unicode="&#x172;" horiz-adv-x="721" 
d="M414 -234q-62 0 -98 34.5t-36 86.5q0 33 14 57.5t33 40.5q-117 11 -183 88.5t-66 208.5v434h133v-443q0 -76 38 -118.5t112 -42.5t111.5 42.5t37.5 118.5v443h133v-434q0 -71 -19.5 -124t-52 -88.5t-71.5 -54.5q-62 -31 -85.5 -55.5t-23.5 -54.5q0 -21 12 -32.5t32 -11.5
q11 0 20.5 3t22.5 10v-95q-29 -13 -64 -13z" />
    <glyph glyph-name="uogonek" unicode="&#x173;" horiz-adv-x="613" 
d="M490 -234q-62 0 -98 34.5t-36 86.5q0 42 21 69.5t43 38.5l-3 5v64h-8q-22 -37 -63.5 -58.5t-92.5 -21.5q-91 0 -138 55t-47 152v335h131v-317q0 -50 24.5 -76.5t68.5 -26.5q54 0 85.5 40t31.5 99v281h131v-526q-31 -20 -52 -43.5t-21 -51.5q0 -21 12 -32.5t32 -11.5
q11 0 20.5 3t22.5 10v-95q-29 -13 -64 -13z" />
    <glyph glyph-name="Wcircumflex" unicode="&#x174;" horiz-adv-x="961" 
d="M203 0l-184 716h149l92 -400l12 -75h8l16 75l120 400h132l118 -400l16 -73h8l11 73l92 400h149l-179 -716h-144l-117 430l-15 78h-8l-16 -78l-122 -430h-138zM304 813v8l122 139h114l122 -139v-8h-123l-50 73h-12l-50 -73h-123z" />
    <glyph glyph-name="wcircumflex" unicode="&#x175;" horiz-adv-x="807" 
d="M166 0l-152 526h146l79 -335h7l92 335h132l93 -335h7l79 335h144l-153 -526h-141l-94 340h-7l-92 -340h-140zM224 629v8l122 139h114l122 -139v-8h-123l-50 73h-12l-50 -73h-123z" />
    <glyph glyph-name="Ycircumflex" unicode="&#x176;" horiz-adv-x="642" 
d="M256 0v325l-238 391h159l142 -241h8l135 241h162l-234 -391v-325h-134zM141 813v8l122 139h114l122 -139v-8h-123l-50 73h-12l-50 -73h-123z" />
    <glyph glyph-name="ycircumflex" unicode="&#x177;" horiz-adv-x="595" 
d="M116 -226q-28 0 -52 5t-40 12v127q13 -7 37.5 -15.5t52.5 -8.5q32 0 53.5 16.5t43.5 63.5l19 43l-217 509h149l135 -333h8l131 333h145l-257 -605q-23 -54 -51 -86.5t-65.5 -46.5t-91.5 -14zM122 629v8l122 139h114l122 -139v-8h-123l-50 73h-12l-50 -73h-123z" />
    <glyph glyph-name="Ydieresis" unicode="&#x178;" horiz-adv-x="642" 
d="M256 0v325l-238 391h159l142 -241h8l135 241h162l-234 -391v-325h-134zM421 817q-29 0 -50 21t-21 51t21 50.5t50 20.5q31 0 51.5 -20.5t20.5 -50.5t-20.5 -51t-51.5 -21zM219 817q-30 0 -51 21t-21 51t21 50.5t51 20.5t50.5 -20.5t20.5 -50.5t-20.5 -51t-50.5 -21z" />
    <glyph glyph-name="Zacute" unicode="&#x179;" horiz-adv-x="624" 
d="M38 0v136l379 452h-363v128h518v-136l-375 -452h379v-128h-538zM260 813l42 147h153l-90 -147h-105z" />
    <glyph glyph-name="zacute" unicode="&#x17a;" horiz-adv-x="520" 
d="M41 0v107l270 308h-262v111h420v-107l-271 -308h279v-111h-436zM207 629l42 147h153l-90 -147h-105z" />
    <glyph glyph-name="Zdotaccent" unicode="&#x17b;" horiz-adv-x="624" 
d="M38 0v136l379 452h-363v128h518v-136l-375 -452h379v-128h-538zM313 812q-31 0 -53 22t-22 53t22 53t53 22t53 -22t22 -53t-22 -53t-53 -22z" />
    <glyph glyph-name="zdotaccent" unicode="&#x17c;" horiz-adv-x="520" 
d="M41 0v107l270 308h-262v111h420v-107l-271 -308h279v-111h-436zM260 616q-35 0 -60 25t-25 60t25 60t60 25t60 -25t25 -60t-25 -60t-60 -25z" />
    <glyph glyph-name="Zcaron" unicode="&#x17d;" horiz-adv-x="624" 
d="M38 0v136l379 452h-363v128h518v-136l-375 -452h379v-128h-538zM256 813l-122 139v8h123l50 -73h12l50 73h123v-8l-122 -139h-114z" />
    <glyph glyph-name="zcaron" unicode="&#x17e;" horiz-adv-x="520" 
d="M41 0v107l270 308h-262v111h420v-107l-271 -308h279v-111h-436zM203 629l-122 139v8h123l50 -73h12l50 73h123v-8l-122 -139h-114z" />
    <glyph glyph-name="florin" unicode="&#x192;" horiz-adv-x="626" 
d="M139 -220q-25 0 -42.5 2.5t-36.5 8.5v128q18 -9 35 -12.5t31 -3.5q29 0 48.5 18t26.5 56l65 331h-93v112h115l22 109q17 91 71 141t139 50q21 0 35.5 -2.5t29.5 -7.5v-127q-18 8 -33 11t-31 3q-30 0 -53 -18.5t-30 -54.5l-21 -104h113v-112h-135l-72 -365
q-13 -69 -58 -116t-126 -47z" />
    <glyph glyph-name="Ohorn" unicode="&#x1a0;" horiz-adv-x="806" 
d="M403 -16q-106 0 -184 48.5t-121 133t-43 192.5q0 109 43 193t121 132.5t184 48.5q52 0 92 -4t79 -8t87 -4q19 0 30 10t11 31v87h98v-108q0 -60 -27 -87t-65 -27q-17 0 -30.5 2.5t-25.5 4.5v-5q51 -55 75 -122t24 -144q0 -108 -43 -192.5t-121 -133t-184 -48.5zM403 112
q95 0 153.5 64t58.5 182t-58.5 182t-153.5 64t-153.5 -64t-58.5 -182t58.5 -182t153.5 -64z" />
    <glyph glyph-name="ohorn" unicode="&#x1a1;" horiz-adv-x="614" 
d="M307 -16q-81 0 -140.5 35.5t-92 98.5t-32.5 145t32.5 145t92 98.5t140.5 35.5q59 0 102 -8t85 -8q22 0 30.5 9t8.5 28v81h98v-112q0 -55 -24 -77.5t-58 -22.5q-7 0 -17.5 2t-24.5 7v-7q35 -37 50 -80.5t15 -90.5q0 -82 -32.5 -145t-91.5 -98.5t-141 -35.5zM307 106
q59 0 96.5 40t37.5 117t-37.5 117t-96.5 40t-96.5 -40t-37.5 -117t37.5 -117t96.5 -40z" />
    <glyph glyph-name="Uhorn" unicode="&#x1af;" horiz-adv-x="743" 
d="M361 -16q-132 0 -207.5 79t-75.5 219v434h133v-443q0 -76 38 -118.5t112 -42.5t111.5 42.5t37.5 118.5v443h145q37 0 37 37v91h98v-88q0 -134 -135 -134h-12v-340q0 -90 -34 -157t-97 -104t-151 -37z" />
    <glyph glyph-name="uhorn" unicode="&#x1b0;" horiz-adv-x="641" 
d="M253 -16q-91 0 -138 55t-47 152v335h131v-317q0 -50 24.5 -76.5t68.5 -26.5q54 0 85.5 40t31.5 99v281h142q37 0 37 37v81h98v-78q0 -134 -135 -134h-11v-432h-123v64h-8q-22 -37 -63.5 -58.5t-92.5 -21.5z" />
    <glyph glyph-name="uni01CD" unicode="&#x1cd;" horiz-adv-x="704" 
d="M14 0l260 716h155l261 -716h-149l-58 171h-262l-58 -171h-149zM323 474l-60 -179h178l-60 179l-25 86h-8zM295 813l-122 139v8h123l50 -73h12l50 73h123v-8l-122 -139h-114z" />
    <glyph glyph-name="Aringacute" unicode="&#x1fa;" horiz-adv-x="704" 
d="M14 0l242 667q-19 19 -30.5 44.5t-11.5 55.5q0 39 18 70.5t49.5 50t69.5 18.5q39 0 70.5 -18.5t50 -50t18.5 -70.5q0 -29 -11.5 -55t-31.5 -45l243 -667h-149l-58 171h-262l-58 -171h-149zM351 716q22 0 36.5 14.5t14.5 35.5q0 23 -14.5 37.5t-36.5 14.5t-36.5 -14.5
t-14.5 -37.5q0 -21 14.5 -35.5t36.5 -14.5zM323 474l-60 -179h178l-60 179l-25 86h-8zM298 873l42 147h153l-90 -147h-105z" />
    <glyph glyph-name="aringacute" unicode="&#x1fb;" horiz-adv-x="594" 
d="M240 871l42 147h153l-90 -147h-105zM293 604q-47 0 -80 33t-33 80t33 80t80 33t80 -33t33 -80t-33 -80t-80 -33zM293 678q17 0 28 11.5t11 27.5q0 17 -11 28t-28 11t-28 -11t-11 -28q0 -16 11 -27.5t28 -11.5zM234 -16q-84 0 -133 46t-49 123q0 53 27 90.5t73.5 57.5
t103.5 20q37 0 71.5 -4.5t70.5 -12.5v42q0 41 -29 66t-82 25q-39 0 -68 -19.5t-40 -54.5l-114 24q12 53 45.5 87t80 51t98.5 17q119 0 178 -54t59 -158v-330h-128v52h-8q-23 -28 -63 -48t-93 -20zM267 86q62 0 96.5 36.5t34.5 84.5q-28 9 -60 14.5t-63 5.5q-49 0 -71 -20.5
t-22 -52.5q0 -30 24 -49t61 -19z" />
    <glyph glyph-name="AEacute" unicode="&#x1fc;" horiz-adv-x="1031" 
d="M7 0l418 716h544v-128h-334v-152h303v-128h-303v-180h334v-128h-468v173h-238l-98 -173h-158zM334 301h167v287h-10l-33 -70zM641 813l42 147h153l-90 -147h-105z" />
    <glyph glyph-name="aeacute" unicode="&#x1fd;" horiz-adv-x="949" 
d="M234 -16q-84 0 -133 46t-49 123q0 53 27 90.5t73.5 57.5t103.5 20q37 0 71.5 -4.5t70.5 -12.5v42q0 41 -29 66t-82 25q-39 0 -68 -19.5t-40 -54.5l-114 24q12 53 45.5 87t80 51t98.5 17q132 0 192 -77q34 37 80 57t100 20q125 0 185.5 -68t60.5 -184q0 -33 -3 -57h-377
q7 -66 45 -99.5t93 -33.5q46 0 74.5 22.5t41.5 54.5l114 -31q-24 -72 -81.5 -117t-153.5 -45q-71 0 -125 30t-87 84q-36 -52 -89.5 -83t-124.5 -31zM533 326h249q-4 50 -34.5 80t-85.5 30q-46 0 -80.5 -27.5t-48.5 -82.5zM267 86q62 0 96.5 36.5t34.5 84.5q-28 9 -60 14.5
t-63 5.5q-49 0 -71 -20.5t-22 -52.5q0 -30 24 -49t61 -19zM422 629l42 147h153l-90 -147h-105z" />
    <glyph glyph-name="Oslashacute" unicode="&#x1fe;" horiz-adv-x="806" 
d="M204 -57l-91 59l48 76q-51 50 -78.5 122t-27.5 158q0 109 43 193t121 132.5t184 48.5q84 0 153 -32l46 73l91 -59l-48 -76q51 -50 78.5 -122t27.5 -158q0 -108 -43 -192.5t-121 -133t-184 -48.5q-84 0 -153 32zM191 358q0 -51 11.5 -92t32.5 -72l250 395q-37 15 -82 15
q-95 0 -153.5 -64t-58.5 -182zM403 112q95 0 153.5 64t58.5 182q0 51 -11.5 92t-32.5 71l-251 -394q38 -15 83 -15zM350 813l42 147h153l-90 -147h-105z" />
    <glyph glyph-name="oslashacute" unicode="&#x1ff;" horiz-adv-x="614" 
d="M176 -46l-90 51l32 52q-36 37 -56 89.5t-20 116.5q0 82 32.5 145t92 98.5t140.5 35.5q55 0 102 -17l29 47l91 -50l-33 -53q37 -37 56.5 -89.5t19.5 -116.5q0 -82 -32.5 -145t-91.5 -98.5t-141 -35.5q-55 0 -102 17zM173 263q0 -52 18 -89l150 242q-16 4 -34 4
q-59 0 -96.5 -40t-37.5 -117zM307 106q59 0 96.5 40t37.5 117q0 52 -18 88l-150 -241q16 -4 34 -4zM254 629l42 147h153l-90 -147h-105z" />
    <glyph glyph-name="uni0218" unicode="&#x218;" horiz-adv-x="631" 
d="M324 -16q-118 0 -189.5 57t-93.5 166l135 30q11 -57 48.5 -91t100.5 -34q56 0 90 23.5t34 64.5q0 30 -13.5 49t-45.5 34.5t-88 32.5l-52 16q-26 8 -57 21.5t-59 36.5t-45.5 57t-17.5 82q0 57 28 103t82 73t132 27q114 0 178 -53t77 -145l-128 -19q-10 42 -41 67.5
t-84 25.5q-51 0 -82 -20t-31 -53q0 -34 30.5 -56.5t95.5 -42.5l50 -15q61 -18 107 -44.5t72 -68t26 -105.5q0 -73 -36.5 -121.5t-95.5 -73t-127 -24.5zM182 -292l58 220h157l-104 -220h-111z" />
    <glyph glyph-name="uni0219" unicode="&#x219;" horiz-adv-x="525" 
d="M269 -16q-102 0 -160.5 47.5t-71.5 121.5l125 21q8 -36 36 -55.5t71 -19.5q37 0 64.5 13.5t27.5 42.5q0 26 -26 42t-72 24l-60 11q-64 12 -106 50t-42 101q0 47 27.5 83t74 56t104.5 20q186 0 214 -144l-115 -18q-11 31 -36 44t-60 13q-37 0 -59.5 -15t-22.5 -35
q0 -21 18 -35t58 -22l73 -15q77 -16 119 -52.5t42 -105.5q0 -52 -30 -91t-80.5 -60.5t-112.5 -21.5zM124 -292l58 220h157l-104 -220h-111z" />
    <glyph glyph-name="uni021A" unicode="&#x21a;" horiz-adv-x="630" 
d="M248 0v588h-220v128h574v-128h-220v-588h-134zM177 -292l58 220h157l-104 -220h-111z" />
    <glyph glyph-name="uni021B" unicode="&#x21b;" horiz-adv-x="415" 
d="M284 -8q-77 0 -121 45.5t-44 125.5v251h-87v112h87v144h131v-144h120v-112h-120v-231q0 -68 61 -68q19 0 32.5 5t29.5 14v-125q-20 -8 -41.5 -12.5t-47.5 -4.5zM122 -292l58 220h157l-104 -220h-111z" />
    <glyph glyph-name="uni0237" unicode="&#x237;" horiz-adv-x="276" 
d="M45 -226q-19 0 -34.5 1.5t-34.5 5.5v126q11 -5 22.5 -9t26.5 -4q45 0 45 56v576h131v-576q0 -63 -21 -102t-56 -56.5t-79 -17.5z" />
    <glyph glyph-name="uni0259" unicode="&#x259;" horiz-adv-x="590" 
d="M288 -16q-124 0 -185 68t-61 184q0 33 3 57h377q-7 66 -44.5 99.5t-93.5 33.5q-42 0 -70.5 -22.5t-45.5 -54.5l-114 31q26 72 82.5 117t152.5 45q79 0 137 -34t90 -96.5t32 -148.5q0 -85 -33.5 -148t-92.5 -97t-134 -34zM287 90q47 0 81.5 27.5t47.5 82.5h-249
q4 -50 34.5 -80t85.5 -30z" />
    <glyph glyph-name="circumflex" unicode="&#x2c6;" horiz-adv-x="456" 
d="M49 629v8l122 139h114l122 -139v-8h-123l-50 73h-12l-50 -73h-123z" />
    <glyph glyph-name="caron" unicode="&#x2c7;" horiz-adv-x="456" 
d="M171 629l-122 139v8h123l50 -73h12l50 73h123v-8l-122 -139h-114z" />
    <glyph glyph-name="breve" unicode="&#x2d8;" horiz-adv-x="416" 
d="M208 630q-64 0 -104 40.5t-40 105.5h93q0 -25 12.5 -41.5t38.5 -16.5t39 16.5t13 41.5h92q0 -65 -39.5 -105.5t-104.5 -40.5z" />
    <glyph glyph-name="dotaccent" unicode="&#x2d9;" horiz-adv-x="269" 
d="M140 616q-35 0 -60 25t-25 60t25 60t60 25t60 -25t25 -60t-25 -60t-60 -25z" />
    <glyph glyph-name="ring" unicode="&#x2da;" horiz-adv-x="408" 
d="M204 604q-47 0 -80 33t-33 80t33 80t80 33t80 -33t33 -80t-33 -80t-80 -33zM204 678q17 0 28 11.5t11 27.5q0 17 -11 28t-28 11t-28 -11t-11 -28q0 -16 11 -27.5t28 -11.5z" />
    <glyph glyph-name="ogonek" unicode="&#x2db;" horiz-adv-x="426" 
d="M218 -234q-62 0 -98 34.5t-36 86.5q0 42 21.5 70t45.5 43h117q-31 -20 -52 -43.5t-21 -51.5q0 -21 12 -32.5t32 -11.5q11 0 20.5 3t22.5 10v-95q-29 -13 -64 -13z" />
    <glyph glyph-name="tilde" unicode="&#x2dc;" horiz-adv-x="419" 
d="M276 631q-28 0 -48.5 8t-35.5 18q-12 8 -21.5 12.5t-21.5 4.5q-10 0 -19 -8.5t-10 -26.5h-92q0 65 31.5 99t82.5 34q29 0 49.5 -8t37.5 -19q11 -7 20 -11.5t20 -4.5q27 0 30 35h92q0 -64 -32 -98.5t-83 -34.5z" />
    <glyph glyph-name="hungarumlaut" unicode="&#x2dd;" horiz-adv-x="476" 
d="M72 629l42 147h153l-90 -147h-105zM270 629l42 147h153l-90 -147h-105z" />
    <glyph glyph-name="gravecomb" unicode="&#x300;" 
d="M186 629l-90 147h153l42 -147h-105z" />
    <glyph glyph-name="acutecomb" unicode="&#x301;" 
d="M152 629l42 147h153l-90 -147h-105z" />
    <glyph glyph-name="uni0302" unicode="&#x302;" 
d="M49 629v8l122 139h114l122 -139v-8h-123l-50 73h-12l-50 -73h-123z" />
    <glyph glyph-name="tildecomb" unicode="&#x303;" 
d="M276 631q-28 0 -48.5 8t-35.5 18q-12 8 -21.5 12.5t-21.5 4.5q-10 0 -19 -8.5t-10 -26.5h-92q0 65 31.5 99t82.5 34q29 0 49.5 -8t37.5 -19q11 -7 20 -11.5t20 -4.5q27 0 30 35h92q0 -64 -32 -98.5t-83 -34.5z" />
    <glyph glyph-name="uni0304" unicode="&#x304;" 
d="M60 657v100h296v-100h-296z" />
    <glyph glyph-name="uni0306" unicode="&#x306;" 
d="M208 630q-64 0 -104 40.5t-40 105.5h93q0 -25 12.5 -41.5t38.5 -16.5t39 16.5t13 41.5h92q0 -65 -39.5 -105.5t-104.5 -40.5z" />
    <glyph glyph-name="uni0307" unicode="&#x307;" 
d="M140 616q-35 0 -60 25t-25 60t25 60t60 25t60 -25t25 -60t-25 -60t-60 -25z" />
    <glyph glyph-name="uni0308" unicode="&#x308;" 
d="M327 633q-29 0 -50 21t-21 51t21 50.5t50 20.5q31 0 51.5 -20.5t20.5 -50.5t-20.5 -51t-51.5 -21zM125 633q-30 0 -51 21t-21 51t21 50.5t51 20.5t50.5 -20.5t20.5 -50.5t-20.5 -51t-50.5 -21z" />
    <glyph glyph-name="hookabovecomb" unicode="&#x309;" 
d="M83 586l-23 62q26 8 38.5 18.5t12.5 26.5q0 15 -11.5 23t-28.5 8q-13 0 -26 -4t-21 -9l-24 68q21 8 41.5 12.5t45.5 4.5q56 0 83.5 -26.5t27.5 -70.5q0 -49 -32 -77t-83 -36z" />
    <glyph glyph-name="uni030A" unicode="&#x30a;" 
d="M204 604q-47 0 -80 33t-33 80t33 80t80 33t80 -33t33 -80t-33 -80t-80 -33zM204 678q17 0 28 11.5t11 27.5q0 17 -11 28t-28 11t-28 -11t-11 -28q0 -16 11 -27.5t28 -11.5z" />
    <glyph glyph-name="uni030B" unicode="&#x30b;" 
d="M72 629l42 147h153l-90 -147h-105zM270 629l42 147h153l-90 -147h-105z" />
    <glyph glyph-name="uni030C" unicode="&#x30c;" 
d="M171 629l-122 139v8h123l50 -73h12l50 73h123v-8l-122 -139h-114z" />
    <glyph glyph-name="uni0312" unicode="&#x312;" 
d="M325 852l-58 -220h-157l104 220h111z" />
    <glyph glyph-name="uni031B" unicode="&#x31b;" 
d="M0 432v94h21q37 0 37 37v81h98v-78q0 -134 -135 -134h-21z" />
    <glyph glyph-name="dotbelowcomb" unicode="&#x323;" 
d="M131 -236q-31 0 -53.5 22.5t-22.5 53.5q0 32 22.5 53.5t53.5 21.5q32 0 53.5 -21.5t21.5 -53.5q0 -31 -21.5 -53.5t-53.5 -22.5z" />
    <glyph glyph-name="uni0324" unicode="&#x324;" 
d="M274 -232q-29 0 -50 21t-21 51t21 50.5t50 20.5q31 0 51.5 -20.5t20.5 -50.5t-20.5 -51t-51.5 -21zM72 -232q-30 0 -51 21t-21 51t21 50.5t51 20.5t50.5 -20.5t20.5 -50.5t-20.5 -51t-50.5 -21z" />
    <glyph glyph-name="uni0326" unicode="&#x326;" 
d="M97 -292l58 220h157l-104 -220h-111z" />
    <glyph glyph-name="uni0327" unicode="&#x327;" 
d="M167 -248q-39 0 -65.5 19.5t-37.5 49.5l66 24q4 -12 14 -20t23 -8q17 0 26 10t9 25t-9.5 24.5t-25.5 9.5q-10 0 -17 -4t-12 -9l-59 27l39 100h68l-24 -56q8 2 18 2q41 0 68.5 -25.5t27.5 -69.5q0 -41 -29 -70t-80 -29z" />
    <glyph glyph-name="uni0328" unicode="&#x328;" 
d="M218 -234q-62 0 -98 34.5t-36 86.5q0 42 21.5 70t45.5 43h117q-31 -20 -52 -43.5t-21 -51.5q0 -21 12 -32.5t32 -11.5q11 0 20.5 3t22.5 10v-95q-29 -13 -64 -13z" />
    <glyph glyph-name="uni032E" unicode="&#x32e;" 
d="M208 -232q-64 0 -104 40.5t-40 105.5h93q0 -25 12.5 -41.5t38.5 -16.5t39 16.5t13 41.5h92q0 -65 -39.5 -105.5t-104.5 -40.5z" />
    <glyph glyph-name="uni0331" unicode="&#x331;" 
d="M60 -187v100h296v-100h-296z" />
    <glyph glyph-name="uni0374" unicode="&#x374;" horiz-adv-x="488" 
d="M152 454l82 262h158l-131 -262h-109z" />
    <glyph glyph-name="uni0375" unicode="&#x375;" horiz-adv-x="488" 
d="M392 164l-82 -262h-158l131 262h109z" />
    <glyph glyph-name="uni037A" unicode="&#x37a;" horiz-adv-x="438" 
d="M150 -51h97l41 -165h-138v165z" />
    <glyph glyph-name="uni037E" unicode="&#x37e;" horiz-adv-x="294" 
d="M147 365q-36 0 -61.5 25.5t-25.5 61.5t25.5 61t61.5 25t61.5 -25t25.5 -61t-25.5 -61.5t-61.5 -25.5zM12 -118l76 256h154l-123 -256h-107z" />
    <glyph glyph-name="tonos" unicode="&#x384;" horiz-adv-x="433" 
d="M152 629l32 166h153l-80 -166h-105z" />
    <glyph glyph-name="dieresistonos" unicode="&#x385;" horiz-adv-x="562" 
d="M219 629l11 166h143l-59 -166h-95zM119 640q-27 0 -46.5 19t-19.5 46t19.5 46t46.5 19t45.5 -19t18.5 -46t-18.5 -46t-45.5 -19zM444 640q-26 0 -46 19t-19 46t20 46t45 19q28 0 46 -19t19 -46t-18 -46t-47 -19z" />
    <glyph glyph-name="Alphatonos" unicode="&#x386;" horiz-adv-x="704" 
d="M14 0l260 716h155l261 -716h-149l-58 171h-262l-58 -171h-149zM323 474l-60 -179h178l-60 179l-25 86h-8zM-34 550l32 166h153l-80 -166h-105z" />
    <glyph glyph-name="anoteleia" unicode="&#x387;" horiz-adv-x="294" 
d="M147 365q-36 0 -61.5 25.5t-25.5 61.5t25.5 61t61.5 25t61.5 -25t25.5 -61t-25.5 -61.5t-61.5 -25.5z" />
    <glyph glyph-name="Epsilontonos" unicode="&#x388;" horiz-adv-x="618" 
d="M88 0v716h468v-128h-334v-152h303v-128h-303v-180h334v-128h-468zM-184 550l32 166h153l-80 -166h-105z" />
    <glyph glyph-name="Etatonos" unicode="&#x389;" horiz-adv-x="735" 
d="M88 0v716h134v-286h298v286h134v-716h-134v302h-298v-302h-134zM-184 550l32 166h153l-80 -166h-105z" />
    <glyph glyph-name="Iotatonos" unicode="&#x38a;" horiz-adv-x="298" 
d="M88 0v716h134v-716h-134zM-184 550l32 166h153l-80 -166h-105z" />
    <glyph glyph-name="Omicrontonos" unicode="&#x38c;" horiz-adv-x="840" 
d="M403 -16q-106 0 -184 48.5t-121 133t-43 192.5q0 109 43 193t121 132.5t184 48.5t184 -48.5t121 -132.5t43 -193q0 -108 -43 -192.5t-121 -133t-184 -48.5zM403 112q95 0 153.5 64t58.5 182t-58.5 182t-153.5 64t-153.5 -64t-58.5 -182t58.5 -182t153.5 -64zM-69 550
l32 166h153l-80 -166h-105z" />
    <glyph glyph-name="Upsilontonos" unicode="&#x38e;" horiz-adv-x="642" 
d="M256 0v325l-238 391h159l142 -241h8l135 241h162l-234 -391v-325h-134zM-224 550l32 166h153l-80 -166h-105z" />
    <glyph glyph-name="Omegatonos" unicode="&#x38f;" horiz-adv-x="784" 
d="M64 0v117h170v32q-87 32 -133 101.5t-46 169.5t45 169.5t121.5 106t170.5 36.5t170.5 -36.5t121.5 -106t45 -169.5t-46 -169.5t-133 -101.5v-32h170v-117h-280v224q71 21 112 65t41 131q0 63 -27 106.5t-72.5 65.5t-101.5 22t-101.5 -22t-72.5 -65.5t-27 -106.5
q0 -87 41.5 -131t111.5 -65v-224h-280zM-154 550l32 166h153l-80 -166h-105z" />
    <glyph glyph-name="iotadieresistonos" unicode="&#x390;" horiz-adv-x="354" 
d="M233 -8q-77 0 -121 45.5t-44 125.5v363h131v-343q0 -68 61 -68q19 0 32.5 5t29.5 14v-125q-20 -8 -41.5 -12.5t-47.5 -4.5zM87 629l11 166h143l-59 -166h-95zM-13 640q-27 0 -46.5 19t-19.5 46t19.5 46t46.5 19t45.5 -19t18.5 -46t-18.5 -46t-45.5 -19zM312 640
q-26 0 -46 19t-19 46t20 46t45 19q28 0 46 -19t19 -46t-18 -46t-47 -19z" />
    <glyph glyph-name="Alpha" unicode="&#x391;" horiz-adv-x="704" 
d="M14 0l260 716h155l261 -716h-149l-58 171h-262l-58 -171h-149zM323 474l-60 -179h178l-60 179l-25 86h-8z" />
    <glyph glyph-name="Beta" unicode="&#x392;" horiz-adv-x="674" 
d="M88 0v716h295q99 0 160 -45.5t61 -131.5q0 -56 -27.5 -94t-67.5 -58v-8q55 -19 87.5 -62t32.5 -105q0 -66 -31.5 -113.5t-83.5 -73t-116 -25.5h-310zM222 436h157q44 0 69 21.5t25 58.5t-24 58t-66 21h-161v-159zM222 122h170q50 0 76 28.5t26 70.5t-26.5 70.5
t-78.5 28.5h-167v-198z" />
    <glyph glyph-name="Gamma" unicode="&#x393;" horiz-adv-x="557" 
d="M88 0v716h425v-128h-291v-588h-134z" />
    <glyph glyph-name="uni0394" unicode="&#x394;" horiz-adv-x="690" 
d="M34 0v75l233 641h154l235 -642v-74h-622zM198 124h294l-143 436h-8z" />
    <glyph glyph-name="Epsilon" unicode="&#x395;" horiz-adv-x="618" 
d="M88 0v716h468v-128h-334v-152h303v-128h-303v-180h334v-128h-468z" />
    <glyph glyph-name="Zeta" unicode="&#x396;" horiz-adv-x="624" 
d="M38 0v136l379 452h-363v128h518v-136l-375 -452h379v-128h-538z" />
    <glyph glyph-name="Eta" unicode="&#x397;" horiz-adv-x="742" 
d="M88 0v716h134v-286h298v286h134v-716h-134v302h-298v-302h-134z" />
    <glyph glyph-name="Theta" unicode="&#x398;" horiz-adv-x="806" 
d="M403 -16q-106 0 -184 48.5t-121 133t-43 192.5q0 109 43 193t121 132.5t184 48.5t184 -48.5t121 -132.5t43 -193q0 -108 -43 -192.5t-121 -133t-184 -48.5zM403 112q95 0 153.5 64t58.5 182t-58.5 182t-153.5 64t-153.5 -64t-58.5 -182t58.5 -182t153.5 -64zM258 299v118
h286v-118h-286z" />
    <glyph glyph-name="Iota" unicode="&#x399;" horiz-adv-x="310" 
d="M88 0v716h134v-716h-134z" />
    <glyph glyph-name="Kappa" unicode="&#x39a;" horiz-adv-x="668" 
d="M88 0v716h135v-336h8l246 336h161v-8l-262 -353l280 -347v-8h-168l-257 319h-8v-319h-135z" />
    <glyph glyph-name="Lambda" unicode="&#x39b;" horiz-adv-x="704" 
d="M14 0l260 716h155l261 -716h-149l-160 474l-25 86h-8l-25 -86l-160 -474h-149z" />
    <glyph glyph-name="Mu" unicode="&#x39c;" horiz-adv-x="894" 
d="M88 0v716h173l182 -502h8l181 502h174v-716h-133v351l8 117h-8l-174 -468h-104l-175 468h-8l8 -117v-351h-132z" />
    <glyph glyph-name="Nu" unicode="&#x39d;" horiz-adv-x="748" 
d="M88 0v716h157l282 -482h8l-8 138v344h133v-716h-143l-297 508h-8l8 -138v-370h-132z" />
    <glyph glyph-name="Xi" unicode="&#x39e;" horiz-adv-x="642" 
d="M62 588v128h518v-128h-518zM103 295v126h436v-126h-436zM62 0v128h518v-128h-518z" />
    <glyph glyph-name="Omicron" unicode="&#x39f;" horiz-adv-x="806" 
d="M403 -16q-106 0 -184 48.5t-121 133t-43 192.5q0 109 43 193t121 132.5t184 48.5t184 -48.5t121 -132.5t43 -193q0 -108 -43 -192.5t-121 -133t-184 -48.5zM403 112q95 0 153.5 64t58.5 182t-58.5 182t-153.5 64t-153.5 -64t-58.5 -182t58.5 -182t153.5 -64z" />
    <glyph glyph-name="Pi" unicode="&#x3a0;" horiz-adv-x="718" 
d="M88 0v716h542v-716h-134v588h-274v-588h-134z" />
    <glyph glyph-name="Rho" unicode="&#x3a1;" horiz-adv-x="651" 
d="M88 0v716h272q76 0 133 -24.5t89.5 -76t32.5 -131.5t-32.5 -131.5t-89.5 -76t-133 -24.5h-138v-252h-134zM222 380h143q55 0 86 25.5t31 78.5t-31 78.5t-86 25.5h-143v-208z" />
    <glyph glyph-name="Sigma" unicode="&#x3a3;" horiz-adv-x="604" 
d="M38 0v93l175 281l-169 267v75h507v-128h-312l128 -214v-10l-144 -236h333v-128h-518z" />
    <glyph glyph-name="Tau" unicode="&#x3a4;" horiz-adv-x="630" 
d="M248 0v588h-220v128h574v-128h-220v-588h-134z" />
    <glyph glyph-name="Upsilon" unicode="&#x3a5;" horiz-adv-x="642" 
d="M256 0v325l-238 391h159l142 -241h8l135 241h162l-234 -391v-325h-134z" />
    <glyph glyph-name="Phi" unicode="&#x3a6;" horiz-adv-x="845" 
d="M355 -10v58q-98 10 -165 54t-101 111t-34 145t34 145t101 111t165 54v58h135v-58q98 -10 165 -54t101 -111t34 -145t-34 -145t-101 -111t-165 -54v-58h-135zM655 358q0 72 -41 123.5t-124 63.5v-374q83 13 124 64t41 123zM190 358q0 -72 41 -123t124 -64v374
q-83 -12 -124 -63.5t-41 -123.5z" />
    <glyph glyph-name="Chi" unicode="&#x3a7;" horiz-adv-x="696" 
d="M23 0l233 374l-217 342h166l139 -234h8l139 234h168l-220 -342l235 -374h-168l-154 258h-8l-154 -258h-167z" />
    <glyph glyph-name="Psi" unicode="&#x3a8;" horiz-adv-x="806" 
d="M336 0v156q-74 1 -134.5 33t-97 96.5t-36.5 163.5v267h135v-274q0 -72 33 -115t100 -43v432h134v-432q69 2 101 45t32 113v274h135v-267q0 -99 -36.5 -163.5t-97 -96.5t-134.5 -33v-156h-134z" />
    <glyph glyph-name="uni03A9" unicode="&#x3a9;" horiz-adv-x="784" 
d="M64 0v117h170v32q-87 32 -133 101.5t-46 169.5t45 169.5t121.5 106t170.5 36.5t170.5 -36.5t121.5 -106t45 -169.5t-46 -169.5t-133 -101.5v-32h170v-117h-280v224q71 21 112 65t41 131q0 63 -27 106.5t-72.5 65.5t-101.5 22t-101.5 -22t-72.5 -65.5t-27 -106.5
q0 -87 41.5 -131t111.5 -65v-224h-280z" />
    <glyph glyph-name="Iotadieresis" unicode="&#x3aa;" horiz-adv-x="310" 
d="M60 817q-30 0 -51 21t-21 51t21 50.5t51 20.5t50.5 -20.5t20.5 -50.5t-20.5 -51t-50.5 -21zM250 817q-29 0 -50 21t-21 51t21 50.5t50 20.5q31 0 51.5 -20.5t20.5 -50.5t-20.5 -51t-51.5 -21zM89 0v716h134v-716h-134z" />
    <glyph glyph-name="Upsilondieresis" unicode="&#x3ab;" horiz-adv-x="642" 
d="M256 0v325l-238 391h159l142 -241h8l135 241h162l-234 -391v-325h-134zM421 817q-29 0 -50 21t-21 51t21 50.5t50 20.5q31 0 51.5 -20.5t20.5 -50.5t-20.5 -51t-51.5 -21zM219 817q-30 0 -51 21t-21 51t21 50.5t51 20.5t50.5 -20.5t20.5 -50.5t-20.5 -51t-50.5 -21z" />
    <glyph glyph-name="alphatonos" unicode="&#x3ac;" horiz-adv-x="700" 
d="M276 -16q-63 0 -107.5 23.5t-72.5 63.5t-41 89t-13 100q0 89 29 152t81.5 96.5t122.5 33.5q49 0 91.5 -20t66.5 -57h8v61h123v-330q0 -40 12.5 -58.5t40.5 -18.5q15 0 28 4.5t23 11.5v-130q-17 -6 -36 -9.5t-40 -3.5q-61 0 -91.5 28t-42.5 74h-8q-22 -55 -67.5 -82.5
t-106.5 -27.5zM307 106q57 0 95.5 39t38.5 118q0 80 -38.5 118.5t-95.5 38.5t-95.5 -38.5t-38.5 -118.5q0 -79 38.5 -118t95.5 -39zM216 629l32 166h153l-80 -166h-105z" />
    <glyph glyph-name="epsilontonos" unicode="&#x3ad;" horiz-adv-x="546" 
d="M279 -16q-109 0 -168 42t-59 111q0 48 28.5 81t81.5 43v5q-39 10 -61 30t-31 44t-9 47q0 69 57.5 112t175.5 43q59 0 120 -15.5t97 -51.5l-66 -91q-24 17 -61 31.5t-90 14.5q-64 0 -86.5 -18t-22.5 -40q0 -51 82 -51h111v-112h-122q-39 0 -56 -15t-17 -38
q0 -26 26.5 -40.5t73.5 -14.5q50 0 95.5 17t73.5 41l66 -80q-25 -37 -88.5 -66t-150.5 -29zM223 628l32 166h153l-80 -166h-105z" />
    <glyph glyph-name="etatonos" unicode="&#x3ae;" horiz-adv-x="613" 
d="M73 0v526h123v-64h8q23 37 64 58.5t92 21.5q91 0 138 -54.5t47 -152.5v-551h-131v533q0 50 -24.5 76.5t-68.5 26.5q-54 0 -85.5 -40t-31.5 -99v-281h-131zM222 629l32 166h153l-80 -166h-105z" />
    <glyph glyph-name="iotatonos" unicode="&#x3af;" horiz-adv-x="354" 
d="M233 -8q-77 0 -121 45.5t-44 125.5v363h131v-343q0 -68 61 -68q19 0 32.5 5t29.5 14v-125q-20 -8 -41.5 -12.5t-47.5 -4.5zM73 629l32 166h153l-80 -166h-105z" />
    <glyph glyph-name="upsilondieresistonos" unicode="&#x3b0;" horiz-adv-x="608" 
d="M305 -16q-110 0 -173.5 58t-63.5 167v317h131v-301q0 -69 31 -94.5t75 -25.5t74 25.5t30 94.5v301h131v-317q0 -109 -63 -167t-172 -58zM260 629l11 166h143l-59 -166h-95zM160 640q-27 0 -46.5 19t-19.5 46t19.5 46t46.5 19t45.5 -19t18.5 -46t-18.5 -46t-45.5 -19z
M485 640q-26 0 -46 19t-19 46t20 46t45 19q28 0 46 -19t19 -46t-18 -46t-47 -19z" />
    <glyph glyph-name="alpha" unicode="&#x3b1;" horiz-adv-x="700" 
d="M276 -16q-63 0 -107.5 23.5t-72.5 63.5t-41 89t-13 100q0 89 29 152t81.5 96.5t122.5 33.5q49 0 91.5 -20t66.5 -57h8v61h123v-330q0 -40 12.5 -58.5t40.5 -18.5q15 0 28 4.5t23 11.5v-130q-17 -6 -36 -9.5t-40 -3.5q-61 0 -91.5 28t-42.5 74h-8q-22 -55 -67.5 -82.5
t-106.5 -27.5zM307 106q57 0 95.5 39t38.5 118q0 80 -38.5 118.5t-95.5 38.5t-95.5 -38.5t-38.5 -118.5q0 -79 38.5 -118t95.5 -39z" />
    <glyph glyph-name="beta" unicode="&#x3b2;" horiz-adv-x="636" 
d="M73 -216v732q0 137 68.5 207t180.5 70q86 0 138.5 -29.5t76.5 -79t24 -108.5q0 -39 -14.5 -69.5t-36.5 -50.5t-45 -30v-8q38 -13 67 -35t46 -58t17 -91q0 -85 -34 -140.5t-88 -82.5t-114 -27q-46 0 -89 19t-66 59h-8l8 -76v-202h-131zM339 106q60 0 92.5 33.5t32.5 87.5
q0 63 -31.5 94.5t-101.5 31.5h-42v112h42q50 0 77.5 24.5t27.5 76.5q0 47 -29 76t-88 29q-61 0 -92 -38t-31 -107v-263q0 -78 39 -117.5t104 -39.5z" />
    <glyph glyph-name="gamma" unicode="&#x3b3;" horiz-adv-x="593" 
d="M231 -216v218l-217 524h148l131 -348h8l132 348h146l-218 -524v-218h-130z" />
    <glyph glyph-name="delta" unicode="&#x3b4;" horiz-adv-x="609" 
d="M305 -16q-78 0 -138.5 37t-95 99.5t-34.5 140.5q0 69 26 125t75.5 93t117.5 49l-166 146v102h453v-121h-252l131 -116q56 -49 87.5 -93t44.5 -87t13 -89q0 -82 -33 -147t-92 -102t-137 -37zM302 106q59 0 96.5 40t37.5 117t-37.5 117t-96.5 40t-96.5 -40t-37.5 -117
t37.5 -117t96.5 -40z" />
    <glyph glyph-name="epsilon" unicode="&#x3b5;" horiz-adv-x="546" 
d="M279 -16q-109 0 -168 42t-59 111q0 48 28.5 81t81.5 43v5q-39 10 -61 30t-31 44t-9 47q0 69 57.5 112t175.5 43q59 0 120 -15.5t97 -51.5l-66 -91q-24 17 -61 31.5t-90 14.5q-64 0 -86.5 -18t-22.5 -40q0 -51 82 -51h111v-112h-122q-39 0 -56 -15t-17 -38
q0 -26 26.5 -40.5t73.5 -14.5q50 0 95.5 17t73.5 41l66 -80q-25 -37 -88.5 -66t-150.5 -29z" />
    <glyph glyph-name="zeta" unicode="&#x3b6;" horiz-adv-x="513" 
d="M334 -184v104q20 0 29 9.5t9 22.5q0 14 -9 22.5t-28 9.5l-36 1q-132 4 -199.5 56t-67.5 144q0 67 34.5 132.5t100.5 144.5l168 202h-293v112h444v-93l-235 -295q-34 -43 -53.5 -72t-27 -52.5t-7.5 -49.5q0 -48 34 -77t106 -31l28 -1q83 -3 123.5 -41.5t40.5 -101.5
q0 -73 -46 -109.5t-115 -36.5z" />
    <glyph glyph-name="eta" unicode="&#x3b7;" horiz-adv-x="613" 
d="M73 0v526h123v-64h8q23 37 64 58.5t92 21.5q91 0 138 -54.5t47 -152.5v-551h-131v533q0 50 -24.5 76.5t-68.5 26.5q-54 0 -85.5 -40t-31.5 -99v-281h-131z" />
    <glyph glyph-name="theta" unicode="&#x3b8;" horiz-adv-x="614" 
d="M307 -16q-79 0 -137.5 40t-90.5 129t-32 235q0 147 32 235.5t90.5 128.5t137.5 40t137.5 -40t90.5 -128.5t32 -235.5q0 -146 -32 -235t-90.5 -129t-137.5 -40zM307 670q-35 0 -63 -20t-45.5 -70t-20.5 -140h258q-3 90 -21 140t-46 70t-62 20zM307 106q35 0 61.5 20
t43 68.5t22.5 133.5h-254q6 -85 22.5 -133.5t43 -68.5t61.5 -20z" />
    <glyph glyph-name="iota" unicode="&#x3b9;" horiz-adv-x="354" 
d="M233 -8q-77 0 -121 45.5t-44 125.5v363h131v-343q0 -68 61 -68q19 0 32.5 5t29.5 14v-125q-20 -8 -41.5 -12.5t-47.5 -4.5z" />
    <glyph glyph-name="kappa" unicode="&#x3ba;" horiz-adv-x="571" 
d="M73 0v526h131v-186h7l177 186h158v-8l-190 -194l201 -316v-8h-152l-143 227l-58 -59v-168h-131z" />
    <glyph glyph-name="lambda" unicode="&#x3bb;" horiz-adv-x="595" 
d="M13 0l223 523l-27 73q-16 44 -32.5 59t-48.5 15q-26 0 -59 -15v126q16 5 36.5 8t41.5 3q68 0 105 -30.5t65 -102.5l264 -659h-145l-131 333h-8l-135 -333h-149z" />
    <glyph glyph-name="uni03BC" unicode="&#x3bc;" horiz-adv-x="681" 
d="M73 -216v742h131v-314q0 -56 26 -81t66 -25q55 0 86.5 40t31.5 104v276h131v-336q0 -71 53 -71q15 0 28 4.5t23 11.5v-130q-18 -5 -36.5 -9t-40.5 -4q-60 0 -91 28t-42 74h-8q-22 -52 -60 -81t-87 -29q-25 0 -45 7t-35 17h-8l8 -65v-159h-131z" />
    <glyph glyph-name="nu" unicode="&#x3bd;" horiz-adv-x="593" 
d="M231 0l-217 526h148l131 -345h8l132 345h146l-219 -526h-129z" />
    <glyph glyph-name="xi" unicode="&#x3be;" horiz-adv-x="533" 
d="M334 -184v104q20 0 29 9.5t9 22.5q0 14 -9 22.5t-28 9.5l-36 1q-133 5 -200 62.5t-67 163.5q0 81 39 127.5t100 58.5v9q-55 15 -85 51t-30 85t22.5 78.5t52.5 43.5h-88v112h423v-108h-142q-52 0 -82.5 -18t-43.5 -45t-13 -53q0 -50 32.5 -75.5t73.5 -25.5h131v-113h-137
q-33 0 -61 -11t-45 -36.5t-17 -67.5q0 -111 141 -117l28 -1q83 -3 123.5 -41.5t40.5 -101.5q0 -73 -46 -109.5t-115 -36.5z" />
    <glyph glyph-name="omicron" unicode="&#x3bf;" horiz-adv-x="614" 
d="M307 -16q-81 0 -140.5 35.5t-92 98.5t-32.5 145t32.5 145t92 98.5t140.5 35.5q82 0 141 -35.5t91.5 -98.5t32.5 -145t-32.5 -145t-91.5 -98.5t-141 -35.5zM307 106q59 0 96.5 40t37.5 117t-37.5 117t-96.5 40t-96.5 -40t-37.5 -117t37.5 -117t96.5 -40z" />
    <glyph glyph-name="pi" unicode="&#x3c0;" horiz-adv-x="749" 
d="M148 0v414h-116v112h675v-112h-126v-227q0 -35 11.5 -53.5t44.5 -18.5q9 0 21.5 2.5t28.5 12.5v-126q-19 -6 -39.5 -9t-31.5 -3q-88 0 -124.5 46t-36.5 125v251h-181v-414h-126z" />
    <glyph glyph-name="rho" unicode="&#x3c1;" horiz-adv-x="636" 
d="M73 -216v470q0 97 35 160.5t95 95.5t136 32q85 0 142 -35t85.5 -97.5t28.5 -146.5q0 -89 -30.5 -151.5t-82.5 -95t-117 -32.5q-60 0 -99.5 22.5t-61.5 55.5h-8l8 -75v-203h-131zM330 106q57 0 95.5 39t38.5 118q0 80 -38.5 118.5t-95.5 38.5t-95.5 -38.5t-38.5 -118.5
q0 -79 38.5 -118t95.5 -39z" />
    <glyph glyph-name="uni03C2" unicode="&#x3c2;" horiz-adv-x="581" 
d="M344 -184v104q20 0 29 9.5t9 22.5q0 14 -9 22.5t-28 9.5l-36 1q-133 5 -200 79.5t-67 194.5q0 88 33.5 151.5t93.5 97.5t141 34q87 0 152 -44.5t81 -135.5l-128 -20q-8 35 -37 57t-73 22q-34 0 -64 -16.5t-49 -52t-19 -94.5q0 -66 34 -107.5t106 -44.5l28 -1
q83 -3 123.5 -41.5t40.5 -101.5q0 -73 -46 -109.5t-115 -36.5z" />
    <glyph glyph-name="sigma" unicode="&#x3c3;" horiz-adv-x="655" 
d="M299 -16q-77 0 -135 36t-90 97t-32 136q0 81 33 142.5t95 96t149 34.5h304v-112h-48l-81 10v-8q29 -23 48.5 -60t19.5 -96q0 -75 -33.5 -138t-93 -100.5t-136.5 -37.5zM303 105q53 0 90.5 40.5t37.5 106.5q0 74 -37.5 112.5t-90.5 38.5t-91.5 -38.5t-38.5 -112.5
q0 -44 17.5 -77t47.5 -51.5t65 -18.5z" />
    <glyph glyph-name="tau" unicode="&#x3c4;" horiz-adv-x="563" 
d="M356 -8q-77 0 -121 46t-44 125v251h-159v112h489v-112h-199v-227q0 -35 13 -53.5t47 -18.5q31 0 63 19v-125q-22 -8 -43 -12.5t-46 -4.5z" />
    <glyph glyph-name="upsilon" unicode="&#x3c5;" horiz-adv-x="608" 
d="M305 -16q-110 0 -173.5 58t-63.5 167v317h131v-301q0 -69 31 -94.5t75 -25.5t74 25.5t30 94.5v301h131v-317q0 -109 -63 -167t-172 -58z" />
    <glyph glyph-name="phi" unicode="&#x3c6;" horiz-adv-x="754" 
d="M311 -216v200q-85 4 -145 40t-92 97.5t-32 141.5t32 141.5t92 97.5t145 40v128h132v-128q127 -6 198 -79t71 -208q0 -76 -32 -135.5t-92 -95.5t-145 -40v-200h-132zM581 255q0 168 -138 180v-344q69 8 103.5 54t34.5 110zM173 263q0 -71 34.5 -118t103.5 -54v344
q-69 -7 -103.5 -53.5t-34.5 -118.5z" />
    <glyph glyph-name="chi" unicode="&#x3c7;" horiz-adv-x="588" 
d="M20 -216l206 387l-197 355h154l119 -238l112 238h149l-195 -367l201 -375h-154l-122 259l-123 -259h-150z" />
    <glyph glyph-name="psi" unicode="&#x3c8;" horiz-adv-x="762" 
d="M315 -216v201q-122 9 -184.5 72.5t-62.5 190.5v278h131v-278q0 -71 27 -103t89 -38v563h132v-563q62 6 89 38t27 103v278h131v-278q0 -127 -62.5 -190.5t-184.5 -72.5v-201h-132z" />
    <glyph glyph-name="omega" unicode="&#x3c9;" horiz-adv-x="844" 
d="M262 -16q-54 0 -102 24.5t-78 82.5t-30 156q0 50 10.5 101.5t31.5 98t53 79.5h138q-28 -33 -51 -78t-37 -96.5t-14 -104.5q0 -76 24 -108.5t64 -32.5q36 0 61 24.5t25 86.5v180h131v-180q0 -62 25 -86.5t60 -24.5q33 0 60.5 32.5t27.5 108.5q0 53 -14 104.5t-37 96.5
t-52 78h138q33 -33 54 -79.5t31.5 -98t10.5 -101.5q0 -88 -30 -146.5t-78 -87.5t-102 -29q-52 0 -94 25.5t-65 79.5q-22 -54 -65 -79.5t-96 -25.5z" />
    <glyph glyph-name="iotadieresis" unicode="&#x3ca;" horiz-adv-x="354" 
d="M233 -8q-77 0 -121 45.5t-44 125.5v363h131v-343q0 -68 61 -68q19 0 32.5 5t29.5 14v-125q-20 -8 -41.5 -12.5t-47.5 -4.5zM233 633q-29 0 -50 21t-21 51t21 50.5t50 20.5q31 0 51.5 -20.5t20.5 -50.5t-20.5 -51t-51.5 -21zM31 633q-30 0 -51 21t-21 51t21 50.5t51 20.5
t50.5 -20.5t20.5 -50.5t-20.5 -51t-50.5 -21z" />
    <glyph glyph-name="upsilondieresis" unicode="&#x3cb;" horiz-adv-x="608" 
d="M305 -16q-110 0 -173.5 58t-63.5 167v317h131v-301q0 -69 31 -94.5t75 -25.5t74 25.5t30 94.5v301h131v-317q0 -109 -63 -167t-172 -58zM406 633q-29 0 -50 21t-21 51t21 50.5t50 20.5q31 0 51.5 -20.5t20.5 -50.5t-20.5 -51t-51.5 -21zM204 633q-30 0 -51 21t-21 51
t21 50.5t51 20.5t50.5 -20.5t20.5 -50.5t-20.5 -51t-50.5 -21z" />
    <glyph glyph-name="omicrontonos" unicode="&#x3cc;" horiz-adv-x="614" 
d="M307 -16q-81 0 -140.5 35.5t-92 98.5t-32.5 145t32.5 145t92 98.5t140.5 35.5q82 0 141 -35.5t91.5 -98.5t32.5 -145t-32.5 -145t-91.5 -98.5t-141 -35.5zM307 106q59 0 96.5 40t37.5 117t-37.5 117t-96.5 40t-96.5 -40t-37.5 -117t37.5 -117t96.5 -40zM248 629l32 166
h153l-80 -166h-105z" />
    <glyph glyph-name="upsilontonos" unicode="&#x3cd;" horiz-adv-x="608" 
d="M305 -16q-110 0 -173.5 58t-63.5 167v317h131v-301q0 -69 31 -94.5t75 -25.5t74 25.5t30 94.5v301h131v-317q0 -109 -63 -167t-172 -58zM246 629l32 166h153l-80 -166h-105z" />
    <glyph glyph-name="omegatonos" unicode="&#x3ce;" horiz-adv-x="844" 
d="M262 -16q-54 0 -102 24.5t-78 82.5t-30 156q0 50 10.5 101.5t31.5 98t53 79.5h138q-28 -33 -51 -78t-37 -96.5t-14 -104.5q0 -76 24 -108.5t64 -32.5q36 0 61 24.5t25 86.5v180h131v-180q0 -62 25 -86.5t60 -24.5q33 0 60.5 32.5t27.5 108.5q0 53 -14 104.5t-37 96.5
t-52 78h138q33 -33 54 -79.5t31.5 -98t10.5 -101.5q0 -88 -30 -146.5t-78 -87.5t-102 -29q-52 0 -94 25.5t-65 79.5q-22 -54 -65 -79.5t-96 -25.5zM363 629l32 166h153l-80 -166h-105z" />
    <glyph glyph-name="uni03CF" unicode="&#x3cf;" horiz-adv-x="695" 
d="M408 -216l119 240l-226 278l-79 -94v-208h-134v716h134v-303h8l250 303h163v-8l-249 -296l294 -364v-8l-127 -256h-153z" />
    <glyph glyph-name="uni03D7" unicode="&#x3d7;" horiz-adv-x="595" 
d="M314 -216l118 242l-170 201l-58 -59v-168h-131v526h131v-186h7l177 186h158v-8l-190 -194l225 -275v-8l-125 -257h-142z" />
    <glyph glyph-name="uni0400" unicode="&#x400;" horiz-adv-x="618" 
d="M88 0v716h468v-128h-334v-152h303v-128h-303v-180h334v-128h-468zM270 813l-90 147h153l42 -147h-105z" />
    <glyph glyph-name="uni0401" unicode="&#x401;" horiz-adv-x="618" 
d="M88 0v716h468v-128h-334v-152h303v-128h-303v-180h334v-128h-468zM423 817q-29 0 -50 21t-21 51t21 50.5t50 20.5q31 0 51.5 -20.5t20.5 -50.5t-20.5 -51t-51.5 -21zM221 817q-30 0 -51 21t-21 51t21 50.5t51 20.5t50.5 -20.5t20.5 -50.5t-20.5 -51t-50.5 -21z" />
    <glyph glyph-name="uni0402" unicode="&#x402;" horiz-adv-x="760" 
d="M208 0v588h-180v128h532v-128h-218v-117l-8 -75h8q28 19 69 30.5t99 11.5q59 0 110 -27t82 -76t31 -117q0 -75 -34 -123.5t-93 -71.5t-135 -23h-31v119h22q65 0 100.5 27.5t35.5 68.5q0 45 -31.5 72t-83.5 27q-47 0 -84.5 -13t-56.5 -33v-268h-134z" />
    <glyph glyph-name="uni0403" unicode="&#x403;" horiz-adv-x="550" 
d="M88 0v716h425v-128h-291v-588h-134zM248 813l42 147h153l-90 -147h-105z" />
    <glyph glyph-name="uni0404" unicode="&#x404;" horiz-adv-x="751" 
d="M386 -16q-97 0 -172 46.5t-117 130.5t-42 197q0 114 42.5 198t118 130t173.5 46q78 0 145 -27t110.5 -80t52.5 -133l-138 -23q-14 64 -58 100t-112 36q-72 0 -128.5 -48t-71.5 -140h308v-118h-308q14 -91 69.5 -139t130.5 -48q65 0 111 35t59 98l141 -15
q-15 -72 -53.5 -127.5t-103 -87t-157.5 -31.5z" />
    <glyph glyph-name="uni0405" unicode="&#x405;" horiz-adv-x="631" 
d="M324 -16q-118 0 -189.5 57t-93.5 166l135 30q11 -57 48.5 -91t100.5 -34q56 0 90 23.5t34 64.5q0 30 -13.5 49t-45.5 34.5t-88 32.5l-52 16q-26 8 -57 21.5t-59 36.5t-45.5 57t-17.5 82q0 57 28 103t82 73t132 27q114 0 178 -53t77 -145l-128 -19q-10 42 -41 67.5
t-84 25.5q-51 0 -82 -20t-31 -53q0 -34 30.5 -56.5t95.5 -42.5l50 -15q61 -18 107 -44.5t72 -68t26 -105.5q0 -73 -36.5 -121.5t-95.5 -73t-127 -24.5z" />
    <glyph glyph-name="uni0406" unicode="&#x406;" horiz-adv-x="310" 
d="M88 0v716h134v-716h-134z" />
    <glyph glyph-name="uni0407" unicode="&#x407;" horiz-adv-x="298" 
d="M239 822q-28 0 -48 20t-20 47q0 29 20 48.5t48 19.5t47.5 -19.5t19.5 -48.5q0 -27 -19.5 -47t-47.5 -20zM70 822q-28 0 -48 20t-20 47q0 29 20 48.5t48 19.5t47.5 -19.5t19.5 -48.5q0 -27 -19.5 -47t-47.5 -20zM88 0v716h134v-716h-134z" />
    <glyph glyph-name="uni0408" unicode="&#x408;" horiz-adv-x="575" 
d="M271 -16q-97 0 -162.5 56t-79.5 162l130 27q8 -56 37 -86.5t75 -30.5q48 0 75 30.5t27 86.5v487h134v-490q0 -82 -31 -135.5t-84 -80t-121 -26.5z" />
    <glyph glyph-name="uni0409" unicode="&#x409;" horiz-adv-x="1020" 
d="M71 -8q-10 0 -23.5 1.5t-21.5 3.5v127q8 -3 16.5 -4t16.5 -1q49 0 61.5 68t12.5 213v316h476v-255h104q70 0 129.5 -26t96 -77t36.5 -126t-36.5 -126.5t-96 -78.5t-129.5 -27h-238v588h-208v-253q0 -70 -8 -132.5t-29 -109.5t-59.5 -74t-99.5 -27zM609 125h116
q54 0 84.5 27t30.5 80t-30.5 80t-84.5 27h-116v-214z" />
    <glyph glyph-name="uni040A" unicode="&#x40a;" horiz-adv-x="1052" 
d="M88 0v716h134v-285h284v285h134v-285h119q69 0 125 -24.5t89.5 -72t33.5 -118.5t-33.5 -119t-89.5 -72.5t-125 -24.5h-253v306h-284v-306h-134zM640 125h124q47 0 74 26t27 65t-27 64.5t-74 25.5h-124v-181z" />
    <glyph glyph-name="uni040B" unicode="&#x40b;" horiz-adv-x="778" 
d="M207 0v588h-179v128h532v-128h-218v-147l-8 -75h8q29 32 72.5 52t98.5 20q59 0 105.5 -24.5t73.5 -71.5t27 -115v-227h-135v198q0 56 -27 86t-79 30q-45 0 -80.5 -22t-55.5 -54v-238h-135z" />
    <glyph glyph-name="uni040C" unicode="&#x40c;" horiz-adv-x="668" 
d="M88 0v716h135v-336h8l246 336h161v-8l-262 -353l280 -347v-8h-168l-257 319h-8v-319h-135zM283 813l42 147h153l-90 -147h-105z" />
    <glyph glyph-name="uni040D" unicode="&#x40d;" horiz-adv-x="748" 
d="M88 0v716h135v-369l-8 -138h8l302 507h135v-716h-135v360l8 138h-8l-302 -498h-135zM324 813l-90 147h153l42 -147h-105z" />
    <glyph glyph-name="uni040E" unicode="&#x40e;" horiz-adv-x="648" 
d="M197 -16q-28 0 -47 3.5t-36 10.5v120q43 -13 73 -13q23 0 45 13t32 38l16 41l-265 519h154l176 -359h6l141 359h146l-249 -599q-28 -68 -76.5 -100.5t-115.5 -32.5zM326 814q-70 0 -113.5 40.5t-43.5 105.5h91q0 -25 16 -46.5t50 -21.5q33 0 49.5 21.5t16.5 46.5h90
q0 -65 -43 -105.5t-113 -40.5z" />
    <glyph glyph-name="uni040F" unicode="&#x40f;" horiz-adv-x="722" 
d="M296 -152v152h-208v716h135v-588h276v588h135v-716h-209v-152h-129z" />
    <glyph glyph-name="uni0410" unicode="&#x410;" horiz-adv-x="704" 
d="M14 0l260 716h155l261 -716h-149l-58 171h-262l-58 -171h-149zM323 474l-60 -179h178l-60 179l-25 86h-8z" />
    <glyph glyph-name="uni0411" unicode="&#x411;" horiz-adv-x="648" 
d="M88 0v716h445v-124h-310v-149h119q70 0 129.5 -25t96 -74t36.5 -121t-36.5 -122t-96 -75.5t-129.5 -25.5h-254zM223 125h131q54 0 84.5 24.5t30.5 73.5t-30.5 73.5t-84.5 24.5h-131v-196z" />
    <glyph glyph-name="uni0412" unicode="&#x412;" horiz-adv-x="674" 
d="M88 0v716h295q99 0 160 -45.5t61 -131.5q0 -56 -27.5 -94t-67.5 -58v-8q55 -19 87.5 -62t32.5 -105q0 -66 -31.5 -113.5t-83.5 -73t-116 -25.5h-310zM222 436h157q44 0 69 21.5t25 58.5t-24 58t-66 21h-161v-159zM222 122h170q50 0 76 28.5t26 70.5t-26.5 70.5
t-78.5 28.5h-167v-198z" />
    <glyph glyph-name="uni0413" unicode="&#x413;" horiz-adv-x="550" 
d="M88 0v716h425v-128h-291v-588h-134z" />
    <glyph glyph-name="uni0414" unicode="&#x414;" horiz-adv-x="756" 
d="M45 -152v280h65q18 42 29.5 101t17.5 128t6 141v218h475v-588h80v-280h-129v152h-415v-152h-129zM248 128h256v460h-212v-113q0 -97 -11 -185.5t-33 -153.5v-8z" />
    <glyph glyph-name="uni0415" unicode="&#x415;" horiz-adv-x="618" 
d="M88 0v716h468v-128h-334v-152h303v-128h-303v-180h334v-128h-468z" />
    <glyph glyph-name="uni0416" unicode="&#x416;" horiz-adv-x="970" 
d="M11 0v8l263 352l-242 348v8h161l217 -336h8v336h135v-336h8l217 336h161v-8l-243 -348l263 -352v-8h-172l-226 319h-8v-319h-135v319h-8l-227 -319h-172z" />
    <glyph glyph-name="uni0417" unicode="&#x417;" horiz-adv-x="667" 
d="M347 -16q-71 0 -131 23.5t-102.5 74t-61.5 132.5l122 27q16 -61 59.5 -97.5t115.5 -36.5q36 0 67 10.5t50 33t19 58.5q0 45 -32 75t-91 30h-107v118h106q51 0 75.5 24.5t24.5 64.5q0 47 -31.5 70.5t-85.5 23.5q-59 0 -98.5 -26.5t-53.5 -72.5l-124 20q23 92 96.5 144
t179.5 52q75 0 132.5 -25t89.5 -68t32 -99q0 -49 -26.5 -90.5t-73.5 -66.5v-8q52 -20 88.5 -60t36.5 -106q0 -59 -32.5 -110.5t-94 -83t-149.5 -31.5z" />
    <glyph glyph-name="uni0418" unicode="&#x418;" horiz-adv-x="748" 
d="M88 0v716h135v-369l-8 -138h8l302 507h135v-716h-135v360l8 138h-8l-302 -498h-135z" />
    <glyph glyph-name="uni0419" unicode="&#x419;" horiz-adv-x="748" 
d="M88 0v716h135v-369l-8 -138h8l302 507h135v-716h-135v360l8 138h-8l-302 -498h-135zM375 814q-70 0 -113.5 40.5t-43.5 105.5h91q0 -25 16 -46.5t50 -21.5q33 0 49.5 21.5t16.5 46.5h90q0 -65 -43 -105.5t-113 -40.5z" />
    <glyph glyph-name="uni041A" unicode="&#x41a;" horiz-adv-x="668" 
d="M88 0v716h135v-336h8l246 336h161v-8l-262 -353l280 -347v-8h-168l-257 319h-8v-319h-135z" />
    <glyph glyph-name="uni041B" unicode="&#x41b;" horiz-adv-x="716" 
d="M71 -8q-10 0 -23.5 1.5t-21.5 3.5v127q8 -3 16.5 -4t16.5 -1q52 0 65.5 68t13.5 213v316h490v-716h-134v588h-227v-253q0 -70 -8 -132.5t-29 -109.5t-59.5 -74t-99.5 -27z" />
    <glyph glyph-name="uni041C" unicode="&#x41c;" horiz-adv-x="894" 
d="M88 0v716h173l182 -502h8l181 502h174v-716h-133v351l8 117h-8l-174 -468h-104l-175 468h-8l8 -117v-351h-132z" />
    <glyph glyph-name="uni041D" unicode="&#x41d;" horiz-adv-x="742" 
d="M88 0v716h134v-286h298v286h134v-716h-134v302h-298v-302h-134z" />
    <glyph glyph-name="uni041E" unicode="&#x41e;" horiz-adv-x="806" 
d="M403 -16q-106 0 -184 48.5t-121 133t-43 192.5q0 109 43 193t121 132.5t184 48.5t184 -48.5t121 -132.5t43 -193q0 -108 -43 -192.5t-121 -133t-184 -48.5zM403 112q95 0 153.5 64t58.5 182t-58.5 182t-153.5 64t-153.5 -64t-58.5 -182t58.5 -182t153.5 -64z" />
    <glyph glyph-name="uni041F" unicode="&#x41f;" horiz-adv-x="730" 
d="M88 0v716h554v-716h-134v588h-286v-588h-134z" />
    <glyph glyph-name="uni0420" unicode="&#x420;" horiz-adv-x="651" 
d="M88 0v716h272q76 0 133 -24.5t89.5 -76t32.5 -131.5t-32.5 -131.5t-89.5 -76t-133 -24.5h-138v-252h-134zM222 380h143q55 0 86 25.5t31 78.5t-31 78.5t-86 25.5h-143v-208z" />
    <glyph glyph-name="uni0421" unicode="&#x421;" horiz-adv-x="748" 
d="M386 -16q-97 0 -172 46.5t-117 130.5t-42 197q0 114 42.5 198t118 130t173.5 46q77 0 143 -27t109.5 -80t52.5 -133l-138 -23q-14 64 -57.5 100t-109.5 36q-55 0 -100.5 -28.5t-72 -83.5t-26.5 -135q0 -79 26 -134t71 -83.5t102 -28.5q64 0 109 35t58 98l141 -15
q-15 -72 -53.5 -127.5t-102 -87t-155.5 -31.5z" />
    <glyph glyph-name="uni0422" unicode="&#x422;" horiz-adv-x="630" 
d="M248 0v588h-220v128h574v-128h-220v-588h-134z" />
    <glyph glyph-name="uni0423" unicode="&#x423;" horiz-adv-x="648" 
d="M197 -16q-28 0 -47 3.5t-36 10.5v120q43 -13 73 -13q23 0 45 13t32 38l16 41l-265 519h154l176 -359h6l141 359h146l-249 -599q-28 -68 -76.5 -100.5t-115.5 -32.5z" />
    <glyph glyph-name="uni0424" unicode="&#x424;" horiz-adv-x="830" 
d="M347 -16v91l-15 1q-80 8 -142 43.5t-97 97.5t-35 148q0 87 35 148.5t97 97.5t142 43l15 1v77h135v-77l15 -1q80 -7 142 -43t97.5 -97.5t35.5 -148.5q0 -86 -35.5 -148t-97.5 -97.5t-142 -43.5l-15 -1v-91h-135zM332 197l15 -1v338l-15 -1q-60 -5 -99.5 -48.5
t-39.5 -119.5t39.5 -119.5t99.5 -48.5zM497 533l-15 1v-338l15 1q60 5 100 48.5t40 119.5t-40 119.5t-100 48.5z" />
    <glyph glyph-name="uni0425" unicode="&#x425;" horiz-adv-x="696" 
d="M23 0l233 374l-217 342h166l139 -234h8l139 234h168l-220 -342l235 -374h-168l-154 258h-8l-154 -258h-167z" />
    <glyph glyph-name="uni0426" unicode="&#x426;" horiz-adv-x="750" 
d="M583 -152v152h-495v716h134v-588h276v588h134v-588h80v-280h-129z" />
    <glyph glyph-name="uni0427" unicode="&#x427;" horiz-adv-x="675" 
d="M452 0v283q-60 -23 -155 -23q-70 0 -125 27.5t-87 79t-32 122.5v227h135v-205q0 -61 38.5 -92t96.5 -31q42 0 72.5 7t56.5 20v301h135v-716h-135z" />
    <glyph glyph-name="uni0428" unicode="&#x428;" horiz-adv-x="957" 
d="M88 0v716h135v-588h188v588h135v-588h188v588h135v-716h-781z" />
    <glyph glyph-name="uni0429" unicode="&#x429;" horiz-adv-x="991" 
d="M820 -152v152h-732v716h135v-588h188v588h135v-588h188v588h135v-588h80v-280h-129z" />
    <glyph glyph-name="uni042A" unicode="&#x42a;" horiz-adv-x="775" 
d="M218 0v593h-191v123h326v-255h115q70 0 129.5 -26t96 -77t36.5 -126t-36.5 -126.5t-96 -78.5t-129.5 -27h-250zM353 125h128q53 0 83.5 27t30.5 80t-30.5 80t-83.5 27h-128v-214z" />
    <glyph glyph-name="uni042B" unicode="&#x42b;" horiz-adv-x="896" 
d="M88 0v716h135v-255h114q70 0 128.5 -26t94 -77t35.5 -126t-35.5 -126.5t-94 -78.5t-128.5 -27h-249zM673 0v716h135v-716h-135zM223 125h126q54 0 83.5 27t29.5 80t-29.5 80t-83.5 27h-126v-214z" />
    <glyph glyph-name="uni042C" unicode="&#x42c;" horiz-adv-x="655" 
d="M88 0v716h135v-255h129q70 0 128.5 -26t94 -77t35.5 -126t-35.5 -126.5t-94 -78.5t-128.5 -27h-264zM223 125h141q54 0 83.5 27t29.5 80t-29.5 80t-83.5 27h-141v-214z" />
    <glyph glyph-name="uni042D" unicode="&#x42d;" horiz-adv-x="751" 
d="M365 -16q-92 0 -155.5 29t-101.5 81t-54 119l141 15q14 -55 58.5 -85.5t108.5 -30.5q75 0 129 48t68 139h-315v118h315q-15 92 -70 140t-127 48q-65 0 -108.5 -30t-57.5 -83l-131 23q9 72 51 120.5t106.5 72.5t139.5 24q98 0 173.5 -46t118 -130t42.5 -198
q0 -113 -42 -197t-116.5 -130.5t-172.5 -46.5z" />
    <glyph glyph-name="uni042E" unicode="&#x42e;" horiz-adv-x="1086" 
d="M693 -16q-94 0 -165.5 40.5t-115 112.5t-54.5 165h-136v-302h-134v716h134v-286h138q13 90 57 158t114.5 106t161.5 38q103 0 178.5 -48.5t117.5 -132.5t42 -193q0 -108 -42 -192.5t-117.5 -133t-178.5 -48.5zM693 112q90 0 146 64t56 182t-56 182t-146 64
q-91 0 -146.5 -64t-55.5 -182t55.5 -182t146.5 -64z" />
    <glyph glyph-name="uni042F" unicode="&#x42f;" horiz-adv-x="682" 
d="M45 0v8l185 265v7q-62 24 -102.5 76t-40.5 131q0 74 36 125t94.5 77.5t127.5 26.5h249v-716h-135v260h-87l-177 -260h-150zM333 382h126v209h-126q-52 0 -81.5 -26.5t-29.5 -77.5q0 -53 29.5 -79t81.5 -26z" />
    <glyph glyph-name="uni0430" unicode="&#x430;" horiz-adv-x="594" 
d="M234 -16q-84 0 -133 46t-49 123q0 53 27 90.5t73.5 57.5t103.5 20q37 0 71.5 -4.5t70.5 -12.5v42q0 41 -29 66t-82 25q-39 0 -68 -19.5t-40 -54.5l-114 24q12 53 45.5 87t80 51t98.5 17q119 0 178 -54t59 -158v-330h-128v52h-8q-23 -28 -63 -48t-93 -20zM267 86
q62 0 96.5 36.5t34.5 84.5q-28 9 -60 14.5t-63 5.5q-49 0 -71 -20.5t-22 -52.5q0 -30 24 -49t61 -19z" />
    <glyph glyph-name="uni0431" unicode="&#x431;" horiz-adv-x="599" 
d="M299 -16q-68 0 -125.5 33t-92.5 108.5t-35 201.5q0 112 15.5 191.5t68.5 134.5q35 35 83 53.5t118 30.5q35 6 51 11.5t20.5 12.5t4.5 15h107q0 -49 -17.5 -77t-53.5 -42.5t-92 -22.5q-49 -7 -85.5 -19t-59.5 -35q-25 -24 -39.5 -60.5t-16.5 -89.5h8q27 44 72 67.5
t98 23.5q66 0 117.5 -36t81.5 -96.5t30 -135.5t-32 -136t-90 -97t-136 -36zM301 105q57 0 91.5 42.5t34.5 112.5q0 68 -34.5 108.5t-90.5 40.5t-90.5 -40.5t-34.5 -108.5q0 -70 34.5 -112.5t89.5 -42.5z" />
    <glyph glyph-name="uni0432" unicode="&#x432;" horiz-adv-x="572" 
d="M73 0v526h283q47 0 83 -18t56.5 -48.5t20.5 -66.5q0 -42 -16 -72.5t-44 -44.5v-8q35 -16 58.5 -46.5t23.5 -73.5q0 -47 -24.5 -80.5t-63 -50.5t-80.5 -17h-297zM203 318h132q23 0 38 15t15 39t-15 38.5t-38 14.5h-132v-107zM203 105h152q26 0 41.5 17t15.5 42
q0 26 -15.5 43t-41.5 17h-152v-119z" />
    <glyph glyph-name="uni0433" unicode="&#x433;" horiz-adv-x="461" 
d="M73 0v526h352v-112h-221v-414h-131z" />
    <glyph glyph-name="uni0434" unicode="&#x434;" horiz-adv-x="646" 
d="M25 -152v264h58q20 33 33 95.5t13 129.5v189h406v-414h72v-264h-118v152h-346v-152h-118zM219 112h185v302h-152v-88q0 -55 -8 -110t-25 -100v-4z" />
    <glyph glyph-name="uni0435" unicode="&#x435;" horiz-adv-x="590" 
d="M301 -16q-79 0 -137 34t-90 97t-32 148q0 86 33.5 148.5t92.5 96.5t134 34q125 0 185.5 -68t60.5 -184q0 -33 -3 -57h-377q7 -66 45 -99.5t93 -33.5q46 0 74.5 22.5t41.5 54.5l114 -31q-24 -72 -81.5 -117t-153.5 -45zM303 436q-47 0 -81 -27.5t-48 -82.5h249
q-4 50 -34.5 80t-85.5 30z" />
    <glyph glyph-name="uni0436" unicode="&#x436;" horiz-adv-x="800" 
d="M15 0v8l184 270l-174 240v8h147l155 -228h8v228h130v-228h8l156 228h147v-8l-174 -240l183 -270v-8h-147l-165 252h-8v-252h-130v252h-8l-164 -252h-148z" />
    <glyph glyph-name="uni0437" unicode="&#x437;" horiz-adv-x="514" 
d="M257 -16q-49 0 -96 15t-82.5 51.5t-51.5 98.5l115 28q11 -38 42.5 -58.5t72.5 -20.5q39 0 66 17t27 45q0 27 -15.5 42.5t-59.5 15.5h-84v94h83q38 0 52 16.5t14 44.5t-22.5 45t-61.5 17q-33 0 -63 -16.5t-47 -55.5l-109 31q18 54 51 86.5t76 47t90 14.5q60 0 107 -19
t74 -53.5t27 -80.5q0 -38 -18 -68t-50 -45v-8q40 -19 62.5 -53.5t22.5 -74.5q0 -48 -29 -83t-79 -54t-114 -19z" />
    <glyph glyph-name="uni0438" unicode="&#x438;" horiz-adv-x="632" 
d="M73 0v526h131v-240l-8 -99h8l224 339h131v-526h-131v239l8 99h-8l-224 -338h-131z" />
    <glyph glyph-name="uni0439" unicode="&#x439;" horiz-adv-x="632" 
d="M73 0v526h131v-240l-8 -99h8l224 339h131v-526h-131v239l8 99h-8l-224 -338h-131zM316 630q-70 0 -113.5 40.5t-43.5 105.5h91q0 -25 16 -46.5t50 -21.5q33 0 49.5 21.5t16.5 46.5h90q0 -65 -43 -105.5t-113 -40.5z" />
    <glyph glyph-name="uni043A" unicode="&#x43a;" horiz-adv-x="564" 
d="M73 0v526h131v-228h8l190 228h144v-8l-202 -238l206 -272v-8h-154l-184 252h-8v-252h-131z" />
    <glyph glyph-name="uni043B" unicode="&#x43b;" horiz-adv-x="602" 
d="M82 -8q-27 0 -54 7v120q18 -7 33 -7q28 0 40.5 22.5t16 62t3.5 90.5v239h408v-526h-131v414h-153v-141q0 -134 -40 -207.5t-123 -73.5z" />
    <glyph glyph-name="uni043C" unicode="&#x43c;" horiz-adv-x="738" 
d="M73 0v526h151l142 -298h7l144 298h148v-526h-124v231l8 99h-8l-129 -264h-85l-130 264h-8l8 -99v-231h-124z" />
    <glyph glyph-name="uni043D" unicode="&#x43d;" horiz-adv-x="618" 
d="M73 0v526h131v-202h210v202h131v-526h-131v212h-210v-212h-131z" />
    <glyph glyph-name="uni043E" unicode="&#x43e;" horiz-adv-x="614" 
d="M307 -16q-81 0 -140.5 35.5t-92 98.5t-32.5 145t32.5 145t92 98.5t140.5 35.5q82 0 141 -35.5t91.5 -98.5t32.5 -145t-32.5 -145t-91.5 -98.5t-141 -35.5zM307 106q59 0 96.5 40t37.5 117t-37.5 117t-96.5 40t-96.5 -40t-37.5 -117t37.5 -117t96.5 -40z" />
    <glyph glyph-name="uni043F" unicode="&#x43f;" horiz-adv-x="608" 
d="M73 0v526h462v-526h-131v414h-200v-414h-131z" />
    <glyph glyph-name="uni0440" unicode="&#x440;" horiz-adv-x="636" 
d="M73 -216v742h123v-61h8q20 31 59.5 54t97.5 23q67 0 119.5 -32t83.5 -94t31 -153q0 -90 -31 -152.5t-83.5 -94.5t-119.5 -32q-60 0 -99.5 23.5t-57.5 54.5h-8l8 -78v-200h-131zM330 106q57 0 95.5 39t38.5 118q0 80 -38.5 118.5t-95.5 38.5t-95.5 -38.5t-38.5 -118.5
q0 -79 38.5 -118t95.5 -39z" />
    <glyph glyph-name="uni0441" unicode="&#x441;" horiz-adv-x="581" 
d="M300 -16q-76 0 -134 34.5t-91 97.5t-33 147q0 85 33.5 147.5t92.5 97t137 34.5q92 0 157 -45t81 -135l-128 -20q-10 39 -40 59t-73 20q-52 0 -90.5 -40.5t-38.5 -117.5t37.5 -117.5t91.5 -40.5q88 0 114 89l126 -29q-19 -79 -80 -130t-162 -51z" />
    <glyph glyph-name="uni0442" unicode="&#x442;" horiz-adv-x="516" 
d="M193 0v414h-163v112h456v-112h-162v-414h-131z" />
    <glyph glyph-name="uni0443" unicode="&#x443;" horiz-adv-x="595" 
d="M116 -226q-28 0 -52 5t-40 12v127q13 -7 37.5 -15.5t52.5 -8.5q32 0 53.5 16.5t43.5 63.5l19 43l-217 509h149l135 -333h8l131 333h145l-257 -605q-23 -54 -51 -86.5t-65.5 -46.5t-91.5 -14z" />
    <glyph glyph-name="uni0444" unicode="&#x444;" horiz-adv-x="754" 
d="M311 -216v210q-85 4 -145 38.5t-92 93.5t-32 137t32 137t92 93.5t145 38.5v244h131v-243q128 -6 199 -77t71 -201q0 -73 -32 -130.5t-92.5 -92t-145.5 -38.5v-210h-131zM582 255q0 159 -140 170v-324q69 7 104.5 50.5t35.5 103.5zM172 263q0 -67 35 -111t104 -51v324
q-69 -7 -104 -51t-35 -111z" />
    <glyph glyph-name="uni0445" unicode="&#x445;" horiz-adv-x="553" 
d="M20 0l179 267l-179 259h154l101 -153h6l94 153h159l-181 -259l181 -267h-154l-101 157h-6l-100 -157h-153z" />
    <glyph glyph-name="uni0446" unicode="&#x446;" horiz-adv-x="636" 
d="M479 -152v152h-406v526h131v-414h190v414h131v-414h72v-264h-118z" />
    <glyph glyph-name="uni0447" unicode="&#x447;" horiz-adv-x="556" 
d="M352 0v188q-22 -11 -49.5 -18t-59.5 -7q-88 0 -140.5 56.5t-52.5 150.5v156h131v-146q0 -97 88 -97q23 0 45 6.5t38 19.5v217h131v-526h-131z" />
    <glyph glyph-name="uni0448" unicode="&#x448;" horiz-adv-x="829" 
d="M73 0v526h129v-414h148v414h129v-414h148v414h129v-526h-683z" />
    <glyph glyph-name="uni0449" unicode="&#x449;" horiz-adv-x="867" 
d="M710 -152v152h-637v526h129v-414h148v414h129v-414h148v414h129v-414h72v-264h-118z" />
    <glyph glyph-name="uni044A" unicode="&#x44a;" horiz-adv-x="614" 
d="M159 0v414h-129v112h260v-167h107q86 0 135.5 -48t49.5 -131t-49.5 -131.5t-135.5 -48.5h-238zM290 105h92q33 0 52 21.5t19 53.5q0 35 -19 55.5t-52 20.5h-92v-151z" />
    <glyph glyph-name="uni044B" unicode="&#x44b;" horiz-adv-x="760" 
d="M73 0v526h131v-166h104q86 0 136 -48.5t50 -131.5t-50 -131.5t-136 -48.5h-235zM556 0v526h131v-526h-131zM204 105h89q33 0 52.5 20.5t19.5 54.5q0 35 -19.5 56t-52.5 21h-89v-152z" />
    <glyph glyph-name="uni044C" unicode="&#x44c;" horiz-adv-x="536" 
d="M73 0v526h131v-167h115q86 0 135.5 -48t49.5 -131t-49.5 -131.5t-135.5 -48.5h-246zM204 105h100q33 0 52 20t19 55t-19 55.5t-52 20.5h-100v-151z" />
    <glyph glyph-name="uni044D" unicode="&#x44d;" horiz-adv-x="587" 
d="M280 -16q-94 0 -157 46t-84 124l125 20q13 -34 43 -54t76 -20q55 0 88 32t46 86h-206v94h204q-10 52 -45 83t-86 31q-50 0 -79.5 -22.5t-47.5 -60.5l-119 29q26 78 91 124t156 46q78 0 136.5 -34t91 -96.5t32.5 -148.5q0 -85 -33.5 -148t-93 -97t-138.5 -34z" />
    <glyph glyph-name="uni044E" unicode="&#x44e;" horiz-adv-x="833" 
d="M536 -16q-106 0 -172.5 62.5t-79.5 165.5h-80v-212h-131v526h131v-202h83q17 98 82.5 158t166.5 60q79 0 136 -35.5t88 -98.5t31 -145t-31 -145t-88 -98.5t-136 -35.5zM536 106q55 0 89.5 40t34.5 117t-34.5 117t-89.5 40t-89.5 -40t-34.5 -117t34.5 -117t89.5 -40z" />
    <glyph glyph-name="uni044F" unicode="&#x44f;" horiz-adv-x="560" 
d="M31 0v8l138 178l-1 3q-50 19 -81 59t-31 98q0 83 50 131.5t135 48.5h246v-526h-131v173h-48l-133 -173h-144zM262 270h94v151h-94q-33 0 -55 -20t-22 -55q0 -36 22 -56t55 -20z" />
    <glyph glyph-name="uni0450" unicode="&#x450;" horiz-adv-x="590" 
d="M301 -16q-79 0 -137 34t-90 97t-32 148q0 86 33.5 148.5t92.5 96.5t134 34q125 0 185.5 -68t60.5 -184q0 -33 -3 -57h-377q7 -66 45 -99.5t93 -33.5q46 0 74.5 22.5t41.5 54.5l114 -31q-24 -72 -81.5 -117t-153.5 -45zM303 436q-47 0 -81 -27.5t-48 -82.5h249
q-4 50 -34.5 80t-85.5 30zM243 629l-90 147h153l42 -147h-105z" />
    <glyph glyph-name="uni0451" unicode="&#x451;" horiz-adv-x="590" 
d="M301 -16q-79 0 -137 34t-90 97t-32 148q0 86 33.5 148.5t92.5 96.5t134 34q125 0 185.5 -68t60.5 -184q0 -33 -3 -57h-377q7 -66 45 -99.5t93 -33.5q46 0 74.5 22.5t41.5 54.5l114 -31q-24 -72 -81.5 -117t-153.5 -45zM303 436q-47 0 -81 -27.5t-48 -82.5h249
q-4 50 -34.5 80t-85.5 30zM404 633q-29 0 -50 21t-21 51t21 50.5t50 20.5q31 0 51.5 -20.5t20.5 -50.5t-20.5 -51t-51.5 -21zM202 633q-30 0 -51 21t-21 51t21 50.5t51 20.5t50.5 -20.5t20.5 -50.5t-20.5 -51t-50.5 -21z" />
    <glyph glyph-name="uni0452" unicode="&#x452;" horiz-adv-x="623" 
d="M399 -226q-19 0 -34.5 1.5t-34.5 5.5v126q11 -5 22.5 -9t26.5 -4q45 0 45 56v366q0 51 -25.5 77.5t-72.5 26.5q-55 0 -88.5 -41t-33.5 -105v-274h-131v611h-67v91h67v74h131v-74h131v-91h-131v-69l-8 -86h8q20 39 63.5 62.5t94.5 23.5q95 0 144 -55t49 -150v-387
q0 -63 -21 -102t-56 -56.5t-79 -17.5z" />
    <glyph glyph-name="uni0453" unicode="&#x453;" horiz-adv-x="461" 
d="M73 0v526h352v-112h-221v-414h-131zM196 629l42 147h153l-90 -147h-105z" />
    <glyph glyph-name="uni0454" unicode="&#x454;" horiz-adv-x="583" 
d="M300 -16q-76 0 -134 34.5t-91 97.5t-33 147q0 85 33.5 147.5t92.5 97t137 34.5q93 0 158.5 -45t81.5 -134l-123 -19q-11 40 -42.5 60t-77.5 20q-47 0 -84.5 -29t-49.5 -83h208v-94h-207q12 -56 48.5 -86.5t84.5 -30.5q93 0 121 90l122 -30q-19 -76 -80.5 -126.5
t-164.5 -50.5z" />
    <glyph glyph-name="uni0455" unicode="&#x455;" horiz-adv-x="525" 
d="M269 -16q-102 0 -160.5 47.5t-71.5 121.5l125 21q8 -36 36 -55.5t71 -19.5q37 0 64.5 13.5t27.5 42.5q0 26 -26 42t-72 24l-60 11q-64 12 -106 50t-42 101q0 47 27.5 83t74 56t104.5 20q186 0 214 -144l-115 -18q-11 31 -36 44t-60 13q-37 0 -59.5 -15t-22.5 -35
q0 -21 18 -35t58 -22l73 -15q77 -16 119 -52.5t42 -105.5q0 -52 -30 -91t-80.5 -60.5t-112.5 -21.5z" />
    <glyph glyph-name="uni0456" unicode="&#x456;" horiz-adv-x="278" 
d="M140 616q-35 0 -60 25t-25 60t25 60t60 25t60 -25t25 -60t-25 -60t-60 -25zM74 0v526h131v-526h-131z" />
    <glyph glyph-name="uni0457" unicode="&#x457;" horiz-adv-x="276" 
d="M209 645q-26 0 -45 19t-19 46t19 45.5t45 18.5q28 0 46.5 -18.5t18.5 -45.5t-18.5 -46t-46.5 -19zM67 645q-27 0 -46 19t-19 46t19 45.5t46 18.5t45.5 -18.5t18.5 -45.5t-18.5 -46t-45.5 -19zM72 0v526h131v-526h-131z" />
    <glyph glyph-name="uni0458" unicode="&#x458;" horiz-adv-x="275" 
d="M137 616q-35 0 -60 25t-25 60t25 60t60 25t60 -25t25 -60t-25 -60t-60 -25zM45 -226q-19 0 -34.5 1.5t-34.5 5.5v126q11 -5 22.5 -9t26.5 -4q45 0 45 56v576h131v-576q0 -63 -21 -102t-56 -56.5t-79 -17.5z" />
    <glyph glyph-name="uni0459" unicode="&#x459;" horiz-adv-x="846" 
d="M82 -8q-27 0 -54 7v120q18 -7 33 -7q28 0 40.5 22.5t16 62t3.5 90.5v239h403v-166h104q86 0 136 -48.5t50 -131.5t-50 -131.5t-136 -48.5h-235v414h-148v-141q0 -134 -40 -207.5t-123 -73.5zM524 105h89q33 0 52.5 20.5t19.5 54.5q0 35 -19.5 56t-52.5 21h-89v-152z" />
    <glyph glyph-name="uni045A" unicode="&#x45a;" horiz-adv-x="852" 
d="M73 0v526h131v-185h195v185h131v-185h107q53 0 94.5 -20.5t65 -58.5t23.5 -91t-24 -91.5t-65 -59t-94 -20.5h-238v236h-195v-236h-131zM530 105h89q34 0 52.5 17t18.5 49q0 31 -18 48t-53 17h-89v-131z" />
    <glyph glyph-name="uni045B" unicode="&#x45b;" horiz-adv-x="623" 
d="M73 0v611h-67v91h67v74h131v-74h131v-91h-131v-69l-8 -86h8q20 39 63.5 62.5t94.5 23.5q95 0 144 -55t49 -150v-337h-131v316q0 51 -25.5 77.5t-72.5 26.5q-55 0 -88.5 -41t-33.5 -105v-274h-131z" />
    <glyph glyph-name="uni045C" unicode="&#x45c;" horiz-adv-x="564" 
d="M73 0v526h131v-228h8l190 228h144v-8l-202 -238l206 -272v-8h-154l-184 252h-8v-252h-131zM229 629l42 147h153l-90 -147h-105z" />
    <glyph glyph-name="uni045D" unicode="&#x45d;" horiz-adv-x="632" 
d="M73 0v526h131v-240l-8 -99h8l224 339h131v-526h-131v239l8 99h-8l-224 -338h-131zM264 629l-90 147h153l42 -147h-105z" />
    <glyph glyph-name="uni045E" unicode="&#x45e;" horiz-adv-x="595" 
d="M116 -226q-28 0 -52 5t-40 12v127q13 -7 37.5 -15.5t52.5 -8.5q32 0 53.5 16.5t43.5 63.5l19 43l-217 509h149l135 -333h8l131 333h145l-257 -605q-23 -54 -51 -86.5t-65.5 -46.5t-91.5 -14zM298 630q-70 0 -113.5 40.5t-43.5 105.5h91q0 -25 16 -46.5t50 -21.5
q33 0 49.5 21.5t16.5 46.5h90q0 -65 -43 -105.5t-113 -40.5z" />
    <glyph glyph-name="uni045F" unicode="&#x45f;" horiz-adv-x="597" 
d="M240 -152v152h-167v526h131v-414h190v414h130v-526h-166v-152h-118z" />
    <glyph glyph-name="uni0462" unicode="&#x462;" horiz-adv-x="665" 
d="M123 0v557h-112v98h112v61h135v-61h142v-98h-142v-96h100q70 0 129.5 -26t96 -77t36.5 -126t-36.5 -126.5t-96 -78.5t-129.5 -27h-235zM258 125h112q54 0 84.5 27t30.5 80t-30.5 80t-84.5 27h-112v-214z" />
    <glyph glyph-name="uni0463" unicode="&#x463;" horiz-adv-x="538" 
d="M83 0v489h-77v91h77v196h131v-196h127v-91h-127v-130h107q86 0 135.5 -48t49.5 -131t-49.5 -131.5t-135.5 -48.5h-238zM214 105h92q33 0 52 20.5t19 54.5q0 35 -19 55.5t-52 20.5h-92v-151z" />
    <glyph glyph-name="uni046A" unicode="&#x46a;" horiz-adv-x="783" 
d="M20 0v8l50 203q20 80 74.5 129t127.5 58l-193 244v74h622v-74l-190 -244q73 -9 128 -58t74 -129l50 -203v-8h-139l-44 180q-13 54 -42 83.5t-61 29.5h-19v-293h-133v293h-19q-31 0 -60 -29.5t-43 -83.5l-44 -180h-139zM388 421h8l140 197h-293z" />
    <glyph glyph-name="uni046B" unicode="&#x46b;" horiz-adv-x="683" 
d="M15 0v8l46 140q18 54 40 85.5t53.5 46.5t78.5 19l-163 150v77h543v-77l-163 -150q47 -4 78.5 -19t53.5 -46.5t40 -85.5l46 -140v-8h-131l-41 137q-12 41 -32 57.5t-46 16.5h-11v-211h-131v211h-11q-25 0 -45.5 -16.5t-32.5 -57.5l-41 -137h-131zM338 321h7l112 111h-231z
" />
    <glyph glyph-name="uni0472" unicode="&#x472;" horiz-adv-x="806" 
d="M403 -16q-106 0 -184 48.5t-121 133t-43 192.5q0 109 43 193t121 132.5t184 48.5t184 -48.5t121 -132.5t43 -193q0 -108 -43 -192.5t-121 -133t-184 -48.5zM403 604q-83 0 -138 -48.5t-70 -138.5h416q-15 90 -70.5 138.5t-137.5 48.5zM403 112q82 0 137.5 48.5
t70.5 138.5h-416q15 -90 70 -138.5t138 -48.5z" />
    <glyph glyph-name="uni0473" unicode="&#x473;" horiz-adv-x="615" 
d="M307 -16q-81 0 -140.5 35.5t-92 98.5t-32.5 145t32.5 145t92 98.5t140.5 35.5q82 0 141 -35.5t91.5 -98.5t32.5 -145t-32.5 -145t-91.5 -98.5t-141 -35.5zM307 428q-54 0 -91 -31.5t-46 -93.5h274q-9 62 -46 93.5t-91 31.5zM307 98q51 0 87 28.5t48 84.5h-270
q12 -56 48 -84.5t87 -28.5z" />
    <glyph glyph-name="uni0474" unicode="&#x474;" horiz-adv-x="676" 
d="M263 0l-247 716h145l143 -432l22 -91h8l21 91l101 316q23 70 62 97t97 27q19 0 29.5 -1.5t26.5 -3.5v-121q-9 3 -18 4.5t-24 1.5q-22 0 -36 -16.5t-22 -42.5l-178 -545h-130z" />
    <glyph glyph-name="uni0475" unicode="&#x475;" horiz-adv-x="596" 
d="M230 0l-216 526h148l130 -348h8l78 213q28 77 64 114t101 37q23 0 43 -7v-118q-5 2 -11 3t-15 1q-25 0 -40 -14.5t-27 -44.5l-142 -362h-121z" />
    <glyph glyph-name="uni048A" unicode="&#x48a;" horiz-adv-x="803" 
d="M375 814q-70 0 -113.5 40.5t-43.5 105.5h91q0 -25 16 -46.5t50 -21.5q33 0 49.5 21.5t16.5 46.5h90q0 -65 -43 -105.5t-113 -40.5zM88 0v716h135v-369l-8 -138h8l302 507h135v-588h128l-94 -280h-137l51 152h-83v360l8 138h-8l-302 -498h-135z" />
    <glyph glyph-name="uni048B" unicode="&#x48b;" horiz-adv-x="668" 
d="M316 630q-70 0 -113.5 40.5t-43.5 105.5h91q0 -25 16 -46.5t50 -21.5q33 0 49.5 21.5t16.5 46.5h90q0 -65 -43 -105.5t-113 -40.5zM73 0v526h131v-240l-8 -99h8l224 339h131v-409h99l-90 -269h-125l51 152h-66v239l8 99h-8l-224 -338h-131z" />
    <glyph glyph-name="uni048C" unicode="&#x48c;" horiz-adv-x="696" 
d="M127 0v568h-105v98h105v66h135v-66h137v-98h-137v-117h127q70 0 129.5 -25.5t96 -75t36.5 -123.5q0 -73 -36.5 -124t-96 -77t-129.5 -26h-262zM262 125h139q54 0 84.5 25.5t30.5 76.5t-30.5 76.5t-84.5 25.5h-139v-204z" />
    <glyph glyph-name="uni048D" unicode="&#x48d;" horiz-adv-x="546" 
d="M91 0v590h-85v91h85v95h131v-95h119v-91h-119v-231h107q86 0 135.5 -48t49.5 -131t-49.5 -131.5t-135.5 -48.5h-238zM222 105h92q33 0 52 20.5t19 54.5q0 35 -19 55.5t-52 20.5h-92v-151z" />
    <glyph glyph-name="uni048E" unicode="&#x48e;" horiz-adv-x="651" 
d="M88 0v716h272q76 0 133 -24.5t89.5 -76t32.5 -131.5q0 -58 -17.5 -101t-49.5 -72l58 -72l-70 -57l-69 85q-47 -15 -107 -15h-138v-252h-134zM222 380h143h1h9l-49 60l71 57l65 -80q20 25 20 67q0 53 -31 78.5t-86 25.5h-143v-208z" />
    <glyph glyph-name="uni048F" unicode="&#x48f;" horiz-adv-x="636" 
d="M73 -216v742h123v-61h8q20 31 59.5 54t97.5 23q67 0 119.5 -32t83.5 -94t31 -153q0 -75 -21.5 -130.5t-59.5 -90.5l50 -69l-65 -43l-50 70q-41 -16 -88 -16q-60 0 -99.5 23.5t-57.5 54.5h-8l8 -78v-200h-131zM330 106q20 0 39 5l-53 73l64 44l53 -74q15 19 23 46.5
t8 62.5q0 80 -38.5 118.5t-95.5 38.5t-95.5 -38.5t-38.5 -118.5q0 -79 38.5 -118t95.5 -39z" />
    <glyph glyph-name="uni0490" unicode="&#x490;" horiz-adv-x="550" 
d="M88 0v716h294v142h131v-270h-291v-588h-134z" />
    <glyph glyph-name="uni0491" unicode="&#x491;" horiz-adv-x="461" 
d="M73 0v526h234v142h118v-254h-221v-414h-131z" />
    <glyph glyph-name="uni0492" unicode="&#x492;" horiz-adv-x="555" 
d="M93 0v297h-73v106h73v313h425v-128h-291v-185h181v-106h-181v-297h-134z" />
    <glyph glyph-name="uni0493" unicode="&#x493;" horiz-adv-x="452" 
d="M64 0v217h-57v93h57v216h352v-112h-221v-104h138v-93h-138v-217h-131z" />
    <glyph glyph-name="uni0494" unicode="&#x494;" horiz-adv-x="649" 
d="M350 -140q-19 0 -34 1.5t-33 5.5v127q11 -6 24 -10t29 -4q71 0 112 46t41 122q0 68 -36 107t-94 39q-45 0 -82 -13t-55 -33v-248h-134v716h425v-128h-291v-137l-8 -75h8q27 19 67.5 30.5t96.5 11.5q62 0 116 -33t87.5 -93.5t33.5 -143.5q0 -99 -36 -162.5t-98 -94.5
t-139 -31z" />
    <glyph glyph-name="uni0495" unicode="&#x495;" horiz-adv-x="572" 
d="M307 -233q-16 0 -32 2t-30 5v128q10 -7 23.5 -10.5t24.5 -3.5q49 0 77.5 41t28.5 111q0 62 -29 95.5t-73 33.5q-21 0 -44.5 -6t-48.5 -20v-143h-131v526h352v-112h-221v-161q50 29 123 29q96 0 149.5 -64.5t53.5 -177.5q0 -84 -27 -145t-77 -94.5t-119 -33.5z" />
    <glyph glyph-name="uni0496" unicode="&#x496;" horiz-adv-x="968" 
d="M11 0v8l263 352l-242 348v8h161l217 -336h8v336h135v-336h8l217 336h161v-8l-243 -348l173 -232h92v-280h-129v152h-45l-226 319h-8v-319h-135v319h-8l-227 -319h-172z" />
    <glyph glyph-name="uni0497" unicode="&#x497;" horiz-adv-x="814" 
d="M15 0v8l184 270l-174 240v8h147l155 -228h8v228h130v-228h8l156 228h147v-8l-174 -240l109 -161h91v-269h-118v152h-46l-165 252h-8v-252h-130v252h-8l-164 -252h-148z" />
    <glyph glyph-name="uni0498" unicode="&#x498;" horiz-adv-x="667" 
d="M273 -152v143q-80 15 -139 68.5t-82 154.5l122 27q16 -61 59.5 -97.5t115.5 -36.5q36 0 67 10.5t50 33t19 58.5q0 45 -32 75t-91 30h-107v118h106q51 0 75.5 24.5t24.5 64.5q0 47 -31.5 70.5t-85.5 23.5q-59 0 -98.5 -26.5t-53.5 -72.5l-124 20q23 92 96.5 144t179.5 52
q75 0 132.5 -25t89.5 -68t32 -99q0 -49 -26.5 -90.5t-73.5 -66.5v-8q52 -20 88.5 -60t36.5 -106q0 -53 -26 -100t-75.5 -79t-119.5 -42v-140h-129z" />
    <glyph glyph-name="uni0499" unicode="&#x499;" horiz-adv-x="514" 
d="M209 -152v139q-61 9 -112 46.5t-70 115.5l115 28q11 -38 42.5 -58.5t72.5 -20.5q39 0 66 17t27 45q0 27 -15.5 42.5t-59.5 15.5h-84v94h83q38 0 52 16.5t14 44.5t-22.5 45t-61.5 17q-33 0 -63 -16.5t-47 -55.5l-109 31q18 54 51 86.5t76 47t90 14.5q60 0 107 -19
t74 -53.5t27 -80.5q0 -38 -18 -68t-50 -45v-8q40 -19 62.5 -53.5t22.5 -74.5q0 -58 -42 -97t-110 -52v-143h-118z" />
    <glyph glyph-name="uni049A" unicode="&#x49a;" horiz-adv-x="665" 
d="M88 0v716h135v-336h8l246 336h161v-8l-262 -353l183 -227h99v-280h-129v152h-41l-257 319h-8v-319h-135z" />
    <glyph glyph-name="uni049B" unicode="&#x49b;" horiz-adv-x="572" 
d="M73 0v526h131v-228h8l190 228h144v-8l-202 -238l123 -163h93v-269h-118v152h-46l-184 252h-8v-252h-131z" />
    <glyph glyph-name="uni049C" unicode="&#x49c;" horiz-adv-x="767" 
d="M88 0v716h135v-300h30v110h82v-110h22l36 62l179 238h165v-8l-273 -353l291 -347v-8h-170l-187 225l-42 63h-21v-103h-82v103h-30v-288h-135z" />
    <glyph glyph-name="uni049D" unicode="&#x49d;" horiz-adv-x="645" 
d="M73 0v526h131v-205h49v123h81v-123h11l132 205h144v-8l-171 -242l181 -268v-8h-148l-135 213h-14v-109h-81v109h-49v-213h-131z" />
    <glyph glyph-name="uni049E" unicode="&#x49e;" horiz-adv-x="700" 
d="M120 0v539h-105v98h105v79h135v-79h99v-98h-99v-159h8l246 336h161v-8l-262 -353l280 -347v-8h-168l-257 319h-8v-319h-135z" />
    <glyph glyph-name="uni049F" unicode="&#x49f;" horiz-adv-x="581" 
d="M90 0v591h-85v90h85v95h131v-95h115v-90h-115v-293h8l173 228h155v-8l-190 -242l200 -268v-8h-154l-184 252h-8v-252h-131z" />
    <glyph glyph-name="uni04A0" unicode="&#x4a0;" horiz-adv-x="798" 
d="M218 0v593h-191v123h326v-336h8l246 336h161v-8l-262 -353l280 -347v-8h-168l-257 319h-8v-319h-135z" />
    <glyph glyph-name="uni04A1" unicode="&#x4a1;" horiz-adv-x="650" 
d="M159 0v414h-129v112h260v-228h8l173 228h155v-8l-190 -242l200 -268v-8h-154l-184 252h-8v-252h-131z" />
    <glyph glyph-name="uni04A2" unicode="&#x4a2;" horiz-adv-x="778" 
d="M88 0v716h134v-286h298v286h134v-588h79v-280h-129v152h-84v302h-298v-302h-134z" />
    <glyph glyph-name="uni04A3" unicode="&#x4a3;" horiz-adv-x="659" 
d="M73 0v526h131v-202h210v202h131v-414h72v-264h-118v152h-85v212h-210v-212h-131z" />
    <glyph glyph-name="uni04A4" unicode="&#x4a4;" horiz-adv-x="930" 
d="M88 0v716h134v-286h277v286h394v-128h-260v-588h-134v302h-277v-302h-134z" />
    <glyph glyph-name="uni04A5" unicode="&#x4a5;" horiz-adv-x="750" 
d="M73 0v526h131v-202h189v202h321v-112h-190v-414h-131v212h-189v-212h-131z" />
    <glyph glyph-name="uni04A8" unicode="&#x4a8;" horiz-adv-x="854" 
d="M396 -16q-95 0 -172.5 45.5t-123 129.5t-45.5 199q0 85 21 149t53.5 109.5t70 74.5t70.5 44l64 -106q-13 -7 -37 -25.5t-48 -50.5t-41 -80t-17 -115q0 -72 23.5 -128t67 -88t102.5 -32q8 0 17.5 1t19.5 3q-41 44 -66.5 120t-25.5 181q0 49 10.5 100.5t34.5 95.5t65.5 71
t103.5 27q71 0 123 -37.5t80 -104.5t28 -154q0 -64 -15.5 -121t-39.5 -103.5t-51 -79.5q29 -4 64 -2t67 9l-8 -116q-64 -8 -119 -5t-119 22q-35 -16 -68 -24.5t-89 -8.5zM545 151q20 19 41.5 52t37 80.5t15.5 107.5q0 92 -24 142t-72 50q-22 0 -41 -16t-30.5 -54.5
t-11.5 -106.5q0 -72 19 -141t66 -114z" />
    <glyph glyph-name="uni04A9" unicode="&#x4a9;" horiz-adv-x="640" 
d="M303 -16q-76 0 -136.5 34t-95.5 96.5t-35 147.5q0 82 20.5 137.5t52 90t64.5 52.5l80 -95q-18 -14 -38.5 -36t-35 -57.5t-14.5 -91.5q0 -44 16.5 -80t46 -57t68.5 -21q5 0 6 1q-25 36 -41 83.5t-16 102.5q0 41 9.5 82t30 75.5t54 55.5t82.5 21q50 0 90.5 -24.5
t64.5 -73.5t24 -121q0 -39 -10 -78t-25.5 -73t-32.5 -58q23 -4 40 -3t39 7l-14 -102q-56 -4 -100.5 -1t-72.5 11q-24 -10 -55 -17.5t-66 -7.5zM423 133q18 22 33 63.5t15 96.5q0 59 -14.5 87.5t-36.5 28.5t-35.5 -28.5t-13.5 -90.5q0 -39 13.5 -83.5t38.5 -73.5z" />
    <glyph glyph-name="uni04AA" unicode="&#x4aa;" horiz-adv-x="750" 
d="M323 -152v141q-80 15 -140.5 64t-94 127t-33.5 178q0 114 42.5 198t118 130t173.5 46q77 0 143 -27t109.5 -80t52.5 -133l-138 -23q-14 64 -57.5 100t-109.5 36q-55 0 -100.5 -28.5t-72 -83.5t-26.5 -135q0 -79 26 -134t71 -83.5t102 -28.5q64 0 109 35t58 98l141 -15
q-20 -95 -79.5 -160t-165.5 -81v-141h-129z" />
    <glyph glyph-name="uni04AB" unicode="&#x4ab;" horiz-adv-x="573" 
d="M244 -152v141q-91 18 -146.5 90.5t-55.5 183.5q0 85 33.5 147.5t92.5 97t137 34.5q92 0 157 -45t81 -135l-128 -20q-10 39 -40 59t-73 20q-52 0 -90.5 -40.5t-38.5 -117.5t37.5 -117.5t91.5 -40.5q88 0 114 89l126 -29q-16 -66 -61 -113t-119 -62v-142h-118z" />
    <glyph glyph-name="uni04AC" unicode="&#x4ac;" horiz-adv-x="630" 
d="M332 -152v152h-84v588h-220v128h574v-128h-220v-460h81v-280h-131z" />
    <glyph glyph-name="uni04AD" unicode="&#x4ad;" horiz-adv-x="516" 
d="M278 -152v152h-85v414h-163v112h456v-112h-162v-302h72v-264h-118z" />
    <glyph glyph-name="Ustraitcy" unicode="&#x4ae;" horiz-adv-x="642" 
d="M256 0v325l-238 391h159l142 -241h8l135 241h162l-234 -391v-325h-134z" />
    <glyph glyph-name="ustraitcy" unicode="&#x4af;" horiz-adv-x="593" 
d="M230 -216v216l-216 526h148l131 -345h8l132 345h146l-218 -526v-216h-131z" />
    <glyph glyph-name="Ustraitstrokecy" unicode="&#x4b0;" horiz-adv-x="642" 
d="M256 0v263h-174v98h152l-216 355h159l142 -241h8l135 241h162l-212 -355h150v-98h-172v-263h-134z" />
    <glyph glyph-name="ustraitstrokecy" unicode="&#x4b1;" horiz-adv-x="593" 
d="M230 -216v216h-142v90h110l-42 91l-142 345h148l131 -345h8l132 345h146l-143 -345l-43 -91h109v-90h-141v-216h-131z" />
    <glyph glyph-name="uni04B2" unicode="&#x4b2;" horiz-adv-x="700" 
d="M23 0l233 374l-217 342h166l139 -234h8l139 234h168l-220 -342l155 -246h88v-280h-129v152h-47l-154 258h-8l-154 -258h-167z" />
    <glyph glyph-name="uni04B3" unicode="&#x4b3;" horiz-adv-x="547" 
d="M20 0l179 267l-179 259h154l101 -153h6l94 153h159l-181 -259l102 -150h84v-269h-118v152h-41l-101 157h-6l-100 -157h-153z" />
    <glyph glyph-name="uni04B4" unicode="&#x4b4;" horiz-adv-x="878" 
d="M711 -152v152h-499v588h-184v128h487v-128h-169v-460h281v588h134v-588h79v-280h-129z" />
    <glyph glyph-name="uni04B5" unicode="&#x4b5;" horiz-adv-x="717" 
d="M560 -152v152h-405v414h-125v112h367v-112h-111v-302h190v414h131v-414h71v-264h-118z" />
    <glyph glyph-name="uni04B6" unicode="&#x4b6;" horiz-adv-x="711" 
d="M452 0v283q-60 -23 -155 -23q-70 0 -125 27.5t-87 79t-32 122.5v227h135v-205q0 -61 38.5 -92t96.5 -31q42 0 72.5 7t56.5 20v301h135v-588h78v-280h-129v152h-84z" />
    <glyph glyph-name="uni04B7" unicode="&#x4b7;" horiz-adv-x="597" 
d="M352 0v188q-22 -11 -49.5 -18t-59.5 -7q-88 0 -140.5 56.5t-52.5 150.5v156h131v-146q0 -97 88 -97q23 0 45 6.5t38 19.5v217h131v-414h72v-264h-118v152h-85z" />
    <glyph glyph-name="uni04B8" unicode="&#x4b8;" horiz-adv-x="675" 
d="M452 0v283q-16 -7 -36.5 -11.5t-43.5 -7.5v-104h-83v100q-68 2 -121.5 29.5t-84 78.5t-30.5 121v227h135v-205q0 -52 28 -82t73 -38v110h83v-110q23 3 42.5 9t37.5 15v301h135v-716h-135z" />
    <glyph glyph-name="uni04B9" unicode="&#x4b9;" horiz-adv-x="576" 
d="M372 0v188q-21 -10 -52 -18v-103h-81v96q-87 5 -138 60.5t-51 146.5v156h131v-146q0 -77 58 -96v123h81v-124q17 3 29.5 10t22.5 16v217h131v-526h-131z" />
    <glyph glyph-name="uni04BA" unicode="&#x4ba;" horiz-adv-x="675" 
d="M223 716v-283q60 23 155 23q70 0 125 -27.5t87 -79t32 -122.5v-227h-135v205q0 61 -38.5 92t-96.5 31q-42 0 -72.5 -7t-56.5 -20v-301h-135v716h135z" />
    <glyph glyph-name="uni04BB" unicode="&#x4bb;" horiz-adv-x="623" 
d="M73 0v776h131v-234l-8 -86h8q20 39 63.5 62.5t94.5 23.5q95 0 144 -55t49 -150v-337h-131v316q0 51 -25.5 77.5t-72.5 26.5q-55 0 -88.5 -41t-33.5 -105v-274h-131z" />
    <glyph glyph-name="uni04BC" unicode="&#x4bc;" horiz-adv-x="900" 
d="M521 -16q-98 0 -174 44t-121.5 120.5t-53.5 172.5q-51 5 -98 26.5t-79 79.5l82 86q23 -42 46.5 -60t53.5 -23q15 87 61.5 155.5t117 107.5t156.5 39q71 0 132 -27t106.5 -75.5t71 -113t25.5 -138.5q0 -16 -1 -30.5t-3 -28.5h-541q9 -64 39 -110.5t75.5 -71.5t100.5 -25
q65 0 106 30t71 89l129 -48q-28 -73 -76 -116.5t-106.5 -63t-119.5 -19.5zM308 427h400q-3 55 -30 94.5t-70 61t-96 21.5t-97 -21.5t-72 -61.5t-35 -94z" />
    <glyph glyph-name="uni04BD" unicode="&#x4bd;" horiz-adv-x="690" 
d="M401 -16q-112 0 -181 67t-77 182q-47 5 -87 22.5t-66 64.5l72 73q20 -31 38.5 -47t46.5 -21q18 101 87.5 159t167.5 58q125 0 185.5 -68t60.5 -184q0 -33 -3 -57h-377q7 -66 45 -99.5t93 -33.5q46 0 74.5 22.5t41.5 54.5l114 -31q-24 -72 -81.5 -117t-153.5 -45zM403 436
q-47 0 -81 -27.5t-48 -82.5h249q-4 50 -34.5 80t-85.5 30z" />
    <glyph glyph-name="uni04BE" unicode="&#x4be;" horiz-adv-x="900" 
d="M438 -152v145q-76 17 -133 63.5t-91.5 114.5t-41.5 150q-51 5 -98 26.5t-79 79.5l82 86q23 -42 46.5 -60t53.5 -23q15 87 61.5 155.5t117 107.5t156.5 39q71 0 132 -27t106.5 -75.5t71 -113t25.5 -138.5q0 -16 -1 -30.5t-3 -28.5h-541q9 -64 39 -110.5t75.5 -71.5
t100.5 -25q65 0 106 30t71 89l129 -48q-37 -95 -107 -141t-149 -55v-139h-129zM308 427h400q-3 55 -30 94.5t-70 61t-96 21.5t-97 -21.5t-72 -61.5t-35 -94z" />
    <glyph glyph-name="uni04BF" unicode="&#x4bf;" horiz-adv-x="690" 
d="M346 -152v141q-88 15 -142 79.5t-61 164.5q-47 5 -87 22.5t-66 64.5l72 73q20 -31 38.5 -47t46.5 -21q18 101 87.5 159t167.5 58q125 0 185.5 -68t60.5 -184q0 -33 -3 -57h-377q7 -66 45 -99.5t93 -33.5q46 0 74.5 22.5t41.5 54.5l114 -31q-20 -59 -62 -100.5t-110 -55.5
v-142h-118zM403 436q-47 0 -81 -27.5t-48 -82.5h249q-4 50 -34.5 80t-85.5 30z" />
    <glyph glyph-name="uni04C0" unicode="&#x4c0;" horiz-adv-x="310" 
d="M88 0v716h134v-716h-134z" />
    <glyph glyph-name="uni04C1" unicode="&#x4c1;" horiz-adv-x="970" 
d="M11 0v8l263 352l-242 348v8h161l217 -336h8v336h135v-336h8l217 336h161v-8l-243 -348l263 -352v-8h-172l-226 319h-8v-319h-135v319h-8l-227 -319h-172zM484 814q-70 0 -113.5 40.5t-43.5 105.5h91q0 -25 16 -46.5t50 -21.5q33 0 49.5 21.5t16.5 46.5h90
q0 -65 -43 -105.5t-113 -40.5z" />
    <glyph glyph-name="uni04C2" unicode="&#x4c2;" horiz-adv-x="800" 
d="M15 0v8l184 270l-174 240v8h147l155 -228h8v228h130v-228h8l156 228h147v-8l-174 -240l183 -270v-8h-147l-165 252h-8v-252h-130v252h-8l-164 -252h-148zM400 630q-70 0 -113.5 40.5t-43.5 105.5h91q0 -25 16 -46.5t50 -21.5q33 0 49.5 21.5t16.5 46.5h90
q0 -65 -43 -105.5t-113 -40.5z" />
    <glyph glyph-name="uni04C3" unicode="&#x4c3;" horiz-adv-x="673" 
d="M350 -168l-30 127q78 5 123 48t45 124q0 54 -21 85t-56 46t-76 19t-80 4h-38v-285h-135v716h135v-336h8l246 336h161v-8l-247 -333q45 -7 87.5 -20t76.5 -39t54 -70.5t20 -113.5q0 -90 -34.5 -152t-96 -98t-142.5 -50z" />
    <glyph glyph-name="uni04C4" unicode="&#x4c4;" horiz-adv-x="545" 
d="M301 -168l-36 109q50 8 82.5 44.5t32.5 99.5q0 46 -22 70.5t-52.5 34.5t-56.5 10h-54v-200h-131v526h131v-228h8l184 228h144v-8l-194 -230q74 -9 124 -59t50 -144q0 -68 -27 -120.5t-74 -86.5t-109 -46z" />
    <glyph glyph-name="uni04C5" unicode="&#x4c5;" horiz-adv-x="768" 
d="M522 -152l51 152h-79v588h-227v-253q0 -70 -8 -132.5t-29 -109.5t-59.5 -74t-99.5 -27q-10 0 -23.5 1.5t-21.5 3.5v127q8 -3 16.5 -4t16.5 -1q52 0 65.5 68t13.5 213v316h490v-588h125l-94 -280h-137z" />
    <glyph glyph-name="uni04C6" unicode="&#x4c6;" horiz-adv-x="638" 
d="M82 -8q-27 0 -54 7v120q18 -7 33 -7q28 0 40.5 22.5t16 62t3.5 90.5v239h408v-414h99l-90 -264h-125l51 152h-66v414h-153v-141q0 -134 -40 -207.5t-123 -73.5z" />
    <glyph glyph-name="uni04C7" unicode="&#x4c7;" horiz-adv-x="738" 
d="M449 -168q-43 0 -83.5 18.5t-64.5 52.5l83 87q15 -19 32.5 -24.5t27.5 -5.5q35 0 53.5 30.5t18.5 83.5v228h-294v-302h-134v716h134v-286h294v286h134v-641q0 -80 -28 -134t-74 -81.5t-99 -27.5z" />
    <glyph glyph-name="uni04C8" unicode="&#x4c8;" horiz-adv-x="618" 
d="M384 -226q-19 0 -34.5 1.5t-33.5 5.5v127q11 -6 24.5 -10t28.5 -4q45 0 45 59v259h-210v-212h-131v526h131v-202h210v202h131v-576q0 -64 -22 -102.5t-58.5 -56t-80.5 -17.5z" />
    <glyph glyph-name="uni04C9" unicode="&#x4c9;" horiz-adv-x="793" 
d="M547 -152l51 152h-78v302h-298v-302h-134v716h134v-286h298v286h134v-588h124l-94 -280h-137z" />
    <glyph glyph-name="uni04CA" unicode="&#x4ca;" horiz-adv-x="654" 
d="M429 -152l51 152h-66v212h-210v-212h-131v526h131v-202h210v202h131v-414h99l-90 -264h-125z" />
    <glyph glyph-name="uni04CB" unicode="&#x4cb;" horiz-adv-x="675" 
d="M372 -152v280h80v155q-60 -23 -155 -23q-69 0 -124.5 27.5t-87.5 79t-32 122.5v227h135v-205q0 -61 38.5 -92t96.5 -31q42 0 72.5 7t56.5 20v301h135v-716h-86v-152h-129z" />
    <glyph glyph-name="uni04CC" unicode="&#x4cc;" horiz-adv-x="556" 
d="M280 -152v240h72v100q-22 -11 -49.5 -18t-59.5 -7q-88 0 -140.5 56.5t-52.5 150.5v156h131v-146q0 -97 88 -97q23 0 45 6.5t38 19.5v217h131v-526h-85v-152h-118z" />
    <glyph glyph-name="uni04CD" unicode="&#x4cd;" horiz-adv-x="947" 
d="M701 -152l51 152h-79v351l8 117h-8l-174 -468h-104l-175 468h-8l8 -117v-351h-132v716h173l182 -502h8l181 502h174v-588h126l-94 -280h-137z" />
    <glyph glyph-name="uni04CE" unicode="&#x4ce;" horiz-adv-x="776" 
d="M551 -152l51 152h-61v231l8 99h-8l-129 -264h-85l-130 264h-8l8 -99v-231h-124v526h151l142 -298h7l144 298h148v-414h101l-90 -264h-125z" />
    <glyph glyph-name="uni04CF" unicode="&#x4cf;" horiz-adv-x="279" 
d="M74 0v776h131v-776h-131z" />
    <glyph glyph-name="uni04D0" unicode="&#x4d0;" horiz-adv-x="704" 
d="M14 0l260 716h155l261 -716h-149l-58 171h-262l-58 -171h-149zM323 474l-60 -179h178l-60 179l-25 86h-8zM351 814q-70 0 -113.5 40.5t-43.5 105.5h91q0 -25 16 -46.5t50 -21.5q33 0 49.5 21.5t16.5 46.5h90q0 -65 -43 -105.5t-113 -40.5z" />
    <glyph glyph-name="uni04D1" unicode="&#x4d1;" horiz-adv-x="594" 
d="M234 -16q-84 0 -133 46t-49 123q0 53 27 90.5t73.5 57.5t103.5 20q37 0 71.5 -4.5t70.5 -12.5v42q0 41 -29 66t-82 25q-39 0 -68 -19.5t-40 -54.5l-114 24q12 53 45.5 87t80 51t98.5 17q119 0 178 -54t59 -158v-330h-128v52h-8q-23 -28 -63 -48t-93 -20zM267 86
q62 0 96.5 36.5t34.5 84.5q-28 9 -60 14.5t-63 5.5q-49 0 -71 -20.5t-22 -52.5q0 -30 24 -49t61 -19zM297 630q-70 0 -113.5 40.5t-43.5 105.5h91q0 -25 16 -46.5t50 -21.5q33 0 49.5 21.5t16.5 46.5h90q0 -65 -43 -105.5t-113 -40.5z" />
    <glyph glyph-name="uni04D2" unicode="&#x4d2;" horiz-adv-x="704" 
d="M14 0l260 716h155l261 -716h-149l-58 171h-262l-58 -171h-149zM323 474l-60 -179h178l-60 179l-25 86h-8zM453 817q-29 0 -50 21t-21 51t21 50.5t50 20.5q31 0 51.5 -20.5t20.5 -50.5t-20.5 -51t-51.5 -21zM251 817q-30 0 -51 21t-21 51t21 50.5t51 20.5t50.5 -20.5
t20.5 -50.5t-20.5 -51t-50.5 -21z" />
    <glyph glyph-name="uni04D3" unicode="&#x4d3;" horiz-adv-x="594" 
d="M234 -16q-84 0 -133 46t-49 123q0 53 27 90.5t73.5 57.5t103.5 20q37 0 71.5 -4.5t70.5 -12.5v42q0 41 -29 66t-82 25q-39 0 -68 -19.5t-40 -54.5l-114 24q12 53 45.5 87t80 51t98.5 17q119 0 178 -54t59 -158v-330h-128v52h-8q-23 -28 -63 -48t-93 -20zM267 86
q62 0 96.5 36.5t34.5 84.5q-28 9 -60 14.5t-63 5.5q-49 0 -71 -20.5t-22 -52.5q0 -30 24 -49t61 -19zM398 633q-29 0 -50 21t-21 51t21 50.5t50 20.5q31 0 51.5 -20.5t20.5 -50.5t-20.5 -51t-51.5 -21zM196 633q-30 0 -51 21t-21 51t21 50.5t51 20.5t50.5 -20.5t20.5 -50.5
t-20.5 -51t-50.5 -21z" />
    <glyph glyph-name="uni04D4" unicode="&#x4d4;" horiz-adv-x="1031" 
d="M7 0l418 716h544v-128h-334v-152h303v-128h-303v-180h334v-128h-468v173h-238l-98 -173h-158zM334 301h167v287h-10l-33 -70z" />
    <glyph glyph-name="uni04D5" unicode="&#x4d5;" horiz-adv-x="949" 
d="M234 -16q-84 0 -133 46t-49 123q0 53 27 90.5t73.5 57.5t103.5 20q37 0 71.5 -4.5t70.5 -12.5v42q0 41 -29 66t-82 25q-39 0 -68 -19.5t-40 -54.5l-114 24q12 53 45.5 87t80 51t98.5 17q132 0 192 -77q34 37 80 57t100 20q125 0 185.5 -68t60.5 -184q0 -33 -3 -57h-377
q7 -66 45 -99.5t93 -33.5q46 0 74.5 22.5t41.5 54.5l114 -31q-24 -72 -81.5 -117t-153.5 -45q-71 0 -125 30t-87 84q-36 -52 -89.5 -83t-124.5 -31zM533 326h249q-4 50 -34.5 80t-85.5 30q-46 0 -80.5 -27.5t-48.5 -82.5zM267 86q62 0 96.5 36.5t34.5 84.5q-28 9 -60 14.5
t-63 5.5q-49 0 -71 -20.5t-22 -52.5q0 -30 24 -49t61 -19z" />
    <glyph glyph-name="uni04D6" unicode="&#x4d6;" horiz-adv-x="618" 
d="M88 0v716h468v-128h-334v-152h303v-128h-303v-180h334v-128h-468zM321 814q-70 0 -113.5 40.5t-43.5 105.5h91q0 -25 16 -46.5t50 -21.5q33 0 49.5 21.5t16.5 46.5h90q0 -65 -43 -105.5t-113 -40.5z" />
    <glyph glyph-name="uni04D7" unicode="&#x4d7;" horiz-adv-x="590" 
d="M301 -16q-79 0 -137 34t-90 97t-32 148q0 86 33.5 148.5t92.5 96.5t134 34q125 0 185.5 -68t60.5 -184q0 -33 -3 -57h-377q7 -66 45 -99.5t93 -33.5q46 0 74.5 22.5t41.5 54.5l114 -31q-24 -72 -81.5 -117t-153.5 -45zM303 436q-47 0 -81 -27.5t-48 -82.5h249
q-4 50 -34.5 80t-85.5 30zM295 630q-70 0 -113.5 40.5t-43.5 105.5h91q0 -25 16 -46.5t50 -21.5q33 0 49.5 21.5t16.5 46.5h90q0 -65 -43 -105.5t-113 -40.5z" />
    <glyph glyph-name="uni04D8" unicode="&#x4d8;" horiz-adv-x="784" 
d="M388 -16q-71 0 -132 27t-106.5 75.5t-71 113t-25.5 138.5q0 16 1 30.5t3 28.5h541q-8 65 -38.5 111t-76 71t-100.5 25q-64 0 -105.5 -30t-71.5 -89l-129 48q29 73 76.5 116.5t106.5 63t119 19.5q78 0 142.5 -28.5t111 -79.5t71.5 -119t25 -147q0 -78 -25.5 -146
t-71.5 -119.5t-108 -80t-136 -28.5zM388 112q54 0 97.5 22t72 61.5t34.5 93.5h-400q3 -55 30 -94.5t70.5 -61t95.5 -21.5z" />
    <glyph glyph-name="uni04D9" unicode="&#x4d9;" horiz-adv-x="590" 
d="M288 -16q-124 0 -185 68t-61 184q0 33 3 57h377q-7 66 -44.5 99.5t-93.5 33.5q-42 0 -70.5 -22.5t-45.5 -54.5l-114 31q26 72 82.5 117t152.5 45q79 0 137 -34t90 -96.5t32 -148.5q0 -85 -33.5 -148t-92.5 -97t-134 -34zM287 90q47 0 81.5 27.5t47.5 82.5h-249
q4 -50 34.5 -80t85.5 -30z" />
    <glyph glyph-name="uni04DA" unicode="&#x4da;" horiz-adv-x="784" 
d="M388 -16q-71 0 -132 27t-106.5 75.5t-71 113t-25.5 138.5q0 16 1 30.5t3 28.5h541q-8 65 -38.5 111t-76 71t-100.5 25q-64 0 -105.5 -30t-71.5 -89l-129 48q29 73 76.5 116.5t106.5 63t119 19.5q78 0 142.5 -28.5t111 -79.5t71.5 -119t25 -147q0 -78 -25.5 -146
t-71.5 -119.5t-108 -80t-136 -28.5zM388 112q54 0 97.5 22t72 61.5t34.5 93.5h-400q3 -55 30 -94.5t70.5 -61t95.5 -21.5zM491 817q-29 0 -50 21t-21 51t21 50.5t50 20.5q31 0 51.5 -20.5t20.5 -50.5t-20.5 -51t-51.5 -21zM289 817q-30 0 -51 21t-21 51t21 50.5t51 20.5
t50.5 -20.5t20.5 -50.5t-20.5 -51t-50.5 -21z" />
    <glyph glyph-name="uni04DB" unicode="&#x4db;" horiz-adv-x="590" 
d="M288 -16q-124 0 -185 68t-61 184q0 33 3 57h377q-7 66 -44.5 99.5t-93.5 33.5q-42 0 -70.5 -22.5t-45.5 -54.5l-114 31q26 72 82.5 117t152.5 45q79 0 137 -34t90 -96.5t32 -148.5q0 -85 -33.5 -148t-92.5 -97t-134 -34zM287 90q47 0 81.5 27.5t47.5 82.5h-249
q4 -50 34.5 -80t85.5 -30zM396 633q-29 0 -50 21t-21 51t21 50.5t50 20.5q31 0 51.5 -20.5t20.5 -50.5t-20.5 -51t-51.5 -21zM194 633q-30 0 -51 21t-21 51t21 50.5t51 20.5t50.5 -20.5t20.5 -50.5t-20.5 -51t-50.5 -21z" />
    <glyph glyph-name="uni04DC" unicode="&#x4dc;" horiz-adv-x="970" 
d="M11 0v8l263 352l-242 348v8h161l217 -336h8v336h135v-336h8l217 336h161v-8l-243 -348l263 -352v-8h-172l-226 319h-8v-319h-135v319h-8l-227 -319h-172zM586 817q-29 0 -50 21t-21 51t21 50.5t50 20.5q31 0 51.5 -20.5t20.5 -50.5t-20.5 -51t-51.5 -21zM384 817
q-30 0 -51 21t-21 51t21 50.5t51 20.5t50.5 -20.5t20.5 -50.5t-20.5 -51t-50.5 -21z" />
    <glyph glyph-name="uni04DD" unicode="&#x4dd;" horiz-adv-x="800" 
d="M15 0v8l184 270l-174 240v8h147l155 -228h8v228h130v-228h8l156 228h147v-8l-174 -240l183 -270v-8h-147l-165 252h-8v-252h-130v252h-8l-164 -252h-148zM501 633q-29 0 -50 21t-21 51t21 50.5t50 20.5q31 0 51.5 -20.5t20.5 -50.5t-20.5 -51t-51.5 -21zM299 633
q-30 0 -51 21t-21 51t21 50.5t51 20.5t50.5 -20.5t20.5 -50.5t-20.5 -51t-50.5 -21z" />
    <glyph glyph-name="uni04DE" unicode="&#x4de;" horiz-adv-x="667" 
d="M347 -16q-71 0 -131 23.5t-102.5 74t-61.5 132.5l122 27q16 -61 59.5 -97.5t115.5 -36.5q36 0 67 10.5t50 33t19 58.5q0 45 -32 75t-91 30h-107v118h106q51 0 75.5 24.5t24.5 64.5q0 47 -31.5 70.5t-85.5 23.5q-59 0 -98.5 -26.5t-53.5 -72.5l-124 20q23 92 96.5 144
t179.5 52q75 0 132.5 -25t89.5 -68t32 -99q0 -49 -26.5 -90.5t-73.5 -66.5v-8q52 -20 88.5 -60t36.5 -106q0 -59 -32.5 -110.5t-94 -83t-149.5 -31.5zM445 817q-29 0 -50 21t-21 51t21 50.5t50 20.5q31 0 51.5 -20.5t20.5 -50.5t-20.5 -51t-51.5 -21zM243 817q-30 0 -51 21
t-21 51t21 50.5t51 20.5t50.5 -20.5t20.5 -50.5t-20.5 -51t-50.5 -21z" />
    <glyph glyph-name="uni04DF" unicode="&#x4df;" horiz-adv-x="514" 
d="M257 -16q-49 0 -96 15t-82.5 51.5t-51.5 98.5l115 28q11 -38 42.5 -58.5t72.5 -20.5q39 0 66 17t27 45q0 27 -15.5 42.5t-59.5 15.5h-84v94h83q38 0 52 16.5t14 44.5t-22.5 45t-61.5 17q-33 0 -63 -16.5t-47 -55.5l-109 31q18 54 51 86.5t76 47t90 14.5q60 0 107 -19
t74 -53.5t27 -80.5q0 -38 -18 -68t-50 -45v-8q40 -19 62.5 -53.5t22.5 -74.5q0 -48 -29 -83t-79 -54t-114 -19zM357 633q-29 0 -50 21t-21 51t21 50.5t50 20.5q31 0 51.5 -20.5t20.5 -50.5t-20.5 -51t-51.5 -21zM155 633q-30 0 -51 21t-21 51t21 50.5t51 20.5t50.5 -20.5
t20.5 -50.5t-20.5 -51t-50.5 -21z" />
    <glyph glyph-name="uni04E0" unicode="&#x4e0;" horiz-adv-x="623" 
d="M313 -16q-117 0 -189.5 62t-95.5 168l117 27q12 -61 57 -97.5t109 -36.5q56 0 95.5 28t39.5 79q0 44 -33 72t-90 28h-107v113l166 161h-295v128h466v-124l-183 -171q65 -6 113 -34.5t74.5 -74t26.5 -103.5q0 -69 -35.5 -119.5t-96.5 -78t-139 -27.5z" />
    <glyph glyph-name="uni04E1" unicode="&#x4e1;" horiz-adv-x="529" 
d="M252 -232q-60 0 -113 16.5t-90.5 54t-53.5 99.5l131 27q13 -43 47.5 -62t78.5 -19q59 0 85.5 31.5t26.5 84.5q0 50 -28 84t-96 34h-89v93l174 204h-278v111h426v-106l-186 -208q92 -7 150 -62t58 -150q0 -62 -28 -115t-82 -85t-133 -32z" />
    <glyph glyph-name="uni04E2" unicode="&#x4e2;" horiz-adv-x="748" 
d="M88 0v716h135v-369l-8 -138h8l302 507h135v-716h-135v360l8 138h-8l-302 -498h-135zM228 841v100h296v-100h-296z" />
    <glyph glyph-name="uni04E3" unicode="&#x4e3;" horiz-adv-x="632" 
d="M73 0v526h131v-240l-8 -99h8l224 339h131v-526h-131v239l8 99h-8l-224 -338h-131zM168 657v100h296v-100h-296z" />
    <glyph glyph-name="uni04E4" unicode="&#x4e4;" horiz-adv-x="748" 
d="M88 0v716h135v-369l-8 -138h8l302 507h135v-716h-135v360l8 138h-8l-302 -498h-135zM477 817q-29 0 -50 21t-21 51t21 50.5t50 20.5q31 0 51.5 -20.5t20.5 -50.5t-20.5 -51t-51.5 -21zM275 817q-30 0 -51 21t-21 51t21 50.5t51 20.5t50.5 -20.5t20.5 -50.5t-20.5 -51
t-50.5 -21z" />
    <glyph glyph-name="uni04E5" unicode="&#x4e5;" horiz-adv-x="632" 
d="M73 0v526h131v-240l-8 -99h8l224 339h131v-526h-131v239l8 99h-8l-224 -338h-131zM417 633q-29 0 -50 21t-21 51t21 50.5t50 20.5q31 0 51.5 -20.5t20.5 -50.5t-20.5 -51t-51.5 -21zM215 633q-30 0 -51 21t-21 51t21 50.5t51 20.5t50.5 -20.5t20.5 -50.5t-20.5 -51
t-50.5 -21z" />
    <glyph glyph-name="uni04E6" unicode="&#x4e6;" horiz-adv-x="806" 
d="M403 -16q-106 0 -184 48.5t-121 133t-43 192.5q0 109 43 193t121 132.5t184 48.5t184 -48.5t121 -132.5t43 -193q0 -108 -43 -192.5t-121 -133t-184 -48.5zM403 112q95 0 153.5 64t58.5 182t-58.5 182t-153.5 64t-153.5 -64t-58.5 -182t58.5 -182t153.5 -64zM504 817
q-29 0 -50 21t-21 51t21 50.5t50 20.5q31 0 51.5 -20.5t20.5 -50.5t-20.5 -51t-51.5 -21zM302 817q-30 0 -51 21t-21 51t21 50.5t51 20.5t50.5 -20.5t20.5 -50.5t-20.5 -51t-50.5 -21z" />
    <glyph glyph-name="uni04E7" unicode="&#x4e7;" horiz-adv-x="614" 
d="M307 -16q-81 0 -140.5 35.5t-92 98.5t-32.5 145t32.5 145t92 98.5t140.5 35.5q82 0 141 -35.5t91.5 -98.5t32.5 -145t-32.5 -145t-91.5 -98.5t-141 -35.5zM307 106q59 0 96.5 40t37.5 117t-37.5 117t-96.5 40t-96.5 -40t-37.5 -117t37.5 -117t96.5 -40zM408 633
q-29 0 -50 21t-21 51t21 50.5t50 20.5q31 0 51.5 -20.5t20.5 -50.5t-20.5 -51t-51.5 -21zM206 633q-30 0 -51 21t-21 51t21 50.5t51 20.5t50.5 -20.5t20.5 -50.5t-20.5 -51t-50.5 -21z" />
    <glyph glyph-name="uni04E8" unicode="&#x4e8;" horiz-adv-x="806" 
d="M403 -16q-106 0 -184 48.5t-121 133t-43 192.5q0 109 43 193t121 132.5t184 48.5t184 -48.5t121 -132.5t43 -193q0 -108 -43 -192.5t-121 -133t-184 -48.5zM403 604q-83 0 -138 -48.5t-70 -138.5h416q-15 90 -70.5 138.5t-137.5 48.5zM403 112q82 0 137.5 48.5
t70.5 138.5h-416q15 -90 70 -138.5t138 -48.5z" />
    <glyph glyph-name="uni04E9" unicode="&#x4e9;" horiz-adv-x="615" 
d="M307 -16q-81 0 -140.5 35.5t-92 98.5t-32.5 145t32.5 145t92 98.5t140.5 35.5q82 0 141 -35.5t91.5 -98.5t32.5 -145t-32.5 -145t-91.5 -98.5t-141 -35.5zM307 428q-54 0 -91 -31.5t-46 -93.5h274q-9 62 -46 93.5t-91 31.5zM307 98q51 0 87 28.5t48 84.5h-270
q12 -56 48 -84.5t87 -28.5z" />
    <glyph glyph-name="uni04EA" unicode="&#x4ea;" horiz-adv-x="806" 
d="M403 -16q-106 0 -184 48.5t-121 133t-43 192.5q0 109 43 193t121 132.5t184 48.5t184 -48.5t121 -132.5t43 -193q0 -108 -43 -192.5t-121 -133t-184 -48.5zM403 604q-83 0 -138 -48.5t-70 -138.5h416q-15 90 -70.5 138.5t-137.5 48.5zM403 112q82 0 137.5 48.5
t70.5 138.5h-416q15 -90 70 -138.5t138 -48.5zM504 817q-29 0 -50 21t-21 51t21 50.5t50 20.5q31 0 51.5 -20.5t20.5 -50.5t-20.5 -51t-51.5 -21zM302 817q-30 0 -51 21t-21 51t21 50.5t51 20.5t50.5 -20.5t20.5 -50.5t-20.5 -51t-50.5 -21z" />
    <glyph glyph-name="uni04EB" unicode="&#x4eb;" horiz-adv-x="615" 
d="M307 -16q-81 0 -140.5 35.5t-92 98.5t-32.5 145t32.5 145t92 98.5t140.5 35.5q82 0 141 -35.5t91.5 -98.5t32.5 -145t-32.5 -145t-91.5 -98.5t-141 -35.5zM307 428q-54 0 -91 -31.5t-46 -93.5h274q-9 62 -46 93.5t-91 31.5zM307 98q51 0 87 28.5t48 84.5h-270
q12 -56 48 -84.5t87 -28.5zM409 633q-29 0 -50 21t-21 51t21 50.5t50 20.5q31 0 51.5 -20.5t20.5 -50.5t-20.5 -51t-51.5 -21zM207 633q-30 0 -51 21t-21 51t21 50.5t51 20.5t50.5 -20.5t20.5 -50.5t-20.5 -51t-50.5 -21z" />
    <glyph glyph-name="uni04EC" unicode="&#x4ec;" horiz-adv-x="751" 
d="M365 -16q-92 0 -155.5 29t-101.5 81t-54 119l141 15q14 -55 58.5 -85.5t108.5 -30.5q75 0 129 48t68 139h-315v118h315q-15 92 -70 140t-127 48q-65 0 -108.5 -30t-57.5 -83l-131 23q9 72 51 120.5t106.5 72.5t139.5 24q98 0 173.5 -46t118 -130t42.5 -198
q0 -113 -42 -197t-116.5 -130.5t-172.5 -46.5zM473 817q-29 0 -50 21t-21 51t21 50.5t50 20.5q31 0 51.5 -20.5t20.5 -50.5t-20.5 -51t-51.5 -21zM271 817q-30 0 -51 21t-21 51t21 50.5t51 20.5t50.5 -20.5t20.5 -50.5t-20.5 -51t-50.5 -21z" />
    <glyph glyph-name="uni04ED" unicode="&#x4ed;" horiz-adv-x="587" 
d="M280 -16q-94 0 -157 46t-84 124l125 20q13 -34 43 -54t76 -20q55 0 88 32t46 86h-206v94h204q-10 52 -45 83t-86 31q-50 0 -79.5 -22.5t-47.5 -60.5l-119 29q26 78 91 124t156 46q78 0 136.5 -34t91 -96.5t32.5 -148.5q0 -85 -33.5 -148t-93 -97t-138.5 -34zM383 633
q-29 0 -50 21t-21 51t21 50.5t50 20.5q31 0 51.5 -20.5t20.5 -50.5t-20.5 -51t-51.5 -21zM181 633q-30 0 -51 21t-21 51t21 50.5t51 20.5t50.5 -20.5t20.5 -50.5t-20.5 -51t-50.5 -21z" />
    <glyph glyph-name="uni04EE" unicode="&#x4ee;" horiz-adv-x="648" 
d="M197 -16q-28 0 -47 3.5t-36 10.5v120q43 -13 73 -13q23 0 45 13t32 38l16 41l-265 519h154l176 -359h6l141 359h146l-249 -599q-28 -68 -76.5 -100.5t-115.5 -32.5zM179 841v100h296v-100h-296z" />
    <glyph glyph-name="uni04EF" unicode="&#x4ef;" horiz-adv-x="595" 
d="M116 -226q-28 0 -52 5t-40 12v127q13 -7 37.5 -15.5t52.5 -8.5q32 0 53.5 16.5t43.5 63.5l19 43l-217 509h149l135 -333h8l131 333h145l-257 -605q-23 -54 -51 -86.5t-65.5 -46.5t-91.5 -14zM150 657v100h296v-100h-296z" />
    <glyph glyph-name="uni04F0" unicode="&#x4f0;" horiz-adv-x="648" 
d="M197 -16q-28 0 -47 3.5t-36 10.5v120q43 -13 73 -13q23 0 45 13t32 38l16 41l-265 519h154l176 -359h6l141 359h146l-249 -599q-28 -68 -76.5 -100.5t-115.5 -32.5zM428 817q-29 0 -50 21t-21 51t21 50.5t50 20.5q31 0 51.5 -20.5t20.5 -50.5t-20.5 -51t-51.5 -21z
M226 817q-30 0 -51 21t-21 51t21 50.5t51 20.5t50.5 -20.5t20.5 -50.5t-20.5 -51t-50.5 -21z" />
    <glyph glyph-name="uni04F1" unicode="&#x4f1;" horiz-adv-x="595" 
d="M116 -226q-28 0 -52 5t-40 12v127q13 -7 37.5 -15.5t52.5 -8.5q32 0 53.5 16.5t43.5 63.5l19 43l-217 509h149l135 -333h8l131 333h145l-257 -605q-23 -54 -51 -86.5t-65.5 -46.5t-91.5 -14zM399 633q-29 0 -50 21t-21 51t21 50.5t50 20.5q31 0 51.5 -20.5t20.5 -50.5
t-20.5 -51t-51.5 -21zM197 633q-30 0 -51 21t-21 51t21 50.5t51 20.5t50.5 -20.5t20.5 -50.5t-20.5 -51t-50.5 -21z" />
    <glyph glyph-name="uni04F2" unicode="&#x4f2;" horiz-adv-x="648" 
d="M197 -16q-28 0 -47 3.5t-36 10.5v120q43 -13 73 -13q23 0 45 13t32 38l16 41l-265 519h154l176 -359h6l141 359h146l-249 -599q-28 -68 -76.5 -100.5t-115.5 -32.5zM176 813l42 147h153l-90 -147h-105zM374 813l42 147h153l-90 -147h-105z" />
    <glyph glyph-name="uni04F3" unicode="&#x4f3;" horiz-adv-x="595" 
d="M116 -226q-28 0 -52 5t-40 12v127q13 -7 37.5 -15.5t52.5 -8.5q32 0 53.5 16.5t43.5 63.5l19 43l-217 509h149l135 -333h8l131 333h145l-257 -605q-23 -54 -51 -86.5t-65.5 -46.5t-91.5 -14zM147 629l42 147h153l-90 -147h-105zM345 629l42 147h153l-90 -147h-105z" />
    <glyph glyph-name="uni04F4" unicode="&#x4f4;" horiz-adv-x="675" 
d="M452 0v283q-60 -23 -155 -23q-70 0 -125 27.5t-87 79t-32 122.5v227h135v-205q0 -61 38.5 -92t96.5 -31q42 0 72.5 7t56.5 20v301h135v-716h-135zM418 817q-29 0 -50 21t-21 51t21 50.5t50 20.5q31 0 51.5 -20.5t20.5 -50.5t-20.5 -51t-51.5 -21zM216 817q-30 0 -51 21
t-21 51t21 50.5t51 20.5t50.5 -20.5t20.5 -50.5t-20.5 -51t-50.5 -21z" />
    <glyph glyph-name="uni04F5" unicode="&#x4f5;" horiz-adv-x="556" 
d="M352 0v188q-22 -11 -49.5 -18t-59.5 -7q-88 0 -140.5 56.5t-52.5 150.5v156h131v-146q0 -97 88 -97q23 0 45 6.5t38 19.5v217h131v-526h-131zM363 633q-29 0 -50 21t-21 51t21 50.5t50 20.5q31 0 51.5 -20.5t20.5 -50.5t-20.5 -51t-51.5 -21zM161 633q-30 0 -51 21
t-21 51t21 50.5t51 20.5t50.5 -20.5t20.5 -50.5t-20.5 -51t-50.5 -21z" />
    <glyph glyph-name="uni04F6" unicode="&#x4f6;" horiz-adv-x="550" 
d="M173 -152v152h-85v716h425v-128h-291v-460h80v-280h-129z" />
    <glyph glyph-name="uni04F7" unicode="&#x4f7;" horiz-adv-x="461" 
d="M158 -152v152h-85v526h352v-112h-221v-297h72v-269h-118z" />
    <glyph glyph-name="uni04F8" unicode="&#x4f8;" horiz-adv-x="896" 
d="M88 0v716h135v-255h114q70 0 128.5 -26t94 -77t35.5 -126t-35.5 -126.5t-94 -78.5t-128.5 -27h-249zM673 0v716h135v-716h-135zM223 125h126q54 0 83.5 27t29.5 80t-29.5 80t-83.5 27h-126v-214zM552 817q-29 0 -50 21t-21 51t21 50.5t50 20.5q31 0 51.5 -20.5
t20.5 -50.5t-20.5 -51t-51.5 -21zM350 817q-30 0 -51 21t-21 51t21 50.5t51 20.5t50.5 -20.5t20.5 -50.5t-20.5 -51t-50.5 -21z" />
    <glyph glyph-name="uni04F9" unicode="&#x4f9;" horiz-adv-x="760" 
d="M73 0v526h131v-166h104q86 0 136 -48.5t50 -131.5t-50 -131.5t-136 -48.5h-235zM556 0v526h131v-526h-131zM204 105h89q33 0 52.5 20.5t19.5 54.5q0 35 -19.5 56t-52.5 21h-89v-152zM481 633q-29 0 -50 21t-21 51t21 50.5t50 20.5q31 0 51.5 -20.5t20.5 -50.5t-20.5 -51
t-51.5 -21zM279 633q-30 0 -51 21t-21 51t21 50.5t51 20.5t50.5 -20.5t20.5 -50.5t-20.5 -51t-50.5 -21z" />
    <glyph glyph-name="uni04FA" unicode="&#x4fa;" horiz-adv-x="553" 
d="M118 -152l51 152h-78v297h-73v106h73v313h425v-128h-291v-185h181v-106h-181v-170h124l-94 -279h-137z" />
    <glyph glyph-name="uni04FB" unicode="&#x4fb;" horiz-adv-x="452" 
d="M64 0v217h-57v93h57v216h352v-112h-221v-104h138v-93h-138v-105h99l-90 -264h-125l51 152h-66z" />
    <glyph glyph-name="uni04FC" unicode="&#x4fc;" horiz-adv-x="733" 
d="M467 -163l-28 115q35 -7 55 5t20 35q0 8 -2.5 17t-9.5 19l-150 230h-8l-154 -258h-167l233 374l-217 342h166l139 -234h8l139 234h168l-220 -342l196 -299q33 -51 33 -100q0 -43 -24.5 -77.5t-69.5 -51.5t-107 -9z" />
    <glyph glyph-name="uni04FD" unicode="&#x4fd;" horiz-adv-x="578" 
d="M361 -164l-36 105q26 -1 43 11.5t17 32.5q0 16 -12 34l-94 138h-6l-100 -157h-153l179 267l-179 259h154l101 -153h6l94 153h159l-181 -259l127 -187q19 -27 27.5 -53.5t8.5 -51.5q0 -56 -42 -95.5t-113 -43.5z" />
    <glyph glyph-name="uni04FE" unicode="&#x4fe;" horiz-adv-x="690" 
d="M23 0l209 326h-101v96h101l-193 294h163l139 -234h8l139 234h165l-195 -294h100v-96h-101l211 -326h-165l-154 258h-8l-154 -258h-164z" />
    <glyph glyph-name="uni04FF" unicode="&#x4ff;" horiz-adv-x="536" 
d="M11 0l148 221h-74v84h79l-153 221h154l101 -153h6l94 153h159l-154 -221h78v-84h-74l150 -221h-154l-101 157h-6l-100 -157h-153z" />
    <glyph glyph-name="uni0510" unicode="&#x510;" horiz-adv-x="660" 
d="M324 -16q-87 0 -149 31t-94.5 81t-32.5 108q0 68 36.5 109t88.5 62v8q-50 25 -78.5 66.5t-28.5 90.5q0 56 32.5 99t89.5 68t132 25q107 0 180.5 -52t95.5 -144l-124 -20q-13 46 -53 72.5t-99 26.5q-54 0 -85.5 -23.5t-31.5 -70.5q0 -40 26 -64.5t81 -24.5h106v-118h-107
q-59 0 -91 -31.5t-32 -78.5q0 -34 19 -55.5t50 -31.5t67 -10q72 0 116.5 36.5t63.5 97.5l117 -27q-18 -82 -61 -132.5t-103 -74t-131 -23.5z" />
    <glyph glyph-name="uni0511" unicode="&#x511;" horiz-adv-x="529" 
d="M271 -16q-63 0 -112.5 19t-78 53.5t-28.5 81.5q0 41 22.5 76t62.5 54v8q-36 15 -57 45t-21 70q0 45 28 79t76 53t108 19q47 0 90.5 -14.5t77 -47t50.5 -86.5l-109 -31q-16 39 -47 55.5t-64 16.5q-40 0 -64 -17.5t-24 -46.5q0 -27 19 -43t62 -16h67v-94h-67q-43 0 -62 -16
t-19 -42q0 -28 25.5 -45t63.5 -17q41 0 73 20.5t43 58.5l115 -28q-15 -62 -51 -98.5t-83 -51.5t-96 -15z" />
    <glyph glyph-name="uni0512" unicode="&#x512;" horiz-adv-x="714" 
d="M423 -168q-43 0 -83.5 18.5t-65.5 52.5l84 87q15 -19 32 -24.5t28 -5.5q36 0 55 30.5t19 84.5v513h-225v-253q0 -70 -8 -132.5t-29 -109.5t-59.5 -74t-99.5 -27q-10 0 -23.5 1.5t-21.5 3.5v127q8 -3 16.5 -4t16.5 -1q52 0 65.5 68t13.5 213v316h488v-641q0 -80 -28 -134
t-74.5 -81.5t-100.5 -27.5z" />
    <glyph glyph-name="uni0513" unicode="&#x513;" horiz-adv-x="602" 
d="M82 -8q-27 0 -54 7v120q18 -7 33 -7q28 0 40.5 22.5t16 62t3.5 90.5v239h408v-576q0 -64 -22 -102.5t-58.5 -56t-80.5 -17.5q-19 0 -34.5 1.5t-33.5 5.5v127q11 -6 24.5 -10t28.5 -4q45 0 45 59v461h-153v-141q0 -134 -40 -207.5t-123 -73.5z" />
    <glyph glyph-name="uni051A" unicode="&#x51a;" horiz-adv-x="806" 
d="M403 -16q-106 0 -184 48.5t-121 133t-43 192.5q0 109 43 193t121 132.5t184 48.5t184 -48.5t121 -133t43 -192.5q0 -85 -27 -156t-77 -121l54 -81l-100 -67l-53 80q-66 -29 -145 -29zM403 112q38 0 71 11l-81 121l100 68l78 -117q21 30 32.5 71t11.5 92q0 118 -58.5 182
t-153.5 64t-153.5 -64t-58.5 -182t58.5 -182t153.5 -64z" />
    <glyph glyph-name="uni051B" unicode="&#x51b;" horiz-adv-x="635" 
d="M432 -216v200l8 78h-8q-18 -31 -58.5 -54.5t-100.5 -23.5q-65 0 -118 32t-83.5 94.5t-30.5 152.5q0 91 31 153t84 94t119 32q58 0 97.5 -23t59.5 -54h8v61h123v-742h-131zM306 106q57 0 95.5 39t38.5 118q0 80 -38.5 118.5t-95.5 38.5t-95.5 -38.5t-38.5 -118.5
q0 -79 38.5 -118t95.5 -39z" />
    <glyph glyph-name="uni051C" unicode="&#x51c;" horiz-adv-x="961" 
d="M203 0l-184 716h149l92 -400l12 -75h8l16 75l120 400h132l118 -400l16 -73h8l11 73l92 400h149l-179 -716h-144l-117 430l-15 78h-8l-16 -78l-122 -430h-138z" />
    <glyph glyph-name="uni051D" unicode="&#x51d;" horiz-adv-x="807" 
d="M166 0l-152 526h146l79 -335h7l92 335h132l93 -335h7l79 335h144l-153 -526h-141l-94 340h-7l-92 -340h-140z" />
    <glyph glyph-name="uni0524" unicode="&#x524;" horiz-adv-x="766" 
d="M88 0v716h554v-588h79v-280h-129v152h-84v588h-286v-588h-134z" />
    <glyph glyph-name="uni0525" unicode="&#x525;" horiz-adv-x="649" 
d="M73 0v526h462v-414h72v-264h-118v152h-85v414h-200v-414h-131z" />
    <glyph glyph-name="uni0526" unicode="&#x526;" horiz-adv-x="730" 
d="M571 -152v152h-84v205q0 61 -38 92t-97 31q-42 0 -72.5 -6.5t-56.5 -20.5v-301h-135v716h135v-283q60 23 155 23q70 0 125 -27.5t87 -78.5t32 -123v-99h80v-280h-131z" />
    <glyph glyph-name="uni0527" unicode="&#x527;" horiz-adv-x="669" 
d="M509 -152v152h-85v316q0 51 -25.5 77.5t-72.5 26.5q-55 0 -88.5 -41t-33.5 -105v-274h-131v776h131v-234l-8 -86h8q20 39 63.5 62.5t94.5 23.5q95 0 144 -55t49 -150v-225h72v-264h-118z" />
    <glyph glyph-name="uni0528" unicode="&#x528;" horiz-adv-x="735" 
d="M56 -173q-44 0 -83 17.5t-66 53.5l83 87q24 -30 59 -30q36 0 49 32t13 87v642h134v-286h268v286h134v-716h-134v302h-268v-228q0 -120 -51.5 -183.5t-137.5 -63.5z" />
    </font>
</defs>
</svg>
